/* XPM */
static char *result[] = {
/* columns rows colors chars-per-pixel */
"64 64 249 2 ",
"   c #111B1B",
".  c #0C1B1E",
"X  c #0B1B26",
"o  c #0C1831",
"O  c #0E242A",
"+  c #0E2324",
"@  c #102325",
"#  c #11262B",
"$  c #122A2D",
"%  c #142927",
"&  c #122C33",
"*  c #132D3C",
"=  c #142834",
"-  c #153234",
";  c #193435",
":  c #15333B",
">  c #19353C",
",  c #1A3A3D",
"<  c #1B3937",
"1  c #0F2737",
"2  c #291F0F",
"3  c #492C03",
"4  c #4B3203",
"5  c #4D3904",
"6  c #593907",
"7  c #623F0A",
"8  c #583E26",
"9  c #66410A",
"0  c #6B470B",
"q  c #7C5300",
"w  c #7A560D",
"e  c #774B01",
"r  c #594228",
"t  c #5C4439",
"y  c #614720",
"u  c #050E4A",
"i  c #0A174B",
"p  c #010955",
"a  c #01095C",
"s  c #020659",
"d  c #081758",
"f  c #161552",
"g  c #122B45",
"h  c #153443",
"j  c #193642",
"k  c #1B3B43",
"l  c #1C3C4A",
"z  c #18364A",
"x  c #0E2255",
"c  c #122857",
"v  c #1A3857",
"b  c #0F2647",
"n  c #223C4E",
"m  c #020963",
"M  c #03096B",
"N  c #060767",
"B  c #091768",
"V  c #030A74",
"C  c #020A7B",
"Z  c #060776",
"A  c #091777",
"S  c #171770",
"D  c #0E2367",
"F  c #132967",
"G  c #1A3768",
"H  c #0B2478",
"J  c #122977",
"K  c #193877",
"L  c #0D3777",
"P  c #21386F",
"I  c #1E4147",
"U  c #1E4259",
"Y  c #224549",
"T  c #234756",
"R  c #29525A",
"E  c #1D4568",
"W  c #1F4978",
"Q  c #224866",
"!  c #234979",
"~  c #285573",
"^  c #2D617F",
"/  c #5F4745",
"(  c #594758",
")  c #5F525B",
"_  c #6A5A55",
"`  c #69574D",
"'  c #766855",
"]  c #716B54",
"[  c #534972",
"{  c #695F61",
"}  c #845B00",
"|  c #835905",
" . c #8F5F11",
".. c #8A6B0B",
"X. c #8A6508",
"o. c #93640F",
"O. c #996A0F",
"+. c #8B710C",
"@. c #96730E",
"#. c #936311",
"$. c #9B6B12",
"%. c #966A12",
"&. c #907511",
"*. c #9E7C11",
"=. c #937913",
"-. c #8C6D12",
";. c #A47616",
":. c #A87B17",
">. c #A16D13",
",. c #937A34",
"<. c #A77D38",
"1. c #815E33",
"2. c #947753",
"3. c #927672",
"4. c #9E8112",
"5. c #998915",
"6. c #B78B04",
"7. c #A88513",
"8. c #A78616",
"9. c #B68C11",
"0. c #B58819",
"q. c #BB9514",
"w. c #BD9A15",
"e. c #B99515",
"r. c #B2930F",
"t. c #BEA219",
"y. c #A88329",
"u. c #AA833B",
"i. c #BC9327",
"p. c #A8922F",
"a. c #C39A19",
"s. c #C6AC17",
"d. c #C19827",
"f. c #C8B623",
"g. c #96804E",
"h. c #A38550",
"j. c #97816D",
"k. c #A7896F",
"l. c #020A83",
"z. c #02088A",
"x. c #0A1885",
"c. c #020896",
"v. c #0B1798",
"b. c #161991",
"n. c #0C2883",
"m. c #132587",
"M. c #093988",
"N. c #183688",
"B. c #122598",
"V. c #193797",
"C. c #0A3196",
"Z. c #233790",
"A. c #0309AB",
"S. c #050BA5",
"D. c #0917A7",
"F. c #0109B4",
"G. c #080BB7",
"H. c #0617B9",
"J. c #1818A2",
"K. c #1427A7",
"L. c #0827BA",
"P. c #102DB0",
"I. c #293BAC",
"U. c #4C3E98",
"Y. c #1A469A",
"T. c #154D8F",
"R. c #25508E",
"E. c #1754A4",
"W. c #164FAE",
"Q. c #2548BB",
"!. c #244CA9",
"~. c #0E73BE",
"^. c #1370B3",
"/. c #2A6EB5",
"(. c #266896",
"). c #564C90",
"_. c #5553B1",
"`. c #081AC1",
"'. c #101DC2",
"]. c #0528C8",
"[. c #0736C8",
"{. c #0636D6",
"}. c #132FCD",
"|. c #1D3ED4",
" X c #0644DD",
".X c #1650CF",
"XX c #2349C6",
"oX c #2754C8",
"OX c #254FD8",
"+X c #1071D3",
"@X c #2479C2",
"#X c #266FD1",
"$X c #0549E5",
"%X c #055CF3",
"&X c #1153EC",
"*X c #2859E7",
"=X c #2859F8",
"-X c #264DEC",
";X c #0666F8",
":X c #0578FC",
">X c #1271EB",
",X c #2E6DF3",
"<X c #5A6AD1",
"1X c #5570DC",
"2X c #927C8D",
"3X c #917DA8",
"4X c #158CBF",
"5X c #198DC9",
"6X c #298FC7",
"7X c #26B3C0",
"8X c #028BFE",
"9X c #0587FB",
"0X c #0293FF",
"qX c #0993FE",
"wX c #029AFF",
"eX c #0899FC",
"rX c #1399FE",
"tX c #0A87F1",
"yX c #2D8BF4",
"uX c #08A7FE",
"iX c #09B6FF",
"pX c #13B2FF",
"aX c #2BB1FC",
"sX c #1EA6C0",
"dX c #489FEA",
"fX c #0AC8FF",
"gX c #0AD7FF",
"hX c #14D2FF",
"jX c #33CAFF",
"kX c #14E6FF",
"lX c #19F8FF",
"zX c #0BEBFF",
"xX c #28FCFF",
"cX c #39FDFF",
"vX c #2BE7FF",
"bX c #53C0C0",
"nX c #4BFAFF",
"mX c #73FEFF",
"MX c #94859A",
"NX c #98828C",
"BX c #A78E8D",
"VX c #9386A6",
"CX c #9091AA",
"ZX c #A592A0",
"AX c #8EFFFF",
"SX c #B3FFFF",
"DX c #CFFFFF",
"FX c #F3FFFF",
"GX c None",
/* pixels */
"6 w *.5.5.8.4.5.5.5.5.5.8.5.4.4.4.4.*.4.4.4.*.*.*.4.4.4.4.4.4.4.4.4.*.4.*.4.4.*.4.*.*.*.*.*.*.*.*.*.4.4.5.5.5.5.4.4.*.*.*.O.| 9 ",
"0 8.e.r.8.8.8.r.8.r.8.r.r.8.7.7.7.7.7.8.7.7.7.7.8.8.8.7.7.7.7.7.7.7.7.7.7.7.7.7.7.7.7.:.*.7.7.7.*.7.7.7.8.8.8.8.7.7.7.*.*.:.;.w ",
"w 0.=. .w | q X.X.X.X.} X.} X.} X.} } } } } } } } } q } X.} } } } X.} | | q } q q q q q q } q q q e q q q q q q q e e e e O.9.X.",
"0 0. .&.w ` ' ' ' ' ' ' ' ' ' ] ' ' ' ' ' ' ' ] ] ] ] ] ] ] ] ] ] ] ] ] ] ] ] _ _ ] ] t ` ` _ _ _ ] _ _ _ _ ' ` _ ` ` ) 1.7.q...",
"0 8.#.:.` /./.@X@X@X/.@X/.@X@X4X6X6X4X4X6X4X5XsXsX7X7X7X7XbXbXbXbXbX7X7XsX4XsX4X4X4X^.^.^.^.~.4X4X~.~.~.~.~.~.~.^.+X~./.3.6.t.+.",
"0 :.>.:._ yXwXwXwXwXuXwXuXwXwXeXiXpXpXuXuXiXfXhXkXkXlXxXcXmXAXSXAXnXcXlXkXgXhXfXiXuXeX5XtXeXrXuXuXuXwX0XtXwXwXwX8X8X9XdXVX6.w.+.",
"0 ;.$.y.{ yXtX0X0X0XwXwX0XuXeXwXuXuXuXuXiXiXfXhXkXlXxXcXnXSXDXFXSXmXxXlXzXzXgXfXiXuXtXtXtXtX8X0X0X0X9X+XtX8X0X0X8X0X0XdXZXr.r.+.",
"0 ;.$.0.{ tX9XqXqXqXqXqXqXeXeXeXrXuXuXiXpXfXgXzXlXlXxXnXmXDXFXFXDXmXxXlXzXzXgXgXiXuXeXtXtXtX:X9X8X8XtX+X+X0X8X8X8X8X9XdXMX6.r.+.",
"0 ;.$.y.{ >X9X9X9X8X8XqXqXqXqXeXqXeXuXpXpXhXgXzXlXlXxXcXmXDXFXFXDXAXcXlXlXzXzXgXfXiXwXeXqXtX9X:X9X9X;X+X:X9X8X:X:X:X9X1XVX6.e...",
"9 ;.O.0.) *X:X:X:X9X9X:X9XqXpXrXqXqXeXuXiXiXfXzXzXzXlXxXnXSXFXFXSXmXnXxXlXlXgXgXfXuXiXaXaXaXqX:X:X:X+X+X>X:X:X:X:X:X:X,XVX6.e...",
"0 $.$.:.) .X%X%X;X:X:X:X:X9XrXrX8X9X0X0XuXuXiXfXgXzXlXxXnXAXSXSXAXnXcXxXxXkXkXhXiXpXiXjXjXaX9X:X:X%X.X+X;X%X%X%X;X,X9X1X2X6.9...",
"0 >.$.0./ }.$X{.$X$X%X%X;X;X:X:X8X:X:X9X8XwXuXiXfXfXhXkXxXmXmXmXnXcXxXlXhXhXfXiXpXuXuXrXrX:X:X>X.XE.T..X$X$X$X$X&X>X>X_.3.6.r.+.",
"9 >.O.7./ K.L.].{.].].{.$X$X%X;XtX:X%X;X:X9XqXrXuXpXpXhXvXnXnXnXvXvXhXhXpXpXrXqXqX:X;X;X;X;X%X.XL h E Y.].{.{.{. XL.]._.2X6.9...",
"9 @.O.0./ J.G.H.`.H.].[.].].].[. X$X X$X$X&X%X;X:X:XyXrXaXjXaXaXaXaXrXrXrXtX>X;X%X&X&X$X$X$X[.C.z h g H P.].`.].P.L.S.).3.9.9...",
"7 >.O.:.t J.A.A.F.F.H.{.].H.F.H.`.`.`.].].{.{.$X$X&X%X,XyXrXrX,XyX>X;X%X&X%X&X$X{.{.{.].'.`.P.J * & c n.D.G.A.L.P.P.c.U.3.0.9...",
"7 O.>.:.t J.F.F.A.F.H.`.H.F.A.F.F.F.H.G.G.`.`.`.}.{.]..X*X=X-X-X$X-X-X{.}.|.|.}.[.P.L.'.H.K.D.J x x B v.S.G.F.H.L.L.L._.2.q.9...",
"7 O.>.:./ J.G.F.F.F.F.F.F.F.F.F.F.G.F.G.G.G.G.G.`.`.G.P.}.}.}.}.}.}.}.I.K.K.K.V.K.K.D.K.D.K.J.m.D A v.A.G.A.G.G.]..X>X<X3.6.9...",
"7 O.>.:./ J.F.F.F.F.F.F.F.F.F.F.`.`.`.G.G.G.G.`.G.G.H.J.'.'.P.'.P.V.! ~ R.Z.P K m.B.v.J.B.B.m.x.D x.v.A.A.D.D.F.L.>XtXyXMX6.9...",
"7 O.O.:.t J.F.F.F.F.F.F.F.F.F.F.'.}.'.G.G.G.G.G.G.`.H.B.I.P.K.K.I.R.R.R.Y.R.Z.V.N.N.N.K W G F c F H v.S.F.A.D.D.D.P.[._.2X6.9...",
"7 O.O.:./ J.F.A.F.A.F.F.F.F.F.G.`.|.].H.G.A.S.S.G.`.K.m.b.D.G.'.E.R.R.Y.R.R.R.R.R.R.Y.V.G F F v v v L v.v.D.D.v.v.v.S.U.3.9.0.X.",
"7 >.$.:.t b.A.S.A.A.A.A.A.A.A.A.G.D.D.v.v.x.Z C v.D.J.m.J.D.D.K.R.R.B.V.R.W T.! ^ ~ N.K E K K E ! W K J K K J H n.H x.[ 2.7.9.X.",
"7 $.>.:.t b.c.c.c.c.S.S.S.S.S.c.c.z.l.S Z S N S x.D.v.x.b.D.v.N.V.B.v.N.W G F P ! J n.G F G v T Q ^ T.!.(.E.Y.m.K E L [ 2.:.9...",
"7 #.%.:.8 b.c.c.c.z.c.c.z.z.z.c.c.c.z.v.C N f d D S D S x.v.x.K m.v.c.J G J G F A x.A F A n.v v U N.!.#X#X#X/.!.R.^ ~ R.2.0.9...",
"7 #.%.:.8 S z.z.z.z.z.z.C N V l.z.z.z.z.V m N a V B B i D A A J m.x.J G F G F B C x.A B A F c c F n.P.oX#X#X#XW.R.^ R.).2.0.9...",
"9 O.O.:.t S z.z.l.z.z.C M a s M Z n.v.V N p N N B Z S B S V D c S B F v c B d d M C A V B c g c D A H M.T.T.W.E.T.W L [ 2.0.e...",
"7 #.#.;.t S l.C V A l.C m p p p B C.C.B p a a N N Z Z S A z.A J H F c c c d N B m M V M x b x d x H H D L T.M.T.T.J x.[ 2.y.9...",
"7 #.#.;.r S C a x x B A a p p a a M.H a a N N N a V N B A x.H m.m.S B m N d d N a m m d x x d p a D H L H M.T.M.H A A [ 2.0.9.X.",
"7 #.#.;.r S M u O h z x d p a a a d m a a N N N a N N B x.m.m.J A N m m N m V N m a p d x d a p s H T.E.E.T.M.H B A C [ g.i.0...",
"7 #.#.:.r B s o X & , h g d d m m m a m m N N N N a d D m.N.x.C M m N N V V V M N m a d x d m a p M E.5X5X^.n.D d m C [ h.i.9...",
"7 #.#.;.r f s o X # : h * h x B m m m m N M Z N a s p x D V V M s a N M V V V Z N N a x x B m m a m H M.T.n.B c d m Z ( h.i.9...",
"7 o. .;.y f u u o X - , : h > g x m m m N Z S N N p u i d a a s s N N M Z C Z Z M M D c B m m m m m m B A D F c d a s ( h.i.9...",
"7 #.#.;.y i s p u X + : : h > k z x D m V Z Z N a s f u u p p p s N M N Z C C C V M D c B H n.H H A B B B H F D B a s / h.i.9...",
"7 #.#.;.8 f s a p o X & : > h , k l z F S Z Z V M a p u u a p a p N M V Z C C C A B c D A V..X^.Y.n.A M B J F B B m s ( 2.d.9...",
"7 #.#.;.8 f m s s u X O : , h , j l T v F A C V M N i i d a a s m N M N B B C C L U l F H C.W.@X/.W.n.A D H A A B m N ) h.d.9...",
"7 o.o.>.8 f m m a s o o - k > > ; $ j Y Q G J A M m d i d m m m m M Z B i b x F U I I l L C.W.E.E.T.M.H D A A A A M N ( h.d.9...",
"7 o.o.;.8 f m m N a o X O : h k - % $ ; n T v J S B d i a N N a N M Z B 1 $ 1 * k I U U T.W.W.Y.E.T.M.H H l.z.x.A V M [ h.d.9...",
"7 O.o.;.r f M N m a u X # : : > & # @ # 1 - h n E G c x B m N m m M M x 1 & 1 & - I U Q R.W.^.E.W.M.K K A x.A x.x.A Z [ h.d.9...",
"7 o.#.;.8 f V M N N u X O : ; j - $ # # O $ & : z l Q T c D B B M A d 1 * : h * : I E Q W ^.5X+XE.E T Q G J J J K S z.[ k.d.9...",
"7 o.#.;.8 N V M N N u o O : > j , ; ; = $ O O $ = * j n T n z c x B c : : j > , , I z U E ~ (.R.W ~ E U l n T T v V C [ k.d.9.X.",
"7 o.o.;.8 S V V Z Z u X $ : > k k l k ; - & $ # % & = h k l z c g h : h j = # ; < : g z z U E E E E E I z j Y l c A z.).h.d.9...",
"7 o.#.;.8 S C A Z A u o % > h , , k k I < - - & $ # $ 1 & : : l T l j z h $ + < < : : h h h z U T Q T j = = # = D l.c.).k.i.9...",
"7 o.#.;.8 S A x.A x.i O = j k k Y k k k j < $ $ $ % % % $ $ & : j n T T z & $ , , : h : g z k l z v z > $ = O b A b.S.).k.i.6...",
"7 o.o.;.t S x.x.x.S i O ; , > > , k Y I , - + . $ ; = % # $ $ $ & : k Y I I I I k l h h h h * = * j j < ; # 1 S B.D.S.).k.d.9...",
"7  .#.>.8 m.b.b.x.m.i O > j k : j k j k , < < - < j = % + # O 1 & $ * : , I Y R R T I z l h $ O * > j > = O b n.J.P.D.).k.i.9...",
"7 #.#.;.8 b.B.B.m.J i # : > , j k k k j : : : - $ @ @ %     + # $ $ & $ & 1 : I U T R R Q T k j l Y , , g g J D.P.L.K._.k.d.0.X.",
"7 O.#.;./ b.B.B.B.J b # - : ; ; , , , , > , k , & @ @ % %   # & & & & & & & & & : , h k I I I T R R T k P (.oX.X}.P.L._.k.d.9.-.",
"7 #.#.:.t K.K.K.K.J 1 O - & # % - ; ; < < j k k : @     % @ - k : - & 1 & & O 1 & * g g h g h h k > < G @XdXyX;X&XXXL._.k.d.9...",
"9 #.#.:./ !.P.I.P.J 1 # - - # @ @ # $ ; ; < k , $     # O % : k h h : & 1 O $ & * h g * g g g * = $ & Y.#X,X,X,X*X.X X_.BXi.9...",
"9 O.o.$./ I.|.Q.I.m.b O : - # + # + % % % - T I %     % + $ l I U k , : = & $ & & 1 * & $ 1 = & & + h E.+X*X#XoXoX.X[.<Xk.i.r...",
"9 $. .;.` I.XXXXQ.Z.b O - : - - $ O + X @ $ > = @ @ + @   ; Y Y I I I k j : * & & & & $ O # $ $ O # & T.>X>X=X*X+XoX|.<XBXi.r.+.",
"7 $. .;./ |.|.|.XXV.x O - = - - < - $ % # & & $ + # % # # - , , < , I I I , , < - - ; - - - $ $ & - % E +X>X,XyX,X*X.X<XBXa.r.+.",
"0 $.#.$.( |.-X-XOXI.c O $ $ # % - < : - = - & $ # $ $ O % $ - $ & : - < - < ; ; - $ $ - $ $ % % $ $ $ h E.>XyXyX,X=X&X<XBXa.q.+.",
"0 ;.#.;.[ OX-X-XOXXXF O $ # + . @ $ = - ; ; ; ; - k : & : k , < - & - $ - % - $ $ $ $ $ % - - ; h , k I Y.*X=X=X=X-X*X<XZXa.q...",
"0 ;. .>.( -X-X-X-X*XL o $ 1 X .   @ @ % % $ $ ; , , , > Y Y R T Y Y I I , , < > - , , , Y Y T (.4X(.~ E T..XOXOX-X*XOX<XBXd.q.+.",
"0 ;. .$.( -X-X=X*XXXJ O O $ + . . @ X % @ # # & - ; < ; , Y Y Y R Y Y T Y R Y Y Y Y Y I Y U (.yXdXdX#XoXQ.Q.|.XXXXXX.X<XBXd.q...",
"0 ;. .%.( -X=X=X*XQ.N.1 O & + . . .     @ # # # $ & * - - < , < < < < I , Y Y T Q Q ! R.E.oX#XyXaXjXdX#XoXoXoX*X*XOXOX<XBXa.e.+.",
"0 :. .$./ ,X=X,X*XQ.R.x = # = @ X X .   @ @ # = ; * = * * h h h < h v v N.Z.Y.!.!.!.!.Q.oX#XyXyXyXdXyX,X*X=X=X=X=X,X,X1XZXa.a.O.",
"0 :.| %.( ,X,X,X,X#XQ.I.Z.Z.Z.K K G G n j > ; j n T n v P P R.R.!.!.!.Q.Q.oXoXoXQ.oXOX*X,X,XdXaXdX,X6X,X,X=X,X=X,X,X,X1XZXs.a...",
"0 :.| $.1.3XCXVXCXZX2X3.3.j.j.h.j.g.g.<.<.,.y.,.2.u.2.,.2.h.j.3.3.NXNXNX2X2X2X2X2X2X2X3XZXVXCXCXVXVXZX3X3X3X3X3XVXVX3XMXk.a.w.+.",
"0 :.o.:.0.u.u.p.h.u.u.y.y.y.y.y.y.y.y.8.:.:.7.8.8.8.8.y.8.y.y.y.u.y.y.u.u.<.:.<.<.<.<.<.<.<.<.<.<.<.<.<.<.<.<.u.h.h.<.u.i.t.t.=.",
"7 #.:.w.f.f.s.t.s.t.t.w.t.w.q.w.w.q.w.q.q.w.q.w.e.e.e.q.e.e.q.e.w.w.q.q.a.a.q.q.q.a.q.q.a.q.w.w.d.t.w.a.w.w.t.t.t.s.s.f.f.f.t.w ",
"6 7 w =.5.5.5.5.=.5.=.=.=.=.&.&.&.@.+.+.-.....-.-.+.+.+.+.+...+.&.&.+.+.@.+.@.+.&.&.@.&.-.&.=.=.=.=.=.=.&.=.=.=.=.=.4.5.5.5.w y ",
"3 3 3 5 5 5 5 5 4 4 5 4 4 4 4 4 4 4 4 4 4 4 4 4 4 4 4 4 4 3 3 4 4 4 4 4 4 4 4 5 4 4 4 4 4 4 4 4 4 5 5 4 4 4 4 5 5 4 5 5 5 5 5 3 ",
"GXGXGXGXGXGXGXGXGXGXGXGXGXGXGXGXGXGXGXGXGXGXGXGXGXGXGXGXGXGXGXGXGXGXGXGXGXGXGXGXGXGXGXGXGXGXGXGXGXGXGXGXGXGXGXGXGXGXGXGXGXGXGXGX"
};
