/* XPM */
static char *e9290ab748004d37e43704c8d3647433gObASdx7D19N6jIr[] = {
/* columns rows colors chars-per-pixel */
"64 64 238 2 ",
"   c black",
".  c #000008",
"X  c gray3",
"o  c #150200",
"O  c #080810",
"+  c #080818",
"@  c #151317",
"#  c #101018",
"$  c #210800",
"%  c #290800",
"&  c #24140B",
"*  c #311000",
"=  c #391000",
"-  c #391800",
";  c #292108",
":  c #312908",
">  c #392908",
",  c #352510",
"<  c #312910",
"1  c #312914",
"2  c #101021",
"3  c #111821",
"4  c #101029",
"5  c #181829",
"6  c #1D1D29",
"7  c #181831",
"8  c #181839",
"9  c #242723",
"0  c #312B24",
"q  c #333328",
"w  c #232635",
"e  c #212139",
"r  c #393931",
"t  c #333439",
"y  c #461800",
"u  c #512E0B",
"i  c #453312",
"p  c #693100",
"a  c #443625",
"s  c #394231",
"d  c #584218",
"f  c #764C0E",
"g  c #634A18",
"h  c #6B4A18",
"j  c #6B5218",
"k  c #4E4328",
"l  c #434337",
"z  c #745823",
"x  c #6B5231",
"c  c #212142",
"v  c #222349",
"b  c #29294A",
"n  c #293348",
"m  c #323349",
"M  c #313152",
"N  c #383958",
"B  c #393963",
"V  c #314458",
"C  c #334D6E",
"Z  c #4B4C53",
"A  c #6B6652",
"S  c #484967",
"D  c #505769",
"F  c #475A78",
"G  c #565675",
"H  c #656579",
"J  c #6E7275",
"K  c #884800",
"L  c #8C5200",
"P  c #945200",
"I  c #995A00",
"U  c #844A10",
"Y  c #A66500",
"T  c #AD6B00",
"R  c #B56B00",
"E  c #AD7300",
"W  c #B57300",
"Q  c #B97701",
"!  c #BD7B00",
"~  c #876621",
"^  c #946F2A",
"/  c #A7792B",
"(  c #C67B00",
")  c #BD8400",
"_  c #BD8C10",
"`  c #B6862C",
"'  c #C68400",
"]  c #CE8400",
"[  c #C68C00",
"{  c #CE8C00",
"}  c #D68C00",
"|  c #CD9500",
" . c #D69400",
".. c #DE9400",
"X. c #D69C00",
"o. c #DE9C00",
"O. c #E79C00",
"+. c #DEA500",
"@. c #DEAD03",
"#. c #D8A518",
"$. c #EBA700",
"%. c #F7AD00",
"&. c #EFB500",
"*. c #EFBD00",
"=. c #FAB500",
"-. c #FFBD00",
";. c #CC992A",
":. c #D7A622",
">. c #D4A52D",
",. c #E9AD39",
"<. c #EDBB32",
"1. c #F7C600",
"2. c #FFC600",
"3. c #F7CE00",
"4. c #FFCE00",
"5. c #FFD600",
"6. c #FFDE01",
"7. c #FFE904",
"8. c #FFFE0F",
"9. c #F5C638",
"0. c #F3B544",
"q. c #E6A552",
"w. c #FCC945",
"e. c #FBD456",
"r. c #FFE162",
"t. c #FFF268",
"y. c #244F8A",
"u. c #285486",
"i. c #29528C",
"p. c #315A8C",
"a. c #395A8C",
"s. c #315A94",
"d. c #395A94",
"f. c #39638C",
"g. c #336596",
"h. c #396394",
"j. c #39639C",
"k. c #3963A5",
"l. c #486787",
"z. c #566C8C",
"x. c #436A9B",
"c. c #587695",
"v. c #676888",
"b. c #74758A",
"n. c #707997",
"m. c #426BA5",
"M. c #4668A9",
"N. c #4A73A5",
"B. c #4A73AD",
"V. c #5478AD",
"C. c #4A73B5",
"Z. c #537BB7",
"A. c #77858D",
"S. c #5A84BA",
"D. c #7494AC",
"F. c #6D8EB1",
"G. c #6689B9",
"H. c #7797BA",
"J. c #5A8ACC",
"K. c #5A8ED6",
"L. c #658BC9",
"P. c #7799C7",
"I. c #6790D1",
"U. c #6394D6",
"Y. c #6997DC",
"T. c #759CDA",
"R. c #7BA5C6",
"E. c #7AA5DE",
"W. c #6D9CE7",
"Q. c #7AAAEA",
"!. c #8E9496",
"~. c #BDB59C",
"^. c #8E92AF",
"/. c #9496AA",
"(. c #8699B9",
"). c #87A6BD",
"_. c #9AABB9",
"`. c #AFB1B8",
"'. c #88A8C9",
"]. c #8CADCE",
"[. c #94ADCD",
"{. c #94B5CE",
"}. c #9CB5CB",
"|. c #88ABDB",
" X c #92A7D6",
".X c #94B5D6",
"XX c #9CBDD6",
"oX c #91B2D9",
"OX c #96B6DB",
"+X c #9CBDDE",
"@X c #ACB6CC",
"#X c #A5BDDA",
"$X c #89B3EE",
"%X c #89B5ED",
"&X c #9CBDE7",
"*X c #97BAEA",
"=X c #A9C7DC",
"-X c #B9D0DB",
";X c #9CC6F6",
":X c #A5C6E7",
">X c #ADCEE7",
",X c #A9C6EC",
"<X c #ADCEEF",
"1X c #B6CEEC",
"2X c #B5D6EF",
"3X c #BDD6EF",
"4X c #BDDBEB",
"5X c #A9CDFA",
"6X c #AFD4FC",
"7X c #B5D6F7",
"8X c #BDDEF7",
"9X c #BBD9FD",
"0X c #BDE7FF",
"qX c #CACBCD",
"wX c #D3D7DA",
"eX c #E3D6C6",
"rX c #C6DEEF",
"tX c #C9DBE9",
"yX c #D9D9EC",
"uX c #C6DEF7",
"iX c #C6DEFF",
"pX c #CBE7EF",
"aX c #DEE7E7",
"sX c #CEE7F7",
"dX c #C6E7FF",
"fX c #CEE7FF",
"gX c #CAEBFB",
"hX c #D6EFFF",
"jX c #DAEEFC",
"kX c #DEF7FF",
"lX c #D8FBFF",
"zX c #EBEBED",
"xX c #E7F7FF",
"cX c #E7FFFF",
"vX c #EFFFFF",
"bX c #F7F7FA",
"nX c #F7FFFF",
"mX c white",
/* pixels */
"        y u y % %                                                                                               $ - - - $       ",
"  T 1.7.4.5.5.6.7.7.7.6.5.5.5.5.5.5.5.5.4.4.4.4.4.4.4.4.4.4.4.4.4.4.4.5.4.4.2.2.2.2.2.2.2.5.2.2.2.5.5.5.7.7.7.5.5.4.4.=.-.T %   ",
"  1.@.K P P L K P K K P K P P P P P P P P P P P P P P L L L L L L L L L L I L L L P P L K L K K K K K f f p K K K K K K K =.-   ",
"  -.P ! T ) [ | | |  .[ | [ [ [ [ [ [ [ [ [ [ [ [ ) ' ) [ ) ) ! ) ) Q ) ) Q ) ) ) ! ) Q ! ) W ( ( ) ! ( Q ) ! Q Y E Y Y } =.u   ",
"  %.P } k s l l l l s r s s r r r r r r r r r r r r r r r r r q q q q q q q 9 w 9 9 0 9 9 9 9 9 9 5 9 9 9 9 9 9 9 9 9 P =.4.p   ",
"  $.Y $.l ].].{..X{.{..XXX+X.X.X.X[.[.].'.].].].].].'.'.R.'.R.P.P.P.P.P.G.G.N.d.s.s.s.p.y.y.C u.u.u.i.p.p.u.p.p.p.f.x.:.O.6.=   ",
"  O.Y $.k ].{..XXXXXXX+X=X:X#X&XXX.X.X{.}.{.{.{.[.].].].].'.'.'.'.'.'.P.H.F.S.g.g.g.g.i.i.i.u.u.i.p.p.p.p.a.a.p.a.a.x.#.o.5.*   ",
"  O.T =.k ].{.XX+X#X#X:X>X>X>X:X#X+X+XXXXXXX.X.X.X.X.X.X|.].|.oXoX|.'.P.G.G.V.x.g.s.s.i.i.i.i.i.p.p.p.p.p.a.a.p.p.p.h.#...5.*   ",
". o.W $.i )..XXX=X:X,X>X>X>X>X>X,X>X:X=X#X&X&XOX+X+X+XOX%XOXOX+X*XoXR.R.L.H.V.x.j.s.s.s.i.i.i.s.s.s.p.p.p.p.p.p.p.p.h.#. .4.%   ",
"  O.T $.< C ].XX:X:X>X<X1X7X1X1X2X1X,X>X>X:X:X:X:X:X:X&X&X+X+X*X&X].XX:X'.H.V.x.j.s.s.s.s.s.s.g.s.s.s.p.p.p.p.p.p.p.h.#...4.*   ",
"  } W $.< 5 F {.#X:X>X1X2X7X3X8XdX8X7X2X1X<X<X<X<X<X<X,X:X&X:X3XdX7XdXfXoXP.G.M.j.j.j.j.j.j.j.h.g.s.s.s.p.p.p.p.p.p.f.:. .2.%   ",
"  } R $.< 5 5 F =X:X>X<X7X3X8XdXgXgXiX8X3X7X7X7X7X<X<X,X&X&X&X7XhXhXfX1X'.F.V.M.m.k.M.M.j.j.j.h.g.h.g.s.s.s.s.s.p.p.h.:. .5.%   ",
"  } R $.< 5 5 5 H >X<X<X7X8XdXhXlXkXhXfX9XuX9X9X7X<X,X,X&XoX*X&XiXjXiX9XP.V.V.M.B.B.B.m.m.j.j.j.j.j.h.g.g.h.h.g.g.s.x.:. .2.%   ",
"  } W $.< 4 4 4 e D.<X2X7X8XdXkXcXvXcXlXdX6X7X6X5X&X:X*X%X*X*XoXfXmXbX7XP.Z.B.B.Z.S.B.m.j.j.j.j.j.j.j.f.j.j.j.h.h.s.h.:. .-.%   ",
"  } Q $.< 4 4 4 2 6 XX7X7XdXdXhXvXnXnXkX9X5X5X5X*X$X|.|.*X*X&X|.kXmXmX,XL.Z.Z.S.Z.B.m.m.j.j.j.j.j.j.j.j.j.j.j.j.g.u.h.:. .2.%   ",
"  ' W $.: 2 2 2 2 2 D 7X8X9X9X0XgXcXvXgX5X;X5X;X*X|.|.|.*X,X,X,XmXmXmX,XP.Z.Z.G.V.N.m.m.j.j.j.j.j.j.j.j.j.x.j.h.s.p.h.:. .-.%   ",
"  ' W $.; 2 2 2 2 2 2 oX6X6X<X5X5X8XgXdX6X5X5X*X$X X|.*X,X5X6XfXmXmXmXkX|.|.L.J.V.m.k.j.j.j.j.j.j.j.j.j.j.x.j.h.s.s.h.:. .-.%   ",
"  ' T $.: 2 2 2 2 2 2 D 6X6X;XQ.T.Q.;X5X6X5X*X$X$XW.$X1XiXiXxXcXxXvXnXnXfX5XP.G.V.N.k.j.j.j.j.j.j.j.g.M.j.j.j.g.s.p.h.:. .2.*   ",
"  } W $.: 2 2 2 2 2 2 2 G.$XT.U.U.Y.T.Q.W.$X$X|.|.|.*X1XjXvXmXmXvXkXmXmXbXjX,X|.Z.k.M.k.k.j.j.j.j.j.x.M.j.g.s.g.p.i.h.:. .2.%   ",
"  ' W $.: 2 2 2 2 2 2 2 V Q.T.J.K.U.U.Y.I.T.E.E.|. X*XiXjXmXmXmXmXmXmXmXjX&XoXL.B.m.m.k.k.j.j.j.j.j.j.j.j.s.s.p.i.u.p.:. .-.%   ",
"  { R O.: 2 2 2 # # # # 3 *X;XU.K.K.Y.Y.Y.T.Q.E.|.W.$X1XyXeXr.bXmXmXvX&XI.L.S.C.m.m.M.k.k.k.k.x.x.m.j.j.g.g.u.i.y.y.y.#. .-.*   ",
"  { W O.: # # # # # # # # F.;XE.K.K.Y.W.T.W.T.T.I. X X1XyXq.U yXmXvX*XT.J.Z.C.M.m.m.m.m.m.m.m.m.x.x.j.j.j.s.i.i.C y.i.;. .2.%   ",
"  ( W O.; # # # # # # # + F *X$XY.U.U.Y.W.Y.I.T.|.Y.|. XT.G & ^.0X*XT.L.Z.C.C.B.B.B.m.m.m.m.m.m.j.j.j.V.N.x.s.p.y.y.s.;. .2.*   ",
"  ( R o.; # # # + + + + + n ;X;XQ.Y.U.Y.Y.U.U.I.Y.I.Y.L.I.v.x n.*X|.I.L.L.Z.C.C.C.B.B.m.m.m.m.x.B.j.j.x.j.G.F.j.i.y.g.:.} 2.%   ",
"  { R O.; + + + + + + + O O ,X6X$XY.K.U.U.I.K.J.J.J.K.L.T.n.b.^.E.T.P.I.I.S.Z.Z.C.B.B.M.M.M.k.S.R.S.V.S.G.'.:XS.j.g.j.:.} 2.$   ",
"  ( T O.; + + + + O O O O O ).6X$XW.Y.Y.U.U.I.K.K.L.U.T. X X@X@X|.T.I.L.L.L.S.Z.C.B.B.B.B.M.B.|.7X.XF.P..X:X1XH.S.x.N.:.} 2.*   ",
"  ( T O.; O O O O O O O O O (.6XQ.Y.W.W.Y.U.U.I.I.I.L./.^.@X1XqX_./.F.L.L.L.Z.Z.C.B.C.V.B.V.'.8XfX>X|.|.:XfX>X].H.F.S.:. .-.*   ",
"  ( T O.; O O O O O O O O X ).6XQ.W.W.W.W.Y.W.W.T.Z.v.!.b.b.b.n.b.n.b.v.J.S.Z.C.Z.Z.G.G.L.P.<XhXhX8X:X=X2XhX2XXX].H.F.<.} 4.*   ",
"  ( T O.; O O O O O O O O X D.6X$XQ.Q.Q.Q.Q.%X;X XF M c c c c c c c b N V.J.S.Z.G.L.|.[.].+XdXkXkXhXhX3X8XjX1X'.(.H.H.<. .2.*   ",
"  ( T O.; O O X X O O X X X (.0X0X0X;X;X;X6X9Xz.v c c c c c c c c c c c v B Z.J.L.oX:X,X#X>XfXkXkXkXxXkXsXuXuXXX'.D.'.<. .2.*   ",
"  ! T O.; O O X X X X X X . }.lXlXcXdX5X;X'.b c v c c c b b M M M b c c c e v x.T.,X2X2X2X3XdXhXfXfXuXfX8XuXrX3XsXH.R.<. .2.*   ",
"  ( R O.; X X X X X X X X . vXmXnXvXlX0XP.e e c b S c b N G v.v.v.S M c c e e 8 z.7XuXuXuX4X4XuXgX4XrX3X3XsXrX3X#XD.H.<. .2.*   ",
"  ( R O.; X X X X X X X X . vXmXmXvXlX9X(.e e c b S c b B G v.v.G S M c c e e 8 z.9XuXuXuX4X4XuXdX4XrX3X3XsXrX3X#XD.H.9. .2.*   ",
"  ( T ..; X X X X X X X X 9 mXmXmXmXvX[.8 e e M zXbXS M S b.^.@X^.b.S m c e 8 8 7 ^.hXhXsXuXuXpXrX4X4XsXvXxXjXkX#XF.H.9.} 2.*   ",
"  ( T ..; X X X X X X X X J mXmXmXmXxX!.8 8 e !.bXbXH M S v.^.^.^.n.G M c e 8 8 7 7 4XkXsXrXrXhXtX-X1XxXxXjXjX#XH.D.'.9. .-.*   ",
"  ( T +.; X X X X X X X X !.mXmXmXcXyXbX8 8 c qXbXbXG b B S v.b.v.v.B m c e 8 7 7 5 m tXsXtXrXrX-X=XtXjXsX3X1XXX'.).[.9.} -.*   ",
"  ( T o.; X X X X X X X X tXbXmXvXtXwXyX7 8 Z qXzXzXm e b b N N N N m c e 7 7 7 7 7 5 b.jXgXpX-X}.@Xe.~.tX2X#XoXXXXX.X9.} -.*   ",
"  ] R o.; X X X X X X X t mXmXvXgX!.wX/.7 7 S qXwX`.e e e e e e c e e e 7 7 7 7 7 7 5 w pXaXtX-X}.`.Z Z '.]..X.X].{.=Xw. .-.*   ",
"  ( T o.; X X X X X X X A.vXcXhXF.!.wXH 7 7 Z `.qXH 7 7 7 7 7 7 7 7 7 7 7 7 7 7 5 5 5 4 !.pX4X=X}._.J J H.P.'..X{.XX>Xw. .-.*   ",
"  ( T o.: X X X X X X 3 vXnXcXlXS ~.`.w 7 5 Z /.J 7 7 7 7 7 7 7 7 7 7 7 7 7 5 5 5 5 4 @ V pX-X=X}.).D.!.P.P.]..X.X{.=X9.} -.*   ",
"  ( T ..; X X X X X X !.bXmXcXgX3 !.H 3 5 5 5 t 0 7 7 7 7 7 7 7 7 7 7 5 5 5 5 5 4 4 2 2 w tX-X=X_.^.@X@XqX^.(.#X.X[.+X9. .-.*   ",
"  ( T o.; X X X X X 9 mXmXmXnX-X# w 5 5 5 5 5 # 5 5 5 5 5 5 5 5 5 5 5 5 5 5 4 4 4 2 2 2 O =X-X=XG G G v.v.D v. X{.'.].9. .-.*   ",
"  ( T  .; X X X X X -XmXmXmXnX_.# # 2 4 4 5 5 5 5 5 5 5 5 5 5 5 5 5 5 4 4 4 2 2 2 2 2 2 + /.@Xb.b c c v v v v M z.).].<.} -.*   ",
"  ( T o.; X X X X A.mXmXnXnXnX_.# # 2 2 2 4 4 4 4 4 4 4 4 4 4 4 4 4 4 2 2 2 2 2 2 2 2 # + n.S e c c v M B M b v c N H.<. .2.*   ",
"  ( T ..; X X X 9 nXnXkXcXnXbX}.# # 2 2 2 4 2 2 2 2 2 4 2 2 2 2 2 2 2 2 2 2 2 2 2 # # + O 2 7 e c c M v.n.^.G M c c b #.} 2.*   ",
"  ( T ..; X X 9 mXmXvXvXnXcXvX-X# # @ 2 2 a x a 2 2 2 2 2 2 2 2 2 2 2 2 2 2 2 # # # + O O 2 S S e c @XzX^.^.v.B c c e ' } -.=   ",
"  ] Y ..; X 0 mXmXmXmXmXmXcXvXjX# # @ 0 <.e.r.9.` 0 2 2 2 2 2 2 2 2 2 2 # # # # + + O O X e wX`.8 b eXbXH S S b c e 8 !  .2.=   ",
"  ( Y O.: t mXmXmXnXmXmXvXlXhXkXw # a ,.0.t.t.r.0./ 6 2 2 2 2 # @ # # # # # + + O O O O O w qX`.7 v qXbXS c c e e 8 8 !  .-.=   ",
"  { Y ..q mXmXmXvXvXmXvXlXpX2X>XD @ ^ ` ` >.w.w.0.;.q 2 @ # # # # # + + + # O O O O O X + w `.!.7 7 /.qXe 8 8 8 7 7 7 (  .2.=   ",
"  { Y ..k mXbXcXlXvXnXkXpX>XXX.X_.q ~ ~ ^ / ` ;.;./ ~ ^ ^ q # # + + + + O O O O O O O X 2 # J n 5 7 r Z 7 7 7 7 7 7 7 R  .4.=   ",
"  { Y ..a !.!.tXxXbXnXkX4X=X{..X>XZ z f z z ~ / / ^ ~ r.t.,.a + + + + + O O O O O O X O # 2 # 4 4 5 4 5 5 5 5 5 5 5 5 (  .4.y   ",
"  { Y  .> i , a pXvXcXkXgX=X#X=X>X/.j z j j j z ~ z z e.w.` i + + + + + O O O O O O X V # # # 3 2 2 4 4 4 4 5 4 4 4 2 Q ..4.y   ",
"  ..I ..> i , , A.cXvXvXcXlXsXgXgX3Xz f j j j g h j h >.>.h 2 + + + + O O O O O O O S F # # # # 2 2 + 4 2 2 @ 2 2 2 2 W ..4.-   ",
"  ..Y o.> > , 1 J cXvXmXnXvXxXkXpX>XA j j j h g d d d ^ ^ & + + + + O O O O O O O w D.c.5 # # # # @ 1 ,.0.^ 5 4 2 # # W ..4.y   ",
"  ..I } > i , ; !.nXnXmXnXcXhXsX3X=X!.j j j h g g d a g i + + + + + O O O O O O n c.c.c.M 3 # # # @ / q.w.w.a 2 # + + W O.4.y   ",
"  o.P  .: , , a kXnXvXcXhXsX4XgXsXgX-Xz j j h g u i u i 2 + + + + O O O O O O n c.c.c.z.C 3 # 2 # & ~ ~ ~ ` ` & + + O W o.5.y   ",
"  $.L ..: < : `.kXlX4X=X-X4XpXsXcXpX1XJ f j h h j u i > + + + O O O O O O # z.c.z.l.l.l.F V 4 + # @ h j h z ~ & + O O Y $.5.u   ",
"  $.K  .: ; !.>X=X#X'.R.).{.}.}.}.}.).A.h j h h j a i < # O O O O O + ; < l F.c.z.l.l.l.l.C V + + 2 d h h g g 9 O O # Q O.4.p   ",
"  $.f } < J ].'.{.).D.F.D.F.D.D.F.D.F.F.x h h h g d i ; V m 9 ; : < i i i Z c.l.x.l.l.C C C C C 3 # i h h g k ; O + C _ $.5.p   ",
"  O.f | ) | | @.*.@.*.*.1.&.&.&.&.&.&.&.1.*.&.&.&.*.&.&.&.&.&.+.*.&.&.&.*.+.+.+.+.+.@.+.@.@.@.@.+.$.+.+.+.+.+.+.o.| | =.=.6.p   ",
"  O.Y O.$.+.X.| | [ [ [ ' ' ' ' [ ' ' { { ' { ' ' ' ' ' ' ' [ ' [ ' ' ' [ ' [ [ [ [ [ [ [ [ [ ' [ [ [ { ' [ { {  .+.$.$.X.8.= . ",
"  Y O.7.8.8.8.7.7.6.5.5.6.4.4.4.4.4.4.1.3.1.1.4.1.4.1.4.1.1.1.4.4.4.1.4.4.4.4.4.4.2.5.5.2.5.5.5.5.5.5.5.5.6.5.7.7.7.7.8.8.X.o   ",
"  o $ % = = % % $ $ $ $ $ $ $ $ $ $ $ $ $ $ $ $ $ $ $ $ $ $ $ $ $ $ $ $ $ % % % % % % % % % % % % % % * * * * * % = y y = o     ",
"  o $ % = = % $ $ $ $ $ $ $ $ $ $ $ $ $ $ $ $ $ $ $ $ $ $ $ $ $ $ $ $ $ $ % % % % % % % % % % % % % * * * * * * * = u y = o     "
};
