/* XPM */
static char *_a90fb213100431bd9705d1d543075c3VXvtqMdSkR93oV7a[] = {
/* columns rows colors chars-per-pixel */
"64 64 112 2 ",
"   c #394231",
".  c #394239",
"X  c #424A31",
"o  c #4A4A31",
"O  c #424239",
"+  c #424A39",
"@  c #4A4A39",
"#  c #4A5231",
"$  c #4A5239",
"%  c #525239",
"&  c #525A39",
"*  c gray26",
"=  c #4A5242",
"-  c #525242",
";  c #525A42",
":  c #52524A",
">  c #525A4A",
",  c #5A5A4A",
"<  c #5A5A52",
"1  c #5A634A",
"2  c #5A6352",
"3  c #5A635A",
"4  c #63634A",
"5  c #636352",
"6  c #636B52",
"7  c #63635A",
"8  c #636B5A",
"9  c #6B6B5A",
"0  c #6B735A",
"q  c #73735A",
"w  c gray39",
"e  c #636B63",
"r  c #6B6B63",
"t  c gray42",
"y  c #6B7363",
"u  c #737363",
"i  c #737B63",
"p  c #73736B",
"a  c #737B6B",
"s  c #7B7B6B",
"d  c gray45",
"f  c #737B73",
"g  c #7B7B73",
"h  c #7B846B",
"j  c #7B8473",
"k  c #7B847B",
"l  c #848C73",
"z  c #84847B",
"x  c #848C7B",
"c  c #8C8C7B",
"v  c #8C947B",
"b  c #848484",
"n  c #8C8C84",
"m  c gray55",
"M  c #8C9484",
"N  c #8C948C",
"B  c #949484",
"V  c #949C84",
"C  c #94948C",
"Z  c #949C8C",
"A  c #9C9C8C",
"S  c gray58",
"D  c #949C94",
"F  c #9C9C94",
"G  c gray61",
"H  c #9CA594",
"J  c #9CA59C",
"K  c #A5A594",
"L  c #A5A59C",
"P  c #A5AD9C",
"I  c #A5A5A5",
"U  c #A5ADA5",
"Y  c #ADADA5",
"T  c gray68",
"R  c #ADB5A5",
"E  c #ADB5AD",
"W  c #B5B5AD",
"Q  c #B5BDAD",
"!  c #BDBDAD",
"~  c gray71",
"^  c #B5BDB5",
"/  c #BDBDB5",
"(  c gray74",
")  c #BDC6B5",
"_  c #C6C6B5",
"`  c #C6C6BD",
"'  c #C6CEBD",
"]  c #CECEBD",
"[  c #C6C6C6",
"{  c #C6CEC6",
"}  c #CECEC6",
"|  c #CECECE",
" . c #CED6CE",
".. c #D6D6C6",
"X. c #D6D6CE",
"o. c #D6DECE",
"O. c gray84",
"+. c #D6DED6",
"@. c #DEDED6",
"#. c gray87",
"$. c #DEE7D6",
"%. c #DEE7DE",
"&. c #E7E7D6",
"*. c #E7E7DE",
"=. c #E7E7E7",
"-. c #E7EFE7",
";. c #EFEFE7",
":. c #EFEFEF",
">. c #EFF7EF",
",. c #F7F7EF",
"<. c gray97",
"1. c white",
/* pixels */
">.<.1.1.<.<.1.1.1.1.1.<.} -.W   -.%.Q } ) R X.#.:.*.;.@.*.] W 1 >.<.1.1.<.<.1.1.1.1.1.<.} -.W   -.%.Q } ) R X.#.:.*.;.@.*.] W 1 ",
"t F F G I T T T I I T F j S c + 6 z n M C C C Z n M C S S S ^ + t F F G I T T T I I T F j S c + 6 z n M C C C Z n M C S S S ^ + ",
"e H ~ T ( J W ~ ( ( ( L J x l + q J ~ E L E Z U Y Z L J U N W X e H ~ T ( J W ~ ( ( ( L J x l + q J ~ E L E Z U Y Z L J U N W X ",
"7 C I H W U L ^ ( [ W U L h | + i U Z Y W ^ F W E ( Z M x j P $ 7 C I H W U L ^ ( [ W U L h | + i U Z Y W ^ F W E ( Z M x j P $ ",
"w F F L j Y / | ( ( Y ( M S U + 5 n I F ( / [ W Y U U Z ~ x ( + w F F L j Y / | ( ( Y ( M S U + 5 n I F ( / [ W Y U U Z ~ x ( + ",
"t C n M Z L Y W ` [ [ W Y C [ + d x T ~ ( [ W W P L V ( I C | @ t C n M Z L Y W ` [ [ W Y C [ + d x T ~ ( [ W W P L V ( I C | @ ",
"7 3 3 1 2 r y r 7 e 7 e < 7 2 + 0 2 > > 2 5 9 y 6 1 ; $ , , > . 7 3 3 1 2 r y r 7 e 7 e < 7 2 + 0 2 > > 2 5 9 y 6 1 ; $ , , > . ",
"; 1 + + + + + + + + > + + + @ $ + + + + + + + $ + O O O + @ O + ; 1 + + + + + + + + > + + + @ $ + + + + + + + $ + O O O + @ O + ",
"@.@.! ' ' @.[ = :.,.<.*.*.1.} _ X.' } ' X. .O.+ X. .` X.@.X.>.=.@.@.! ' ' @.[ = :.,.<.*.*.1.} _ X.' } ' X. .O.+ X. .` X.@.X.>.=.",
"D L F Y Y J R   p U I ~ Y J U J P ~ H L P ( W + F E U Y H T ~ I D L F Y Y J R   p U I ~ Y J U J P ~ H L P ( W + F E U Y H T ~ I ",
"~ ~ L F P T R   t n L W ( Z Y F Y H T W U L W ; n L H W L T ( Y ~ ~ L F P T R   t n L W ( Z Y F Y H T W U L W ; n L H W L T ( Y ",
"~ U ~ W L Y Y $ 2 Y L ( E ~ Y ( H E Z F ~ J ^   n I ~ ` W L ~ ( ~ U ~ W L Y Y $ 2 Y L ( E ~ Y ( H E Z F ~ J ^   n I ~ ` W L ~ ( ",
"Y ~ Z U [ U Y X r T I I W ^ ` | | | | ( J I (   k I L L L Y ^ Y Y ~ Z U [ U Y X r T I I W ^ ` | | | | ( J I (   k I L L L Y ^ Y ",
"l V H ( F J ~ X e I L Z Y ` [ | | | ( [ ( G [   t C D M B ( ( P l V H ( F J ~ X e I L Z Y ` [ | | | ( [ ( G [   t C D M B ( ( P ",
"2 , > 2 5 2 $   d 7 7 2 < < < 7 7 7 3 3 7 w 7 X 2 9 1 1 2 0 4 0 2 , > 2 5 2 $   d 7 7 2 < < < 7 7 7 3 3 7 w 7 X 2 9 1 1 2 0 4 0 ",
"$ $ + + + + +   + + $ + & & + $ + & + + % % $ + + @ @ $   . + + $ $ + + + + +   + + $ + & & + $ + & + + % % $ + + @ @ $   . + + ",
"} -.X.@.o.%.*.:.:.:.@.=.+.X.[ * 1.1.1.1.%.*.;.;.#.:.=.1.o.X.P + } -.X.@.o.%.*.:.:.:.@.=.+.X.[ * 1.1.1.1.%.*.;.;.#.:.=.1.o.X.P + ",
"d U T L L E ~ ( ~ ( E Y I I { + b ~ T J L J Y ^ ~ ~ ( ~ T F ( + d U T L L E ~ ( ~ ( E Y I I { + b ~ T J L J Y ^ ~ ~ ( ~ T F ( + ",
"9 ( E F C I / W U ~ L L F S | $ t ~ E C Z H L E U / L ( F L ^ + 9 ( E F C I / W U ~ L L F S | $ t ~ E C Z H L E U / L ( F L ^ + ",
"6 ( L H Y P W E / ~ [ Y T L | + b Y F Z Y M L A Y E ~ / W F [ 2 6 ( L H Y P W E / ~ [ Y T L | + b Y F Z Y M L A Y E ~ / W F [ 2 ",
"s I P F T E A L ~ U W W Y W W + p Z D J J W Y W R R Y H M C P $ s I P F T E A L ~ U W W Y W W + p Z D J J W Y W R R Y H M C P $ ",
"n M M ~ F L W A ( E [ ^ Y I Y + m S m S H E / P Y Y H L x x B o n M M ~ F L W A ( E [ ^ Y I Y + m S m S H E / P Y Y H L x x B o ",
"1 8 6 > f 7 7 7 p y p r p a d + u t t w w r e y 2 3 2 > 2 2 8 X 1 8 6 > f 7 7 7 p y p r p a d + u t t w w r e y 2 3 2 > 2 2 8 X ",
"X X X X X X X $ X X + + + + + $ + + + + + + + $ + X X X X X $ X X X X X X X X $ X X + + + + + $ + + + + + + + $ + X X X X X $ X ",
"@.` =.*.-.<.| O ,.X.=.-.*.$.;.&.;.;.;.;.;.,.} + ] o.Q ..@.X.o...@.` =.*.-.<.| O ,.X.=.-.*.$.;.&.;.;.;.;.;.,.} + ] o.Q ..@.X.o...",
"G F E I T ~ | < h ~ J T I T Y ~ ~ ( ( ( ~ ~ | @ z L ~ Y ~ E I C G F E I T ~ | < h ~ J T I T Y ~ ~ ( ( ( ~ ~ | @ z L ~ Y ~ E I C ",
"J W T L T I | + r C L ( ^ E W L L ~ ~ T Y G ` = r L ~ Y ~ ~ U Y J W T L T I | + r C L ( ^ E W L L ~ ~ T Y G ` = r L ~ Y ~ ~ U Y ",
"( [ ( U I G ^ + j T T ~ W E [ Y Y ( T Y U C ` + y T T ` [ ~ Y ~ ( [ ( U I G ^ + j T T ~ W E [ Y Y ( T Y U C ` + y T T ` [ ~ Y ~ ",
"` [ [ E Z n Y + z U ~ T ~ Y P H W L H F M n ( $ p G U U ~ Z | ^ ` [ [ E Z n Y + z U ~ T ~ Y P H W L H F M n ( $ p G U U ~ Z | ^ ",
"[ ~ E E F i K + g I C ( ~ Y W ^ E P P F Z x L : u G G ~ L v | H [ ~ E E F i K + g I C ( ~ Y W ^ E P P F Z x L : u G G ~ L v | H ",
"w e e 7 e r 8 + p 8 7 t w 2 7 7 w r 8 9 a y r X g 9 d 7 w w 2 e w e e 7 e r 8 + p 8 7 t w 2 7 7 w r 8 9 a y r X g 9 d 7 w w 2 e ",
"+ + $ + $ + + $ + + @ + + + + + + @ - # @ @ X $ X + + + + @ + @ + + $ + $ + + $ + + @ + + + + + + @ - # @ @ X $ X + + + + @ + @ ",
">.<.1.1.<.<.1.1.1.1.1.<.} -.W   -.%.Q } ) R X.#.:.*.;.@.*.] W 1 >.<.1.1.<.<.1.1.1.1.1.<.} -.W   -.%.Q } ) R X.#.:.*.;.@.*.] W 1 ",
"t F F G I T T T I I T F j S c + 6 z n M C C C Z n M C S S S ^ + t F F G I T T T I I T F j S c + 6 z n M C C C Z n M C S S S ^ + ",
"e H ~ T ( J W ~ ( ( ( L J x l + q J ~ E L E Z U Y Z L J U N W X e H ~ T ( J W ~ ( ( ( L J x l + q J ~ E L E Z U Y Z L J U N W X ",
"7 C I H W U L ^ ( [ W U L h | + i U Z Y W ^ F W E ( Z M x j P $ 7 C I H W U L ^ ( [ W U L h | + i U Z Y W ^ F W E ( Z M x j P $ ",
"w F F L j Y / | ( ( Y ( M S U + 5 n I F ( / [ W Y U U Z ~ x ( + w F F L j Y / | ( ( Y ( M S U + 5 n I F ( / [ W Y U U Z ~ x ( + ",
"t C n M Z L Y W ` [ [ W Y C [ + d x T ~ ( [ W W P L V ( I C | @ t C n M Z L Y W ` [ [ W Y C [ + d x T ~ ( [ W W P L V ( I C | @ ",
"7 3 3 1 2 r y r 7 e 7 e < 7 2 + 0 2 > > 2 5 9 y 6 1 ; $ , , > . 7 3 3 1 2 r y r 7 e 7 e < 7 2 + 0 2 > > 2 5 9 y 6 1 ; $ , , > . ",
"; 1 + + + + + + + + > + + + @ $ + + + + + + + $ + O O O + @ O + ; 1 + + + + + + + + > + + + @ $ + + + + + + + $ + O O O + @ O + ",
"@.@.! ' ' @.[ = :.,.<.*.*.1.} _ X.' } ' X. .O.+ X. .` X.@.X.>.=.@.@.! ' ' @.[ = :.,.<.*.*.1.} _ X.' } ' X. .O.+ X. .` X.@.X.>.=.",
"D L F Y Y J R   p U I ~ Y J U J P ~ H L P ( W + F E U Y H T ~ I D L F Y Y J R   p U I ~ Y J U J P ~ H L P ( W + F E U Y H T ~ I ",
"~ ~ L F P T R   t n L W ( Z Y F Y H T W U L W ; n L H W L T ( Y ~ ~ L F P T R   t n L W ( Z Y F Y H T W U L W ; n L H W L T ( Y ",
"~ U ~ W L Y Y $ 2 Y L ( E ~ Y ( H E Z F ~ J ^   n I ~ ` W L ~ ( ~ U ~ W L Y Y $ 2 Y L ( E ~ Y ( H E Z F ~ J ^   n I ~ ` W L ~ ( ",
"Y ~ Z U [ U Y X r T I I W ^ ` | | | | ( J I (   k I L L L Y ^ Y Y ~ Z U [ U Y X r T I I W ^ ` | | | | ( J I (   k I L L L Y ^ Y ",
"l V H ( F J ~ X e I L Z Y ` [ | | | ( [ ( G [   t C D M B ( ( P l V H ( F J ~ X e I L Z Y ` [ | | | ( [ ( G [   t C D M B ( ( P ",
"2 , > 2 5 2 $   d 7 7 2 < < < 7 7 7 3 3 7 w 7 X 2 9 1 1 2 0 4 0 2 , > 2 5 2 $   d 7 7 2 < < < 7 7 7 3 3 7 w 7 X 2 9 1 1 2 0 4 0 ",
"$ $ + + + + +   + + $ + & & + $ + & + + % % $ + + @ @ $   . + + $ $ + + + + +   + + $ + & & + $ + & + + % % $ + + @ @ $   . + + ",
"} -.X.@.o.%.*.:.:.:.@.=.+.X.[ * 1.1.1.1.%.*.;.;.#.:.=.1.o.X.P + } -.X.@.o.%.*.:.:.:.@.=.+.X.[ * 1.1.1.1.%.*.;.;.#.:.=.1.o.X.P + ",
"d U T L L E ~ ( ~ ( E Y I I { + b ~ T J L J Y ^ ~ ~ ( ~ T F ( + d U T L L E ~ ( ~ ( E Y I I { + b ~ T J L J Y ^ ~ ~ ( ~ T F ( + ",
"9 ( E F C I / W U ~ L L F S | $ t ~ E C Z H L E U / L ( F L ^ + 9 ( E F C I / W U ~ L L F S | $ t ~ E C Z H L E U / L ( F L ^ + ",
"6 ( L H Y P W E / ~ [ Y T L | + b Y F Z Y M L A Y E ~ / W F [ 2 6 ( L H Y P W E / ~ [ Y T L | + b Y F Z Y M L A Y E ~ / W F [ 2 ",
"s I P F T E A L ~ U W W Y W W + p Z D J J W Y W R R Y H M C P $ s I P F T E A L ~ U W W Y W W + p Z D J J W Y W R R Y H M C P $ ",
"n M M ~ F L W A ( E [ ^ Y I Y + m S m S H E / P Y Y H L x x B o n M M ~ F L W A ( E [ ^ Y I Y + m S m S H E / P Y Y H L x x B o ",
"1 8 6 > f 7 7 7 p y p r p a d + u t t w w r e y 2 3 2 > 2 2 8 X 1 8 6 > f 7 7 7 p y p r p a d + u t t w w r e y 2 3 2 > 2 2 8 X ",
"X X X X X X X $ X X + + + + + $ + + + + + + + $ + X X X X X $ X X X X X X X X $ X X + + + + + $ + + + + + + + $ + X X X X X $ X ",
"@.` =.*.-.<.| O ,.X.=.-.*.$.;.&.;.;.;.;.;.,.} + ] o.Q ..@.X.o...@.` =.*.-.<.| O ,.X.=.-.*.$.;.&.;.;.;.;.;.,.} + ] o.Q ..@.X.o...",
"G F E I T ~ | < h ~ J T I T Y ~ ~ ( ( ( ~ ~ | @ z L ~ Y ~ E I C G F E I T ~ | < h ~ J T I T Y ~ ~ ( ( ( ~ ~ | @ z L ~ Y ~ E I C ",
"J W T L T I | + r C L ( ^ E W L L ~ ~ T Y G ` = r L ~ Y ~ ~ U Y J W T L T I | + r C L ( ^ E W L L ~ ~ T Y G ` = r L ~ Y ~ ~ U Y ",
"( [ ( U I G ^ + j T T ~ W E [ Y Y ( T Y U C ` + y T T ` [ ~ Y ~ ( [ ( U I G ^ + j T T ~ W E [ Y Y ( T Y U C ` + y T T ` [ ~ Y ~ ",
"` [ [ E Z n Y + z U ~ T ~ Y P H W L H F M n ( $ p G U U ~ Z | ^ ` [ [ E Z n Y + z U ~ T ~ Y P H W L H F M n ( $ p G U U ~ Z | ^ ",
"[ ~ E E F i K + g I C ( ~ Y W ^ E P P F Z x L : u G G ~ L v | H [ ~ E E F i K + g I C ( ~ Y W ^ E P P F Z x L : u G G ~ L v | H ",
"w e e 7 e r 8 + p 8 7 t w 2 7 7 w r 8 9 a y r X g 9 d 7 w w 2 e w e e 7 e r 8 + p 8 7 t w 2 7 7 w r 8 9 a y r X g 9 d 7 w w 2 e ",
"+ + $ + $ + + $ + + @ + + + + + + @ - # @ @ X $ X + + + + @ + @ + + $ + $ + + $ + + @ + + + + + + @ - # @ @ X $ X + + + + @ + @ "
};
