/* XPM */
static char *_0cefb5cf013426a8b79863b2a25b1b0QHOTCigHVBuFULTx[] = {
/* columns rows colors chars-per-pixel */
"64 64 126 2 ",
"   c black",
".  c #000800",
"X  c #000008",
"o  c #000808",
"O  c #001008",
"+  c #001808",
"@  c #000810",
"#  c #000818",
"$  c #001010",
"%  c #001810",
"&  c #001018",
"*  c #001818",
"=  c #002108",
"-  c #003908",
";  c #002110",
":  c #002910",
">  c #002118",
",  c #002918",
"<  c #003110",
"1  c #003910",
"2  c #003118",
"3  c #003918",
"4  c #001021",
"5  c #001821",
"6  c #001829",
"7  c #002121",
"8  c #002921",
"9  c #002129",
"0  c #002929",
"q  c #003121",
"w  c #003921",
"e  c #003129",
"r  c #003929",
"t  c #002131",
"y  c #002931",
"u  c #003131",
"i  c #003931",
"p  c #003139",
"a  c #003939",
"s  c #004A08",
"d  c #005A08",
"f  c #004210",
"g  c #004A10",
"h  c #004218",
"j  c #004A18",
"k  c #005210",
"l  c #085210",
"z  c #005218",
"x  c #085218",
"c  c #005A18",
"v  c #006B10",
"b  c #006318",
"n  c #086318",
"m  c #006B18",
"M  c #007310",
"N  c #007B10",
"B  c #087B10",
"V  c #007318",
"C  c #087318",
"Z  c #004221",
"A  c #004A21",
"S  c #004229",
"D  c #004A29",
"F  c #005221",
"G  c #005A21",
"H  c #085A21",
"J  c #005229",
"K  c #005A29",
"L  c #085A29",
"P  c #004231",
"I  c #004A31",
"U  c #004239",
"Y  c #004A39",
"T  c #005231",
"R  c #005A31",
"E  c #005239",
"W  c #005A39",
"Q  c #006321",
"!  c #086321",
"~  c #006B21",
"^  c #086B21",
"/  c #006329",
"(  c #086329",
")  c #006B29",
"_  c #086B29",
"`  c #087B21",
"'  c #007329",
"]  c #087329",
"[  c #007B29",
"{  c #087B29",
"}  c #006331",
"|  c #086331",
" . c #006B31",
".. c #086B31",
"X. c #006339",
"o. c #006B39",
"O. c #086B39",
"+. c #007331",
"@. c #087331",
"#. c #087B31",
"$. c #007339",
"%. c #087339",
"&. c #007B39",
"*. c #087B39",
"=. c #003942",
"-. c #004242",
";. c #004A42",
":. c #00424A",
">. c #005A42",
",. c #006342",
"<. c #006B42",
"1. c #086B42",
"2. c #00634A",
"3. c #006B4A",
"4. c #007342",
"5. c #087342",
"6. c #007B42",
"7. c #087B42",
"8. c #00734A",
"9. c #087B4A",
"0. c #087B52",
"q. c #088410",
"w. c #088418",
"e. c #088421",
"r. c #088442",
"t. c #08845A",
/* pixels */
"Q F A D q > o o * e : k $._ Z 5 $ o @ 5 ( %.T *       $ 7 u p w Q F A D q > o o * e : k $._ Z 5 $ o @ 5 ( %.T *       $ 7 u p w ",
"G w e 0 * o     $ 8 2 G h z H S y t 5 5 K O.q o       $ y =.e z G w e 0 * o     $ 8 2 G h z H S y t 5 5 K O.q o       $ y =.e z ",
"D e * o         $ * w K > , h F I u 6 * R ,.0 $ $ $ $ * > q h Q D e * o         $ * w K > , h F I u 6 * R ,.0 $ $ $ $ * > q h Q ",
"8 $               O D J 7 0 e r Z J I S ..4.;.a e w Z F G  .} w 8 $               O D J 7 0 e r Z J I S ..4.;.a e w Z F G  .} w ",
"* o               ; T r 7 % 7 a U D O.%.] @.1.X.K ! %.9.9.0.R > * o               ; T r 7 % 7 a U D O.%.] @.1.X.K ! %.9.9.0.R > ",
"% O . . .       O 2 R q > o O e i Z ....x n #.( j j | O.5.9.O.h % O . . .       O 2 R q > o O e i Z ....x n #.( j j | O.5.9.O.h ",
": O O O o .   o % 2 R q 8 * 7 0 q Z R P w z ^ A 8 e P I D A ^ _ : O O O o .   o % 2 R q 8 * 7 0 q Z R P w z ^ A 8 e P I D A ^ _ ",
"A ; % * $ o . o * , T r 8 > 8 w D T Y U a Z n h 7 * e U U q F ] A ; % * $ o . o * , T r 8 > 8 w D T Y U a Z n h 7 * e U U q F ] ",
"] F , > 8 7 % $ * $ D X.> 2 J } T U U i i q l z 8 o o $ 8 0 2 ( ] F , > 8 7 % $ * $ D X.> 2 J } T U U i i q l z 8 o o $ 8 0 2 ( ",
"J J D 3 > 0 e 0 * O Z 4.| ( L S e 0 7 % * 8 1 Q w $     $ 7 7 q J J D 3 > 0 e 0 * O Z 4.| ( L S e 0 7 % * 8 1 Q w $     $ 7 7 q ",
"8 > w K Z w q , % : R <.D w , % * $ o   o 7 q / K >       o $ > 8 > w K Z w q , % : R <.D w , % * $ o   o 7 q / K >       o $ > ",
"> > < Q b b Q G G Q ) S * $ o o           * 8 J / , o         $ > > < Q b b Q G G Q ) S * $ o o           * 8 J / , o         $ ",
"; f V K ; % : g M w.+.r > o               o e D G , 7 % * 7 7 > ; f V K ; % : g M w.+.r > o               o e D G , 7 % * 7 7 > ",
"c m K q $ % 0 q h C ` T i e 8 * o         o e D G q u u e q w j c m K q $ % 0 q h C ` T i e 8 * o         o e D G q u u e q w j ",
"K D 8 $   o e a , b q.` I I P 8 * o       o 0 w / F w w A / / ) K D 8 $   o e a , b q.` I I P 8 * o       o 0 w / F w w A / / ) ",
"0 7 $       0 U > c B N } ,.,.I 8 %       $ 7 > / { ' Q K D i e 0 7 $       0 U > c B N } ,.,.I 8 %       $ 7 > / { ' Q K D i e ",
"o         o 0 e , m v h q 8 S ,.E e % o % 0 q 3 ) e.[ J P 0 $ o o         o 0 e , m v h q 8 S ,.E e % o % 0 q 3 ) e.[ J P 0 $ o ",
"          $ 0 > j m A i u 7 > P 3.>.e 7 e S z F K ~ ' T -.a $             $ 0 > j m A i u 7 > P 3.>.e 7 e S z F K ~ ' T -.a $   ",
"          * * : b G r 0 o o * 8 I ,.E 8 S R T r e S K / T i 7 X           * * : b G r 0 o o * 8 I ,.E 8 S R T r e S K / T i 7 X ",
"        o 8 % z m w 7 o     o * 7 r 3.2.<.E 8 $ o * 8 Z / I 8 o         o 8 % z m w 7 o     o * 7 r 3.2.<.E 8 $ o * 8 Z / I 8 o ",
"        * 7 ; m c 8 $     . o * 8 A 8.t.0.I $ o o $ * , G I >           * 7 ; m c 8 $     . o * 8 A 8.t.0.I $ o o $ * , G I >   ",
"        > 7 = m A > o o 7 0 0 8 A  .<.8.0.3.E I P P r D / w o           > 7 = m A > o o 7 0 0 8 A  .<.8.0.3.E I P P r D / w o   ",
"        > 7 + b A * % 7 8 q w A / D 8 r P I 3.0.7.@.] @.J > X           > 7 + b A * % 7 8 q w A / D 8 r P I 3.0.7.@.] @.J > X   ",
"$ o     $ > O z J * * 7 Z K } K D e u p p 9 E 9.#.C C @.D > * & $ o     $ > O z J * * 7 Z K } K D e u p p 9 E 9.#.C C @.D > * & ",
"7 7 o     $ O A R > > q o.J q 7 7 * $ & t y W %.X.J G _  .A 2 > 7 7 o     $ O A R > > q o.J q 7 7 * $ & t y W %.X.J G _  .A 2 > ",
"< * $ X     . h  .D J o.S > @ o o   o & 5 S ..R ;.:.i A ) +./ j < * $ X     . h  .D J o.S > @ o o   o & 5 S ..R ;.:.i A ) +./ j ",
") h > o     . Z &.*.} D 7 o       o 7 > w ....P u 7 9 0 w A G / ) h > o     . Z &.*.} D 7 o       o 7 > w ....P u 7 9 0 w A G / ",
"K ) F : + = 3 } r.o.w * o         $ 0 3 ..7.L e * o o $ 7 7 > 2 K ) F : + = 3 } r.o.w * o         $ 0 3 ..7.L e * o o $ 7 7 > 2 ",
"8 D Q ~ ) ) +.6.4.S * * o o       5 8 F *.5.D * o         o o $ 8 D Q ~ ) ) +.6.4.S * * o o       5 8 F *.5.D * o         o o $ ",
"& 0 2 Q #.) A K  .A , , > * o     & 6 A %...q $   o o           & 0 2 Q #.) A K  .A , , > * o     & 6 A %...q $   o o           ",
"5 0 , c ] D 8 8 3 g s s 1 : * o   o 4 q ..%.S * o o o $ o     $ 5 0 , c ] D 8 8 3 g s s 1 : * o   o 4 q ..%.S * o o o $ o     $ ",
"S J G ~ J i u u e q - d #.F > $     # > ( %.R 7 o     $ * $ 7 8 S J G ~ J i u u e q - d #.F > $     # > ( %.R 7 o     $ * $ 7 8 ",
"Q F A D q > o o * e : k $._ Z 5 $ o @ 5 ( %.T *       $ 7 u p w Q F A D q > o o * e : k $._ Z 5 $ o @ 5 ( %.T *       $ 7 u p w ",
"G w e 0 * o     $ 8 2 G h z H S y t 5 5 K O.q o       $ y =.e z G w e 0 * o     $ 8 2 G h z H S y t 5 5 K O.q o       $ y =.e z ",
"D e * o         $ * w K > , h F I u 6 * R ,.0 $ $ $ $ * > q h Q D e * o         $ * w K > , h F I u 6 * R ,.0 $ $ $ $ * > q h Q ",
"8 $               O D J 7 0 e r Z J I S ..4.;.a e w Z F G  .} w 8 $               O D J 7 0 e r Z J I S ..4.;.a e w Z F G  .} w ",
"* o               ; T r 7 % 7 a U D O.%.] @.1.X.K ! %.9.9.0.R > * o               ; T r 7 % 7 a U D O.%.] @.1.X.K ! %.9.9.0.R > ",
"% O . . .       O 2 R q > o O e i Z ....x n #.( j j | O.5.9.O.h % O . . .       O 2 R q > o O e i Z ....x n #.( j j | O.5.9.O.h ",
": O O O o .   o % 2 R q 8 * 7 0 q Z R P w z ^ A 8 e P I D A ^ _ : O O O o .   o % 2 R q 8 * 7 0 q Z R P w z ^ A 8 e P I D A ^ _ ",
"A ; % * $ o . o * , T r 8 > 8 w D T Y U a Z n h 7 * e U U q F ] A ; % * $ o . o * , T r 8 > 8 w D T Y U a Z n h 7 * e U U q F ] ",
"] F , > 8 7 % $ * $ D X.> 2 J } T U U i i q l z 8 o o $ 8 0 2 ( ] F , > 8 7 % $ * $ D X.> 2 J } T U U i i q l z 8 o o $ 8 0 2 ( ",
"J J D 3 > 0 e 0 * O Z 4.| ( L S e 0 7 % * 8 1 Q w $     $ 7 7 q J J D 3 > 0 e 0 * O Z 4.| ( L S e 0 7 % * 8 1 Q w $     $ 7 7 q ",
"8 > w K Z w q , % : R <.D w , % * $ o   o 7 q / K >       o $ > 8 > w K Z w q , % : R <.D w , % * $ o   o 7 q / K >       o $ > ",
"> > < Q b b Q G G Q ) S * $ o o           * 8 J / , o         $ > > < Q b b Q G G Q ) S * $ o o           * 8 J / , o         $ ",
"; f V K ; % : g M w.+.r > o               o e D G , 7 % * 7 7 > ; f V K ; % : g M w.+.r > o               o e D G , 7 % * 7 7 > ",
"c m K q $ % 0 q h C ` T i e 8 * o         o e D G q u u e q w j c m K q $ % 0 q h C ` T i e 8 * o         o e D G q u u e q w j ",
"K D 8 $   o e a , b q.` I I P 8 * o       o 0 w / F w w A / / ) K D 8 $   o e a , b q.` I I P 8 * o       o 0 w / F w w A / / ) ",
"0 7 $       0 U > c B N } ,.,.I 8 %       $ 7 > / { ' Q K D i e 0 7 $       0 U > c B N } ,.,.I 8 %       $ 7 > / { ' Q K D i e ",
"o         o 0 e , m v h q 8 S ,.E e % o % 0 q 3 ) e.[ J P 0 $ o o         o 0 e , m v h q 8 S ,.E e % o % 0 q 3 ) e.[ J P 0 $ o ",
"          $ 0 > j m A i u 7 > P 3.>.e 7 e S z F K ~ ' T -.a $             $ 0 > j m A i u 7 > P 3.>.e 7 e S z F K ~ ' T -.a $   ",
"          * * : b G r 0 o o * 8 I ,.E 8 S R T r e S K / T i 7 X           * * : b G r 0 o o * 8 I ,.E 8 S R T r e S K / T i 7 X ",
"        o 8 % z m w 7 o     o * 7 r 3.2.<.E 8 $ o * 8 Z / I 8 o         o 8 % z m w 7 o     o * 7 r 3.2.<.E 8 $ o * 8 Z / I 8 o ",
"        * 7 ; m c 8 $     . o * 8 A 8.t.0.I $ o o $ * , G I >           * 7 ; m c 8 $     . o * 8 A 8.t.0.I $ o o $ * , G I >   ",
"        > 7 = m A > o o 7 0 0 8 A  .<.8.0.3.E I P P r D / w o           > 7 = m A > o o 7 0 0 8 A  .<.8.0.3.E I P P r D / w o   ",
"        > 7 + b A * % 7 8 q w A / D 8 r P I 3.0.7.@.] @.J > X           > 7 + b A * % 7 8 q w A / D 8 r P I 3.0.7.@.] @.J > X   ",
"$ o     $ > O z J * * 7 Z K } K D e u p p 9 E 9.#.C C @.D > * & $ o     $ > O z J * * 7 Z K } K D e u p p 9 E 9.#.C C @.D > * & ",
"7 7 o     $ O A R > > q o.J q 7 7 * $ & t y W %.X.J G _  .A 2 > 7 7 o     $ O A R > > q o.J q 7 7 * $ & t y W %.X.J G _  .A 2 > ",
"< * $ X     . h  .D J o.S > @ o o   o & 5 S ..R ;.:.i A ) +./ j < * $ X     . h  .D J o.S > @ o o   o & 5 S ..R ;.:.i A ) +./ j ",
") h > o     . Z &.*.} D 7 o       o 7 > w ....P u 7 9 0 w A G / ) h > o     . Z &.*.} D 7 o       o 7 > w ....P u 7 9 0 w A G / ",
"K ) F : + = 3 } r.o.w * o         $ 0 3 ..7.L e * o o $ 7 7 > 2 K ) F : + = 3 } r.o.w * o         $ 0 3 ..7.L e * o o $ 7 7 > 2 ",
"8 D Q ~ ) ) +.6.4.S * * o o       5 8 F *.5.D * o         o o $ 8 D Q ~ ) ) +.6.4.S * * o o       5 8 F *.5.D * o         o o $ ",
"& 0 2 Q #.) A K  .A , , > * o     & 6 A %...q $   o o           & 0 2 Q #.) A K  .A , , > * o     & 6 A %...q $   o o           ",
"5 0 , c ] D 8 8 3 g s s 1 : * o   o 4 q ..%.S * o o o $ o     $ 5 0 , c ] D 8 8 3 g s s 1 : * o   o 4 q ..%.S * o o o $ o     $ ",
"S J G ~ J i u u e q - d #.F > $     # > ( %.R 7 o     $ * $ 7 8 S J G ~ J i u u e q - d #.F > $     # > ( %.R 7 o     $ * $ 7 8 "
};
