/* XPM */
static char *be72175754fb4424cfc0c54ceb92645fQQi0QnARxTWQhPAs[] = {
/* columns rows colors chars-per-pixel */
"64 64 214 2 ",
"   c #313929",
".  c #393931",
"X  c #4A3929",
"o  c #423121",
"O  c #553929",
"+  c #523931",
"@  c #673129",
"#  c #394231",
"$  c #394239",
"%  c #394229",
"&  c #424A31",
"*  c #4A4A31",
"=  c #424239",
"-  c #424A39",
";  c #4A4A39",
":  c #454231",
">  c #524231",
",  c #564635",
"<  c #4A5239",
"1  c #4A5231",
"2  c #525639",
"3  c #634534",
"4  c #424642",
"5  c #4A5242",
"6  c #525A42",
"7  c #525A4A",
"8  c #565647",
"9  c #5A5A52",
"0  c #5A5A5A",
"q  c #6B5A5A",
"w  c #635A52",
"e  c #735A56",
"r  c #5A634A",
"t  c #5A6352",
"y  c #5A635A",
"u  c #63635A",
"i  c #6B635A",
"p  c #636B5A",
"a  c #676955",
"s  c #736756",
"d  c #6B735A",
"f  c #6B6B52",
"g  c #6B6B63",
"h  c #656865",
"j  c #6B7363",
"k  c #737669",
"l  c #767774",
"z  c #BD1810",
"x  c #842918",
"c  c #A52921",
"v  c #B93535",
"b  c #BD2D25",
"n  c #943931",
"m  c #DE1818",
"M  c #EF0808",
"N  c red",
"B  c #F70808",
"V  c #EF1010",
"C  c #EF1818",
"Z  c #E71810",
"A  c #F71010",
"S  c #F71818",
"D  c #F71810",
"F  c #D62118",
"G  c #CB2929",
"H  c #DE2525",
"J  c #CA3129",
"K  c #CE3131",
"L  c #CE3931",
"P  c #CE3939",
"I  c #C63533",
"U  c #D63939",
"Y  c #DC3531",
"T  c #E72121",
"R  c #EF2121",
"E  c #E72929",
"W  c #EF2929",
"Q  c #E73535",
"!  c #F72121",
"~  c #8C4239",
"^  c #8C4534",
"/  c #944239",
"(  c #944A39",
")  c #B94239",
"_  c #CA4239",
"`  c #D64239",
"'  c #884A46",
"]  c #944A42",
"[  c #944242",
"{  c #8F574D",
"}  c #B84745",
"|  c #B5524A",
" . c #BB5856",
".. c #A54A42",
"X. c #8C635A",
"o. c #A9635A",
"O. c #BA635A",
"+. c #88756B",
"@. c #9C7B73",
"#. c #AD6767",
"$. c #BD6966",
"%. c #A8776B",
"&. c #BB736B",
"*. c #A87A74",
"=. c #BB7975",
"-. c #DE4242",
";. c #D64A4A",
":. c #DA4844",
">. c #CE524A",
",. c #D6524A",
"<. c #DE524A",
"1. c #CB5856",
"2. c #D65252",
"3. c #D85855",
"4. c #CA635A",
"5. c #D6635A",
"6. c #C66363",
"7. c #CE6363",
"8. c #C66B63",
"9. c #CE6B63",
"0. c #C66B6B",
"q. c #CE6B6B",
"w. c #D66565",
"e. c #C6736B",
"r. c #CE736B",
"t. c #C67373",
"y. c #C67B73",
"u. c #C67B7B",
"i. c #CE7B78",
"p. c #D6736B",
"a. c #7B846B",
"s. c #7B8474",
"d. c #848B7A",
"f. c #94907B",
"g. c #AB8479",
"h. c #B5847B",
"j. c #BB867B",
"k. c #C6847B",
"l. c #CE847B",
"z. c #8C8C84",
"x. c #878A87",
"c. c #8C9484",
"v. c #8C948C",
"b. c #94948C",
"n. c #949C8C",
"m. c #979A87",
"M. c gray58",
"N. c #9C9C94",
"B. c gray61",
"V. c #949C94",
"C. c #BD8C84",
"Z. c #B88685",
"A. c #BD948C",
"S. c #AA9C94",
"D. c #B99C95",
"F. c #AD9088",
"G. c #9CA594",
"H. c #9CA59C",
"J. c #A5A59C",
"K. c #A5AD9C",
"L. c #A8A597",
"P. c #B9A59C",
"I. c #A5A5A5",
"U. c #A5ADA5",
"Y. c #ADADA5",
"T. c gray68",
"R. c #ADA5A5",
"E. c #BAA8A5",
"W. c #ADB5A5",
"Q. c #ADB5AD",
"!. c #B5B5AD",
"~. c #B8BDAD",
"^. c gray71",
"/. c #B5BDB5",
"(. c #BDBDB5",
"). c gray74",
"_. c #C98985",
"`. c #C6948C",
"'. c #CE9C94",
"]. c #CA9B99",
"[. c #D68C8C",
"{. c #C6A59C",
"}. c #CBABA7",
"|. c #D4A9A7",
" X c #E7948C",
".X c #BDC6BD",
"XX c #BDC6B5",
"oX c #C6C6BD",
"OX c #C6CEBD",
"+X c #CBCBBA",
"@X c #C6C6C6",
"#X c #CECEC6",
"$X c #CECECE",
"%X c #C6CEC6",
"&X c #CED6CE",
"*X c #D6D6CE",
"=X c #D6DECE",
"-X c #D6D6C6",
";X c gray84",
":X c #DEDED6",
">X c gray87",
",X c #D6DED6",
"<X c #DEE7DE",
"1X c #DEE7D6",
"2X c #E7E7DE",
"3X c #E7E7D6",
"4X c #E7E7E7",
"5X c #E7EFE7",
"6X c #EFEFE7",
"7X c #EFEFEF",
"8X c #EFF7EF",
"9X c #F7F7EF",
"0X c gray97",
"qX c white",
/* pixels */
"8X0XqXqX0X0XqXqXqXqXqX0X#X5X!.# 5X<X~.#XXXW.*X>X7X2X6X:X2X+X~.r 8X0XqXqX0X0XqXqXqXqXqX0X#X5X!.# 5X1X~.%XXXW.*X>X7X2X6X:X2X+X!.r ",
"g B.N.B.I.T.T.T.I.I.T.N.s.M.d.- a d.z.c.b.b.b.n.z.c.b.M.M.M./.- h N.N.B.I.T.T.T.I.I.T.N.s.M.f.- a d.z.c.b.b.b.n.z.c.b.M.M.M./.- ",
"h G.^.T.).H.!.^.).).).J.H.d.d.- d J.^.Q.J.Q.n.U.Y.n.J.H.U.v.!.& h G.^.T.).H.!.^.).).).J.H.d.d.- d H.^.Q.J.Q.n.U.Y.n.J.H.U.v.!.& ",
"u b.I.G.!.U.J./.).@X!.U.L.a.$X- k U.m.Y.!./.N.!.Q.).n.c.d.s.J.< u n.I.G.!.U.J./.).@X!.U.J.a.$X$ k U.n.Y.!./.N.!.Q.).n.c.d.s.K.< ",
"h N.N.J.s.W.(.$X).).Y..Xc.M.U.- u d.I.N.).(.@X!.Y.U.U.n.^.d.).- h N.N.J.s.Y.(.$X).).Y.).c.M.U.- a f.I.N.).(.@X!.Y.U.U.n.^.d.).- ",
"g b.z.c.n.J.Y.!.oX@X@X!.Y.b.@X- l d.T.^.).@X!.^.K.J.m..XI.b.*X; g b.z.c.n.J.Y.!.oX@X@X!.Y.b.@X- l d.T.^.).@X!.!.K.J.m.).I.b.$X; ",
"u y y r t g j g u h u h 9 u t - d t 7 7 t a a j t r 2 < 7 9 6 $ u y y r t g j g u j u h 9 u t - p t 7 7 t a a j a r 6 2 7 9 7 $ ",
"6 r $ - - - - - - - 7 - - - ; < - - - - - - - < - = = = - ; = - 6 r - - - - - - - $ 6 - - - ; 1 - - - - - - - < - # = = - ; = - ",
":X:X~.OXOX:X@X5 7X9X0X2X2XqX#XoX*XOX#XOX*X&X;X- *X&XoX*X:X*X9X4X:X:X(.oXOX:X@X5 7X9X0X2X2XqX#XoX*XOX#XOX*X=X,X- *X&XoX*X1X*X9X4X",
"V.J.N.Y.Y.H.W.# k U.I.^.Y.H.U.G.K.^.G.J.K.).!.- N.Q.U.Y.G.T.^.I.V.J.N.Y.Y.H.W.# k I.I.^.Y.H.U.H.K.^.G.J.K.).!.$ N.Q.I.Y.G.T.^.I.",
"^.^.J.N.K.T.W.# g z.J.^.).n.Y.N.Y.G.T.!.U.J.!.6 z.J.G.!.J.T.).Y.^.^.J.N.K.T.W.# h z.J.!.).n.Y.N.Y.G.T.!.U.J.!.6 z.K.G.!.J.T.).Y.",
"^.U.^.!.J.Y.Y.< t Y.J.).Q.^.Y.).G.Q.n.N.^.H./.# z.I.^.oX!.J.^.).^.U.^.!.J.Y.Y.< y Y.J.).Q.^.Y..XG.Q.n.N.^.H./.# z.I.^.oX!.J.^.).",
"Y.!.n.U.@XU.Y.& g T.I.I.!./.oX$X$X$X$X).H.I.).# s.I.J.J.J.Y./.Y.Y.^.n.I.@XU.Y.& g Q.I.I.!./.oX$X$X$X$X).H.I.).# s.I.J.L.J.Y.^.Y.",
"d.m.G.).N.H.^.& h I.J.n.Y.oX@X$X$X$X).@X).B.@X# h M.V.c.m.).).K.d.m.G..XN.H.^.& h I.J.n.Y.oX@X$X$X$X).@X).B.@X. h b.N.c.c.).).K.",
"t 8 7 t a r < # l y u t 9 9 9 u u u y y u h u & t a r r t d r d r 6 7 t a t < # l u u t 9 9 9 u u u y y q h u - y d r r t d r d ",
"< < - - - - - # - - < - 2 2 - < - 2 - = 2 2 < - - ; ; < # $ ; - < < - - - - - # - - < - 2 2 - < - 2 - - 2 2 < - - ; ; < # $ - - ",
"#X5X*X:X=X<X2X7X7X7X:X4X,X*X@X4 qXqXqXqX<X2X6X6X2X7X4XqX=X*XK.- %X6X*X:X=X<X2X7X7X7X:X4X,X*X@X4 qXqXqXqX<X2X6X6X<X7X4XqX=X*XK.- ",
"l U.T.J.J.Q.^.).^.).Q.Y.I.I.%X- x.^.T.H.J.H.Y.^.^.^.).^.T.N.).- l U.T.J.J.Q.^.).^.).Q.Y.I.I.%X- x.^.T.H.J.H.Y./.^.^.).^.T.N.).- ",
"a ).Q.N.b.I.(.!.U.^.J.J.N.M.$X< h ^.Q.b.n.G.J.Q.U.(.J.).N.J./.$ a ).Q.N.b.I.(.!.U.^.J.J.N.M.$X< h ^.Q.b.n.G.J.Q.I.(.J.).N.J./.- ",
"a .XJ.G.W.J.!.Q.(.^.@XY.T.J.$X- x.R.N.n.W.c.J.m.Y.Q.^.(.!.N.@Xt a ).J.G.Y.K.!.Q.(.^.@XY.T.J.$X- x.Y.N.n.Y.c.J.m.Y.Q.^.(.!.N.@Xt ",
"k I.K.N.T.Q.m.J.^.U.^.!.Y.!.!.- k V.M.H.H.!.Y.!.W.W.Y.G.c.b.K.< k I.K.S.Q.Q.N.J.^.U.!.!.Y.!.!.- k b.V.H.H.^.Y.!.W.W.Y.G.c.b.K.< ",
"z.c.c./.N.J.!.N.).Q.@X/.Y.I.Y.- x.M.x.M.G.Q.(.K.Y.W.G.J.d.d.m.* z.c.c.^.N.J.!.m.).Q.@X/.Y.I.Y.- x.M.x.M.G.Q.(.K.Y.Y.G.J.d.d.m.* ",
"r a a 7 l u u u k g k g k k l - k g g h h g h j t y t r t t a & r p t r l u u u k j k h k k l - k g h h h g h j t y t 7 t t p & ",
"& & & & & & & < & & - - - - - < - - - - - - - < - & # & & # < # & & & # & & & ; & & - - - - - < = - 5 - = - - < - & & & & & < & ",
"1XoX4X2X5X0X$X= 9X*X4X5X2X1X6X3X7X6X6X6X6X0X#X- +X=X~.-X:X*X=X-X<XoX4X2X5X0X$X= 9X*X4X5X2X1X6X3X6X6X6X6X8X9X#X- +X=X~.-X:X*X*X-X",
"B.N.Q.I.T.^.$X9 a.^.H.T.I.T.Y.^.^.).).).^.^.$X; d.J.^.Y.^.Q.I.b.B.N.Q.I.T.^.$X9 a.^.H.T.I.T.Y.^.^.).).).^.^.$X; d.J.^.Y.^.Q.I.b.",
"H.!.T.J.T.I.$X- g b.J.)./.Q.!.J.J.^.^.T.Y.B.oX5 g J.^.Y.^.^.U.Y.H.!.T.J.T.I.$X- g b.J.)./.Q.!.J.J.^.^.T.Y.B.oX5 g J.^.Y.^.^.U.Y.",
").@X).I.I.B./.- s.T.T.^.!.Q.@XY.Y.).T.Y.U.b.oX- j T.T.oX@X^.Y.^.).@X).U.I.B./.- s.T.T.^.!.Q.@XY.Y.).Y.Y.U.b.%X$ j T.T.oX@X^.Y.^.",
"oX@X@XQ.n.z.Y.- d.I.^.Q.^.Y.K.G.!.J.G.N.c.z.).< k B.U.U.^.n.$XXXoX@X@XQ.n.f.Y.$ d.I.^.T.^.Y.K.G.!.J.G.N.c.z.}.< k B.U.U.^.n.$XXX",
"@X^.Q.Q.G.j L.- l I.M.).^.Y.!./.Q.J.J.N.n.d.J.8 g B.B.^.J.f.$XG.@X^.Q.Q.N.k L.- l I.b.).^.Y.!./.Q.J.K.N.n.d.U.7 g B.B.^.J.f.%XG.",
"h h h u p g p - k p u g h t u u h g p a k j g & l d l u h h t h h h p u h j p - l p u g u t u u h g p a k j g & l d l u h h y h ",
"- - < - < - - < - - ; - = - - - - ; 8 1 < ; & < * - = - $ ; $ < - $ < - < - - < - - ; - - - - - = - 8 2 ; ; & < & - - - - ; $ - ",
"T.4X4X4X4X;X$X%XoX)./.!.Q.Y.N.& U.;X4X>X;X$XoX/.!.Y.K.J.J.N.N.; Q.4X4X4X4X;X$X%XoX)./.!.Q.Y.G.& U.;X4X>X;X$XoX/.!.Y.K.J.J.N.N.; ",
"g M.M.M.B.B.T.T.T.Q.T.I.H.N.z.& a B.B.I.I.U.T.^.(.(.).#XQ.N.c.& g M.M.M.B.B.T.T.T.Q.T.I.H.N.c.# f B.B.I.I.U.T.^.(.(.).#XQ.N.c.& ",
"h N.T.T.).H.!.^.).).).J.H.d.c.* f H.^.Q.J.Q.m.U.Y.n.J.H.U.v.M.* h N.T.T.).H.!.^.).).).J.H.d.c.* f H.^.Q.J.Q.n.I.Y.n.J.H.U.v.b.& ",
"u N.I.H.J.J.U./.).).!.Y.H.d.$X* d U.n.Y.!./.N.!.Q.).n.c.d.s.Q.< u G.I.H.J.J.U./.).).!.Y.H.d.$X* d U.n.Y.!./.N.!.Q.).n.c.d.s.Q.< ",
"h M.Y.Y.n.n.R.XXY.Y.Y.n.H.M.Q.& 9 z.I.N..X(.@X!.Y.U.U.n.^.d..X- u N.Y.Y.m.n.I.(.Y.Y.Y.n.H.M.Q.& 9 z.I.N.).(.@X!.W.U.U.n.^.c..X- ",
"e l s.s.x.B.N.x.x.B.x.V.x.x.I.& 0 l x.M.B.B.b.b.z.x.s.V.c.l ^.- e l s.s.x.B.B.x.x.B.x.V.x.x.I.& 0 l v.M.B.B.b.b.z.x.s.V.z.l ^.- ",
"h q q q i i i i i i q q q q q & w q q q q q q q q i q q q q q 4 h q q q i i i i q i q q q q q & w i q q q q q q q q q q q q q 4 ",
"* & & & & & & & & # 8 & & & - & : & < - & & & ; & # < < ; - # - ; & & & & & & & & & 8 : & & - & X $ < & & & & ; * # < < ; - # - ",
"Y.Y.U.U.U.H.b.& (.4X4X4X4X>X$XoX/.!.U.J.H.N.N.5 K.4X4X4X4X;X@X/.Y.Y.U.U.U.H.b.& (.4X4X4X4X>X$XoX/.!.U.J.H.N.N.5 K.4X4X4X4X;X@X/.",
").^.Q.(.).H.n.- k M.M.I.B.N.U.I.U.!.J.U.U.T.(.- k B.B.B.B.).@X@X).^.Q.(.).H.n.- k M.M.U.B.N.U.I.U.!.J.U.U.T.(.- k B.B.B.B.).@X@X",
"^.^.J.N.K.T.!.# l z.J.^.).n.Y.N.Y.G.T.!.U.J./.- t J.G.!.J.T.).Y.^.^.J.N.K.T.!.# l z.J.!.).n.Y.N.Y.G.T.!.U.J.^.- t J.G.!.J.T.).Y.",
"^.U.^.!.J.Y.!.% k Y.J.).Q.^.Y.).G.Q.n.N.^.H.(.# t I.^.oX!.J.^.).^.U.^.!.J.Y.!.% k Y.J.).Q.^.Y.).G.Q.n.N.^.H.(.. t I.^.oX!.J.^.).",
"Y.^.n.U.@XU.!.  l T.I.I.!.(.oX$X$X$X;X).H.I..X  t I.J.J.J.Y./.W.Y.^.n.U.@XU.!.  l T.I.I.~./.oX$X$X$X$X).H.I..X  t I.J.K.J.W./.Y.",
"+.%.g.'.g.h.].  +.Z.Z.*.C.].].|.|.|.'.].].Z.}.  e *.*.%.%.'.].h.+.%.g.'.g.h.].  +.Z.Z.*.C.].].|.|.|.'.].`.Z.}.  e *.*.%.%.'.'.h.",
"' ~ ~ / ( / ^   ' ] ] ] [ [ [ ] / ] ] ] ] ] n . 3 ] ~ ~ ~ { ( ] ' ~ ~ ( ( / ^   ' ] ] ] [ [ [ ] ] ] ] ] ] ] ^ = 3 ] ~ ~ ^ { ^ ] ",
"< * & & &     %   & * & 2 ; & & & < & & < ; * & & - & * % . & # 2 & & & &     %   $ * * 2 ; & & & < & & < ; * & & - * * # # # # ",
"Q.qX4X4X>X$XoX(.!.T.Y.Y.J.G.V.= c.$X4X4X>X;X#XoX).^.!.Q.Y.J.N.& Q.qX4X4X>X$XoX(.!.T.Y.Y.K.G.V.= c.$X4X4X>X;X%XoX).^.!.Q.Y.J.N.# ",
"p H.B.B.T.Q.^.^.^.^.^.T././.H.- j B.B.B.B.B.^.).).;X;X$X$XQ..X& p B.B.V.Y.Q.^.^.^.^.^.T././.H.- j B.B.B.B.B.^.).).;X;X$X$XQ..X& ",
"t S.E.S.N.K.T.!.Y.^.Y.J.B.M.$X6 h !..XV.n.G.J.Q.U.(.J.).N.I.(.& u S.E.S.N.J.T.^.Y.!.T.J.B.M.$X7 g !.oXV.n.G.J.Q.I.oXJ.).N.I.XX& ",
"s h.Z.F.F.S.D.D.D.E.{.P.T.S.}.< +.B.L.G.Y.n.K.J.L.Y.Q.E.E.B.P.; e h.Z.F.F.S.D.D.D.E.{.P.Y.S.}.; +.B.L.G.Y.n.K.J.J.Y.Q.E.}.B.P.; ",
"O #.&.e.e.=.Z.=.y._.i._.k.t.`.6 { *.Z.S.S.D.P.A.k.D._.h.*.f.j., > o.&.&.&.=.Z.=.i._.i._.k.t.`.6 X.*.Z.S.S.D.P.A.k.D.C.h.%.f.u., ",
"3 1. .1.1.$.$.6.6.0._.k.e.t.D.; ..1.1.$.6.3.7.,.r.t.=.*.%.%.C., 3 1. .1.1.$.&.6.6.0._.k.e.&.D.; ..>.1.&.6.3.w.2.r.t.&.=.@.%._.; ",
"c J G J ;.P K K U U P L K L / $ n I _ I } } v I G G b b I L / * c J G J -.P K K U U P L K L / - n K I v } } v J G G b b I L ^ * ",
"X + > > X X X X X X X > > > > + + + X X X X X X X + + + X X + + + + > > X X O X X X X > > > > + + + X X X X X X X + > + X X + + ",
"_.h.C.`.`.[.+.X s E.{.`.A.D.D.}.}.}.}.].]. XX.o ' }.D.A.Z.u.p.l._.k.C.C.`.[.+.X s E.}.`.A.D.D.P.}.}.}.].'. XX.. { }.D.A.Z.u.p.l.",
"Z.=.&.%.=.%.i.X @.g.*.%.g.*.*.*.%.j.y.=.h.o.p.+ g.&.g.*.%.=.h.h.Z.h.&.%.*.%.i.X @.@.*.%.g.*.*.*.*.j.y.=.=.o.w.O *.%.g.*.%.=.h.h.",
"t.y.u.u.t.$._.> #.=.t.=.=.&.&.g.*.=.7.8.O.O. .@ o.Z.k.j.y.i.t.7.e.y.u.u.t.$._.+ #.=.t.=.=.&.&.h.*.h.7.8.O.O. .@ o._.k.j.y.u.t.7.",
"w.9.0.y.4.1.5.3 o.8.0.t.t.0.9.4.&.4.1.0.4.) 1.@ | 1.7.w.q.e.r.i.w.9.q.y.9.1.5.3 O.0.0.t.=.0.9.5.$.4.1.0.4.) 3.@ | 1.7.w.q.e.r.r.",
"1.5.9.t.:. .2.O } >.6.7.2.8.-.1.8.:.>.>.,._ Y x | 3.e.-.<.,.2.5.7.5.9.t.:. .<.O } >.6.6.2.8.-.1.8.:.>.>.>._ Y x | 3.e.-.<.,.2.5.",
"` Q 2.2.E ` ;.c ) U P U H U E ;.-.R E Y U P ,.z I E Q W Q ;.<.,.` Y 2.2.E ` ;.c ) U P U H U E ;.-.R E Y U P ,.z I E Q W Q ;.<.<.",
"T C B E N C V N H T m H V V V D C A A R T Z F N H R S N N S ! R T S B E N C V N H T m H A V V D C A V R T Z F N H W S N N S ! R ",
"N N N N N N N N M M M M N N N N N N N N N N N N N N N N N N N N N N N N N N N N M M M M N N N N N N N N N N N N N N N N N N N N "
};
