/* XPM */
static char *d65490cec2a14234ebecc0ee16d01e5cIrg20DuheY6T7BhV[] = {
/* columns rows colors chars-per-pixel */
"64 64 256 2 ",
"   c None",
".  c #010000",
"X  c #0C0200",
"o  c #060B02",
"O  c #130200",
"+  c #1C0200",
"@  c #190C02",
"#  c #041701",
"$  c #181603",
"%  c #100D18",
"&  c #270400",
"*  c #3C0101",
"=  c #390900",
"-  c #350604",
";  c #271804",
":  c #391802",
">  c #3B1015",
",  c #042A00",
"<  c #063800",
"1  c #1F3B05",
"2  c #392705",
"3  c #2E2F09",
"4  c #121229",
"5  c #2D2C37",
"6  c #261126",
"7  c #430101",
"8  c #4B0101",
"9  c #480B05",
"0  c #570201",
"q  c #571803",
"w  c #4D150F",
"e  c #630000",
"r  c #6C0000",
"t  c #690909",
"y  c #730100",
"u  c #7A0402",
"i  c #71140D",
"p  c #513B00",
"a  c #5B3304",
"s  c #4F2D0B",
"d  c #682601",
"f  c #683604",
"g  c #793504",
"h  c #712D0D",
"j  c #4B1C23",
"k  c #522D32",
"l  c #6D3132",
"z  c #6E1D24",
"x  c #054600",
"c  c #015700",
"v  c #175009",
"b  c #2D5309",
"n  c #006600",
"m  c #017800",
"M  c #18670B",
"N  c #2C5326",
"B  c #30731B",
"V  c #4F520B",
"C  c #745500",
"Z  c #7C5900",
"A  c #775809",
"S  c #724B0F",
"D  c #4E6E0B",
"F  c #716B17",
"G  c #4E4C2D",
"H  c #6E4D2F",
"J  c #78722E",
"K  c #32314B",
"L  c #6C3849",
"P  c #5A3D48",
"I  c #505153",
"U  c #704D51",
"Y  c #565571",
"T  c #755066",
"R  c #726774",
"E  c #666E53",
"W  c #870301",
"Q  c #9C0100",
"!  c #960502",
"~  c #921808",
"^  c #A30100",
"/  c #AD0100",
"(  c #A80A02",
")  c #B40100",
"_  c #B90702",
"`  c #B81702",
"'  c #AE160E",
"]  c #90310F",
"[  c #A92403",
"{  c #B33106",
"}  c #A91C24",
"|  c #992D2E",
" . c #AC2F2F",
".. c #9B1F21",
"X. c #C70401",
"o. c #DB0000",
"O. c #D60701",
"+. c #C71500",
"@. c #DB1801",
"#. c #CF1B19",
"$. c #E30100",
"%. c #ED0100",
"&. c #E70B05",
"*. c #E51601",
"=. c #F1130F",
"-. c #D22E0A",
";. c #E92615",
":. c #D3302B",
">. c #EB332D",
",. c #8A4601",
"<. c #964600",
"1. c #954902",
"2. c #965704",
"3. c #8A5010",
"4. c #BA4700",
"5. c #A55902",
"6. c #A84B1B",
"7. c #AD5008",
"8. c #926D00",
"9. c #936700",
"0. c #927200",
"q. c #946A18",
"w. c #AC6502",
"e. c #BD6400",
"r. c #B56601",
"t. c #B47215",
"y. c #8E532E",
"u. c #AB5431",
"i. c #936C32",
"p. c #AE7035",
"a. c #C64B02",
"s. c #CA5801",
"d. c #D85803",
"f. c #D35513",
"g. c #EA5A01",
"h. c #E45610",
"j. c #C86701",
"k. c #D86703",
"l. c #D0730F",
"z. c #EA6702",
"x. c #F46901",
"c. c #E97604",
"v. c #F77703",
"b. c #EC7815",
"n. c #D34D2A",
"m. c #CC712F",
"M. c #EA7627",
"N. c #F0443D",
"B. c #A13C48",
"V. c #895052",
"C. c #AD4F4A",
"Z. c #976953",
"A. c #B0744B",
"S. c #8B6B70",
"D. c #AD746C",
"F. c #A25C6F",
"G. c #D2514B",
"H. c #EB4F4B",
"J. c #D06F4B",
"K. c #CA6F6E",
"L. c #EE6461",
"P. c #EB665E",
"I. c #048700",
"U. c #0B9401",
"Y. c #23A30D",
"T. c #5A9C24",
"R. c #22C20F",
"E. c #7C8973",
"W. c #63904F",
"Q. c #B58300",
"!. c #B2890F",
"~. c #B48D14",
"^. c #B1AB32",
"/. c #A58730",
"(. c #CC8A00",
"). c #C48A00",
"_. c #D38C00",
"`. c #D39300",
"'. c #D39800",
"]. c #C98819",
"[. c #D58B18",
"{. c #CE9418",
"}. c #EE8705",
"|. c #FC8518",
" X c #F29319",
".X c #EE880F",
"XX c #E1A200",
"oX c #D99529",
"OX c #D08D33",
"+X c #F68B27",
"@X c #F59827",
"#X c #E89936",
"$X c #F99738",
"%X c #EB872B",
"&X c #F3A434",
"*X c #D8AC27",
"=X c #DAC336",
"-X c #B18851",
";X c #918E72",
":X c #B89168",
">X c #A79451",
",X c #CF9151",
"<X c #EB994B",
"1X c #D3A75A",
"2X c #F9A84A",
"3X c #E8A558",
"4X c #F7AA56",
"5X c #FCB259",
"6X c #F6AA48",
"7X c #C99A6A",
"8X c #C89C74",
"9X c #D1936E",
"0X c #DAA868",
"qX c #D4A67A",
"wX c #D0A972",
"eX c #E5AB67",
"rX c #FEBB6B",
"tX c #FBB664",
"yX c #E6B676",
"uX c #F8BD74",
"iX c #ECB169",
"pX c #E49F60",
"aX c #FDC374",
"sX c #FDC57B",
"dX c #FDC97C",
"fX c #F5C27B",
"gX c #F8C06F",
"hX c #E3DE46",
"jX c #74748B",
"kX c #90798A",
"lX c #A97A89",
"zX c #92878D",
"xX c #A79595",
"cX c #B1AA9C",
"vX c #9592A9",
"bX c #A59AAC",
"nX c #AFA7B0",
"mX c #9CA39B",
"MX c #DAAD84",
"NX c #D6AB85",
"BX c #D1AE8F",
"VX c #D0B8AD",
"CX c #DFAD9D",
"ZX c #FDCB83",
"AX c #FCC782",
"SX c #FED389",
"DX c #EDC182",
"FX c #E5C8B0",
"GX c #DAC3B8",
"HX c #AFB2CA",
"JX c #C3BCCC",
"KX c #D6CBCC",
"LX c #E7D6D1",
"PX c #E6DDE2",
"IX c #F4EFEE",
"UX c #E4DCDF",
/* pixels */
"  I Z.Z Z Z Z Z Z Z Z Z Z Z Z Z Z Z Z Z Z Z Z Z Z Z Z Z Z Z Z Z Z Z Z Z Z Z Z Z Z Z Z Z Z Z Z Z Z Z Z Z Z Z Z Z Z Z Z Z F i.D ; ",
"R cXFXXXXXXXXXXXXXXXXXXXXXXXXXXXXXXXXXXXXXXXXXXXXXXXXXXXXXXXXXXXXXXXXXXXXXXXXXXXXXXXXXXXXXXXXXXXXXXXXXXXXXXXXXXXXXXXXXXX=XhX^.V ",
"J >X=X1.<.<.<.<.<.<.<.<.<.<.<.<.1.1.<.<.<.<.<.<.<.<.<.<.1.1.<.1.<.1.<.<.<.<.<.<.<.<.<.1.<.<.<.<.<.<.<.<.<.<.<.1.<.,.,.,.S =X^.V ",
"F ~.{.t = = = = = = = = = 9 s f 9 = = = = = = = = 9 9 t 0 * = - = = = = = = = = = = = = = = = = = = = = = = = = = = = = 9 {.!.V ",
"Z Q._.e . . . . X . . . @ V q.w.9 o . . . . X . . + t ' ! 9 + X X . . . . . X . . . X . . X . . . X & O X . . X X . . . 8 (.Q.p ",
"Z Q.(.e . . . . . . . X s p.oX2.: . . . . . . . . O t  .:.! 0 - O X . . . . . . . . . . . . . . . O s s + . . . . . . . 8 (.Q.p ",
"C Q.(.e . . . . . . . 3 i.<X[.,.& . . . . . . . . O w  .N.;.X.u 0 * & X . . . . . . . . . . . . . O a a : O . . . . . . 8 ).Q.p ",
"C Q.(.e . . . . . . o k i.#Xt.g & . . . . . . X & * w  .H.>.=.o.) W e 7 - O . . . & O . . . . . . X p ] d & . . . . . . 0 ).Q.p ",
"C Q.(.e . . . . . . % H A.oXw.g & . . . . . + 7 t ' ' #.>.;.&.$.$.o.X.^ u 0 & X & e 8 + . . . . . O S 2.g 9 O . . . . . 0 (.Q.p ",
"C Q.(.e . . . . . . ; F OX].1.g = . . . . O 0 ^ o.&.%.&.&.=.%.%.$.o.o.o.O./ y * 7 / ! 0 O . . . . ; q.t.,.q + . . . . . e _.Q.p ",
"C Q.(.e . . . . . . ; H OX).5.g 9 X . . . + r X.o.o.%.%.%.%.%.%.$.$.$.o.o.o.X.! e / X.W - . . . . 2 /.t.1.q & . . . . . e (.Q.p ",
"C Q._.e . . . . . . ; q.OX{.w.] q & . . . O 8 ^ o.$.%.%.%.%.%.%.%.%.o.o.o.o.o.X./ X.o.^ 8 X . . @ A oXt.1.d - X . . . . r _.Q.p ",
"C Q._.r . . . . . . ; H OX#Xr.,.g 9 + . . X & W o.%.%.$.%.%.%.%.%.%.$.o.o.o.o.o.O.o.$.^ 8 X . X s /.#Xt.<.d 7 X . . . . r _.Q.p ",
"C Q._.e . . . . . O : S /.&X].w.,.d 7 - > - w ( =.=.%.$.%.%.$.$.o.o.O.o.$.o.o.o.o.o.X.u 7 - & ; 3.*X#Xt.,.i q @ . . . . y _.Q.p ",
"C Q.(.e . . . . O : q d q.*XoXt.5.] h | | B.B.G.H.;.@.+.` ~ ~ i i y y W Q ) o.o.o.O.' ........] m.&X{.2.g d f 2 @ . . . r _.Q.p ",
"C Q.(.e . . . . X : d h 3.OX&X{.!.6.G.P.P.P.L.L.L.G.] C D D b v 1 ; @ & 7 0 u W Q ' :.N.>.>.>.>.M.#X].1.d d A f ; . . . r _.Q.p ",
"C Q.(.e . . . . . ; f S d q.#X&X[.m.P.H.P.P.L.L.H.G.i.R.Y.U.I.m n x # o X O & * t :.N.>.;.=.=.;.>.M.].1.d a 3.S ; . . . r _.Q.p ",
"C Q._.e . . . . . @ a 1.,.g t.oX[.6.| | :.P.H.H.H.H.-XT.R.R.R.U.I.c < # . . . = | H.>.=.=.%.%.$.*.f.j.2.d H p.S ; . . . y _.Q.p ",
"C Q._.e . . . . . X s 3.r.d S q.t.h 9 t } :.>.N.H.H.J.>XR.R.U.U.m n x < # X = | G.H.>.=.%.%.X.-.-.a.e.,.S :X-XH ; . . . y _.Q.p ",
"C Q._.e . . . . . . ; C 5.g q a f a q 9 ~  .:.:.:.>.H.J./.Y.U.I.m n n c < : ~ >.>.>.;.&.O._ ~ 5.k.e.<.S >XeX-Xs X . . . y _.Q.p ",
"C Q.(.e . . . . . . @ f 2.,.q 9 a 2.C 3 G S.BXP.:.#.:.:.u.D I.m n n c x s ] :.>.=.=.=.#.u 0 f ,.2.2.g y.8X7Xi.; . . . . y _.Q.p ",
"C Q._.e . . . . . . ; S w.5.d = s ,.V N E nXKXK.#.X.o.;. .D U.I.m c x 3 i :.=.=.%.=.H.D.H $ 2 ,.2.S S :XqX>XS & . . . . y _.Q.p ",
"C Q.(.e . . . . . . @ a C S 9 @ ; p b M S.KXCXC.~ W ! _ ] b I.I.n c < w  .>.=.X./ } L.KXzX5 @ f j.9.f >X1Xi.f + . . . . u _.Q.p ",
"C Q.(.e . . . . . . . @ : ; O . # x n N ;XKXCX| e * 8 u i b m I.n c < 2 } :.' u 8 t K.LXmXG o 2 9.S 3 G J H s X . . . . y `.t.p ",
"C Q._.e @ @ X . . . . . . . . , n U.m N R KXKXC.u e u  .V.3 c n c < , ; l C.| t 0 ' G.LXmXI % X p 1 , $ $ ; @ X . ; 3 2 u _.!.p ",
"C Q.(.i ,.9.S : @ . . . . X $ v I.U.I.v E mXVXK. .} :.J.H ; # < , # # $ I cX9X .`  .NXKXzXN # . , x x < # . . . k >X1Xp.] _.t.p ",
"C Q.(.i ,.w.w.w.9.3 . $ 2 S 1.1.8.D D M M W.E.;X>XD.D.J b 3 b V V b 2 3 G mXGX:Xy.J ;X;XE v , , o , < < < # . . 3 -X,Xi.] `.Q.V ",
"C Q.(.q g 2.2.5.,.3 $ S /.,X%Xz.k.j.s.9.B M B T.W.E E G W.>X:X1X1XOXl.a.y.Z.mXE.T.B Y.B M c x 3 a d a V 3 $ . . , G S a u `.r.p ",
"C Q.(.0 q f h f s ; G OXiXtX4X+Xv.x.v.z.5.b c n M N H >XyXfXgXgX4X$Xb.x.z.n.p.D M n c c c v C e.k.d.d.s.4.g & o , 5 j 9 u _.Q.p ",
"C Q.(.w U ;XcX;XE 2 i.3XaXfXrX2Xb.v.b.|.b.q.J /.i.Z.:XyXfXfXrXgX5X2X+X+Xv.v.k.5.V v x v b Z l..X.Xv.x.x.x.{ d I jXzXjXY z `.Q.p ",
"C Q.[.L vXKXUXUXnX;XA.iXsXaXaXtX4X$X+X$X<X0X0XyX1X0XyXeX3X6XtXrXrX4X$X$X$X+Xv.h.7.S i.t.w.j.@X@X|.}.v.v.x.g.a.F.VXKXHXjXV.[.Q.p ",
"C Q.].T bXUXIXIXPXBX7XaXsXaXsXaXrX2X$X$X5XuXZXAXgXeX-Xp./.<XtXgXuX4X2X$Xm.t.7.z.h.t.<X#X%X}. X@X X}.}.c.x.x.g.m.VXPXKXvXV.[.Q.p ",
"C Q.t.T vXUXIXIXPXVXyXfXsXsXdXdXuXrX2X2XtXrXsXsXrX,XH 2 s i.1X5XrXtX6XOXS s d 7.M.%X4X2X@X X X@X XXX}.}.c.x.x.h.9XLXPXbXT [.!.p ",
"C t.].T vXUXIXIXIXFXyXfXsXdXsXdXAXuX5X4XtXrXuXsXfX-Xs O ; a p.5XtXtX<Xy.: O a p.4X4XtX2X&X$X&X@X&X X}.}.v.c.x.g.J.GXPXnXV.[.t.p ",
"C Q.].T vXJXKXPXIXFXyXyXdXdXdXdXsXuX<X,X3XaXsXsXfXeX,X:XA.y.p.iXrXrXpXy.y.p.-X3XrXrXrX5X5X6X&X&X@X X}.}.c.x.x.g.m.VXIXJXF.[.Q.p ",
"C Q.m.T vXHXHXHXGXFXDXaXaXsXaXdXaX3Xy.3.,XaXZXZXAXAXAXfXyX0X,XuXuXuXyX0X0XiXrXuXaXgXgXrX5X6X#X@X X.X}.}.v.x.x.d.G.KXIXKXlXoXQ.p ",
"C Q.].T jXvXjXY R ;X8XeXgXaXaXaXeXp.q w Z.yXdXZXAXAXZXZXAXaXuXfXdXdXfXfXdXfXdXdXsXaXrXgXgX,Xp.[. X X}.}.v.v.x.s.D.KXIXUXzX%Xt.V ",
"C Q.l.L Y I 4 4 5 5 H A.0XdXdXaX,X] - j T BXyXZXZXZXAXAXAXsXdXAXdXdXdXdXdXdXdXdXAXsXaXsXfXD.| 7.XX X}.}.}.v.z.6.nXIXPXnXZ.[.r.p ",
"C Q.].w 4 5 R vXY . % G -X0XsXrX<Xh > I kXbX:X0XAXZXAXZXZXZXZXSXSXZXZXdXZXdXdXAXsXsXsXuXBXS.k g l. X}.}.v.z.7.V.nXKXnXE z (.Q.V ",
"C Q.(.0 . 5 jXvXY . . @ G A.0XiX3Xi.w U kXR U :XBXDXZXSXSXZXZXuXyXfXSXSXZXZXZXZXZXZXiX7XxXR j d l.}.}.v.c.s.] H zXjXI 4 r `.t.p ",
"C Q.).0 . % K I K K K % o k p.<X3X,Xh U T k k S.nXBXyXyXqX0X,X-XA.,XyXZXSXSXSXSXZXfX:XJ S.T j ] c.}.v.z.s.[ W z k 5 4 % t ).t.p ",
"C Q.).0 . . . . 5 Y jX4 O 0 [ n.,X0X-Xk k - j R HXnXD.i.i.y.H h s H A.0X0XqXyXqXBXVXS.k U l t 7.c.v.x.a.[ ! ! u * % jXjXl l.Q.p ",
"C Q.(.8 . . . . 5 Y jX6 0 / O.-.u.7X0Xi.9 - j R HXnXU j w 9 * * * 7 s H y.y.y.S.nXHXS.k k L y.j.c.z.a.[ ! ! ) / r 6 jXY l _.Q.p ",
"C Q.(.y y * . . % 5 5 - ! O.&.*.-.A.0X1Xl 9 z T nXbXk - 9 7 * 7 * * * 7 * * w L bXHXR j k S.A.%Xc.a.[ ^ ^ ^ ) +.W > K 5 z (.Q.p ",
"Z Q.).! ( ~ + . . . + r +.*.*.*.-.6.-XyXi.l T L kXkXz u ! ! r 8 7 e W W u 0 7 P vXxXU > k S.,X%Xk.4.[ ^ ^ / ) +.! 8 . . r _.t.V ",
"C t.).! +.+.y . . . 7 ! *.*.*.*.-.7.-XeX,XZ.R k L L ~ / ) ) Q e 0 W ) ) ^ W 0 j S.S.L 8 w u.M.b.k.4.{ ( ^ / ) X.( 0 O . r _.r.p ",
"C Q.(.W +.*.` 7 . & u +.*.*.*.-.n.,X-X3X3X:XT w 9 z / ' ' ) / u u ^ ) ) _ } t 9 k k L T l s.c.k.s.s.4.{ ^ / / X./ e + . r _.Q.V ",
"C Q.).u _ *.+.u O 0 ) *.*.*.;.n.9XNXwX,XeX0Xl 9 0 W B.F.B.' / ^ ^ / / / ' B.T k 7 j kXkXA.h.k.k.j.s.a.{ [ Q ^ _ ) r & . r _.t.p ",
"C Q.).r ^ X.+.Q 7 W @.*.*.*.n.J.qXMXqX7XeXeX| : 0 ..F.HXF.} ) ) / / / / } B.kXL j j V.xXJ.b.d.l.j.s.a.4.{ ( ! ) / r & . r _.Q.p ",
"C Q.).e ! ) ) ^ ~ ` *.*.*.-.H.qXMXMXNX8X0XiXp.q t V.vXHXF.} ) ) ) / / / / B.kXjXk w U A.M.d.l.[.l.d.a.a.4.[ ! ( / y & . r _.Q.p ",
"C Q.).8 r ! Q / +.@.*.&.*.n.,XNXMXMXMXqX0XeX,Xh z kXHXHXF.} / / / / / / / | lXHXT w ] k.z.f.OX%Xb.k.s.4.4.{ ( ( _ ! * . r _.Q.p ",
"C Q.).7 0 W ! ` -.*.@.@.#.A.8XNXNXNXqX8X7X0XeXy.L kXHXHXF.' / / / / / / /  .lXHXS.k { z.k.m.#X%Xb.k.s.a.4.4.[ ( X./ i > t _.Q.p ",
"C Q.).7 8 u ! ` @.*.@.@.n.9XNXNXNX8X8XqX8X9X0Xp.P kXHXnXB.! ^ ^ ^ ! ! ^ ^  .lXHXvXU a.z.a.m.#X+X.Xk.k.a.a.4.{ ( ) _  .Z.V.oXr.V ",
"C Q.(.s U Z.u.-.*.&.O.#.J.7XNXqXMX9X8XNX8X:XwX,XU jXzXS.y.u.6.6.u.6.3.] '  .kXHXbXD.h.d.7.OX6X%X.Xl.k.s.s.j.4.` _ X.-.D.Z.oXt.p ",
"C Q.{.T BXCX9X-.@.o.@.-.J.qXBXMXqXqXNX8X7X:X0X3XJ.A.-Xp.J.OXOX%XOXm.m.m.f.u.;XbXxXA.z.a.7.OX<XM.l.d.s.s.k.l.s.{ _ X.` C.y.{.Q.p ",
"C Q.OXmXLXLXP.-.O.O.O. .J.NXNXMXMXMXNXqX8X:X0X4X6X#X&X6X2X2X2X2X$X$X+X$X+XM.,XK.A.M.z.7.1.m.M.l.s.s.k.k.c..Xl.s.` ) ) W y (.Q.p ",
"C Q.,XxXUXGXG.*.O.O.O.{ D.MXMXMXMXMXMXMX8X:XpXtX5X2X2X2X5X2X$X$X$X X|.|.|.|.|.M.z.z.z.{ H m.m.k.k.j.k.k.l..X.Xs.[ ) / u y (.Q.p ",
"C Q.OXxXLXCXh.@.O.O.+.6.-XMXMXMXMXMXMXMX8X:X7XeXiXiX5X4X5X2X$X$X$X+X|.v.v.v.v.v.c.x.g.7.Z.pX#X.X.Xc.c.z.c.c.k.s.{ _ ^ y r _.Q.p ",
"C Q.OXxXGX9X@.X.X.X.` u.A.7X8X8XqX8XqX8X7XD.-X9X0XpXpX3X6X<X<X,X,Xm.b.x.x.x.x.g.g.g.g.6.A.pX<X+Xb.c.k.k.k.k.s.4.{ ! ! e r (.Q.p ",
"F ~.,XkXBXC.) / Q Q ^ ..u.y.Z.C.C.p.A.A.A.u.y.Z.C.m.m.m.m.m.p.p.6.6.f.a.-.-.-.-.-.-.-.] A.m.m.d.a.a.a.4.{ { [ [ ( W u e y {.~.p ",
"F ^.=XA.A.j.e.e.e.e.e.e.r.e.r.e.j.e.j.e.e.j.e.e.e.j.j.l.j.j.j.e.e.e.j.j.k.j.j.j.j.j.j.j.t.l.l.k.j.j.j.j.j.e.e.j.e.r.r.w.t.=X^.V ",
"F ^.=X).(.`.`.`.'.'.'.`._._.`._._.`.`.`.`._.`.`.`.`.'.'.`.`.'.`._._._.`.'.'.'.'.'.'.`.`._.'.'.'.'.'.'.'.'.'.`.`._.`._.`.*XhX^.G ",
"3 F q.0.8.8.8.8.0.0.0.8.8.8.8.8.8.8.8.8.8.8.8.8.8.0.0.0.0.8.8.8.8.8.8.8.0.0.0.0.0.0.0.8.8.0.0.0.0.0.0.0.0.0.8.8.8.8.0.8././.D ; ",
"  . . o . . . . . . . . . . . . . . . . . . . . . . . . . . . . . . . . . . . . . . . . . . . . . . . . . . . . . . . . . . . . "
};
