/* XPM */
static char *_2d7e68409004aa8ea5e8efefa8745d8MNyPxaUAhD4IuzsK[] = {
/* columns rows colors chars-per-pixel */
"64 64 256 2 ",
"   c black",
".  c #040404",
"X  c #080000",
"o  c #160400",
"O  c #100800",
"+  c #141301",
"@  c #260501",
"#  c #210800",
"$  c #370200",
"%  c #310800",
"&  c #261400",
"*  c #311000",
"=  c #391000",
"-  c #311800",
";  c #391800",
":  c #362500",
">  c #302A00",
",  c #420400",
"<  c #4A0000",
"1  c #4A0800",
"2  c #520000",
"3  c #5A0000",
"4  c #520800",
"5  c #5A0800",
"6  c #431401",
"7  c #4A1000",
"8  c #4A1800",
"9  c #521000",
"0  c #5A1000",
"q  c #521800",
"w  c #5A1800",
"e  c #521808",
"r  c #4A1818",
"t  c #630000",
"y  c #6B0000",
"u  c #630800",
"i  c #6B0800",
"p  c #730000",
"a  c #7B0000",
"s  c #730800",
"d  c #7B0800",
"f  c #631000",
"g  c #6B1000",
"h  c #631800",
"j  c #6B1800",
"k  c #731000",
"l  c #7B1000",
"z  c #731800",
"x  c #7B1800",
"c  c #462301",
"v  c #552401",
"b  c #5A2100",
"n  c #522900",
"m  c #423100",
"M  c #493500",
"N  c #523500",
"B  c #4A2616",
"V  c #632100",
"C  c #6B2100",
"Z  c #642803",
"A  c #6B2900",
"S  c #732100",
"D  c #7B2100",
"F  c #732900",
"G  c #7B2900",
"H  c #663300",
"J  c #733100",
"K  c #7B3100",
"L  c #793605",
"P  c #703415",
"I  c #5A2921",
"U  c #763623",
"Y  c #524200",
"T  c #594300",
"R  c #574F00",
"E  c #5A4A00",
"W  c #664600",
"Q  c #764800",
"!  c #635200",
"~  c #6B5600",
"^  c #775600",
"/  c #736300",
"(  c #7A6600",
")  c #726C02",
"_  c #7B4A21",
"`  c #880300",
"'  c #840800",
"]  c #980300",
"[  c #841000",
"{  c #8B1101",
"}  c #841800",
"|  c #8C1800",
" . c #991300",
".. c #941800",
"X. c #A60500",
"o. c #AD0800",
"O. c #B50600",
"+. c #A51000",
"@. c #AD1000",
"#. c #A51800",
"$. c #AD1800",
"%. c #BA1400",
"&. c #B51800",
"*. c #842100",
"=. c #8C2100",
"-. c #842900",
";. c #8C2900",
":. c #8C2908",
">. c #942100",
",. c #9C2100",
"<. c #942900",
"1. c #9C2900",
"2. c #843100",
"3. c #8C3100",
"4. c #893801",
"5. c #943100",
"6. c #993700",
"7. c #943118",
"8. c #AD2100",
"9. c #A92601",
"0. c #B52100",
"q. c #BD2100",
"w. c #B52900",
"e. c #BD2900",
"r. c #B52508",
"t. c #AA3401",
"y. c #B53100",
"u. c #BD3100",
"i. c #B53900",
"p. c #BD3900",
"a. c #B53108",
"s. c #8A3125",
"d. c #B03227",
"f. c #C61000",
"g. c #C62100",
"h. c #C62900",
"j. c #C63100",
"k. c #CE3100",
"l. c #C63900",
"z. c #CE3900",
"x. c #D63900",
"c. c #894300",
"v. c #9A4502",
"b. c #8F5308",
"n. c #B64501",
"m. c #BD4200",
"M. c #BD4A00",
"N. c #AE5109",
"B. c #886800",
"V. c #956A00",
"C. c #8C7300",
"Z. c #897A00",
"A. c #987601",
"S. c #947B00",
"D. c #947310",
"F. c #AB7502",
"G. c #894726",
"H. c #974C2B",
"J. c #BB4627",
"K. c #BA5528",
"L. c #B04C30",
"P. c #B86334",
"I. c #C64200",
"U. c #CE4200",
"Y. c #C64A00",
"T. c #CE4A00",
"R. c #C64A08",
"E. c #D64800",
"W. c #C65200",
"Q. c #CE5200",
"!. c #C65803",
"~. c #CE5A00",
"^. c #D65200",
"/. c #D85900",
"(. c #C65A10",
"). c #CB6602",
"_. c #D56F05",
"`. c #C94826",
"'. c #CA4D2F",
"]. c #CA5628",
"[. c #C85834",
"{. c #CA6733",
"}. c #D36C30",
"|. c #BA4F45",
" X c #B56852",
".X c #C85943",
"XX c #CD6746",
"oX c #D5714F",
"OX c #CD6955",
"+X c #D47363",
"@X c #8F8900",
"#X c #998400",
"$X c #A78600",
"%X c #A58C00",
"&X c #AC9600",
"*X c #B59C00",
"=X c #B99800",
"-X c #B29118",
";X c #B5AD06",
":X c #BBA901",
">X c #BD9C21",
",X c #C69400",
"<X c #C7AD01",
"1X c #CDB803",
"2X c #D7BA02",
"3X c #D6B813",
"4X c #D6B92B",
"5X c #DBCA01",
"6X c #D6CE08",
"7X c #EACD00",
"8X c #EED900",
"9X c #F7DB01",
"0X c #FFDE00",
"qX c #F4D812",
"wX c #FFE700",
"eX c #F9EC02",
"rX c #FFEF00",
"tX c #F2EA0A",
"yX c #FFF700",
"uX c #FCF706",
"iX c yellow",
"pX c #FFFF08",
"aX c #FFFF10",
"sX c #FFFA14",
"dX c #DEC639",
"fX c #F1D82B",
"gX c #FAED2D",
"hX c #FEFB26",
"jX c #FEFC36",
"kX c #D78B53",
"lX c #DC8A64",
"zX c #DB9572",
"xX c #E7A071",
"cX c #E8D65D",
"vX c #F9EB4C",
"bX c #FFFE46",
"nX c #FFFE55",
"mX c #F9ED69",
"MX c #FFFF67",
"NX c #FFFD76",
"BX c #E1B09A",
"VX c #EBBBB1",
"CX c #FFFE88",
"ZX c #F1E790",
"AX c #FFFD96",
"SX c #FFFF9C",
"DX c #EEC8BD",
"FX c #F7EFA5",
"GX c #FFFFAA",
"HX c #FFFEBB",
"JX c #EFD0C8",
"KX c #F7DACA",
"LX c #FFFFCB",
"PX c #FFFFDA",
"IX c #FFFFEA",
"UX c #FFFFFB",
/* pixels */
"I.M.W.T.l.8.+.] ] ] X.e.&.X.&.l.m.M.M.0.8.m.Y.u.u.p.m.m.q.o.X.] @.h.z.U.u.e.q.o.e.p.p.I.M.t.8.l.l.%.f.j.l.z.T.!._.Q.u.e.w.M.Y.z.",
"U.U.U.R.Y.y. .] ` ] #.p.&.X.$.p.p.m.m.q.w.M.M.u.w.y.l.T.p.@.] X.q.l.I.T.y.q.o.o.q.l.m.Y.Y.8.+.p.Y.e.&.p.l.l.I.~._.Q.g.e.l.W.l.j.",
"m.U.l.l.(.Y.#.] p , 4 w 0 2 9 q q b w 9 9 v b q 9 9 b A h 3 3 5 h V V A w 5 3 2 f h C V A w 4 h J j g j C j b N._.T.h.j.Y.~.Y.z.",
"l.l.j.p.W.Y.#.` , $ g D z g j C S F C f f S C g g j G K x y y z D -.2.2.S i y y d D D *.*.z g z 2.D [ *.G C n H F.z.l.j.Y.Q.W.I.",
"z.l.u.I.Y.m. ., , t %.p.q.&.q.p.u.l.u.O.0.l.l.0.8.e.I.T.e.o.O.h.z.z.U.U.u.@.X.o.q.p.u.e.e.&.0.u.Y.l.e.u.j.i.J n A y.j.p.l.W.Y.U.",
"I.I.I.I.Y.i.5 , < @.h.p.e.%.e.p.p.p.&.o.e.l.l.0.@.q.z.E.0.O.%.h.z.p.p.j.e.&.o.@.h.p.l.u.q.%.q.Y.!.Y.u.u.k.U.M.H V h 9.i.p.Q.Q.U.",
"l.l.l.l.m.C 4 4  .g.%.e.e.$.8.p.p.i.#.X.w.p.l.&.@.0.l.T.w.X.&.e.l.p.i.p.l.q.o.%.e.p.l.p.e.$.w.Y.).W.h.u.l.R.T.n.F w w t.Y.~.Q.Y.",
"U.z.u.i.F 0 t 9.m.l.{ 7 0 3 0 w w 0 2 5 0 V h 5 4 0 w V h 5 u z D C j j f 4 2 4 5 b V V f 5 0 V b h f 0 9 i.T.~.M.F 0 h i.T.T.I.",
"I.j.e.D h f ] y.U.,., 6 7 4 f h h 2 < 4 h V V 0 5 0 V V 5 2 0 j f V j j h 0 4 3 0 V V V h 5 5 V V h 0 9 7 w n.)._.!.F w D m.T.l.",
"Y.p.=.h z ] ] 9.5.4 , 7 6 1 5 h 0 2 2 5 h C C f 4 0 h h 2 < 5 i h j C j j f f 3 f h V h 0 4 4 h j 0 1 9 7 1 v M._.).9.g z 2.Q.Y.",
"T.p.f 7 8.$.+.>.q 1 1 7 8 1 4 j u 3 < 5 g C F j u f g f < $ Q V.,XF.J C z j g t 5 f h f 0 4 4 0 f 0 9 0 9 9 w n _.).t.] f A !.W.",
"T.j.0 4 8.$. .q q 7 1 7 9 f } | ' p y d >.1.6.} *.} d s 3 ^ <X2XeXuXeXh D *.| ' d } *.=.} ' d [ | | g f 0 w w v N !.8.X.f V ~.Q.",
"T.j.g 4 $. .w 8 q 9 1 4 h =.=.| ' p p { | ;.<.=.=.x k g 0 =X7XfXnXCXsX5X9 } } ' [ =.<.>...| l *.*.|  .f 0 h b b n b  .] t V Q.E.",
"Q.l.u 4 #.u f w v w 1 w <.1.;.>.| d a ' } -.>.=.*.k f q V.2XgXFXIXPXCXuXn w k d ' =.<.<.>.} l *.*.| >.| h j j n n 8 4 +.3 f Q.~.",
"Q.p.f 4 @.g j V b w 5 ;.5.<.<.<.=.[ d d l -.;.| z g 0 n <XfXAXPXUXIXLXgXeX6 5 p [ *.;.<.| [ [ =.} | =.| | z j V n w 9 8.5 f W./.",
"U.m.C 9 @.i j A b z [ 5.6.>.>.>.| [ d s [ ;.;.*.j 5 1 A.3XmXLXIXUXUXIXGXuX; < u } *.=.<.<.| | { [ | =... .;.D V n q q w.f h W.!.",
"k.I.F 0 X.t j F A >...6.6.>...,.>.| s k } <.3.G h 1 H :XfXSXLXPXIXUXUXPXsX8X$ 4 k } -.5.;.| { { { =.>...>.,.1.V n w 4 0.j h M.Y.",
"x.E.F q +.t i C C | [ 3.6.1...| <.=.l l =.<.-.F w $ @X3XmXAXSXSXSXIXUXUXSXsX:X$ 0 x -.3.;.| | [ | >.>...>.1.6.A H q 1 0.j h y.I.",
"x.T.A w $.y t 5 h d p <.6.1. . .>.| l } =.;.-.A 8 W =XfXmXNXnXnXjXSXUXUXIXnX6Xo 1 j -.3.;.| [ ' [ | >...1.6.v.J Z q 1 0.z C y.l.",
"z.U.A w w.d i u f p y [ ;.1.>...<.=.l *.;.;.G v 6 S.3XvXMXbXhXsXsXMXPXUXIXCXpX6X% q G ;.*.[ ' a ' =.>.| <.5.6.F C 0 1 w.F J I.p.",
"l.Y.K b w.k l z j d t p ;.<.>.| =.} [ *.*.*.C 6 Y :XdXnXbXhXsXyXuXjXGXPXIXGXnXiX& % f -.*.} s p a | =.>.1.1.5.K A 4 1 $.J L T.U.",
"l.Y.J v w.z k j j | d l ;.;.;.>.l s s D F V 8 # / <XgXnXhXuXyXuXiXsXMXLXPXLXNXpXZ.# = C *.[ a d ' [ { ,.1.1.6.L F 5 < #.F L ^.T.",
"p.Y.J v w.=.z g j x l S -.D z S g 2 2 w w = # Y &XqXvXjXpXiXuXiXpXuXbXSXLXIXSXnXpXM # 8 V g s s l z [ >.1.1.6.K F 5 ,  .Z c.^.T.",
"I.T.J v e.;.S j C S f h V h w 4 e r v c N m / :X7XfXbXsXyXyXuXiXiXiXhXMXHXLXPXCXvX6X/ / b.V.b.N.N.N.N.7.6.<.1.2.G f , ` 0 4.~.T.",
"Y.T.A q r.4.7.G J j 9 Q B.A.-X4X4X4XdX4X3X3XfXmXvXgXhXpXuXuXiXiXiXiXhXbXCXGXLXNXNXvXgXqXwXqXqXqXfXcXcXcXkX5.;.c.K j 2 ` 0 K ~.^.",
"n.Y.C 9 j.6.4.L H N B.=X4XcXZXFXFXHXLXGXSXGXGXNXnXhXpXiXuXiXiXiXiXiXiXpXbXnXMXMXNXjXeXgXgXjXmXNXAXPXIXHXvX5Xv.L L j 2 ` h K E./.",
"I.I.f 4 l.N.v.G n H B.=XfXmXGXGXSXAXAXnXjXpXpXpXpXpXiXiX/ 8XiXyXiXiXiX@XtXpXsXhXbXNXAXHXHXHXLXPXPXPXLXGXCXiX*XF z g 5 #.j K ^.^.",
"z.j.u 7 m.K.b.P n M C.<XwXsXvXjXhXhXhXsXyXyXyXyXuXiXiX%X  ) iXyXyXiX) + ) tXuXpXpXaXaXaXsXaXjXMXMXCXZXcX;XZ.H q f j 0 e.S G W.E.",
"k.q.3 9 M.K.v.4.e : : T ~ #X5XqXwXwXwXyXrXyXyXyXyXyXiX~   + yXiXuXiX& . > uXeXtXyXyXyXyXyXyXuXsXsX3X-X/ ^ Q ; % 1 j f h.S G Y.T.",
"h.@.3 9 Y.K.H.L e % : m M ; ; ^ 1X9X0XwXrXrXyXyXrXrXiX> . . yXiXiXuX+   . iXuXuXrXrXrXrXrXrXrX9XS.N P ^ C.W ; % 7 C j h.C G !./.",
"h.o.t q j.[.H.P B * : M Y W W v : #X7XwXwXrXrXyXyXyXiX+     yXiXiXuX      iXuXuXyXrXrXwXrX0X&Xn Q B.A.A.Z.N * % 9 A S l.C G W.).",
"e.@.u w u.[.K.b.Z % # m Y E ~ ~ H ; ~ 5X0XwXwXrXyXyXiX&     wXiXiXyX      iXyXyXyXrXrXrX7X( n ^ A.#X$XZ.N - % % w A A U.C *.I.!.",
"w.X.u w k.[.].H.P , # o m R E ~ ~ W 8 R <XwX0XwXyXyXiX>     0XiXyXrX      iXiXyXeXeXuX2X! H b.$X%X$XV.Y & * $ 4 j F F Y.S x i.W.",
"h.O.t w k.[.K.P.G.w % o O > M E ~ ^ ~ n m :X0XwXrXyXiX:     rXyXyXrX>   > iXyXrXwXwX<XN W A.$X%X$XZ.T & ; 7 3 3 j F F E.S } w.Y.",
"%.O.u w l..XXX{.L.i 9 ; o X > N E ~ ^ ^ H ; #X8XrXyXiX/   R yXyXrXrX~   / iXiXyXwX=Xm Q A.%X%X$XC.E & * 8 f y 3 g K F T.F D 8.Y.",
"O.X.f b l.OX.XXXP.d s V ; o O : Y E ! ) ^ 6 ~ yXyXyXiXiX  eXiXyXrXyX7X  8XiXyXuXtXD.e S.$X%X%X( T @ * v A x p 2 u K G T.G -.9.m.",
"O.o.u b l.oX.XXX'.a p S n ; o O & Y ~ ! T ( yXiXyXyXyXyXiXyXyXyXyXyXyXiXuXyXuXjXLXZX>X^ #X%X( M @ % 8 H 2.l p 3 3 C J T.J 3.h.p.",
"O.%.g 0 j..X.X|.|.y t z L b % @ o : m : ) 7XiXyXyXyXrXyXyXyXyXyXyXyXyXyXiXyXsXMXHXPXCX;X^ B.n @ $ 7 V G ;.| ' 3 3 u S Q.L 4.u.l.",
"$.g.g 0 a.OX|.|.|.y 3 y S F w % @ o ; E <XwXyXyXyXyXyXyXyXyXrXrXrXrXyXyXyXyXuXbXGXHXIXjX&X~ c $ , w K >.<.>.{ y t 3 j p.J 6.Y.u.",
"q.t.S w r.OX.X.X|.p p l D G F 0 , % T %X7XiXyXyXyXyXyXyXyXrXwXwXwXwXrXwXyXyXyXuXnXSXPXGXhXS.c 7 0 F 4.6.1.>...s y u g e.F 5.I.U.",
"j.t.F V h.XXOXXX.Xa ' <.4.2.:.z 5 < ) :XuXyXrXyXyXyXrXrXwXrXwX9X7X0XwXwXrXrXyXyXhXnXMXLXNX1Xv w h -.v.6.1.>. .k g S S e.S 5.Y.U.",
"l.y.F V h.+XoXXX|.` ] 6.v.4.2.} p W @X5XiXrXrXrXrXwXwXwXwX9X%XM M #X7XwXwXwXwXrXrXpXjXLXNXpX^ w C -.v.v.5.9...s z L L j.z 5.M.I.",
"l.i.F V x.+X+XoXXX]  .t.v.v.6.} p ) ;X8XwXrXwXwXwXwXrX0X*XW H Q ~ c T *X7XwXwXwXwXrXpXnXCXjX6XJ C 2.6.v.5...{ s D L 4.j.j 5.T.U.",
"M.y.F b h.lXlXkXoX .#.1.v.N.6.} ^ @X6XeXwXwXwXwXwX9X:X~ n ^ V.%XA.^ W c ! *X2X9XwXwXyXiXNXNXnX>XK G 4.v.4.,. .s x 4.2.j.z 5.W.T.",
"U.p.C w p.lXkXkXXX .{ | 5.N.3.x @X;X7X8X9XwXwX7X*X~ v ^ B.$X&X&X#XC.B.^ W c W *X1X9XeXiXsXAXCXdXb F 4.v.6.,...d D L 4.z.S 6.U.U.",
"z.m.S 0 l.xXlXkXoX .` ' >.6.G Q @X;X5X8XwX7X#XW H ^ B.A.$X*X=XS.~ ( C.Z.C.^ W c W C.7XiXpXhXnXgXD.S G b.v.1.>.l D 4.4.Q.D <.U.U.",
"T.m.C q I.xXlXkX+X .' ' | ;.h ( &X;X5XwX=XN W ^ V.$X%X=X*X&X@XM M ~ ) B.C.C.V.^ W n N 1XiXpXsXuX:XV K c.v.1.>.l x 2.K Y.D ,.I.I.",
"E.m.V 9 M.zXlX+XOX .{ { } D C ) ;X6X8XS.b ^ A.%X&X*X*X&X%XV.Y - + > ! ~ ( C.Z.C.B.^ ~ % V.iXpXaX6XH K c.v.1...l k G -.I.-.t.l.l.",
"Q.M.h 9 l.xXlXOXOX` { i f h H ( :X:X^ Q S.S.&X*X*X&X#X@X/ : O X X o > Y ! ~ ( Z.S.S.V.B.c A.iXiXuXQ A 3.4.3.>.l i D 2.T.-.t.l.Y.",
"Q.M.h 9 Y.xXlX+X+X..} u 9 9 n Z.<X( ( S.%X&X&X%X@XC.( Y : o O X X X   + > E ! ~ ( S.S.S.A.Q B.iXuXA.H J K ;.=.l s *.3.I.G t.U.U.",
"T.i.h w E.xX+XzXVX7.} f 7 1 8 @XB.B.#X%X%X%X#XB./ ! m - @ @ o o o O   X O & : E R R / S.#X#XB.V.iX*Xb Z F D } f g G 4.Y.S t.T.T.",
"I.n.C V E.BXzXDXVXVX:.S q , N E ~ S.#X%X/ / ~ R N : % & @ @ $ $ , $ @ O X . O > m Y E Y ! S.&XV.#X^ 6 Z A D h 9 0 D 3.I.x ..p.Y.",
"M.n.F F _.BXDXJXJXKXBXH h 8 m M ! / ~ ! ! Y M : - & * * = 7 5 i y u 4 * o o o X O & > M Y E E E E B 6 q V w 9 9 9 C 3.l.x | y.I.",
"Y.p.D K kXBXDXDXDXJXKXVXC q 7 ; M N T M m ; ; = ; 6 8 e j k d a d d l j e ; & o O O O + & : m m # # ; 8 6 8 9 9 1 e 2.m.x ..w.p.",
"T.y.D 2.^.,.BXVXJXKXKXKXBXe 9 7 6 6 6 B 8 7 6 7 V J G 3.>.{ ` ` ` a ' =.4.J v 7 * & # O @ & % & o & % ; 7 7 0 9 , 1 I.Y.*. .y.p.",
"U.M.F H Q.w.]  XDXJXKXKXJX XH.s.U U G.G.G.H.H.H.P.{.XX{..XP.[..X|.L.L..X}.}.P.H.H.U I B B B B r I _ G.I q 0 0 0 4 +.z.;.j 8.l.l.",
"I.U.Y.c.L 9.] ] OXJXKXKXBXXXL.L.L.L.L.[.[.[.[.[.{.{.kX{.[.'.'.'.d.d.d.|.{.oX}.}.}.K.L.G.G.G.P U s.H. XL.Z j j z 0.e.C b z 0.e.j.",
"z.z.T.~.4.w ` X.9.+XKXBX}.}.K.K.K.J.d.J.].].].J.'.'.(.}.L.d.`.].J.d.d.L.].}.}.}.].].'.].K.H.H.7.s.H.}.{.H.S S j.j.C b A i.w.w.u.",
"l.I.^./.!.D < ' 9.r.OX{.].K.J.`.`.`.d.d.`.].].].d.d.J.}.].J.].`.'.d.d.d.].].}./.].].].].{.{.K.L.d.J.{.{.].4.w.l.S b K M.u.0.u.p.",
"I.I.E./.~.e.` 5 D $.#.y.p.9.$.#.u.e.o.] o.0.u.p.h.o.#.M.w.$.w.p.g.O.] ] w.R.z.k.j.j.l.l.z.Y.m.9.#.w.I.I.I.l.u.D V -.M.T.l.u.l.I.",
"U.z.I././.g.X.8.D l  .a.a.a. .,.t.h.&.+.+.0.y.p.w.]  .m.e.%.g.h.h.@.]  .u.U.U.U.j.j.m.I.T.Y.n.9. .9.!.W.R.i.G S G m./.W.U.E.T.I.",
"U.U.Y.Q.Q.q.X.q.m.>.f h j g g i j z k g f j j g f 2 0 C S k k g k i 3 f S F F F j j j C S A b h f C A C H C S *.n.Q.~.^.T./.^.I.",
"I.U.U.U.l.$.o.u.!.p.z x z k s s s l x x k z D G z y g -.*.x x k l s i x 2.4.2.2.G x z D D G F z z K 2.2.K A h y.^.^.^.T.T./.E.U.",
"l.I.l.l.w.O.O.u.Q.T.l.e.0.@.&.e.w.q.h.j.e.l.l.l.l.&.#.z.j.u.u.q.g.%.%.z.T.^.^.E.l.%.e.l.I.M.m.e.u.U.^.~.).M.$.q.T.^.U.I.Y.~.^.M."
};
