/* XPM */
static char *_3886b936da04161ce01085a6f3497bdMP5h4qfGwnzG9Cc3[] = {
/* columns rows colors chars-per-pixel */
"64 64 238 2 ",
"   c #010000",
".  c #0C0000",
"X  c #130000",
"o  c #1B0000",
"O  c #230000",
"+  c #2C0000",
"@  c #330100",
"#  c #3C0100",
"$  c #3A0B00",
"%  c #2B1702",
"&  c #3B1402",
"*  c #440100",
"=  c #4B0100",
"-  c #430A00",
";  c #4B0C00",
":  c #540100",
">  c #5B0200",
",  c #530B00",
"<  c #5A0B00",
"1  c #4C1000",
"2  c #561500",
"3  c #591400",
"4  c #640200",
"5  c #6B0200",
"6  c #640B00",
"7  c #6B0C00",
"8  c #740200",
"9  c #7C0100",
"0  c #730B00",
"q  c #7C0B00",
"w  c #631300",
"e  c #6C1400",
"r  c #6A1B00",
"t  c #731300",
"y  c #7B1400",
"u  c #731B00",
"i  c #7B1C00",
"p  c #4E2806",
"a  c #463200",
"s  c #483B07",
"d  c #6E2401",
"f  c #732301",
"g  c #7B2700",
"h  c #733305",
"j  c #454209",
"k  c #5E440D",
"l  c #624600",
"z  c #624C00",
"x  c #644E0E",
"c  c #724A0A",
"v  c #625101",
"b  c #67540C",
"n  c #795D00",
"m  c #625C14",
"M  c #796400",
"N  c #796B00",
"B  c #797301",
"V  c #706116",
"C  c #78771B",
"Z  c #830400",
"A  c #8B0400",
"S  c #830B00",
"D  c #8C0B00",
"F  c #940400",
"G  c #9B0300",
"H  c #940C00",
"J  c #9B0C00",
"K  c #841400",
"L  c #8C1400",
"P  c #841B00",
"I  c #8B1C00",
"U  c #951500",
"Y  c #9B1400",
"T  c #931B00",
"R  c #991B00",
"E  c #A30600",
"W  c #AA0400",
"Q  c #A40D00",
"!  c #AA0C00",
"~  c #B30500",
"^  c #B90900",
"/  c #A41400",
"(  c #AA1200",
")  c #A31D00",
"_  c #AB1B00",
"`  c #B31400",
"'  c #BB1500",
"]  c #B51C00",
"[  c #BA1C00",
"{  c #852100",
"}  c #8C2200",
"|  c #832B03",
" . c #8C2C01",
".. c #932300",
"X. c #9B2400",
"o. c #932C00",
"O. c #9B2B00",
"+. c #893100",
"@. c #953801",
"#. c #A42300",
"$. c #AC2200",
"%. c #A32B01",
"&. c #AC2B00",
"*. c #B42500",
"=. c #BA2300",
"-. c #B52C00",
";. c #BB2B00",
":. c #A53402",
">. c #B43301",
",. c #BA3300",
"<. c #B43B01",
"1. c #BC3C01",
"2. c #C50900",
"3. c #D80E00",
"4. c #C81800",
"5. c #D41A00",
"6. c #C32300",
"7. c #CD2000",
"8. c #C32B00",
"9. c #CB2B00",
"0. c #DB2500",
"q. c #D72901",
"w. c #D42C00",
"e. c #C43500",
"r. c #CB3300",
"t. c #C43C02",
"y. c #CC3D00",
"u. c #D33300",
"i. c #D73700",
"p. c #DD3C00",
"a. c #E92700",
"s. c #E22C00",
"d. c #F32C01",
"f. c #E63A01",
"g. c #ED3C00",
"h. c #F63700",
"j. c #904D06",
"k. c #984900",
"l. c #975A00",
"z. c #B94703",
"x. c #A65000",
"c. c #A95000",
"v. c #A65904",
"b. c #AA530E",
"n. c #BC5700",
"m. c #BD5D03",
"M. c #9C6600",
"N. c #876219",
"B. c #A66201",
"V. c #BC6200",
"C. c #B86608",
"Z. c #AD7B00",
"A. c #BA7500",
"S. c #BC6A18",
"D. c #AB7721",
"F. c #C54300",
"G. c #CD4201",
"H. c #C74B02",
"J. c #DC4501",
"K. c #D64901",
"L. c #C95605",
"P. c #D85705",
"I. c #E44301",
"U. c #EC4501",
"Y. c #E54C03",
"T. c #EB4905",
"R. c #FA4802",
"E. c #E95603",
"W. c #E45A01",
"Q. c #F65704",
"!. c #FC5C02",
"~. c #CB6702",
"^. c #D96703",
"/. c #D27207",
"(. c #C3771E",
"). c #E96706",
"_. c #F56303",
"`. c #FC6402",
"'. c #FD6C04",
"]. c #F76A09",
"[. c #E9730E",
"{. c #F47503",
"}. c #FB7806",
"|. c #E17320",
" X c #AD8303",
".X c #B28400",
"XX c #B88800",
"oX c #BE8C00",
"OX c #B29702",
"+X c #BE9300",
"@X c #BE9B00",
"#X c #AD9413",
"$X c #B2A203",
"%X c #BEA400",
"&X c #BEAB01",
"*X c #B8A917",
"=X c #AD8D26",
"-X c #B58924",
";X c #AD9C29",
":X c #B8B02A",
">X c #CD8800",
",X c #D98600",
"<X c #D78B00",
"1X c #D79300",
"2X c #DB9604",
"3X c #D79B00",
"4X c #EB8709",
"5X c #F78607",
"6X c #FD8503",
"7X c #FC8C04",
"8X c #E09300",
"9X c #E09B01",
"0X c #FC9605",
"qX c #EE8F16",
"wX c #D7A400",
"eX c #D7AA01",
"rX c #D7AA09",
"tX c #D7AD15",
"yX c #E2A200",
"uX c #E3A80A",
"iX c #FEA509",
"pX c #E2B600",
"aX c #E2BA06",
"sX c #FCB20D",
"dX c #E0AB1C",
"fX c #DB8827",
"gX c #D8A628",
"hX c #CEB22E",
"jX c #E3B727",
"kX c #E5BC36",
"lX c #F2B836",
"zX c #E2C51D",
"xX c #E6C937",
"cX c #E5D33A",
"vX c #FAD73D",
"bX c #E6DB41",
"nX c #F9DB43",
"mX c #F4E942",
/* pixels */
"s c V C C C B B B B B B B B B B B N B N N N N N N M M M M N M M M M M n M n M n n n n n n n N N n M M N N N N B B B C C C C b % ",
"N.-XhXhX:X:XtX&X&X&X&X&X&X&X&X&X%X%X%X%X@X%XOXwX%X@X@X@X+X@X@X+X+X+X+X+XoXoXoXoXoXXXXX>XXX+X@X+X+X+X+X@X@X%X&X&XeX*XhX:X:XhX-Xs ",
"=XlXnXnXkXhXtXtXeXeXeXeXeXeXeXeXwXwXwXrXwX3X3X3X3X3X3X3X2X3X3X1X1X1X1X1X1X<X<X<X<X<X,X,X<X1X3X3X<X1X3X3X3X3XwXeXeXtXhXxXmXvXxXx ",
";XlXnXkXS.Z 9 9 8 9 9 9 9 9 9 9 9 9 9 9 9 9 9 9 9 9 9 9 9 9 9 9 9 9 9 9 9 9 9 9 9 9 9 9 9 9 9 9 9 9 9 9 9 9 9 9 8 9 L (.mXmXcXb ",
";XbXkXfX@.*   . . . X .                                                                                           X 2 b.jXxXcXm ",
";XgXC.A 5 @ o O o o O o X . . . .                 . . o X .     . o O o .         . . .           .   . . . X o X X - 9 I (.cXm ",
"$XrXB.*   o O O o X X . . . .           . .     . X O @ @ X     . @ * @ X .     . o O X         . .     . X O + o .   . 2 A.zXm ",
"$XrXB.* X O o o o X X . . . .         o + + X   . X @ = = +     O : 5 : + O .   . + * O       . . .       X + + O .   X 2 C.aXv ",
"$XeXB.* X O o o o X X . . .           @ : : O   . O * 4 5 * .   @ 8 G S > * .   X @ * O         .       . o + + O X   X 2 V.aXv ",
"$XwXB.* X O o o X X . . . .           = 9 8 @   . @ : 8 9 > + O * Z ~ ! Z >     X * = o . .               . O O o .   X 2 V.pXv ",
"OXwXB.* X O o o X X . . .           o 4 F Z #   . * 0 L S 5 = = > A W ~ F 8 o . + 4 8 + @ + .               . o X .   X 2 V.pXv ",
"OXwXv.* X O O X X . .               + 9 W F =   . , T $./ A 7 0 q Z ! ! 9 5 # @ = Z A * : = .                         . 2 V.pXv ",
"OX3Xv.* o O o X . .                 @ 9 W H = X O e -.i.6.J 9 K Z H ` ` Z 9 5 5 9 Z 8 * 4 > o                         X 2 V.pXv ",
"XX3Xv.* o o o . .                   O 0 _ ( 7 + = ..i.h.5.D 4 9 A / 6.[ H H S 9 Z D 5 @ * > # .                       X 2 V.pXv ",
"XX<Xc.* o o . .                     @ P 9.q.Y > 6 $.s.a.^ 0 # > U =.e.z.#._ Y 4 5 q 4 * : 8 = .                       X 2 V.pXv ",
".X<Xc.* X X .                       # X.f.f.=.9 5 T [ 3.~ 9 > > L *.F.K.t.=.[ H q S 4 : * 5 : O .                     X 3 V.pXv ",
".X<Xx.* o o .                       * X.K.Y.8.A 0 U _ Q E F Z 5 K >.f.Q.T.w.5.4./ q 4 < * 4 4 # X                     X 2 V.pXz ",
".X<Xc.* X o .                       # 0 X.X.Y A L 8.i.8.` ! Q A L 9.g.R.E.t.4.0.[ 0 5 : # 5 8 : o .                   X 2 m.yXz ",
".X<Xx.* o o X .                     O * , 4 9 E e.E.Q.f.` J J J ` 5.d.Q.[.P.6.q.*.S q * # 8 S > + + .                 . 2 n.yXz ",
".X<Xx.* O O O o .                   o $ = 4 A [ Y.}.'.h.6.L S / 7.d.d.Q.].E.8.&.R H D # = q L 7 * : O .               X 2 n.yXz ",
".X<Xc.* O @ @ + X                   O ; > 8 / w.Q.}.'.R.i.O.I _ T.R.h.Q.].).>.t < q 0 * : q q 6 4 5 @ .               X 2 n.yXl ",
".X<Xc.* @ * * @ O           . . . . O * : 8 ! f.`.6X7X'.U.p.8.r.|.!.R.R._.[.H.h * = = - w L q 7 q 9 @ .               . 3 n.yXl ",
".X<Xx.= * : : # O           X o o . o @ # * 9 9.`.0XiX7X!.d.0.J.}.}.R.R.].[.z.:.< 6 < 7 R ;.T q D 9 #                 X 3 n.yXl ",
".X<Xx.: : > : # o         o + @ O . . O # * 5 ~ g.{.0X6X`.h.f.H.|.].!.'.].L.%.R 7 K I { %.e.X.7 8 5 # .               X 3 n.yXl ",
".X<Xx.> > 5 : # o     X o # < : + X   X * 4 Z ~ 5.p.E._.`.!.Y.H.).].}.7X{.G.[ R 0 X.>.*.#.#.T > 4 5 @ .               X 2 n.yXl ",
".X<Xx.> 5 5 : # o     O @ , 0 < + o   X * 5 F ` 4.[ 8.W.}.5X5X[.].].5X{.r.' ' H 7 I 6.s.9.*.U : > 5 + .               X 2 n.yXl ",
" X<Xx.4 8 5 : @ X     @ * 4 y w @ X     + 5 G ` ) U / H.4XsXsXiX6X}.}.E.` W W 5 - 2 >.T.T.y.R > 5 > O .               . 2 n.yXl ",
".X<Xx.4 5 5 : @ X   . @ * 7 T { 1 X   . + 8 ! Q 0 = y :./.9XsXiX0X0XqXY.G 9 > @ O d L.}.[.W.$.q 9 5 @ .               X 3 n.9Xl ",
".X<Xx.4 5 4 * + X   . @ : 0 T I 3 + O O * 8 ! ` q   - i &.K.].{.7XiXqXb.: + X . @ | ~.0X7XW.$.D D q # X .             X 3 n.yXl ",
".X<Xx.> 4 : # O .     + * 5 D q > 4 6 w q E ^ ] I & X # 7 Y 8.Y.{.}.^.{ O .   o r <.).5X5XK.#.S S 7 $ o X             . 3 n.yXl ",
".X<Xx.: : = @ X       . * 9 F 9 0 S T X.$.! Y &.%.w   . + : I z.W.Q.,.= .     - O.W.}.}._.K.&.q 8 , @ o X             X 2 n.yXl ",
".X<Xx.: * # + X         # 8 G A 0 6 , t R R 0 K R 0 X   . - } <.K.I.! @     O y y.'.6X{.Y.t.X.5 5 @ + + .             X 3 n.yXl ",
" X<Xb.= # # + X         + 5 G Z , + + ; t } O.:.*.U # X o e z.).P.i.~ > . X : _ g.!._.Y.r.X.t : * o O + .             X 2 n.yXl ",
".X<Xx.= # * @ O .       o 5 F 8 + o @ > U F.^.E.i.] y , < k./.qXL.^ 2.G # = A 2.d.U.J.e.*.P < = + . . o o .           X 2 n.yXl ",
".X<Xx.= @ * @ O X       X > 9 > X @ : K 6.I.E.I.5.7.r.>.>.L.qXqX).^ ^ W 9 F W ^ ' $.P g } 6 , > * . . O @ o .       . o 2 n.yXl ",
".X<Xb.= + # @ + X       . * > * o * < P 9.q.=.) ( w.U.Q.).|.fXqX).0.2.~ E ` ` G q 4 # , y i e 5 : o o = < O .     . . o 3 n.9Xl ",
".X<Xx.* O @ @ + o         + # + # e i } >.&.t : I y.Q._.E.L.L.).Q.a.3.^ ^ 2./ q 6 * X $ y %.O.7 : X + < u @ .     X o O 3 n.yXl ",
".X<Xx.* X + + + o       X o o   * o.z.F.r.%.2 + g c.P.Y.r...} r.U.g.3.W W ! *.,.X.* X $ i %.X.0 4 O O = 6 O   . . o o + 3 n.yXl ",
".X<Xc.* . + @ + o .     O @ +   * O.F.y.9.#.; O , g &.8.( 4 # e X.*.' ! G U t.E.z., $ f O.X.L 9 > + O @ $ .     . o O O 3 n.yXl ",
".X<Xx.*   O @ + O .     X + O X : U ;.;./ S * X # 7 U R 5 + . O $ 6 J ( S S 9.f.:.@ 2 X.-._ / Z : * O + O .     X O + @ 3 n.yXl ",
".X<Xx.* . O @ + O X     . + @ # > H ;.8.#.A 5 . O < K t O .     . O , 5 ; 6 Y / 2 + w T R ] =.8 = * O X . .   . X O @ @ 3 n.yXl ",
".X<Xc.*   o + @ + X   . o = 4 > : S ;.y.u.' F @ . 1 { i o   . . . X o O o + * = + # > q ) *.&., + o . . .     . o + # * 3 n.yXl ",
".X<Xx.*   o + @ + X   . + q / L , 5 ) r.p.u.` 0 + @ 3 3 + X + * = - O .     X @ w y 7 7 ) *.K * O X           X O @ * * 3 n.yXl ",
".X<Xx.*   o + + + X     X y _ L * # q &.y.J.f.;.6 X @ @ $ = y _ 4./ 7 + .   @ u %.X.5 q / U > = # X .       . X + # * * 3 n.yXl ",
".X<Xc.*   X O + o X       < S 6 o o = 7 { <.Y.I.R = 3 t y K X.9.a.s.*.7 O o 6 #.*.P P R Y 5 : 5 * X . .     . o @ * : * w n.9Xl ",
".X<Xx.*   . o o o .       + = @ . . + * < @.P.T.9.$.9.9.*.#.&.i.U.f.;.I w + 0 _ _ K <.F...0 5 5 + X .       . X @ * : : w n.yXl ",
".X<Xx.*   X o O o X .     o + o     o @ : | P.|.Y.0.a.q.;.#.%.K.U.G.{ 7 7 = y *.$.T e.G.} Z 9 * X . .       . O @ = > > w n.yXl ",
".X<Xx.* o O O O O O o .   . X .       # 5  .L.[.E.a.0.4.' / T X.&.%.e 6 6 7 R r.,.U T ..6 > = O o . .   . . X O # = > 4 w n.yXl ",
".X<Xx.= @ + O + + + O o o X .         , I X.:.L.K.i.9.' ` =.R K U U S 5 5 q R -.&.S 4 > * @ + O X .   . X O + @ # = 4 4 e n.yXl ",
".X<Xc.> * # + + @ @ @ # @ + o . .     # y U K T &.=.9.9.p.I.K.H.r.4.F 5 > S Q ) T 0 * * @ O o o .     . + # # # * : 4 5 e n.9Xl ",
" X<Xc.5 : * @ @ @ # * = * # @ + o o . o > Z F F / *.9.u.U.Q.{.7X_.q.Q , = S / H q 4 # O O o X .     . O # * = = : > 5 5 e n.yXl ",
".X<Xx.5 > : # @ # * : > > : * * # + X . # 5 G ' 9.r.r.p.Y.E.'.}.Q.0.( 4 = S J Z 9 5 O . O @ + .   . o @ * : 4 5 5 5 8 8 t n.yXl ",
".X<Xc.5 5 4 * * * : 5 5 5 4 > : * * + X o * 9 _ e.,.$.e.G.K.Y.Y.y.[ ! Z 5 Z 9 > : = o . + * # . . X + * > 5 9 Z S 9 q 8 e L.wXl ",
".X<Xc.8 q 8 > : > 5 8 9 9 5 5 > : > > * o @ 5 L } i K R O.:.<.>.%.D Z Z 9 9 : + + O o O # * * o o @ * 4 9 Z J J U U K u e n.yXl ",
".X<Xx.9 L A 8 5 5 9 D U H Z 8 8 4 > 5 4 # @ y &...> Z q , 3 i X./ Z 5 : 5 5 * @ o O # 4 5 : * @ # = 4 8 A Q ` ] _ O. .g u n.uXz ",
".X<Xc.K &.) H 9 Z D ) $.$.Y A 9 5 4 > 4 * + t -.&.e 6 < $ + = 8 Z 8 : * * : 5 5 * * * : > = * = > 5 8 A J ( =.,.<.<.k.j.f V.uXz ",
".X2Xv.o.z.t.$.J J ) ;.F.F.<.#.H Z 8 5 > * # 2 P ..e 1 ; - - # * > > : * * 5 Z 9 4 , = ; < > 4 6 8 D U Y _ ;.e.z.n.m.B.M.h C.zXb ",
"#X2Xv.i +.:.,.>.;.z.H.~./.L.t.*.Q H D 9 4 ; ; w e w 3 r f u w , > 5 4 > > 8 9 q y e r w e y K S U ) &.<.1.F.H.V.~.Z.j.c f S.xXm ",
"*XgXC.J K k.~.P.L.^.,X2X<X,X^.H.,.;._ R P t e r r f { @.@.O...K q 8 9 8 5 0 y I }  .+.+.+.O.%.&.>.1.H.L.L.~././.>X Xh I %.S.cXm ",
":XcXcXgXb.g k.k.@.k.v.M.B.M.k.@.o.P P q 7 6 < , < w e g g g y 7 4 4 > 4 > < 6 e e u d u d f g i P  .+.@.k.k.j.l.l.l.d S.kXbXbXm ",
"D.kXvXkXS.J X.R R X.O.X.O.O.X.R Y Y R R Y U U U U U R R R Y U U U R U U U U U R R U R U U R R Y R R R R X.X.X.X.O.X.O.(.nXlXgXk ",
"b.|.lXnXkXtXuX2X8X8X8X8X8X8X8X8X8X8X8X8X2X8X8X8X8X8X8X8X8X8X8X8X8X8X8X8X8X8X8X8X8X8X8X8X8X8X8X8X2X8X8X8X8X8X2X9X3XdXzXcXnXfX|.p ",
"h @.D.=X;X#X X XZ.Z.Z.Z.Z.Z.Z.Z.Z.Z.Z.Z.Z.Z.Z.Z.Z.Z.Z.Z.Z.Z.Z.Z.Z.Z.Z.Z.Z.Z.Z.Z.Z.Z.Z.Z.Z.Z.Z.Z.Z.Z.Z.Z.Z.Z.Z. X.X#X;X;X;Xb.o.$ ",
"% & a s j s s a a a a a a a a a a a a a a a a a a a a a a a a a a a a a a a a a a a a a a a a a a a a a a a a a a s j j s & & X "
};
