/* XPM */
static char *result[] = {
/* columns rows colors chars-per-pixel */
"64 64 256 2 ",
"   c #28252B",
".  c #392729",
"X  c #2D2E32",
"o  c #373336",
"O  c #4B0709",
"+  c #46080A",
"@  c #530B00",
"#  c #55030B",
"$  c #54130C",
"%  c #6C0100",
"&  c #6A0B00",
"*  c #671805",
"=  c #69150D",
"-  c #761801",
";  c #542A15",
":  c #662501",
">  c #692B00",
",  c #792302",
"<  c #693500",
"1  c #7B3300",
"2  c #7B3B00",
"3  c #6A2316",
"4  c #732315",
"5  c #491F26",
"6  c #661F2E",
"7  c #4C212A",
"8  c #472829",
"9  c #52222B",
"0  c #582829",
"q  c #473526",
"w  c #4C3422",
"e  c #583928",
"r  c #452B31",
"t  c #552732",
"y  c #592431",
"u  c #473837",
"i  c #593634",
"p  c #67272B",
"a  c #66342A",
"s  c #763428",
"d  c #652731",
"f  c #642A31",
"g  c #653834",
"h  c #743933",
"j  c #56511E",
"k  c #724500",
"l  c #4B4424",
"z  c #585829",
"x  c #4E443D",
"c  c #4C4A3B",
"v  c #55453E",
"b  c #534F39",
"n  c #65432B",
"m  c #694E31",
"M  c #774738",
"N  c #313B48",
"B  c #553B42",
"V  c #613D40",
"C  c #384652",
"Z  c #37536D",
"A  c #4A4948",
"S  c #564843",
"D  c #5C4A42",
"F  c #555846",
"G  c #525254",
"H  c #634E42",
"J  c #674846",
"K  c #675242",
"L  c #6A5242",
"P  c #775845",
"I  c #6D5352",
"U  c #56624A",
"Y  c #5A654A",
"T  c #5B6A4A",
"R  c #566257",
"E  c #636B4A",
"W  c #70645B",
"Q  c #46586A",
"!  c #4D5C6F",
"~  c #6F5B6A",
"^  c #5A6967",
"/  c #516978",
"(  c #706F6F",
")  c #971D01",
"_  c #862903",
"`  c #8C2D00",
"'  c #942B00",
"]  c #992A01",
"[  c #993600",
"{  c #943D00",
"}  c #8E3211",
"|  c #AA2D0D",
" . c #A33400",
".. c #A43A00",
"X. c #AC3B00",
"o. c #B23D00",
"O. c #90362B",
"+. c #AA3723",
"@. c #C93214",
"#. c #D83716",
"$. c #D03C20",
"%. c #984500",
"&. c #964E03",
"*. c #AA4200",
"=. c #B74700",
"-. c #BD5907",
";. c #BA5716",
":. c #90601E",
">. c #BC7100",
",. c #89463A",
"<. c #994838",
"1. c #8D5638",
"2. c #A84838",
"3. c #B55130",
"4. c #926421",
"5. c #8A653C",
"6. c #96663A",
"7. c #B06339",
"8. c #CA5B05",
"9. c #CD5E0A",
"0. c #E4431F",
"q. c #C36300",
"w. c #C36C00",
"e. c #CC6804",
"r. c #C27400",
"t. c #CB7400",
"y. c #C17C00",
"u. c #CB7C00",
"i. c #D47A01",
"p. c #D06B11",
"a. c #E47400",
"s. c #E47A00",
"d. c #E2750B",
"f. c #CF4E30",
"g. c #EA522E",
"h. c #CE702D",
"j. c #F06839",
"k. c #8E534C",
"l. c #A75747",
"z. c #B75746",
"x. c #AD5551",
"c. c #8F684E",
"v. c #B66C4F",
"b. c #855C6A",
"n. c #8D756D",
"m. c #AD6D70",
"M. c #C55745",
"N. c #C15F50",
"B. c #CD6D54",
"V. c #E77453",
"C. c #D17668",
"Z. c #E47C6A",
"A. c #7B857B",
"S. c #BD8600",
"D. c #C78700",
"F. c #DA8600",
"G. c #CB9300",
"H. c #DC9700",
"J. c #E58600",
"K. c #E69400",
"L. c #DBB000",
"P. c #E8B300",
"I. c #DD8527",
"U. c #DBCB00",
"Y. c #B48A58",
"T. c #8D8376",
"R. c #B4906B",
"E. c #B69B74",
"W. c #B9A278",
"Q. c #D18E56",
"!. c #F68A4F",
"~. c #D08E73",
"^. c #E88A75",
"/. c #F48C73",
"(. c #D1AB71",
"). c #E2B770",
"_. c #3B658B",
"`. c #4A6887",
"'. c #516D90",
"]. c #55739A",
"[. c #6D7190",
"{. c #537AA5",
"}. c #617DA5",
"|. c #8E7289",
" X c #C27A80",
".X c #708394",
"XX c #5384AD",
"oX c #5688B8",
"OX c #6687A7",
"+X c #7896AB",
"@X c #6F92B2",
"#X c #7CA7BC",
"$X c #5290CC",
"%X c #599CDA",
"&X c #6D9AD1",
"*X c #59A0DE",
"=X c #68A4DA",
"-X c #78A8D0",
";X c #5B9EE8",
":X c #5BA4E7",
">X c #5DA5E8",
",X c #5FA8E8",
"<X c #68A9E4",
"1X c #62A6EA",
"2X c #64AAEC",
"3X c #6AADEE",
"4X c #71ACE4",
"5X c #6EB1ED",
"6X c #78B6EA",
"7X c #68AEF0",
"8X c #6EB2F1",
"9X c #74B7F3",
"0X c #7BBBF5",
"qX c #7FC0F8",
"wX c #8E8D8D",
"eX c #8A929C",
"rX c #AD9592",
"tX c #B0A898",
"yX c #919DA9",
"uX c #B093A1",
"iX c #ADAFA9",
"pX c #CA918B",
"aX c #EE9F89",
"sX c #D2B48C",
"dX c #CEB6AC",
"fX c #F3B9AB",
"gX c #B8C3B3",
"hX c #E6C397",
"jX c #CCC8B8",
"kX c #879BC4",
"lX c #8FB1D1",
"zX c #A9B6D0",
"xX c #88BCE9",
"cX c #9FC4DB",
"vX c #95C9EB",
"bX c #88C7FA",
"nX c #93CDF7",
"mX c #9BD5FB",
"MX c #A6D8EC",
"NX c #B1D2E7",
"BX c #A6DBF9",
"VX c #AAE4FF",
"CX c #ACE4FE",
"ZX c #B2E6FE",
"AX c #B5EAFF",
"SX c #BBEDFF",
"DX c #BDF0FF",
"FX c #D0D5C9",
"GX c #EAD9D1",
"HX c #D9E4D2",
"JX c #E9E9D8",
"KX c #C0EFFF",
"LX c #EDEDE7",
"PX c #F8F5EA",
"IX c #F9FBF3",
"UX c #FEFEFD",
/* pixels */
", %.>.G.D.D.D.G.G.G.G.G.D.D.u.u.u.u.u.D.i.u.u.u.u.u.u.u.t.t.t.t.t.u.u.t.t.t.t.t.t.t.t.e.t.t.u.t.t.t.u.D.S.G.G.D.u.u.t.t.e.q._ : ",
"%.>.D.G.S.>.D.D.S.S.G.D.>.D.y.y.r.r.r.r.r.r.r.>.r.r.>.w.w.w.r.w.w.w.w.w.r.w.w.w.-.>.q.>.w.>.>.w.>.w.y.y.S.S.S.S.>.>.w.>.-.-.=.: ",
"-.t.-.&.%.%.*.&.&.&.&.&.%.%.%.%.%.%.%.{ %.%.%.*.%.[ %.%.[ %.%.{ %.%.{ { { { { { { { { %.{ { %.` { { %.%.%.&.&.%.%.{ 2 ` ` =.a., ",
"-.-.{ , & % - , _ , ` _ _ _ - - , , - - - - - - - - - - - & & & % % % % % % % % % % % % % % % @ & * & & & * & * & # @ # _ e.s.1 ",
"=.=.*.[ ~ OXOX}.].].].].].].}.OX}.].].].].].].].].].].@X+XeX+X@X+X+X+X@X+X+X+X+X+X+X@XOX}.}.}.}.].'.'.'._.`.'.].'.`.`.`.<.a.J.2 ",
"*.*.=.*..XxXxX<X;X*X%X%X%X<X4X5X<X%X%X;X4X6X4X%X%X%X1XxXnXmXnXnXMXMXmXnXmXMXMXCXMXmXvX0XxX0X0X5X;X$XXXXX{.{.XXoX$X$X$X&Xv.i.K.k ",
"*.*.8.=.wXxXbX0X>X:X>X>X1X8X0X9X7X1X>X2XxXbX0X2X1X1X5XbXmXmXbXmXVXVXmXmXmXBXVXCXZXVXmXnXbXbXbX0X=XoX'.`.`.Z / _.'.oX%XkXv.p.K.k ",
"%.*.=.=.[.xXbX9X1X:X>X>X1X7X8X7X1X1X>X7X0XbXbX8X3X3X5X0XqXbXbXmXVXVXmXbXbXmXVXVXVXVXBXnXbXbXxXxXoX! Z C N X N N C _.{.+XN.e.H.{ ",
"..X.=.*.[.=X9X8X1X:X>X:X2X2X2X,X>X:X:X2X0XbXbX0X0X0X9X5X5XbXmXCXAXmXqX0XxXxXnXNXzXlXzXlXlXlXlX&X`.C N Z Z Z N N   N Z [.7.p.J.2 ",
".. .8.=.[.;X7X;X:X:X,X,X,X1X,X:X:X:X>X1X0XbXbXbXmXmX6X%X$X-XMXAXVXnX9X3XlXkXyX|. Xm.m.m.m. X|.|.C Z ].$X$X$X{.{.{.Z N I ;.9.J.2 ",
"[  .o.o.[.$X;X;X>X1X1X1X1X,X>X:X:X:X>X1X7X9XqXmXBXvXOX/ Z / #XMXBXxX4X@X[.b.k.l.O.+.+.+.+.2.k.I N Q }.=X<X6XxXxX3X-XOXn.3.e.J.2 ",
"[  .o.| [.%X;X;X>X1X<X3X2X,X:X:X:X>X>X1X1X7X9XbXcXOXZ X   o / lXmXxX}.~ J O.O.O.2.2.x.+.l.+.h o N B ~ @X4XbXmXnXmXmXvXkXB.9.J.1 ",
"[  .=.X.[.$X;X;X:X1X2X2X,X>X:X:X,X,X1X1X,X,X,X*XXXZ X Z / `.Q OXkX[.I h h h O.O.x.N.k.<.l.l.B B M <.k.~ @XxXBXBXCXCXVXNXv.e.s.2 ",
"[  .o.=.'.$X;X;X:X,X,X>X,X>X>X,X2X2X2X1X2X,X:X$XZ N Z XX-X-X`.Q / J p s f y s k.N.C.k.O.<.k.B V x.x.M.z.x.uXNXZXAXZXVXNXv.p.s.2 ",
"'  .=.o.[.$X;X;X:X:X>X:X:X:X,X1X7X7X7X2X2X2X*X{.Z Z XX=X9X4X].N B t g h i r i ,.x.x.i i f y u i h k.x.M.M.N.uXNXZXAXZXNXv.9.s.1 ",
"'  .o.X.[.$X;X;X;X:X:X>X>X:X2X8X8X5X5X7X7X7X*X_.Z XX*X5X4X%X`.X o o r i t . 8 h k.O.u B ( wXyXrXrXuX Xm.N.B.B.uXNXZXZXNXC.9.s.1 ",
"` ] o.o.[.$X;X;X;X:X:X>X>X1X8X0X0X8X7X8X8X2X$X{.XX$X:X>X*X{.C     X . 8 r . . t e g U wXFXJXLXLXLXLXFXdXuXC.C.C.uXzXNXNXC.9.a.1 ",
"` ' o.X.[.%X3X2X>X>X,X>X1X2X9XbXbX0X8X8X8X2X$X$X%X:X:X*XoXZ x ^ wXrXeX[.A . . . 8 F wXFXLXIXUXUXUXUXUXLXGXdXaXC.Z.pXzXzXB.0.a.1 ",
"[ [ o.o.[.4XxX9X8X1X1X7X5X0XxXnXmXbX8X9X9X3X;X;X:X:X*X$X_.^ T.iXFXHXLXFXyXW r t g W iXHXLXIXIXUXUXUXUXUXUXGXdX^.Z.N. XuX7.8.a.1 ",
"` [ =.X.[.8X0XxXbXxX0XxXnXBXmXmXmXxX8X8X9X8X1X,X:X:X$X{./ wXiXFXHXLXIXIXHXuXJ O.k.n.iXgXHXHXLXIXUXUXUXUXUXUXLXdXZ.Z.N.N.;.8.a.1 ",
"'  .o. .eX6XxXnXBXBXBXBXZXAXCXVXmXbX7X7X7X7X2X>X:X*XXX/ A.iXgXgXFXHXIXUXIXFXI O.<.b.wXyXyXtXgXJXIXUXUXUXUXUXIXGX~.^.C.f.;.8.s.1 ",
"'  .o. .eXvXBXBXAXAXAXSXDXDXSXAXBXbX9X7X2X2X2X>X:XoX`.A.eXyXgXgXgXgXHXIXLXdX,.+.z.k.^ T A R A.gXJXIXUXUXUXUXUXLXrXZ.Z.N.;.8.s.1 ",
"` ] o. .eXMXZXSXSXSXSXDXDXDXDXDXSXBXbX7X2X7X1X1X$X`.Z A..XtXwXA.A.wXgXHXFXrXO.2.3.z.m o   X F wXFXLXIXIXUXUXIXLXpXB.^.B.;.8.s.1 ",
"` ] X. .eXMXKXKXSXSXAXZXSXDXSXSXSXSXmX0X7X1X1X;XXXZ U A.A.A.^ A X R wXiXtXJ h +.M.z.2.g . X A A.gXHXJXLXIXIXIXJX XN.^.V.f.8.s.1 ",
"[ ] =. .eXMXDXKXDXAXAXZXAXSXAXAXSXSXCXnX0X7X1XoX`.B ! ^ ( ^ A X X o W T.W a O.<.2.M.f.2.,.M L n.tXgXFXFXHXHXHXdXm.N.Z.V.f.8.s.1 ",
"` ' o. .eXMXDXDXDXAXZXVXCXCXAXAXZXSXZXBXxXxX;X'.N B ^ ^ ( R C X o c H M a s s h ,.2.z.M.z.3.x.v.E.rXtXtXiXdXtXC.M.V.V.V.p.8.a.1 ",
"_ ] X. .eXMXDXSXAXVXVXmXmXVXVXCXZXZXAXCXBXnXoXN X Q ^ ^ ^ R S u l i g a a i a a h M ,.2.z.z.B.C.C.Z.~.^.^.^.^.Z.Z./.Z.V.p.8.s.1 ",
"` ] X.| eXMXAXAXVXMXxX#X-XlXMXCXZXCXBXMXBXcX[.  o A ^ ^ ^ ^ D v i a e 0 0 w 0 0 0 0 a p h ,.l.v.B.Z.^././.aX/.aX/.aX/./.h.q.s.1 ",
"` ' o.| wXMXAXVXvX#XXXZ C .XlXMXNXzXzXuXuX|.b.6 r N G R G F i i 0 w 0 0 0 0 0 0 3 9 9 9 0 0 p M k.l.v.C.C.~.^.^.^././.^.h.8.s.` ",
"_ ] o. .eXMXAXMX#X/ Q / / Q [.yXuX|.x.z.M.M.+.+.s u C A o u 8 w 0 0 9 0 9 9 0 6 0 0 9 9 9 9 7 7 9 0 g M ,.l.l.v.v.v.v.B.I.e.J.2 ",
"_ ' X.| eXMXZXcX+X@XlXcX-X.XU P +.) | @.@.#.#.@.| 9 X         . 0 0 6 5 9 0 9 5 7 7 5 7 5 5 7 7 7 7 7 7 0 e a M h M M 6.i.e.J.1 ",
"` ] X.] eXvXBXvXcXMXVXMXcX/ r 4 ] | | | #.0.$.#.+.9 7 8 . .   5 8 7 5 9 5 5 9 5 7 7 7 7 7 9 7 7 7 7 7 7 7 7 7 t 0 0 v k.d.e.s.2 ",
"` ] X.] eXMXZXBXSXDXZXlX[.u w s O.} } +.$.f.f.$.O.6 = 6 y 5 5   . 5 7 7 7 7 7 7 7 7 7 7 7 7 7 7 7 7 7 7 7 7 7 7 7 r B W d.8.s.1 ",
"` ] | ] eXMXSXSXDXNXlX[.W W ( W g s 3 } O.O.x.c.h +.| +.6 9 5 5 5 5 7 7 7 r 7 7 9 9 9 7 t 7 7 9 7 y y 7 9 9 7 7 7 9 B n.I.e.a.1 ",
"` ] X.] eXMXSXSXMXcXwXT.jXFXtXT.n.W i 3 ,.|.uXiXrXx.@.$.| 6 7 y 7 7 7 t t 7 y y y y y y y y y y y y y y y y y 9 t B B n.I.8.a.1 ",
"` ] o. ..XMXBXMXlX( T.jXLXPXjXW.tXtXb.O.rXFXLXLXGXrXx.$.@.+.6 y t t t y y t y t y y d f y y 6 d 6 y y y y d y y y B ~ n.I.8.a.1 ",
"` ] o. .+XxXvXkXW W tXJXPXPXJXGXGXfXm.v.fXIXUXUXIXjXpX~.V.@.O.6 y f f f y B 6 y f f d d d f d d d d d d d d f y y B ( T.I.e.a.` ",
"` ] o.[ [.-X+XI 4 c.tXGXPXIXPXPXLXdXM.B.dXLXUXUXUXLXJXfXaXg.@.O.f f f f d d d d f f d d f f d y 6 6 6 d d d d d V I ( T.I.9.a._ ",
"` ] X. .~ `.G $ ; K E.gXGXJXPXJXdXm.@.g.aXGXUXUXUXUXUXIXfXg.@.@.O.d f f f f f V v n M P k.k.P k.k.P L g d d d f B ~ [.T.I.e.a.1 ",
"` ] X.[ 0 8 6 = ; z A.wXtXsXdX~.l.| $.0.V.aXGXPXUXUXUXPXfXg.#.@.+.s i g i v B J K c.c.v.R.(.(.(.sXW.E.R.c.k.g f B ^ ( n.I.8.a.1 ",
"` ' X...* $ 3 3 = a M P k.<.O._ ) } +.3.f.V.aXfXJXPXPXGX^.0.#.#.@.O.V V v L K L P c.v.R.~.(.(.(.sXhXhXsXsXW.c.k.W ( ( R.I.q.a.1 ",
"` ' X.[ : $ 3 3 3 3 4 4 , 4 3 * $ = = 4 O.3.f././.fXfX/.g.0.0.#.@.+.M J L L L L P P P P P c.c.c.c.v.(.sXhXsX(.E.R.E.E.E.I.8.a.1 ",
"` '  .[ : 8 e ; ; ; 5 $ $ + + + # O O O O = O.7.M.j.j.j.g.g.0.0.#.@.2.L L L L L L L L L L L L L L P P P c.T.R.E.E.E.E.R.h.8.a., ",
"` '  ...: J W u + + + + + + + + + + + + + + O $ O.2.f.g.g.j.g.0.0.0.f.,.K K K K K K L L K L H H K m K K D m H v b D D 1.e.8.s.1 ",
"` ' X.{ $ ~ wXI $ + + + + + + + O + + + + O + + + $ 4 } 2.M.h.g.j.g.g.2.m H H H K D H K H H H K F F v H D D D D S S D J ;.8.a., ",
"' ] X.[ : R |.( 0 O # # # O # @ # O # @ O O O O + + + 5 g k.l.f.j.j.j.h.k.H D D H D D D H D D D D D D D S S D S S S S m | 8.i.1 ",
"` ]  .[ : G T.( V # # $ 3 p a s s h n s 3 # # # # # O 7 I W L <.j.!.!.j.6.D D D D S D S S D S S S S S S S x x S x x B i ] 8.a.1 ",
"` ]  .[ : A ( ( V = 4 O.,.7.7.Y.Q.Y.Y.Y.6.M s p = # # J ( ( i k h.!.!.!.z.D S S S S S x x x v c c v x x S x x A A A G I +.8.a.1 ",
"[ ] ..[ : x ^ W P O.<.7.v.Q.Q.Q.(.).).).(.R.R.c.m 3 0 W wXn.i ,.I.!.!.!.B.v x x S x x x x x x x x x c c c c U / .XOXOX[.l.8.s.1 ",
"[ ]  .[ ; e m P ,.1.6.l.6.6.6.6.6.6.7.Q.(.).(.(.Y.6.M ( tXrX6.v.Q.!.!.!.v.K b b c b b b b F b b F b F F C F ^ OX-X4X3X-Xk.9.J.2 ",
"[ ]  .[ ; e m n n n n n n n n n n n n n m 1.c.Q.(.Y.c.E.sXsX).Q.B.v.7.v.6.E F U F U b T U Y Y Y T T T U U U ^ OXvX6X5X-Xx.9.J.2 ",
"[ [ [ [ $ w w e w e w e w e l e e e j n n n n m m c.Y.Y.Y.).(.Y.6.n n m P E T T E E E E E E E E E T T T T T U .X=X5X5X=Xk.9.J.2 ",
".. ...[ 0 o 8 w w w w q q w w e w e e e e e w e e e e e n m m n w q q c U T T T E E E E E E E E E T T T T U U Q OX6X0XlXx.9.s._ ",
"[ ....{ G Q Q A u u u l q w q w w w w w w w w w w w w w w ; q q q q l b T T T T E E E E E E E E E E T T T T U R '.6XbXlXb.9.J.2 ",
"*.[ [ ` [.$XoX{.'.`.! C o w q q w w w w w w w w w q u x x c A ! ! F F U Y T T E E E E E E E E E E E T T T T U R ^ +XnXxXx.9.K.k ",
"*.*...' '.%X3X2X,X*XoX/ c l q l l l l w l l l q c ! '.'.'.XXOX@XOX^ U U Y T T E E E E E E E E E E E E T T T U U T .XbXvXx.p.H.{ ",
"=.=...] [.;X7X7X2X7X&X'.b j z z z z z z z z z j R OX4X4X5X8X9X9X#XU U Y T T T E E E E E E E E E E E T T T T Y Y U A.lXxXx.p.K.2 ",
"=.*...` [.>X7X8X5X5X$X^ j z z z m z z z z z z j R @XlX4X=X=X=X%XXXU T T E T E E E E E E E E E E E E E T E T T T U Q @XlXx.p.K.2 ",
"*.*.[ ' [.kXkXlXzXlXwXc.:.4.4.4.4.4.4.4.4.4.4.4.6.n.wXwXn.n.b.n.W 5.6.6.5.5.5.5.5.5.5.5.6.c.5.c.6.5.c.5.5.5.c.M E c.eXyXN.i.K.k ",
"%.*...*.;.3.v.h.h.7.p.p.e.t.e.w.t.e.t.e.s.i.t.e.p.p.h.h.p.p.p.p.p.t.p.e.t.p.-.-.;.-.8.-.8.-.-.=.-.-.-.-.-.-.-.8.-.-.3.h.d.J.P.&.",
"{ ..-.F.L.G.G.D.D.u.t.t.w.w.w.q.q.-.q.q.q.q.q.q.8.-.q.-.8.-.-.q.e.w.q.8.e.w.q.q.q.e.8.t.q.e.e.w.q.t.w.e.w.t.w.t.t.i.D.G.H.L.L.k ",
", ` >.L.U.U.U.L.L.H.H.H.H.F.F.F.F.F.F.u.i.i.i.i.u.i.u.F.i.i.t.F.F.F.i.i.F.F.F.F.F.F.F.F.J.F.H.F.H.F.H.H.H.H.F.H.L.L.L.U.U.U.>.< ",
": * * < k k k < < > < > < > > > > > : > : : : : > : > : : : : > > > : > > > > > > > > > > > > > < > > < > < < > < < k < k < ; @ ",
": @ @ @ $ @ @ @ @ @ @ @ @ @ @ @ @ @ @ @ @ @ @ @ @ @ @ @ @ @ @ @ @ @ @ @ @ @ @ @ @ @ @ @ @ @ @ @ @ @ @ @ @ @ @ @ @ @ @ @ + @ @ @ "
};
