/* XPM */
static char *_5e463e66e804109dd110bfc4c18f8976tYFz5kc5GkPBAHC[] = {
/* columns rows colors chars-per-pixel */
"64 64 242 2 ",
"   c black",
".  c #080000",
"X  c #080800",
"o  c #000008",
"O  c #000804",
"+  c #100000",
"@  c #100800",
"#  c #100008",
"$  c #180008",
"%  c #100808",
"&  c #180808",
"*  c #180300",
"=  c #081000",
"-  c #081800",
";  c #031404",
":  c #101000",
">  c #181000",
",  c #101800",
"<  c #181008",
"1  c #101808",
"2  c #151505",
"3  c #000810",
"4  c #000818",
"5  c #080612",
"6  c #100810",
"7  c #180810",
"8  c #140212",
"9  c #081010",
"0  c #081418",
"q  c #181010",
"w  c #101018",
"e  c #181018",
"r  c #101818",
"t  c #151512",
"y  c #240603",
"u  c #310800",
"i  c #310808",
"p  c #390805",
"a  c #211000",
"s  c #231206",
"d  c #311000",
"f  c #311008",
"g  c #391000",
"h  c #290810",
"j  c #290818",
"k  c #210815",
"l  c #211010",
"z  c #291010",
"x  c #211018",
"c  c #291018",
"v  c #291818",
"b  c #211818",
"n  c #311018",
"m  c #311818",
"M  c #310818",
"N  c #082100",
"B  c #082108",
"V  c #082905",
"C  c #102108",
"Z  c #142403",
"A  c #183108",
"S  c #183908",
"D  c #123504",
"F  c #182110",
"G  c #132116",
"H  c #183910",
"J  c #103910",
"K  c #292900",
"L  c #292908",
"P  c #252404",
"I  c #312803",
"U  c #293108",
"Y  c #213908",
"T  c #233302",
"R  c #313100",
"E  c #393100",
"W  c #313108",
"Q  c #393108",
"!  c #333906",
"~  c #352516",
"^  c #213910",
"/  c #313110",
"(  c #313118",
")  c #393516",
"_  c #252514",
"`  c #071424",
"'  c #101829",
"]  c #131831",
"[  c #081831",
"{  c #250821",
"}  c #291021",
"|  c #291821",
" . c #211423",
".. c #311821",
"X. c #311021",
"o. c #351029",
"O. c #122126",
"+. c #082131",
"@. c #102131",
"#. c #102931",
"$. c #102139",
"%. c #182139",
"&. c #102939",
"*. c #182632",
"=. c #082129",
"-. c #292129",
";. c #242326",
":. c #312929",
">. c #332324",
",. c #343522",
"<. c #292131",
"1. c #292931",
"2. c #292939",
"3. c #312939",
"4. c #392939",
"5. c #293139",
"6. c #273535",
"7. c #313139",
"8. c #393139",
"9. c #521808",
"0. c #5A1608",
"q. c #521810",
"w. c #571310",
"e. c #4A1808",
"r. c #522110",
"t. c #4A1633",
"y. c #521835",
"u. c #4B1829",
"i. c #452129",
"p. c #4A2131",
"a. c #522129",
"s. c #184208",
"d. c #184704",
"f. c #184710",
"g. c #214208",
"h. c #234704",
"j. c #234610",
"k. c #336B13",
"l. c #317310",
"z. c #317318",
"x. c #377810",
"c. c #367008",
"v. c #294627",
"b. c #344624",
"n. c #344A31",
"m. c #525208",
"M. c #525A08",
"N. c #5A5808",
"B. c #5A5210",
"V. c #5A5A10",
"C. c #525A10",
"Z. c #674939",
"A. c #6A6B39",
"S. c #687339",
"D. c #736E39",
"F. c #293142",
"G. c #393142",
"H. c #39394A",
"J. c #353345",
"K. c #253954",
"L. c #393952",
"P. c #423948",
"I. c #423952",
"U. c #473957",
"Y. c #234257",
"T. c #184263",
"R. c #214A63",
"E. c #4A4252",
"W. c #4A425A",
"Q. c #444455",
"!. c #544757",
"~. c #4A424A",
"^. c #694842",
"/. c #634A52",
"(. c #674657",
"). c #675257",
"_. c #734A42",
"`. c #6B6A43",
"'. c #736B43",
"]. c #6B7342",
"[. c #737342",
"{. c #4A4763",
"}. c #524A63",
"|. c #594A68",
" X c #5A526B",
".X c #555468",
"XX c #5A5273",
"oX c #5A5975",
"OX c #63546B",
"+X c #635273",
"@X c #635A73",
"#X c #635A7B",
"$X c #6B5A7B",
"%X c #6B5A73",
"&X c #576878",
"*X c #577376",
"=X c #6A637B",
"-X c #63636B",
";X c #6A8B4A",
":X c #678A55",
">X c #738B54",
",X c #689456",
"<X c #63944A",
"1X c #94BD7B",
"2X c #AAA57B",
"3X c #8C9C7B",
"4X c #5A6884",
"5X c #6B6384",
"6X c #6A6889",
"7X c #736B8C",
"8X c #756887",
"9X c #79738A",
"0X c #746B94",
"qX c #7B7394",
"wX c #7A769B",
"eX c #6B6B94",
"rX c #7B7BA5",
"tX c #847B8A",
"yX c #847A98",
"uX c #847BA5",
"iX c #887BA9",
"pX c #8B8499",
"aX c #978B9B",
"sX c #998F91",
"dX c #A98A92",
"fX c #98B886",
"gX c #91B287",
"hX c #AAAD84",
"jX c #8484A5",
"kX c #8C84AD",
"lX c #8C8CAD",
"zX c #8984A8",
"xX c #948CA5",
"cX c #8C8CB5",
"vX c #948CB5",
"bX c #9494BD",
"nX c #9794B8",
"mX c #9498A5",
"MX c #A59CB1",
"NX c #8CA5A5",
"BX c #ADA5C6",
"VX c #CED6C6",
/* pixels */
"xX XrX5X7X=X7XkX8XkXcXkXjX=X@X0XvXnXbXbXnXbXbXqXqX0XqXlXcXbXkXQ.xX XrX5X7X$X7XkX8XiXcXkXjX=X@X0XvXnXbXbXnXbXbXqXqX0XqXlXcXbXkXW.",
"xXXXwX8X5X5XqX7X8XkXlXiXqX#X@XqXlXvXnXbXbXbXlXqXuX7X#XyXkXlX8XI.xXoXwX5X5X5XqX7XeXkXkXiXqX#X@XqXlXvXnXbXbXbXvXyXuX8X#XyXkXlX8XI.",
"aX+XwX8X8X#X5X0XyXzXjXwX7X$X#X7XjXcXcXvXbXbXnXkXuXjX5X0XyXuX=XI.aX+XrX8X8X#X5XqXyXjXzXwX7X$X#X7XzXcXcXvXbXbXnXkXuXjX5X0XyXuX=XI.",
"pX  G O 9   t - ;   7 + .   A - =   q + + . q = =   x + o     W.pX  G ; 9   t - -   l . .   A : ;   < . +   q @ =   x . o     W.",
"yX  F.' 4   n.S Z   m i *   n.S ;   :.h 7   ,.s >   -.h %     W.pX  F.' 4   b.S Z   ~ i *   n.S ;   1.j 8   ,.L >   -.h 6     W.",
"yX  *XT.@.  >XgXg.  Z.0.i   ,Xz.s.  (.y.m   '.V.U   (.dXn     I.qX  *XY.@.  >XgXg.  Z.0.i   ,Xz.s.  (.y.m   `.M.U   /.dXn     I.",
"pX  &XK.&.  ,Xz.s.  ^.w.i   >Xz.s.  OXdXj   '.hXL   (.dX|     I.pX  &XK.&.  ,Xk.s.  ^.w.i   ;Xz.s.  ).dXj   '.hXL   (.dX|     I.",
"pX  *XR.*.  >XgXj.  ^.e.p   >XfXf.  (.p.M   [.2X/   /.sX}     W.pX  4XR.&.  >XgXj.  ^.e.p   >XfXf.  (.p.M   [.2X/   /.sX}     W.",
"pX  &XK.%.  ,Xx.Y   ^.9.p   ;Xx.h.  ).t.j   A.V.!   !.i.{     U.pX  &XK.%.  ,Xx.Y   ^.9.p   ;Xx.h.  ).t.c   A.B.!   !.i.j     U.",
"pX. 6.=.`   v.A V   >.> y   v.J C   >. .%   ,.T 2   >.} &     I.pX  7.=.`   v.A V   >.y y   v.J C   .. .% . ,.T 2   >.} &     I.",
"pXqX#XXX+X#X5X7X7X7X7X8X5X5X7XqXyXjXlXcXcXkXyXwXqXyXuXuXcX7X$XI.pXqX#XXX+X#X5X7X7X7X7X8X5X5X7XqXpXjXlXcXlXkXyXwXqXyXuXuXcX8X$XI.",
"pX8XXXXXXX#X5X7XqXqX0X7X6X6X7XqXyXkXlXvXvXkXyXwXwXwXuXuXuX#X}.I.pX8X XXXXX#X5X7XqXqX0X7X6XeX7XqXuXkXlXvXvXkXyXwXwXwXuXuXuX#X}.I.",
"yX  F N ;   % + X   < #     l > O   r Z -   t o +   < @ .      .pX  F N ;   9 + X   < .     l > O   r Z -   t 5 +   < @ .      .",
"yX  b.D V   -.h $   :.l 8   ) K 1   b.S V . -.h 7 . ~ y *     L.yX  b.S V   -.h $   :.q 8   ) K -   b.H V   -.z 7   ( y + . O L.",
"qX. ,Xx.h.  ).sX|   !.!.v   ].B.W   :Xz.h.. /.sXv   Z.0.g     W.9X  ,Xk.h.  ).dX|   !.!.v   `.B.W   :Xz.h.. /.sXc   Z.0.g     W.",
"yXo ,XfXg.  (.aX{   /.i.v   `.R R   ,XVXg.  (.t.}   Z.9.f     I.yX  ,XfXg.  /.aX{   /.a.v   ].R R   ,XVXY   (.t.}   Z.9.f     I.",
"yX  ;Xx.s.  (.u.j   (.!.b   A.I W   :XgX^   ).t.|   _.w.i     U.yX  :Xx.s.  (.a.c   /.!.b   A.I W   ,XgX^   ).t. .  _.w.i     I.",
"yX  ,Xk.Y   ).y.}   /.p.m   '.M.W   ;Xz.Y . /.i.v   _.9.i     U.yX  <Xk.Y . (.p.}   /.p.m   '.M.W   ;Xk.g.  /.u.v   _.9.i     U.",
"yX  b.T B   ..c 6   :.j 8   ( P <   v.S B   ..e &   | & @     W.yX  b.U B   -.x 6   :.h 8   ,.P q   ,.S B   -.k &   ;.y X .   W.",
"tX8X5XXX}..XXX5X5X8X8X8X8X8X9X9XwXuXkXvXvXuX0X0X8XqXqXiXyX6XXXU.tX8X5XXX}. X+X#X5X8X7X8X8X8X8X9XwXiXkXvXvXuX0X7X8XqXqXuXyX6XXXI.",
"yX$X0X@X|.XX@X=X8X7X7X7X7X7X7X9XqXyXlXlXvXkXqX8X8XqXyXyXyX7X8XW.yX5X0X+X}.XX@X=X8X7X7X7X7X7X7X9XqXyXzXlXvXkXqX7X8XqXuXyXuX8X8XU.",
"yX    e N ;   & X .   t * +   r , =   < > X   r < @   r 4 3   W.tX    r N -   q X .   q * +   G - -   q > X   F X @   r 4 5   W.",
"yX    v.S B   :.f #   ~ a y   b.A N   ,.K s   ) K C . F.@.9   I.yX    v.D Z   :.h $   >.a y   ,.A N . ,.K s X ) K F   F.@.9   I.",
"tX    :X1Xs.  ^.q.u   Z.dXz . :Xz.d.. [.hX!   A.M.!   *XY.#.  L.tX    :XfXs.  ^.9.d   Z.dXz   :Xz.d.  '.hXQ   S.M.! . *XY.#.  L.",
"pX    :Xl.d.  _.r.h   Z.9.d   >XfXf.  ].hXQ   '.2XI   *XK.&.  I.pX    :Xz.h.  ^.r.h   Z.e.u   >XgXj.  ].hXQ   '.2XI   *XK.&.  I.",
"pX    ,XfXh.  Z.w.d   Z.0.p   ,Xz.f.  [.m.R   A.hXT   *XY.&.  I.pX    ;XgXh.  Z.0.d   Z.0.p   ,Xz.s.  [.m.E   S.hXR   *XY.&.  I.",
"pX    >Xk.^   ^.w.u   Z.q.u   <XfXj.  `.C.R   [.M.W   &XT.@.  I.pX    >Xz.^   _.w.d . Z.9.u   <XfXj.  `.C.R   ].M.W   &XT.@.  I.",
"yX    ,.d.N   ~ f %   ..u #   n.S Z   ( L s   ,.P 2   5.' `   I.yX    b.S N   ~ h %   ..u #   n.D D   ( L s   ,.P 2   5.' `   I.",
"tX7X5X5X7X8X=X=X5X7XqXqX8X8X5X7XwXuXjXkXcXvXyX8X5XwX0X7X7X7X+XI.tX7X5X5X7X8X=X=X5X7XqX0X8X8X5X7XwXuXjXkXcXvXyX8X5XwX0X7X7X7X+XI.",
"yXqX@X$X=X#X#X#X5X7X0X7X8X5X8X9XyXuXkXlXlXlXjXwX5XqX0X7X5X#X#XI.yXqX@X$X=X#X#X#X5X7X0X7X7X5X8X9XuXuXkXkXlXlXjXqX5XqX0X7X5X#X#XI.",
"yX  e 9 o   w 5 O   s - @   & 5 .   F N ;   & # .   0 3 3     I.yX  e 9 3   6 5 O   s @ :   & 9     t N ;   7 # .   0 3 3     I.",
"pX  5.@.4   5.O.9   ) f 1   ..h %   b.J B   :.k 7   J.O.4     I.yX  5.@.4   6.O.9   ) I 1   ..h %   b.S C   :.k 6   J.O.0     I.",
"pX  &XK.&.  &XK.%.  D.m.I   ).y.X.  >XA d.  (.i.n   4XK.*.    W.pX  &XK.&.  &XK.%.  D.m.I   ).y.o.  :XA d.  /.i.n   4XK.*.    W.",
"pX  &X+.#.  &X' +.  A.2XK   /.u...  :Xz.Y   (.c j   &X$.&.    W.pX  *X[ #.  &X` +.  A.2XK   /.u.n . :Xz.Y   (.j c   &X$.&.    W.",
"tX  *XK.%.  &X' $.  ].M.Q   (.y.}   ,XA j.  /.y.|   4XO.@.    W.tX  *XK.%.  &XO.$.  ].C.Q   (.u.}   ,XS j.  (.y.|   &X@.@.    W.",
"aX  &XY.*.  4XK.%.  `.V.)   ).a.X.  <Xx.f.  /.t.n   *XY.%.    I.sX  *XY.*.  =XK.*.  `.V.)   ).a.X.  ,Xx.f.  /.t.M   *XK.%.    I.",
"MX  6.] `   F.G w . ,.Z 1 . ..j #   b.S Z   >.k # . 6.' 4     I.MX  6.] `   J.' w   ,.P C   m j #   b.S Z   ~ { .   6.' 4     I.",
"MX9X=X@X#XOX5X8X9X7XqXyX7X7X7XqXkXvXvXvXvXvXlXiX7XzXuXjXjX@X@XI.MX7X=X@XoXOX5X8X9X7XqXqX7X7X7XqXkXvXvXvXvXvXkXiXqXlXuXjXjX@X+XI.",
"BXyX=X@X#XoX=X6XqXqXwXqX9X7X9XyXzXvXbXvXnXvXcXkXpXkXyXkXyX=X+XI.BXyX=X@X#XoX=X6XqXqXwXqX7X7X9XyXkXvXnXvXnXvXlXkXpXkXyXzXyX=X+XI.",
"mX    F , ;   1 @ X   < , %   C = O   _ > X   e $ O   0 4 o   Q.mXO   F , ;   - : X   < , &   F = O   _ > =   e $ O   w 4 o   Q.",
"pX.   b.s.;   ,.R 2   ( I F   b.D -   ( K :   >.c $   3.$.3   W.pX    b.d.1   ,.I 2   ( I 2   b.D N   ( K :   i.j $   7.@.3   W.",
"tX    :Xz.s.  `.B.L   '.m.!   >Xc.s.  D.B.Q . (.i.j   *XY.*.  I.tX.   :Xz.S   `.B.L   '.m.!   >Xc.s.  D.B.Q   (.i.j   *XY.*.  I.",
"9X    ,XY H   S.N./   S.T ~   ;Xx.h.. S.C.E . ).p.}   4X[ #.  P.9X    ,XY H   S.N./   S.U Q   >Xx.h.  S.C.E   ).p.}   4X[ #.  I.",
"9X    >Xh.j.  [.W /   `.M.R   ,Xl.h.  `.V.R   ).y.c   &XY.@.  U.9X    >Xh.j.  [.W /   ].M.T   ,Xx.h.  `.V.R   OXy.c   4XY.$.  U.",
"yX    :Xl.s.. A.m.E   [.L /   ,Xx.f.  S.B.R   (.i.c   4X] @.  U.yX    ,Xx.S   A.m.E   '.U /   ,Xx.j.  S.B.E   ).i.n   4X' @.  I.",
"aX    b.S N   ,.R <   ,.K s   n.A N   ( L P O o.h &   5.' `   W.aX    b.S N   ,.R &   ,.K a   n.A -   ( L Z   o.h 7   5.' `   W.",
"aX=X X8X8X5X#X=X7XyXkXjX7X5X#X@X6XwXuXiXuXuXiXuXuXuXzXuXwXqX=XU.aX=X X8X8X5X#X=X7XyXlXjX7X5X#X@X5XwXuXiXuXuXuXuXuXuXiXuXwXqX=X!.",
"xX7X%X8X5X5X@X$XqXqXuXuX7X#X$X@X7XuXkXkXkXkXuXuXwXuXvXrX$XqX7X!.xX7X%X8X5X5X@X$XqXqXuXuX7X#X$X@X7XuXkXkXkXkXuXuXwXuXcXrX$XqX7X!.",
"aX    e %     G t X   % .     r = 9   w 9     G - -   1 > X . E.aX    e %     G 1 X   % .     r = 9   w 9 o   G - -   1 > X   E.",
"=X    :.l #   b.S B   >.a #   b.S B   6.+.5   b.A N   ( L Z   I.=X    :.x #   b.H C   >.a #   v.S B   6.=.4   b.D N   ( L Z   U.",
"xX    ).u.}   >Xk.Y . Z.q.d   :X3Xj.  &XY.$.  ;Xz.h.  A.N.Q   E.xX    ).u.}   >Xc.Y   Z.q.d   :X3Xg.  &XY.$.. ;Xk.d.  A.N.Q   E.",
"pX    /.} |   >X1Xh.  Z.q.f   :XfXs.  &XmX$.  ;XfXf.  `.hX!   W.pX    /.} |   >X1Xg.  Z.q.f   <XfXs.  &XmX$.  ;XgXf.  ].hXW   W.",
"pX    ). .}   :Xx.j.  _.9.u   :Xk.S   &XK.#.. ;XfXd.  D.M./   W.pX    ). .}   :Xl.j.  ^.0.u   :Xk.Y   &XK.#.  ;XfXd.  D.M./   W.",
"tX  . /.u.{   >Xl.d.  Z.r.f   :Xl.s.  &XNX*.  ,Xz.j.  S.V.!   W.tX  . /.u.j   :Xc.d.  Z.r.s   :Xx.s.  &XNX*.. ,Xz.j.  S.V.!   W.",
"tX    | x #   n.d.N   _ f %   b.D C   8.] o   b.Y ,   ,.L a   W.tX    | x # . n.T N   ( f %   b.D 1   7.] 3   b.Y 2   ,.U a   W.",
"tX X}.|.XX+XOX%X9XqXwX9X7X9X=X.X=XuXkXkXiXvXjXqX7X$X9XkXqXcXcXoXtX X}.|.oX+XOX%X7XqXwX9X9X7X=X.X=XuXkXkXuXvXjXqX7X$X9XkXqXcXcXoX",
"tX+XW.}. X+XXX$X8X9XqX8X$X+X+XXX7XkXkXuXyXkX0X0X7X=X#XuXwXkXvX=XtX+XU.|. X+XXX$X8X7XqX7X$X+X+XXX0XkXkXuXyXzX0XqX7X=X$XuXwXkXvX=X",
"pX#X!.}.XX+X|.+X$XqXuX9X+X X|.OX5XvXkXyXuXuX7XqX7X8X7XcX7XjXvX6XpX@X!.}.oX+X|.+X$XqXyX9X@X X|.OX5XvXkXyXuXuX7XqX7X8X7XcX7XuXvX6X",
"9X7X}.W.}.5X X|.+X5XwX6X XW.!.!.#XzXrXwXqXqX7XwX5X%X7XkX@X$XjX#X9X7X}.W.}.5X|.|.+X5XwX6X XW.!.!.#XzXwXyXqXqX7XwX5X%X7XlX@X$XjX@X",
"-XeX}.J.U.+X@X}.|.7X5X5X XI.!.P..XwX7X7X5X7X5X7X#X}.5XqX@X.XwXoX-XeX}.G.W.+X@X}. X7X5X5X XP.!.I. XwX7X7X5X7X5X8X#X}.5XqX@X.XwXoX",
").#X!.J.J.{.#XU.I.}.@X5X!.E.W.P.!.=X#XeXoX5XoXoXW.~..X5XXX!.5XW..X#X!.G.J.{.#XU.I.}.+X5X}.E.W.P.W.=X#XeXoX5XoXoXQ.E.}.6X X!.6XW.",
"@XI.E.8.G.E.W.G.Q.W..X.X}.I.H.4.Q.@XXXoX!.oX{.}.P.H.W.oX.XP.E.J.@XI.E.8.G.E.W.G.Q.W..X X}.I.H.4.Q.@XoXoX}.XX}.}.P.H.W.#X.XP.E.J.",
"~.G.J.3.3.G.7.8.G.Q.W.I.W.J.3.-.Q.{.}.}.W.{.}.Q.3.4.I..XW.P.8.1.~.8.G.3.3.J.7.7.G.Q.W.P.W.G.3.-.Q.{.}.}.W.{.!.Y.3.3.I..XW.P.G.1.",
"H.-.2.1.<.1.;.' 7.H.L.J.G.3.-. .H.H.H.L.G.H.H.J.<.:.8.Y.H.3.H.;.H.1.2.1.1.2. .;.7.H.L.J.G.3.1.e H.H.H.L.G.I.P.J.<.1.5.Q.H.3.H.;."
};
