/* XPM */
static char *b5227da42d974553c5dacc5b66bc7f991Mz0T0tZzaxvQTd3[] = {
/* columns rows colors chars-per-pixel */
"64 64 256 2 ",
"   c #1C1B13",
".  c #271D17",
"X  c #252319",
"o  c #2A261B",
"O  c #2D2A1D",
"+  c #322C1E",
"@  c #372C1C",
"#  c #362E1D",
"$  c #212620",
"%  c #2E2C21",
"&  c #322D21",
"*  c #362F28",
"=  c #353122",
"-  c #3B3425",
";  c #3C3926",
":  c #3B3529",
">  c #3D3929",
",  c #383633",
"<  c #590200",
"1  c #530B00",
"2  c #491A0D",
"3  c #591705",
"4  c #5B1A0A",
"5  c #6A0900",
"6  c #730500",
"7  c #681702",
"8  c #741800",
"9  c #482618",
"0  c #592819",
"q  c #50331E",
"w  c #692701",
"e  c #6C2B00",
"r  c #7B2701",
"t  c #6C3300",
"y  c #693900",
"u  c #6C2F18",
"i  c #571F21",
"p  c #453928",
"a  c #433C2A",
"s  c #5C3928",
"d  c #4A3031",
"f  c #5C3C35",
"g  c #673A2C",
"h  c #6A4400",
"j  c #7D471B",
"k  c #46412C",
"l  c #4B432D",
"z  c #52442E",
"x  c #4C4632",
"c  c #544C34",
"v  c #594934",
"b  c #5B5338",
"n  c #644A38",
"m  c #784830",
"M  c #66563B",
"N  c #73573D",
"B  c #68603F",
"V  c #343B44",
"C  c #373C63",
"Z  c #493852",
"A  c #1D4350",
"S  c #38484E",
"D  c #375171",
"F  c #574D47",
"G  c #59544A",
"H  c #535556",
"J  c #6A4D47",
"K  c #665946",
"L  c #795C43",
"P  c #665B55",
"I  c #6F654F",
"U  c #786446",
"Y  c #6A6657",
"T  c #46546D",
"R  c #735A6E",
"E  c #596671",
"W  c #676767",
"Q  c #6F6C73",
"!  c #842500",
"~  c #8D2C00",
"^  c #912E00",
"/  c #9E2E00",
"(  c #8B3902",
")  c #943302",
"_  c #943C02",
"`  c #9A3803",
"'  c #8B341A",
"]  c #A12F00",
"[  c #A33300",
"{  c #A43C01",
"}  c #A53904",
"|  c #AC3C00",
" . c #AE3E0B",
".. c #A13D2E",
"X. c #8F4C0E",
"o. c #9B4301",
"O. c #984501",
"+. c #A84503",
"@. c #B64500",
"#. c #B85605",
"$. c #BE5D00",
"%. c #B0530E",
"&. c #BF6300",
"*. c #BD6C02",
"=. c #BE7601",
"-. c #B46718",
";. c #8C5726",
":. c #904F37",
">. c #B34C33",
",. c #BB5935",
"<. c #A16535",
"1. c #C45C02",
"2. c #C46400",
"3. c #CA6703",
"4. c #C26C00",
"5. c #CD6C03",
"6. c #C17500",
"7. c #CB7400",
"8. c #C17A01",
"9. c #CB7C00",
"0. c #D27A00",
"q. c #CF6D10",
"w. c #E36E00",
"e. c #E47200",
"r. c #E47B00",
"t. c #C65C38",
"y. c #CF7134",
"u. c #895444",
"i. c #B75C45",
"p. c #896548",
"a. c #926C4D",
"s. c #956E52",
"d. c #9B7554",
"f. c #BC6B4B",
"g. c #A37956",
"h. c #937671",
"j. c #A16E6D",
"k. c #D06B47",
"l. c #E37659",
"z. c #7C807F",
"x. c #BC8D00",
"c. c #C88700",
"v. c #DA8700",
"b. c #C99300",
"n. c #DB9600",
"m. c #E98800",
"M. c #F09100",
"N. c #DAAE00",
"B. c #EAB200",
"V. c #DDCB00",
"C. c #AD815C",
"Z. c #BB8B63",
"A. c #AF8973",
"S. c #C98955",
"D. c #C78C6F",
"F. c #C69369",
"G. c #EA9663",
"H. c #EE9577",
"J. c #3A5A87",
"K. c #31568F",
"L. c #34698F",
"P. c #2C6497",
"I. c #376797",
"U. c #1C6AA5",
"Y. c #1D6FAE",
"T. c #1967B7",
"R. c #2867A6",
"E. c #3667A9",
"W. c #276BB8",
"Q. c #3871B4",
"!. c #435E84",
"~. c #6D5598",
"^. c #4A6C8D",
"/. c #6A788C",
"(. c #4D76A8",
"). c #726BB0",
"_. c #0B6DCB",
"`. c #166DC6",
"'. c #0E71CD",
"]. c #1974CC",
"[. c #0673D6",
"{. c #0B73D5",
"}. c #0776D8",
"|. c #0975DA",
" X c #097ADD",
".X c #1478D6",
"XX c #2773C7",
"oX c #2374D4",
"OX c #0C7EE1",
"+X c #8F7C9C",
"@X c #2F8AB3",
"#X c #6E8694",
"$X c #4D8CAF",
"%X c #6E97A9",
"&X c #7194AC",
"*X c #048CD2",
"=X c #0397DA",
"-X c #089BDE",
";X c #2A8FD6",
":X c #1281E4",
">X c #069DE4",
",X c #089EE3",
"<X c #399AE5",
"1X c #0AA3E6",
"2X c #0AA5E8",
"3X c #16A6E9",
"4X c #25ABEB",
"5X c #34B0EF",
"6X c #5097D2",
"7X c #72ADCF",
"8X c #4BB5EE",
"9X c #59BBF4",
"0X c #72B7E8",
"qX c #65BEF5",
"wX c #51C3FA",
"eX c #69C5F9",
"rX c #79C9F4",
"tX c #77CAFA",
"yX c #8C8694",
"uX c #B39192",
"iX c #B8A19A",
"pX c #9491AC",
"aX c #A69CAF",
"sX c #91AAB7",
"dX c #ADAFB3",
"fX c #CDA599",
"gX c #EAAB87",
"hX c #DDC9AD",
"jX c #94B8CF",
"kX c #85BAD9",
"lX c #A9B7C9",
"zX c #84BDE5",
"xX c #8FC2D8",
"cX c #B1C6D0",
"vX c #85C4E9",
"bX c #8FCEF1",
"nX c #88D4FC",
"mX c #97D9FC",
"MX c #AFDAEC",
"NX c #9FE1FD",
"BX c #A8E4FD",
"VX c #B4E7FB",
"CX c #BBEDFE",
"ZX c #BDF0FF",
"AX c #C9CDD0",
"SX c #E9D6CB",
"DX c #F9ECD9",
"FX c #CFE8EC",
"GX c #C5ECF8",
"HX c #C5F4FF",
"JX c #CCF4FE",
"KX c #D8F8FD",
"LX c #E9EAE7",
"PX c #E4F9FC",
"IX c #F3FBFC",
"UX c #FEFFFF",
/* pixels */
"r %.x.b.c.c.c.b.b.b.b.b.c.c.9.9.9.9.9.9.9.9.9.9.9.9.9.7.7.7.7.7.7.9.7.7.9.7.7.7.7.5.7.5.7.9.7.7.5.9.c.c.c.b.b.9.c.9.6.5.3.+.r 7 ",
"+.9.b.x.=.=.c.c.b.x.b.b.6.8.8.6.6.8.6.8.6.6.6.6.6.6.6.6.4.*.6.4.4.4.4.6.4.4.4.4.*.2.2.*.*.=.4.*.*.=.8.8.x.x.x.6.8.*.*.&.&.1.O.w ",
"$.7.O.X._ O.O.O.O.O.%.O.+.O.O.O.O.O.O.O.O.+.O.+.O.O.O._ ` O.O._ O._ _ _ _ _ _ _ _ _ O._ ( _ ( ( ( O.O.O.X.X.O.O.( ( ( ( ) 3.@.w ",
"#.1.! ~ 7 w ( ! r ( t r r r r r r r r 8 8 8 8 8 8 6 6 6 6 5 5 5 8 8 5 5 8 5 8 5 8 7 5 5 5 8 5 7 7 5 7 5 5 7 8 5 5 < < < | e.2.e ",
"@.#.` o.@ q z s q 9 9 9 9 9 @ @ $ D L.@XD $X$X@X^.$X&XdXdXiXaX&X$XL.I.I.I.I.I.I.L.L.I.L.L.L.L.L.P.I.I.P.I.I.I.L.L.K.K.R ,.M.6.t ",
"+.@.+.+.@ p c c ; o % = = = X . A @X=X-X-X=X*X4X5X0XVXLXLXPXFXMX8X1X2X1X-X-X=X1X=X*X*X=X=X*X=X=X*X*X*X*X*X*X*X*X*X*X*X+X,.m.8.y ",
"+.@.#.+.o l l l a O & * - = + O A @X2X3X2X4XwXwXnXBXPXUXUXUXUXJXbX8X4X2X2X2X2X2X1X1X1X>X1X-X-X>X-X-X=X=X=X-X,X:X*X=X=X+Xt.m.8.y ",
"| @.@.#.o p k p p = O & & @ ; - k L.-X2X3X5XeXtXBXHXIXUXUXUXUXPXJXmXrX8X3X2X2X2X1X1X1X1X1X-X-X-X-X-X-X-X=X,X=X=X-X=X-X+Xi.m.6.t ",
"+.@.@.+.X - = = - O o O O & a a ; D @X@X3X8XtXNXBXZXKXIXUXUXUXUXIXPXGXnXwX4X2X2X2X2X2X2X2X1X1X-X,X,X-X-X-X-X-X-X-X=X>X+Xi.r.4.t ",
"{ @.@.+.  O % % % O o O O & - - = ; , A D $XrXrXnXBXKXIXUXUXUXUXUXUXIXGXwX5X4X3X3X2X2X2X2X2X1X1X1X,X,X,X-X-X-X-X-X-X>X+Xi.e.4.e ",
"` | @.+.  o o O % % O + O % O O O O # O A ^.7XrXtXmXCXPXUXUXUXUXUXUXUXJXtX5X4X4X3X3X3X2X3X3X5X8X4X3X1X,X,X-X,X-X-X-X-XyX,.r.4.e ",
"` | +.+.  O % & = * = + + O O O O O = % = D @XwXeXnXBXJXIXUXUXUXUXUXUXKXnXwX5X5X4X4X4X4X4X5XtXnXqX4X1X1X1X1X,X,X-X-X-X+Xi.r.4.t ",
"/ | @.+.  % % & : - p : - - & O $ = = % ; S @X6X8X0XvXVXKXIXUXUXUXUXUXIXVXeX5X5X5X5X5X5XwXeXBXHXmX9X5X4X4X1X1X1X,X,X-X+Xi.e.2.e ",
"` | | +.  % & - - ; p - - : = - ; ; ; ; k S ^.$X(.#X%XxXGXPXIXUXUXUXIXIXJXtXwXwXwX5X5XwXtXNXJXKXCXbXvXnXeX8X4X1X,X,X,X+X,.e.4.e ",
"/ | @.+.  O = > > > - @ & = = > ; ; ; ; k ; V S V S E xXZXKXLXLXLXLXIXIXKXBXnXnXeXwXtXNXZXZXJXKXJXZXZXZXVXnX8X4X3X3X,XpXi.e.&.e ",
"^ [ @.|   O : , k > = & & & = - ; ; ; k ; ; o + @ = E cXGXAXdXuXuXfXhXLXPXJXZXJXBXeXNXCXHXZXHXJXJXZXKXPXKXCXvX8X5X<X5XpXi.w.1.e ",
"~ [ @.+.. & - k k p - = & & = - k k - p k - # - = = E cXMXyXI n g :.C.dXPXPXPXKXZXmXVXKXPXGXVXCXZXFXFXLXPXJXmX9X8X8XqXaXi.w.$.e ",
"~ [ |  .o - @ ; l k - O % & = ; k k - k k - = = ; ; E cXMXyXz.Y J W /.dXKXKXKXKXZXBXZXLXLXAXlXcXcXAXiXAXAXMXnXeX9XqXeXaXi.e.1.e ",
") [ @.+.+ a = - k a ; O O % O - ; ; - k ; - - - = ; W cXFXcXcXdX#XsXcXMXJXJXHXHXZXBXVXcXiXA.j.A.A.j.j.h.yXaXzXqXqXqX0XaXi.w.&.e ",
"^ } | +.+ k - O = = = + O o O = @ = O # = - # - = ; E cXZXJXFXFXdXMXVXZXHXGXZXZXVXBXsX+XL g u u w n M m u R jXzXrXqXqXaXi.w.1.e ",
"/ }  .O.= c k o $ o O = % O O & O O O % = - = + + , /.MXKXKXKXKXdXFXHXHXZXCXBXBXBXjXQ c s s s g s s f g 0 f /.kXnXeXeXpXi.e.2.e ",
"^ } | +.a M c = O O O O O @ & O O % + % + = + O + > z.CXKXKXKXFXdXPXKXJXHXVXVXVXBXsXE F n J Y P g s J f f f R kXnXnXeXpXi.q.2.e ",
"^ [ | +.> b c a = X o % % = @ O = % % % = + = O O S #XVXZXHXHXGXdXLXPXFXMXAXAXAXcXjX&X#X%X#X%XE Q /.#X/././.&XzXnXnXtXaXi.w.2.e ",
"^ ] +.O.% x c x k % X % % = * - = + % = + - - % + S %XbXNXBXBXMXsXMXVXdXuXuXuXuXuXuXlXxXvXxX7XQ &XzXvX0X0X0XqXqX0XtXtXpXi.w.2.e ",
"^ [ | +.% c b G b k O O = : : a ; = + + # - = O O S #XkXxXxXxXMXsXbXsXW u :.:.:.:.a.+X0XtXtX7X#XkXmXNXnXnXnXzXzXnXtXzXaXi.w.1.u ",
"^ ] | ` = b B B I B k O O = - - = = = = + = % + p c Y z.#XQ #XbXsXbX%XY K n f v s J P 7XtXtX6XE jXBXVXVXNXBXNXzXmXmXNXdXf.w.1.w ",
"~ / | +.; b U U I U b = O + - - O O O ; p l z z N p.p.N N v E xX%XMX7X%X&X#XP /./.#X&XrXtXtX7X#XzXBXCXCXVXVXMXmXNXNXNXdXk.e.1.e ",
"~ /  .} = c c U B b b = o + = + o O p b N L U p.p.d.s.p.p.U W %X%XbXmXvXvXkX/.kXkXkXrXtXtXtX$X#XkXnXBXBXBXMXMXMXmXnXnXaXf.e.2.e ",
"~ / | } = x l K B c l ; O o @ @ p v :.d.C.d.d.a.p.a.a.a.p.p.K #X%XrXtXtXnXrX#XrXnXnXtXtXeXqX%X/.0XbXmXMXMXlXjXlXjXlXkXiXk.e.2.e ",
"~ /  .} O k c M B c z ; = - p v N a.d.d.d.d.p.N N N M N N n x E $XqX9X9XqX9X(.0XqXqXqXqX9X8X&XQ dXcXAXAXfXH.j.uXuXuX+XD.y.0.*.e ",
"~ / | o.- b M K B b b l z M N p.a.g.d.p.M M v l - p p z p p a T $X<X<X8X8X<X^.6X<X8X<X<X<X6X+Xj.D.gXH.H.l.l.H.gXgXgXG.S.q.r.2.e ",
"~ / | ` p N b c c c b M L p.s.s.s.a.a.N l - + # @ # ; ; = = , D Q.oX:X.X].oXL.XX.X.X].oX(.R u.>.t.y.l.l.l.H.SXDXDXSXDXgXy.r.2.t ",
"~ [ | ' k M x l z v N p.p.a.p.p.p.p.p.N z ; & = = : > > * $ , J.R..X.X_.{.`.!.`._._._.K.R h.:.....,.t.k.k.H.SXDXDXUXDXhXS.r.3.r ",
"~ / } _ # l l a z n p.a.p.p.a.a.p.p.N n z k & O = = = % % , S ^.XX]..X.X_.`.!.W._._.W.~.s.R m ' ' ' ....>.i.D.fXhXhXhXgXy.r.2.e ",
"~ / { _ O k x v M N N p.:.U a.p.p.;.N v k p O o % % % = * * S I.oXoXOXOX_.`.K.oX_._.K.E Y J u u g m m :.' ' ' u.s.h.A.S.q.e.$.w ",
"~ [ | ` = b M U p.p.L p.p.p.p.p.U U N l - - X O O O % : : * V I.;XOXOXoX{.XXK.oX_.`.!.F F s 0 f J I K J g u u 8 8 r r q.5.e.1.w ",
"~ [ } } z U a.a.a.a.a.a.s.p.p.N n v z - @ & O O O & & - a a x T oXoX:XOX.XW.P.`.[.T.C i 9 2 p b Y P Y Y v 0 7 4 u 7 7 *.w.e.1.w ",
"^ [ | X.N g.g.g.a.s.d.a.p.N n c l - + @ + & O # % % & - a a a E ).6XoXoX.XE.R..X[.T.C . 2 2 q F G G G P v 0 4 4 3 4 4 =.7.e.1.e ",
"~ / |  .N C.C.d.a.p.p.M v a ; - - - p - - & + - & & & = p a a K yXyX(.oXoXI.W.{.[._.K.* . < i F G P P K v i 4 3 4 3 4 *.5.w.$.w ",
"~ [ } X.N d.s.p.N M z ; % % - - p - ; - = % & - = O O O - - - s d.Z.h.(.XXI.XX{.[.[.T.C i 2 2 s G K G v s 4 3 3 4 3 7 6.5.w.1.e ",
"~ / } ' v N n l - + o O + + & - : a > & % = = = & + o o & & O p L g.d.Q Q.I.oX X X|.|.R.C i 2 i s v f i 4 3 4 4 4 4 3 *.5.e.1.e ",
"~ / } _ @ z p ; # + O O @ o + - a - = & = ; ; & & + o o + + & - v a.d.R Q.I.]. X X X|..XJ.Z d 2 3 3 3 3 4 0 0 g g s 0 4.3.w.#.r ",
"~ / ] ` o - p p = O o O + + - a a - - = - > : % O O O = & + & O - n U W Q.P.]. X X}.|..X!.K.J.C d i 7 3 4 s J K J K n -.1.e.1.w ",
"~ / } ` o p : - O o O O + ; p a > - = & = > = O X o + = @ O % % + p d H I.E..X X X:X|..X!.W.T.R.K.Z d 0 0 n Y Y W Y J <.1.e.1.e ",
"~ / } _ o a p p : - - > > ; k ; ; % + % ; k = X X o o % + * = - & & * V J.P..X X X X{.W.!.XX.X|.`.R.K.C Z J I Y I I R u.%.w.1.8 ",
"^ / } _ & a a a k a a a a ; ; ; = + % = ; k ; O X X % = - a : > & % * * D R.[. X X}.{.R.J.XX{.|.{.[.`.W.!.H P Y Q R I :. .w.1.w ",
") / [ ) o > > a a k a > - + + = @ O % = > x ; % o X o ; a a > - @ = % = V R.|. X X X}.K.J.].|. X|.|.{.{.P.H P E /.E E u...w.$.e ",
"~ / ` _ o > > a > : > : = O O + o O % ; x c = ; o X o ; a ; - = ; - & & , D `.:XOXOX|.I.P.]. X X|.|.|.{.K.F F I.`.W.E.h...w.1.e ",
") / [ _ o > - : - : ; = % = = & O O = a b b k x % X O = a + O # + @ @ O = V U. X:X:X].!.W. X X X|.|.|.{.K.F H E..X{.[.~...e.-.e ",
") [ / _ X - = = & & & & = > = O X O - l U M b b = % % % ; + + + - p p s * , K..X*X:XT.!.XX X X|.|.OX|.`.T H T W.|.{.|.~.>.e.4.t ",
"^ [ ` ) X % & & % O % % & * o X X O = c U b b c - + ; + + = O 9 v N N n M F P..X X XY.J.XX|. X X|.|.|.T.T F T XX{.[.[.~.i.r.4.t ",
"` [ ) (   & % & O o o % X X o o O O @ x b B c k ; = x - @ + ; M a.g.g.g.d.R Q..X X XR.J.].|. X XOX|.{.T.T G !.`.{.{.{.~...r.4.e ",
"} } ) _ . % = & % % O O o o & & O O & ; B U c c x l b l = # v a.S.D.F.Z.C.W Q..X X XP.P.]. X|. XOX|.|.R.H F !.`.[.[.[.~...e.q.u ",
"` | ) ( . & & & & - # O O O & & O O % ; b U b c b b K b l l a.C.Z.F.F.Z.d.Y E.}. X XR.P.]. X X|.|.|.{.K.H F E.'.|.[.[.~.>.e.6.t ",
"+.{ ) (   = O & - - @ O X O O O O O + ; c b c c M U B M z N C.F.F.F.F.A.d.P P.'.}.}.R.P.]. X X|.|.[._.K.F H E._.[.|.|.~.>.m.6.t ",
"+.| ) )   O = - > - - O O o O & + + = - k c c v G B b b b U Z.F.F.Z.Z.C.p.F J.`.}.[.R.L.]. X X{.|.|.`.D F T W.{.|.[.[.~.>.m.8.t ",
"+.@.) _ X a ; k k > & % O O O & + - > ; = k c b b b l c M a.F.F.F.Z.Z.C.U k D _.:X{.U.P.`. X|.|.[.{.T.T G T W.[.[.[.{.~...r.q.t ",
"#.@.~ ) @ l z z l p @ O + @ @ = - ; l k 9 p v b v v z b N g.C.Z.F.F.Z.C.n ; D XXoXoXI.L.XXXXXXXXoXoXP.T G !.W.XXoXoX`.~.>.e.0.t ",
"+.@.! _ u j m ;.;.X.j X.j X.X.;.X.;.;.;.;.;.;.;.;.<.;.;.<.f.f.Z.S.S.S.f.;.j J ~.).).~.R ).).).).).).R u.:.R ).).).).).j.t.M.9.y ",
"+.| _ #.#.&.$.4.4.4.5.5.5.5.3.3.5.5.5.5.5.4.5.5.5.7.7.q.7.q.q.3.q.q.q.5.3.$.&.t.,.t.t.%.,.,.,.,.>.,.,.#.$.,.,.,.>.,.>.q.w.B.b.h ",
") @.&.n.N.b.b.c.9.7.6.*.4.2.2.2.2.2.2.2.2.2.&.&.$.2.$.2.$.$.2.1.5.2.2.2.1.2.2.2.2.2.3.5.2.3.2.2.3.4.5.4.4.4.5.7.0.0.c.n.n.B.x.h ",
"r o.c.N.V.V.V.N.N.n.n.n.n.v.v.v.v.c.0.9.0.7.0.v.9.0.0.0.7.7.0.v.v.v.0.0.v.v.v.v.v.v.v.n.v.n.v.n.m.n.n.n.n.n.n.n.N.N.N.V.V.N.X.3 ",
"7 3 w h h h h y t t t t t e w e w e w w w w w w w w w w w w w w e e w w w e w e e w e e w w e t e t e e t t e t y y h h h y 3 2 ",
"7 1 1 1 1 1 1 1 1 1 1 1 1 1 1 1 1 1 1 1 1 1 1 1 1 1 1 1 1 1 1 1 1 1 1 1 1 1 1 1 1 1 1 1 1 1 1 1 1 1 1 1 1 1 1 1 1 1 1 1 1 1 1 1 "
};
