/* XPM */
static char *_30e53820f664f6899c8982b1810127fwwLmmHL7RsFqEj5H[] = {
/* columns rows colors chars-per-pixel */
"64 64 256 2 ",
"   c #367827",
".  c #297532",
"X  c #317331",
"o  c #347734",
"O  c #316B2F",
"+  c #397B18",
"@  c #427926",
"#  c #447B32",
"$  c #397B42",
"%  c #368528",
"&  c #368632",
"*  c #39942F",
"=  c #438727",
"-  c #468A34",
";  c #489837",
":  c #529739",
">  c #49A739",
",  c #56A839",
"<  c #51B539",
"1  c #39984A",
"2  c #4A9C4A",
"3  c #469947",
"4  c #549946",
"5  c #469A53",
"6  c #549A54",
"7  c #518B48",
"8  c #66975A",
"9  c #4AA542",
"0  c #4AA54A",
"q  c #46AB46",
"w  c #52A542",
"e  c #5AA542",
"r  c #52A54A",
"t  c #52AD4A",
"y  c #58AC46",
"u  c #49B547",
"i  c #52B542",
"p  c #52B54A",
"a  c #5AB546",
"s  c #4AA552",
"d  c #47AB54",
"f  c #5AAD52",
"g  c #55A954",
"h  c #4AB652",
"j  c #57B754",
"k  c #65AB55",
"l  c #67B855",
"z  c #68AC4F",
"x  c #59AB65",
"c  c #58B966",
"v  c #57AD76",
"b  c #66AC66",
"n  c #69B966",
"m  c #76B869",
"M  c #69B876",
"N  c #78B973",
"B  c #6BAA70",
"V  c #529863",
"C  c #78C667",
"Z  c #70C66F",
"A  c #5AC673",
"S  c #84BD7B",
"D  c #88C879",
"F  c #2758A9",
"G  c #315D9C",
"H  c #3434DE",
"J  c #2735DE",
"K  c #2536E9",
"L  c #3436ED",
"P  c #3637F9",
"I  c #2337F7",
"U  c #1831EF",
"Y  c #4239E9",
"T  c #2646DE",
"R  c #3647DE",
"E  c #3555DD",
"W  c #2954DE",
"Q  c #3363DE",
"!  c #2646EB",
"~  c #394AE7",
"^  c #3447EA",
"/  c #2753EA",
"(  c #3952EF",
")  c #3457EC",
"_  c #2646F8",
"`  c #3546F8",
"'  c #3555F7",
"]  c #2952F7",
"[  c #3763F1",
"{  c #1846E7",
"}  c #4455DD",
"|  c #4A4EDC",
" . c #4266DE",
".. c #5777DE",
"X. c #4E6DDE",
"o. c #4447EC",
"O. c #4556EC",
"+. c #5558EC",
"@. c #4556F8",
"#. c #474BF7",
"$. c #4766EB",
"%. c #526BEF",
"&. c #5768EA",
"*. c #4874EA",
"=. c #5A73EF",
"-. c #5A7BEF",
";. c #5577E9",
":. c #4967F7",
">. c #5668F9",
",. c #5676F9",
"<. c #4674F8",
"1. c #6669EA",
"2. c #6677EC",
"3. c #7475ED",
"4. c #6778F8",
"5. c #6F6EF4",
"6. c #636BDE",
"7. c #426BA5",
"8. c #76BA87",
"9. c #75B8B8",
"0. c #5F8CA9",
"q. c #79C884",
"w. c #7BC6BD",
"e. c #73ADD3",
"r. c #5786EF",
"t. c #6888EE",
"y. c #7589ED",
"u. c #6A96EC",
"i. c #7797EC",
"p. c #6989F8",
"a. c #7689F8",
"s. c #6B98FA",
"d. c #7798F8",
"f. c #78A5EE",
"g. c #7BA7FB",
"h. c #74B1F1",
"j. c #5D8CDE",
"k. c #7BCED0",
"l. c #7BC7F2",
"z. c #84BD88",
"x. c #85CA8D",
"c. c #84CEBD",
"v. c #87BCDD",
"b. c #8FB8D9",
"n. c #869AFA",
"m. c #8C96F1",
"M. c #86AAEE",
"N. c #84BDEF",
"B. c #89BAEC",
"V. c #94BDEF",
"C. c #96B7EB",
"Z. c #86AAF9",
"A. c #96ABF9",
"S. c #8CBDF7",
"D. c #88B8FB",
"F. c #94BDF7",
"G. c #98BAFC",
"H. c #9AABEF",
"J. c #A9BAEC",
"K. c #AEB8F9",
"L. c #8494CE",
"P. c #C6BDEF",
"I. c #88CAC9",
"U. c #87C9DC",
"Y. c #97CADB",
"T. c #98D6DB",
"R. c #87D7D6",
"E. c #B1C8D8",
"W. c #89C9EB",
"Q. c #94CEEF",
"!. c #9CCEEF",
"~. c #98C7EC",
"^. c #8BDAEE",
"/. c #94D6EF",
"(. c #9ADAEE",
"). c #8CCEF7",
"_. c #8CCEFF",
"`. c #8AC6FA",
"'. c #94CEF7",
"]. c #9CCEF7",
"[. c #94C6FF",
"{. c #94CEFF",
"}. c #9CCEFF",
"|. c #9BC6FA",
" X c #8CD6F7",
".X c #8CDBFC",
"XX c #94D6F7",
"oX c #9CD6F7",
"OX c #94DEF7",
"+X c #9CDEF7",
"@X c #94D6FF",
"#X c #9CD6FF",
"$X c #9CDEFF",
"%X c #94DEFF",
"&X c #A5CEEF",
"*X c #ADCCEC",
"=X c #BBC8EE",
"-X c #A8D9EE",
";X c #B9D6EE",
":X c #A5CEF7",
">X c #ADCEF7",
",X c #A5CEFF",
"<X c #ADCEFF",
"1X c #A8C6FA",
"2X c #B9CBF9",
"3X c #A5D6F7",
"4X c #ADD6F7",
"5X c #A5DEF7",
"6X c #ADDEF7",
"7X c #A5D6FF",
"8X c #ADD6FF",
"9X c #A5DEFF",
"0X c #ADDEFF",
"qX c #B7DAFB",
"wX c #9CE7FA",
"eX c #AAE7FB",
"rX c #B6E7FB",
"tX c #ADE7EF",
"yX c #C9CBED",
"uX c #CCD9EE",
"iX c #D8DCEE",
"pX c #C8CCF8",
"aX c #CBD9FB",
"sX c #DADDFB",
"dX c #D6CEE7",
"fX c #E7DEFD",
"gX c #DAE9EF",
"hX c #CCE9FB",
"jX c #DEE7F7",
"kX c #DEE7FF",
"lX c #D9EBFC",
"zX c #DAF3F3",
"xX c #E7EFEF",
"cX c #ECEBED",
"vX c #EDF7EF",
"bX c #E7E7F7",
"nX c #E7EFF7",
"mX c #EFEFF7",
"MX c #E7EFFF",
"NX c #EFEFFF",
"BX c #EBE7FE",
"VX c #F7EFFF",
"CX c #FAEEF8",
"ZX c #E7F7F7",
"AX c #EFF7F7",
"SX c #EFF7FF",
"DX c #EBFDFE",
"FX c #FFF7F7",
"GX c #F7FFF7",
"HX c #FFFFF7",
"JX c #F7F7FF",
"KX c #FFF7FF",
"LX c #F7FFFF",
"PX c white",
"IX c gray97",
"UX c #F7EFEF",
/* pixels */
"y.4.3.3.r.2.3.2.4.-.>.3.4.5.+.I ,.2.1.2.5.3.>.5.>.2.1.2.1.>.+.J 1.1.2.-.3.3.4.&.5.,.5.1.5.5.E ! +.3.p.2.2.4.3.>.5.3.3.t.4.1.$.T ",
"3.O.) o.o.O.) ^ ( +.O.E o.O.Y { +.+.o.( ~ ' ` ) O.} ` #.( o.L L &.6.( / H o.P O.~ ` @.O.} P ] { @.| ' @.~ ( O.o.| #.` ) ) ' o.H ",
"3.o.L L K L R I J _ / K T L P H >.[ ) L / _ H ` H K L P L ` _ L 1.o.H R ! ! ^ L ~ K K ! K / I U X.~ ` ~ P P ! / H ^ E L ~ _ ! ! ",
"3. .~ K W ~ H P _ ` K R _ R T R -.O.H ! ^ ( ! / ! K ! / _ ` ~ K :.>.` T ! I ~ { P L K ( _ L L ) +.%.L J I P P ` ~ T ! ^ I T ! T ",
"a.@.! ~ ' O.^ #.P O.^ ^ ! E ` E &.@.R ~ / L ~ ^ P T U ( E _ _ ~ &.E ] ~ P ! R / ! ( ] ` ) R ! _ &.| L ' I ^ E T _ ! ! ( L P ) L ",
"4. .) ! ` ` ! ' ` ` ) E o.o.! J 2.#.o.O.L ' ' ^ ~ ~ ^ o.P ( O.R =.' ^ L R ~ R T o.K P ' ' ' O.E &.#.O.E Y o.o.' ) | o.` L E ~ E ",
"3.@.~ ~ #.) ' / ` ~ O.( ~ +.E ) ;.O.R R ` ~ ! ` ` ( ~ ~ ^ O.W ^ >.O.] ] ( o.) ! ` ) ( E ` E ) ) &.:.) ^ ` ] @.@.W P ( ~ E ! O.( ",
"~ ) Q ) ) ~ ) o.O.o.$.) ( Q o.( } Q o.' R o.} | ) Q E E o.$.E o.O.( / E ( } W E }  .O.$.E E O.O.Q @./ } W Q ( } $.O.$.( E W O.} ",
"t.-.2.t.t.-.=.) 2.3.2.2.,.-.4.a.2.3.4.4.t.2.*.~ ;.y.2.;.t.4.2.>.4.3.=.p.y.2.,.) 2.a.2.2.p.r.2.2.2.1.r.2.2.-.&.X.4.t.4.-.5.,.5.3.",
"%.,.=.%.>.1.$.Q y.,.%.-.&.*.%.=.=.;.&.&.;.&.*. .t.1.&.%.4.:.,.%.2.,.,.>.%.-.4.;.m.3.p.,.>.>.&.1.&.>.2.t.t.4.&.O.2.;.=.;.;.:.;.,.",
"[ %.*.:.&.:.$.O.t.t.$.-.O.$.X.[ $.[ $.$.>.*.$.[ p.;.<.+.( >.%.$.O.:.:.-.y.H.J.J.K.K.K.a.=.;.%.) :.=.5.m.m.m.A.u.y.-.O.,.*.&.:.[ ",
">.:.<.*.+.,.>.*.i.,.;.[ >.*.*.%.@.:.O.;.@.&.;.$.t.,.:.<.&.>.>.>.:.%.-.m.2XpXsXuXBXsXpXA.t.&.&.X.2.m.G.pXP.P.1XJ.H.n.$.;.+.=.$.*.",
":.*.*.<.:.>.:.[ a.4.,.*.;.&.*.;.,.:.&.-.$.%.%.&.y.4.%.%.,.&.,.:.;.r.Z.pXsXaXsXuXbXfXpXK.A.t.4.y.H.K.=XpXpXpXyX=X2XA.2.,.$.$.-.;.",
";.%.*.%.,.;.;.,.3.t.>.:.=.;.%.>.*.;.,.>.;.;.1.X.d.2.;.;.,.&.>.;.,.d.G.aXsXbXbXsXsXaXsXaXpXJ.A.K.pXiXaXuXpXaXaXyX2XJ.t.2.-.,.%.=.",
"=.r.,.,.2.=.>.;.4.p.r.=.;.=.2.%.,.r.-.;.2.2.;.-.p.,.;.;.;.<.4.y.m.G.2XpXsXVXJXjXBXaXpXsXsXsXpXsXjXbXfXuXpXsXkXdXaXpXZ.d.a.3.p.,.",
"..-...2.;...&.;.j.-.;.-.*.2.*.;.%.r.X.,.j.=.;.*.6.j.*.;.;.;.m.J.yXyXpXiXjXjXbXjXuXpX*XuXbXcXgXyX=XuXiXuXdXuXgXiXaXuXyXK.pXJ.i.r.",
"m.d.d.n.i.Z.Z.m.a.n.n.g.n.n.i...n.Z.n.n.n.n.a.i.n.d.m.d.Z.A.2XaXBXMXBXSXMXBXJXJXfXP.F ;XbXVXjX*X7.=XfXBXMXMXBXZXkXBXMXfXiXfX2Xy.",
"H.Z.a.a.d.y.y.t.d.p.d.u.t.y.p.-.g.m.y.s.s.i.a.s.d.u.a.u.y.n.sXiXMXJXJXSXBXJXBXJXbX;XF yXMXVXzXE.G J.sXVXSXJXNXmXVXZXZXZXlXmXuXy.",
"A.s.g.a.t.t.u.p.s.d.t.u.s.y.a.2.M.s.s.y.d.s.t.r.u.p.p.p.d.g.sXjXJXJXFXMXZXBXCXJXMXdX0.uXMXJXIX=X0.;XBXVXDXJXJXGXmXAXDXCXbXCXiXi.",
"A.m.d.i.s.s.u.u.s.u.s.u.u.a.a.t.g.i.u.p.p.u.u.s.d.d.p.u.u.Z.bXnXJXLXKXJXKXJXLXLXFXDXiXDXLXJXHXsXbXAXPXDXPXSXGXCXVXFXJXVXGXJXkXM.",
"K.M.u.u.u.s.d.t.f.s.u.a.u.y.u.j.M.Z.u.i.u.d.u.i.i.u.i.u.u.S.lXnXLXPXPXFXFXJXPXFXFXJXLXKXHXKXLXxXJXPXPXIXKXKXPXKXHXKXHXLXPXLXlXm.",
"F.d.d.s.i.u.s.d.f.f.Z.M.A.n.i.y.A.g.f.f.d.Z.g.Z.d.s.h.f.s.Z.aXnXLXPXPXPXKXLXLXPXPXPXPXPXKXKXPXmXPXPXPXKXPXPXJXLXPXJXLXPXPXLXuXM.",
"B.Z.d.d.d.h.f.s.Z.pXBXAXnX2XH.u.D.g.M.G.pXlXSXzXpXM.h.i.i.f.G.pXJXHXPXPXJXPXKXKXPXKXPXFXHXPXJXvXKXLXLXKXPXPXPXPXPXLXLXLXJXgX[.i.",
"i.i.u.f.d.u.h.h.*XjXnXIXzXxXgXJ.i.e.J.uXgXxXvXvXgX*Xf.i.f.f.e.C.qXuXhXcXmXZXcXmXnXmXvXvXxXxXgXnXnXnXnXbXvXxXnXbXAXzXjXiX;XC.M.j.",
"G.G.F.G.G.A.F.B.SXLXKXPXPXHXKXSX2X2XJXKXPXHXHXcXPXmX1XC.G.A.1XF.>X1XqXJXKXKXHXvXPXHXHXPXPXlXaXjXVXHXHXKXPXPXPXAXPXNXpX7X1X1XG.G.",
"S.Z.G.D.S.F.V.C.JXFXLXPXIXPXPXPXSXSXPXPXPXPXKXxXPXSX:X~.|.B.G.F.M.C.1XsXLXHXHXvXLXLXGXmXlX8X,X2XlXLXPXLXPXPXHXmXPXlX1XG.D.[.Z.D.",
"Z.Z.Z.D.<XhXMXjXGXLXLXPXPXLXJXxXKXKXPXDXmXLXLXIXPXLXMXMXlX1XD.D.g.Z.S.1XkXGXKXnXHXPXSXkX1XS.Z.[.1XuXNXSXHXPXJXxXMX>XN.N.D.D.D.h.",
"Q.D.N.).MXHXHXxXKXPXKXFXKXFXgXG zXHXGXE.7.CXLXbXKXPXLXIXJXZXG.D.D.D.A.D.7XhXBXgXSXkX2XG.~.F.h.h.D.1X<XkXMXNXzXuXqXV.M.N.N.G.l.G.",
"N.`.B.|.JXHXLXmXPXPXPXPXKXPXZXF MXLXHXE.F bXJXmXLXKXPXHXGXAXF.C.D.[.F.`.D.|.:XC.qX2X`.~.[.N.D.F.`.`.N.1X>X1X1XB.,XQ.`.N.D.D.D.D.",
"].D.S.|.VXGXFXcXPXLXPXPXJXGXCXe.nXKXGXuXL.KXIXmXFXPXPXFXPXAX:XD.G.Q. X!.'.[.V.B.7X:XW.N._.D.F.V.C.G.G.S.G.G.].N.:X,X).`.D.~.[.G.",
"|.`.{.7XJXPXKXxXPXPXHXGXPXPXPXPXJXFXPXHXbXHXGXZXLXGXFXPXPXGX#X`._.D.F.[.}.`.|.N.&X'..X`.`.W.,XG.'.~.[.#XS.|.}.Z.].,X`.].|.~._.Q.",
"B.~.D.U.hXmXxXxXxXzXnXzXbXxXcXgXbXxXnXbXzXcXsXbXcXcXcXcXnXiXV.C.V.F.N.C.D.S.~.B.W.~.V.B.W.'.U.C.B.W.C.C.B.W.C.C.W.B.W.S.Z.b.W.G.",
"qX8XeX2XhXnXHXFXPXGXKXPXKXKXPXZXLXJXGXFXPXPXKXLXPXKXPXPXSXuX>XB.9XqX6XqX<X2X<X>X5X3X0X4X5X4X3XF.2X8X<X>X6XqX7X0X6XqX<X9X-X-X<X@X",
"rX8X@X>XOXhXlXZXJXPXFXPXHXHXLXgXLXCXPXKXPXHXPXLXLXJXzXhXhX:X'.W.rXeX5X].3X3XwX+X>X3X9X7X1X-XoXW.rX0X(.#X#X0XeX#X$X,X-X#X<XeX#X#X",
"rX4X/.|.~.:XoXrXnXJXIXPXPXKXFXhXhXhXLXPXPXKXKXKXPXDX4X<X,X/.XX).eX].5X+X7X(.OX7X}.oX@X5X X#X#Xl.9X,XoX].(.'.!.!.].$X!.+X{.[.!._.",
"rX|.3XXX/.`. XoXsXDXHXKXPXGXSX4XeX8XqXDXKXPXPXPXJXhXOXOX].W.oX~.rX(.@X~.]. XoX:X}. X%X@XXX/..X~.8X+XXX$X!.+X^.].].^./.[.Q.5X~.#X",
"rX6X+X7X).).].'.-XhXAXSXZXhXqXW.eX3X#X0XhXDXLXMXlX&XXX&X%XXX^.W.qX5X.X`.}.+X|./.$X/.&XoX5X}.3XN.3X6X!.&X9X3X^.[./.W.~.R.U.Y.U.~.",
";X6X5X~.3X^.5X}.'.@X8X4X+XoX5XY.rXOX@X'.$X8XoX7X#X].'.@X^.:X].W.8X].XX.X-X`._.[.]._.#X'.9XOX].W.5X}.(..XoX&X'.W.k.M l l g x c R.",
"x.I.XX+X~.^.Q. X$X,X).%X`.].'.B.3XQ.|.).@X(. X'.}.'.@X|.3X#X#X`.8X7X.XXXW.OXQ.!.oX:X^.(.$X.X/.W.oX-X-X).7XoXI.A b a q r w f e g ",
"t c e.W.B.W.W.W.C.`.S.W.l.W.).v.S.W.W.h.U.W.W.B.`.W.W.b.l.Y.U.N.W.N.N.l.l.W.W.W.).k.W.l.W.W.W.l.U.^.N.U.k.e.v 5 w q > 4 4 r d 1 ",
"n B x.tX7X4XwXW.qX3X0X8X0X3X0XeXtX6X4XqX5X0X5XB.6X3X6XqX4XeX7X3XrX3X4X9XeX8X>Xb.qXrX;X3X5X;X7X4X5XeX0XeX(.x.x w m m C N m m N C ",
"l k l T.$X4X#XW.3XtXeX*X,X-X+X4X].9X4X!.$X>X+Xv.6X&X!.Q.T.Y.Y.4X].(.|.#X7X8X#XB.rX8XwX+X&X>X>XoX].8X5X6XI.M k s n Z b b f f l l ",
"t f j j OX[.].D.8X,XoX].OXOX'.!.oX'.XX%XXXoXQ.b.T.N j c b x M k.U.$X+X{.|.3X{.Y.rX&X%X/.:XoX}.#X'.oX$X!.A j g 2 Z Z u 0 z a p 9 ",
"t g 9 w /.OX~.v.rX7X[..X(.%X~.XXOXQ. XXX~..Xk.v Z k s t 0 a r g A U..X$XOX(.{.N.0X0X.XXX(.oX!.]._.Q.7X].g e 2 g n l d ; s s < 0 ",
"w 2 g 0 [.@X(.W.9X#X,X_.XX[. X).{.!.`./.XXI.x 1 m b 9 p a 4 q j a A I.]..X7X1Xv.9X$X_.oX'.#X@X X&X}.(.Y.k h h 5 m n j < r t t h ",
"u > < p /. X+XB.6X#X:X#X X7X.XoX.X|.@X/.Y.n r 0 N j a i a , u e > u c ^.#X1X XW.3X9X}.XXOX[.XX).{.!.OXU.f 2 a s N z y j y e s w ",
"y y a y /.).(.B.4XoX XoX&X(.%X&X#X}.$X/.R.c t 0 j j u 0 f t 0 > e , k I.3X|.W.h.<XY.Q.U.Y.^.~..XOX/.@X/.v s t u m z 0 p 9 a f q ",
"s , 2 > B.W.e.W.W.U.B.U.W.W.W.W.N.N.W.e.8.5 2 2 d 0 1 q 3 > 3 q 4 q 3 v k.l.W.I.e.x t d g V v 9.e.C.M.I.d 5 5 1 4 0 5 0 6 > 3 d ",
"q.D m C 4XeX5X7X0XeX0XeXqXeX4XB.8X4XtX-X8.m m m N N Z N m C n u n n m q.T.5XY.x.S m S N M C c 6 x.E.eXwXS m Z m Z m N Z m m k s ",
"D m l l #XoXtX:X7XeX5X7XoXwX<XW.6X&X0X!.M l c l z l n f l k g 1 N Z C n /.T.M z l f l l x j j t Z 8.T.T.M l b j z n n n x j l 3 ",
"D k f y 3X/.1X3XoX~.T.(.W.U.'.N.0X>X#XR.g p s e g p j a g g f q Z k f n U.b y r i j d y , r a 0 m l M I.b w a y d d s 9 e t u 5 ",
"D l l d &XOX`.W.Y.M j k l j b 9.*XeX%XT.k y t t r s r f g u u s Z f w f w.c > q 4 0 y d g , e 0 N l c c.c , w g > < i g p < p 3 ",
"x.b p t ).^.R.v j 0 p g 0 < q s x.Y.oXY.l t 4 a w t g < p p < 3 C k 9 i c u t 4 f < r u e q p 4 N x w g < g g 5 i u > e f j t 4 ",
"x.l z s 1Xk.b j f q d t y t q t m 8.I.l.x d < p y p 2 y i y r t m n w y e e > r p 0 r p > g 2 q n l j > s q h e y f j w 0 j a 3 ",
"N k 0 p ~.B q f f a d 2 < 0 y s m k b I.8 y 0 e t w i s > u r 2 c j q u < 0 0 y r a e < y w q q l f i u , q e i s 9 0 r u d t 3 ",
"> 5 g 5 9.5 d : 4 6 d 1 1 3 2 3 k 6 B 9.v g 5 3 3 2 9 2 9 9 s 5 0 2 : 4 1 > 2 6 4 g d 9 2 7 1 2 q 1 3 3 4 9 5 0 3 9 5 V 4 2 3 q ",
"m C C C q.C k 2 m Z N D l D C m m m m q.C n l 5 M m m n m C N m C b n m B m m 2 m C N m M C S C m m n N N N l 2 m C M N N m m N ",
"b n l k n c k 2 Z N c z f l f f n l c z j c f y N m m f A l c x z 4 4 2 6 w g 7 Z m l l z n l l z z n g k j l 5 m n g z b l n x ",
"> p y 9 z i w q Z b y f f w p s h u w s e g a 0 n l e d , 4 : - % #   -   - * 5 N z g f f w e i p y i z r , 3 1 g 4 - - > 2 r y ",
"d 4 y f , < f 3 N l p w i j h , y t i 6 y d y 5 Z k > 3 4 * = @ @ # =     & & O b r > , p e s r a , 0 < q w * & 8 7 # & % - ; 3 ",
"4 4 5 e 1 j h 3 N z 5 0 r 0 s g 0 s 4 h e , f 2 N g : ; % @ %   = % @   %   @ O 8 : = 3 : 0 w t w , > > - = @ O 7 :       % * % ",
"= = q w 9 : ; & 8 7 # - ; > < 4 5 s < < 2 2 4 & 8 4 =   @ % X   @ % % +       # 6 7 o & = * ; 0 9 * * =     + . 6 7 #     @     ",
"%   @ & # * # X : - # & % o @ - 4 > : 7 ; - - $ 7 - @ % X         % @ % @ + o O - #   % % o = - =   % = X     $ 7 -     % @ % @ ",
"  O .   X X &   O . o & o   . o   & &     X O # o . o o X X O X X X   X o . O o . X   o X o   O & X O O o $ O O O   O O . O X X "
};
