/* XPM */
static char *_eef87e4d50f4197dec40aa3d7aa7cdbj69IB3ZetEe79eXL[] = {
/* columns rows colors chars-per-pixel */
"64 64 256 2 ",
"   c #048CBC",
".  c #1396BB",
"X  c #0894BD",
"o  c #7191AD",
"O  c #779DA1",
"+  c #008CCE",
"@  c #068BC8",
"#  c #108CCB",
"$  c #0894C6",
"%  c #0498CB",
"&  c #1397CA",
"*  c #108CD9",
"=  c #0894DE",
"-  c #009CDE",
";  c #089CDE",
":  c #0398D8",
">  c #109CD6",
",  c #149ADC",
"<  c #088CD8",
"1  c #269ACA",
"2  c #359CCE",
"3  c #2398D8",
"4  c #349CD6",
"5  c #13A5CB",
"6  c #00A5D6",
"7  c #08A5D6",
"8  c #00ADD6",
"9  c #00A5DE",
"0  c #08A5DE",
"q  c #08ADDE",
"w  c #06ADD8",
"e  c #10A5DE",
"r  c #10ADDE",
"t  c #15A9D8",
"y  c #04B5DB",
"u  c #11B5DB",
"i  c #05ADCB",
"p  c #34A9CD",
"a  c #21A5DE",
"s  c #25AADA",
"d  c #35ABDB",
"f  c #24B6DC",
"g  c #39B5DE",
"h  c #33B9DE",
"j  c #29A5CA",
"k  c #009CE7",
"l  c #089CE7",
"z  c #0598EB",
"x  c #109CE7",
"c  c #139AEB",
"v  c #008CE7",
"b  c #00A5E7",
"n  c #08A5E7",
"m  c #08ADE7",
"M  c #05A8ED",
"N  c #10A5E7",
"B  c #18A5E7",
"V  c #18ADE7",
"C  c #11AAEC",
"Z  c #15B5EA",
"A  c #00B5E7",
"S  c #21ADE7",
"D  c #26A9EA",
"F  c #31ADE7",
"G  c #35ADEB",
"H  c #21B5E7",
"J  c #29B5E7",
"K  c #23BAEA",
"L  c #39B5E7",
"P  c #34B8E9",
"I  c #299CE7",
"U  c #44A8CE",
"Y  c #52A8CE",
"T  c #56B7CE",
"R  c #56ABD8",
"E  c #48B9DD",
"W  c #55B7DC",
"Q  c #45AADB",
"!  c #68B8CE",
"~  c #68B9DA",
"^  c #79B9D8",
"/  c #6BB2D1",
"(  c #44ADE9",
")  c #4AB5E7",
"_  c #42BDE7",
"`  c #4ABDE7",
"'  c #42B5EF",
"]  c #46B9ED",
"[  c #52BDE7",
"{  c #56BAEB",
"}  c #6BBDE7",
"|  c #64BAEA",
" . c #77BDEA",
".. c #7BBDF7",
"X. c #35C6E7",
"o. c #58C6DE",
"O. c #42C6DE",
"+. c #69CADE",
"@. c #76C8DB",
"#. c #73D6DE",
"$. c #47C6EA",
"%. c #5AC6E7",
"&. c #55C7EA",
"*. c #5ACEF7",
"=. c #6BC6EF",
"-. c #6BCEEF",
";. c #66CBE9",
":. c #73C6E7",
">. c #73C6EF",
",. c #73CEEF",
"<. c #7BCEEF",
"1. c #78CDE8",
"2. c #68CBF7",
"3. c #77CAF7",
"4. c #78D6EA",
"5. c #849CA5",
"6. c #87BAD6",
"7. c #B0B8D1",
"8. c #84BDF7",
"9. c #D6BDDE",
"0. c #96CACE",
"q. c #8AC8DC",
"w. c #98CADB",
"e. c #A9CAD9",
"r. c #BACCD9",
"t. c #BADAD8",
"y. c #B4D0CF",
"u. c #84CEE7",
"i. c #84CEEF",
"p. c #89CAED",
"a. c #98CEEB",
"s. c #84D6EF",
"d. c #8CD6EF",
"f. c #88D7E8",
"g. c #9CD6E7",
"h. c #94D6EF",
"j. c #9CD6EF",
"k. c #98DCEB",
"l. c #86CDF7",
"z. c #8CD6F7",
"x. c #84DAF7",
"c. c #98DAF7",
"v. c #97CEF7",
"b. c #B8CCEA",
"n. c #ADD6E7",
"m. c #A5DEEF",
"M. c #ADDEEF",
"N. c #A7D8EB",
"B. c #B5DEEF",
"V. c #BADAEB",
"C. c #A5D6F7",
"Z. c #ADDEF7",
"A. c #A7DCF7",
"S. c #B9DCF8",
"D. c #A7CCED",
"F. c #ABE7ED",
"G. c #B9E9ED",
"H. c #BAE9F8",
"J. c #ADE7F7",
"K. c #A5E7DE",
"L. c #CECBDB",
"P. c #D8CEDC",
"I. c #CADADA",
"U. c #D6DEDE",
"Y. c gray87",
"T. c #DAD8DA",
"R. c #D0D8CC",
"E. c #E7DCDE",
"W. c #E7CEDE",
"Q. c #DEE7DE",
"!. c #D6E9DB",
"~. c #D0E9D8",
"^. c #FAEFDE",
"/. c #EAFCDE",
"(. c #FBF7DE",
"). c #CBDBEA",
"_. c #DED6E7",
"`. c #D6DEE7",
"'. c #DADBE9",
"]. c #CADEF7",
"[. c #CED1EC",
"{. c #E9DAE9",
"}. c #CBE9EC",
"|. c #D6E7E7",
" X c #DEE7E7",
".X c #D6E7EF",
"XX c #D6EFEF",
"oX c #DDEDED",
"OX c #D6F7EF",
"+X c #DCFAEC",
"@X c #C6E7F7",
"#X c #CEEFF7",
"$X c #CAEAFA",
"%X c #DEE7F7",
"&X c #D6EFF7",
"*X c #DEEFF7",
"=X c #D9EAFC",
"-X c #CEF9F9",
";X c #D6F7F7",
":X c #DEF7FF",
">X c #DBFAFA",
",X c #E7E7E7",
"<X c #E7EFE7",
"1X c #EFEFE7",
"2X c #EFE7EF",
"3X c #E7EFEF",
"4X c #EFEFEF",
"5X c #E7E7EF",
"6X c #FFEFE7",
"7X c #F7E7EF",
"8X c #F7EFEF",
"9X c #FCEEEC",
"0X c #E7F7E7",
"qX c #EFFFE7",
"wX c #E7F7EF",
"eX c #EFF7EF",
"rX c #EFFFEF",
"tX c #E8FEEA",
"yX c #F7F7E7",
"uX c #F7FFE7",
"iX c #F7F7EF",
"pX c #FFF7EF",
"aX c #F7FFEF",
"sX c #FFFFEF",
"dX c #FFFCE7",
"fX c #E7E7F7",
"gX c #EFE7F7",
"hX c #E7EFF7",
"jX c #EFEFF7",
"kX c #E7EFFF",
"lX c #EFEFFF",
"zX c #EAE7FF",
"xX c #F7E7F7",
"cX c #FFE7F7",
"vX c #F7EFF7",
"bX c #FFEFF7",
"nX c #F7E7FF",
"mX c #F7EFFF",
"MX c #FFEFFF",
"NX c #FFE7FF",
"BX c #E7F7F7",
"VX c #EFF7F7",
"CX c #E7FFF7",
"ZX c #EFFFF7",
"AX c #E7F7FF",
"SX c #EFF7FF",
"DX c #E7FFFF",
"FX c #EFFFFF",
"GX c gray97",
"HX c #FFF7F7",
"JX c #F7FFF7",
"KX c #FFFFF7",
"LX c #F7F7FF",
"PX c #FFF7FF",
"IX c #F7FFFF",
"UX c white",
/* pixels */
",XsXUXIXsXIXLXdXPXiXGXpXHXUXIXHX[.IXIXUXUXPXUXUXMX6XiXZX2XKXUX7X!.qX/.KXAXNXKXcXUXbXzXMXnXHXnXcX,XLXPXUXwXUXMXKXsXUXuXbXUXNXSXsX",
"Y.KXjXlXsXPXHXGXxXHXAXnXlXUXZXPXU.lXKXHXHXpXuXsXLXGXHXKXsXaXVXJXR.yXaXPXLXGXKX4XyXeXJXJXjXiXSXjX`.GXUXKXSXSXsXKXLXbXvX9XFXUXnXmX",
").7XBX3XJXPXIXKXPXvX8XGXvXLXjXsXL.VXSXaXmXpXtXiXJXmXmX8XGXuXJXtXT.BXLXpXZXGXaXyXiXuX/.aX.X#XS.Z.e.BXVXPXIXUXZXrXPXiXjXMXGXIXHXPX",
"E.JXrXVXmXLXJXvXmXvXPXmXlXLXLXlXT.jXjX4XbX2XBXyXZXGXeX6X1XHX0X>XI.IXGXaXKX(.aXsXIXVXZXOXF.s.%.[ R }.%XvXIXPXUXUXaXyXvXVXKXJXHXeX",
"Q.GXGXVXcX4XvXuX4XjXKXKXPXSXIXyXY.HXLXlXwXMXnXBXSXVXcX^.vX`..X*X[.VXVXUXUXFXJXJXUXJX.Xm.i.E d J 2 Z.).fXiXJXUXLXiXqXJXLXVXAXaXJX",
"U.HXrXwXAXkX1X(.iXIXIXUXGXLXFXbXT.iXgX&XoXiX1XiXeXVXJX8X}.Z.v.D.e.VXFXHXrXGXUXaXLX-Xm.=.L D V w . z.N.@XfXwXaXqXrX^.1X.XB.H.G.|.",
"e.=X&XXX}.n.).|.2XqXKXLXSXeXiXiX).oXB.a.F.+X<XwXFX>XBX&Xk.-.&.| 6.oXwXiXtXGX8XiX+XF.2.G c z - 0 > %.:.z.A..X-XtX X&XV.h.>.-.4.j.",
"@.0.0.^ ~ T / q.y.R.'.`._.`.R.T.I.q.R U ! ! y.I.[.t.e.^ U s & 1 T ^ w.).I.I.).r.0.@.U & & ; : & X # 1 U R @.u.6.0.@.R U 4 1 j E ",
"j.h.h.h.l.<.s.f.^ @XmXLXLXDX<X&X@XJ.s.x.z.k.b.J.0.H.A.j.u.3.>.i.@.c.G.@X}.#X}.Z./ c.d.<.:.2. .-.+.+.4.q.v.j.l.p.U v.w.u.u.8.l.f.",
"$.] _ ' L ) E ) 2 N.=X%X3X;XG.N.f.[ L L _ $.W o.p k.-.{ G L d d ( ) ` 2.:.-.=.&.1 s.&.L g L P ( Q ) E [ ) E W L 5 p. .+.>.,.=.%.",
"W F r c t > ; r & 1.a.c.c.z.+.) s u u 7 > t V D & :.E J t = 0 c , V C f t S t s % <.$.r 0 r ; e f E [ o.E O.P f 1 N.h.g.M.m.l.@.",
"p.[ H N 0 k r l + i.} _ $.Q f t 7 y y m k k k N % >._ n n v v x B , l 6 0 e * ; @ :.L w 6 > r s { u.g.n.g.x.%.$.W ].H.*X0X:X;XH.",
"S.l.X.m w k k k = 3.' u r w m 8 i q 8 7 = = - l @ #.X.u 7 < k l t y b 8 = : , ; $ @.$.B 5 a s E a.}.0X5X X@XN.h.w.OXoXaXLXDX>X}.",
".XF.&.K r t n : + ~ d m b 6 - 6 8 i 7 b b * ; k + ;.h 0 x = < 9 l - m ; b c = x + -.E f P &.;.<.).BXLXmXLXfX*X$XI.mXrXVXGXAXFXOX",
"wXJ.i.$.K K m - $ W D m e % : w 0 q 0 l z e q Z & W h 7 n > 7 : 6 n z z : k n z < ` { %.f.k.F.H.BXVXsXbX5X5XfXxXE.VX<XJXvXGXPXJX",
"`.I.e.q.T Y 4 1 & @ * $ $ @ $ +   & # & & & p p j 1 $ % % X $ i % + : < % % & % $ 3 R q.L.I.`.T.Q.T.Y.P.9.7.9.W.!.).y.I.`.Y.,X,X",
"'.9XgX3X.X;XH.N.u.<.3.@.>.} ;.&.@ :.p.=.h.A.B.@X@XB.a.4.>.u.f.` > -.-.3.<.@.4.>.i.g.S.BXvXLXMXMX'.7XNXiXL.7._.GXlX'.y.[.GXJXZXbX",
"Y.iXmXGXBX*X$Xm.1.} ( g P P d S : ,.=.3.a.G.&XBXBXH.h.3.2.>. .} 1 f.;.] G L ' _ ` :.B.BXcXGXnX8XU.mXKX+Xb.o 7.BX5Xb.o t.VXSXbXHX",
"{.GXPXVX2XNXxX].z.[ z q M C c c @ s.| } n.OXGXjXLX-XH.v.z.m.n.M.^ C.{ D c C , V s { B.vXvX8XMXxXP.mXLX0Xr.o r.jX;XD.o K.*XrXUXbX",
"W.KXJXSXHXjXbX%XD.{ B : M k l D 3 a.:.a.).CXVXGXaXiX%X@X@X|.zX.XD.H.*.f l b x w u %.M.wX0XVX6XIXI.IXIX>XOX[.{.VXnXOXn.-XLXrXPXvX",
"Q.PXbXMXsX1X7X<XM.~ 9 6 x 7 S L ) G.F.}.AXrXJXmXVX!.+XBX&X@X*X7Xb.@Xd.&.F B k r t E u.|.CXaXKXbX|.SXmXhXwX>XvXxXvX.X%XAXGXHXaXVX",
"Y.MXHXaXaXqXwX Xn.o.7 - M S &.c.w.hXhXqXZX+XtXjXU.5.t.<Xr.O t.fXL.AX@XC.2.F r - t K :.B.XXVXpXxXT.GXSXBXmXVXLXAXGXgXcXSXnXiXVXKX",
"_.LXdXuXVXrX+XG.u.&.b 0 Z ) d.@X`.BXCXyXqXqXtXeX~.O t.|.y.O I.BX_.gXxX-XB.{ s : l t ) a.@XfX3XyXQ.GXhXkX=XfXfX.X9X1XGXLXdX1XkXmX",
"V. X'.Q.Q.I.y.0.Y j % + 5 Y e.T.'.T.|.!.!.I.~.U.R.7.P.}.R.R.~.T.E.E.Q.T.[.6.4 @ @ > 1 Q ^ 7.r.I.I.r.e.e.w.b.L.I.E._.'.T.T.T.I.r.",
"=X=X:XLXAX&XS.d.j +.l.<.h.C.*XGXLXHXiXmX/.rXGXDXT.VX8XJXFXDXKXPXKXIXLXZX*X@Xz.) + 2.-.i.h.J.G.@X@XS.S.C.S.}.&XGXU.fXIX4X4XfX].S.",
"u.c.S.H.N.d.;.) & #.%.E o.d..XhXGXeXGX8XyXeXaXaXT.FXZXSXFXHXHXGXGXJXGXVX=Xb.} G % ,.| ] _ &.>.:.;.;.;.&.} l.c.H.t.>XBXfX}.N.<.:.",
"F ) ` { ` F s Z $ ;.P s J o.n.'.jX6XBXvXGXGXLXrXT.aXLXlXVXZX6XiXSXIXIXrX].p.G B @ ,.' x C m D I a J u V 3 h ` ;.@.@XH.a.1.) J J ",
"c a C s s t 0 6 % ..g m q d :.N.=X<X XOX}.hXCXZXE.FXaXJXBX;X:XmXFXmXeX{.C.` s n $ =.g ; C c V , s c t V w e B H p c. .' j B N 9 ",
"x q C n B r 8 q $ 3.g y 0 x d } a.B.).Z.k.B.;XjX_.PX7XBX}.}..XXXlXFXXXF.<.G 7 q <  .] D f g ) ] ` { &.) D S Z C & 3.{ t t ; x r ",
") ] _ H Z e t n 6 ;.L t A 7 N F { ;.@.%.&.-.F.#XI.GX&X).g.u.i.n.S.G.g.1.' V 0 = + @.{ { } d.g.C.J.b.n.q.;.] F q , >.d B B t J E ",
"j.a.p.-.{ G B A $ ( K N 0 b e B H H P H Z P ;.c.e.@Xm.1.E J X.;.;.-.%.g , ; 0 9 > {  .h.S.|. XfXBX*XfX#X).i.=.d & { D V t E | p.",
"R.L.r.w.@.T p >   @ @ : % + X   $ 5 $ % & t s E ! ^ Y p 5 % & 5 s 4 1 & .       . p ! y.[.~.P.P.|.Q.E.U.L.e.q.~ 2 3 # & 1 ! q.L.",
",XsXUXIXsXIXLXdXPXiXGXpXHXUXIXHX[.FXIXUXUXPXUXUXMX6XiXZX2XKXUX7X!.uX/.KXAXNXKXcXUXbXzXMXnXHXnXcX,XLXPXUXwXUXMXKXsXUXuXbXUXNXSXsX",
"Y.KXjXlXsXPXHXGXxXHXAXnXlXUXZXPXY.lXKXHXHXpXuXsXLXGXHXKXsXaXVXJXR.aXaXPXLXJXKX4XyXeXJXJXjXiXSXjX`.GXUXKXSXSXsXKXLXbXvX9XFXUXnXmX",
").7XBX3XJXPXIXKXPXvX8XGXvXLXjXsXL.VXSXaXmXpXtXGXJXmXmX8XGXqXJXtXT.BXLXpXZXGXaXyXiXuX/.aX.X#XS.Z.e.BXVXPXIXUXZXrXPXiXjXMXGXIXHXPX",
"T.JXrXVXmXLXJXvXmXvXPXmXlXLXLXlXT.jXjX4XbX2XBXyXZXGXeX6X^.bX0X>XI.SXGXaXKX(.aXsXIXVXZXOXF.s.%.[ R }.%XvXIXPXUXUXaXyXvXVXKXJXHXeX",
"Q.GXGXVXxX4XvXuX4XjXKXKXPXSXIXyXY.HXLXlXwXbXnXBXSXVXcX^.VX`.@X*X[.VXVXUXUXFXJXJXUXJX.Xm.s.E d J 2 Z.).fXiXJXUXLXiXqXJXLXVXAXaXJX",
"U.HXrXwXAXkX1X(.iXIXIXUXGXLXFXbXT.yXgX&X3XyX1XiXeXVXJX8XXXZ.h.D.e.VXFXHXrXGXUXaXLX-Xm.=.L S V 0 . z.N.@XfXwXaXqXrX^.1X.XB.H.G.|.",
"e.=X&XXX}.B.).|.2XqXKXLXSXrXiXiX).AXB.v.K.+X<XeXDX:XBXXXh.-.&.| 6.oXBXiXwXGX8XiX+XF.2.G c z - r > %.:.z.A..X-XtX X&XV.h.>.-.4.j.",
"@.0.0.^ / T ! q.y.R.'.`._.T.T.T.t.6.R U ! ! e.I.[.t.e.6.U d # 1 T ^ w.I.I.I.).r.0.@.U & & = : $ X # 1 U R @.u.6.0.@.R U 4 1 j E ",
"j.h.c.h.i.<.s.f.^ @XmXLXSXDX<X&X#XA.s.x.z.k.b.J.0.H.C.j.u.3.,.<.@.c.G.@X}.#X}.A./ c.d.<.=.-...;.+.+.4.q.v.j.l.p.U v.w.u.u.8.l.f.",
"$.) _ ' P ) E ) 2 N.kX%X3X;XG.N.f.[ L L _ $.W o.p k.-.{ G L Q 4 ( ) ` 2.:.-.=.&.1 s.&.G g L L ( Q ) E [ ) E W L 5 p. .+.>.,.=.%.",
"W F r c e > ; r & 1.a.c.c.z.+.) s u u 7 > t V D & +.` K e = 0 c > V C f t S a s $ <.$.Z q r ; 0 f E [ o.E O.P f 1 N.h.g.M.m.l.@.",
"p.[ J N 0 k t l + p.| _ ` Q f u 7 y y m k k k C % >.E M n v z x C , x 6 7 t = ; @ :.L w 6 > r d { u.g.n.g.x.%.$.W ].H.*X0X:X;XH.",
"S.l.X.u w k k k = 3.] u r q m 8 i q w % < = - ; @ #.X.u 7 : v z t y b 8 = : ; ; $ @.$.e t s t E a.}.0X5X X@XN.h.w.OXoXaXLXDX>X}.",
"$XF.&.H r e n : + ~ d m b 6 - 6 8 i 0 b b * ; k @ ;.f 0 x = = 9 l k m ; b c * x @ ;.E f L &.;.<.).BXLXmXLXfX*X$XI.mXrXVXGXAXFXOX",
"wXH.u.$.J K m - $ R D m > > : w q q 0 l l 0 q Z & { h 5 n > 7 : 6 ; z z - k n z < ` { %.u.k.F.@XBXVXsXbX5X5XfXxXE.VX<XJXvXGXPXJX",
"|.L.y.@.o.U 4 1 $ @ * $ % @ % @ X $ # # & 5 p p p & $ % $ . $ i % + : < % % & % % 3 R q.L.I.`.T.Q.T.Y.P.9.7.9.W.!.).y.I.`.Y.,X,X",
"'.9XgXhX.X;XH.A.f.<.3.+.>.} =.&.@ :.u.>.k.A.V.@X}.B.a.4.-.u.f.{ > -.-.3.<.@.4.>.i.g.S.BXvXLXMXMX'.7XNXiXL.7._.GXlX'.y.[.GXJXZXbX",
"Y.iXmXGXBX*X$XN.1.| ( g L P d V : 3.=.3.a.G.&XhXBXH.d.3.2.:.} } 1 f.;.] G L ' _ ` :.B.BXcXGXnX8XU.mXKX+Xb.o 7.BX5Xb.o t.VXSXbXHX",
"{.GXNXVX2XNXxX].z.W z r M C c c * s.| } n.OXVXjXLX;XH.v.z.m.n.M.^ C.{ D c C , V s { B.vXvX8XMXxXP.mXLX0Xr.o r.jX;XD.o K.*XrXUXbX",
"W.sXJXSXHX1XvX%XD.{ N : z - l D & g.>.a.].CXeXGXJXiX*X@X).&XzX.XD.H.*.f l b x w u %.M.wX0XVX6XIXI.IXIX>XOX[.{.VXnXOXn.-XLXrXPXvX",
"Q.PXbXMXsX1X7X<XA.~ 0 6 N 7 t ' R G.F.@XAXqXJXmXVX!.oXBX%X).BXxXb.@Xd.&.F B k r t E u.|.CXaXKXbX|.SXmXhXwX>XvXxXvX.X%XAXGXHXaXVX",
"Y.PXHXaXaXqXwX0XN.+.7 - M D *.c.g.hX*XtXZX+XtXjXU.5.t.<Xr.O t.fXL.AX@XC.2.F r - t K :.B.XXVXpXxXT.GXSXBXmXVXLXAXGXgXcXSXnXiXVXKX",
"_.LXpXuXVXuX+XG.f.` 9 0 Z ` d.@X`.BXCXdXqXqXBX4X~.O t. Xt.O I.eX_.gXxX-XB.{ s : l t ) a.@XfX3XyXQ.GXhXkX=XfXfX.X9X1XGXLXdX1XkXmX",
"V. X'.Q.Q.I.y.q.Y 1 % @ 5 Y e.T.Y.T.|.!.!.I.~.U.R.e.P.|.I.y.~.R.E.E.Q.T.[.6.4 @ @ > 1 Q ^ 7.r.I.I.r.e.e.w.b.L.I.E._.'.T.T.T.I.r.",
"=X=X:XLXBX&XS.z.j +.p.<.d.C.%XGXLXHXiXmX/.aXGXDXT.VX8XJXFXDXKXPXKXIXLXZX*X@Xz.) + 2.-.i.h.J.G.@X@XS.S.C.S.}.&XGXU.fXIX4X4XfX].S.",
"u.c.S.H.N.d.:.` & #.;.O.o.d..XhXgXeXGX8XyXeXaXaXY.FXZXSXFXHXHXGXGXJXGXVX=Xb.} G % ,.| ] _ &.>.:.;.;.;.&.} l.c.H.t.>XBXfX}.N.<.:.",
"F ) [ { ` F s Z % ;.L s H o.n.'.hX6XBXvXVXGXLXrXT.aXLXlXVXZX1XyXSXIXIXrX].p.G B @ ,.' x C m D I a J u V 3 h ` ;.@.@XH.a.1.) J J ",
"c t C s a 7 0 6 % >.L m 0 d :.M.=X<X,XOX}.BXCXZXE.IXaXJXBX;X:XmXFXmXeX{.C.` s n $ =.g ; C c V , s c t V w e B H p c. .' j B N 9 ",
"c r C N B V 8 w @ ,.L y 0 x d =.j.B.).Z.k.B.;XVX_.PXvXBX|.}.|.XXlXFXXXF.<.G 7 q <  .] D f g ) ] ` { &.) D S Z C & 3.{ t t ; x r ",
") ' $.J V t e 0 % ;.L e m 7 n F &.;.+.%.&.-.F.#XR.BXXXV.g.p.s.M.S.G.g.1.' V 0 = + @.{ { } d.g.C.J.b.n.q.;.] F q , >.d B B t J E ",
"j.g.p.;.[ G V A % ( K N 0 9 e B D K P f H P ;.c.7.$Xm.1.O.J L { ;.-.%.g , ; 0 9 > {  .h.S.|. XfXBX*XfX#X).i.=.d & { D V t E | p.",
"L.L.r.w.@.W p >   @ @ : % + X   X 5 $ < % t s E ~ ^ Y p 5 & 5 5 s 4 1 & .       . p ! y.[.~.P.P.|.Q.E.U.L.e.q.~ 2 3 # & 1 ! q.L."
};
