/* XPM */
static char *d755687eb50b431594f6e89f73f99ae0a3eJNK5DljFEf5rM[] = {
/* columns rows colors chars-per-pixel */
"64 64 256 2 ",
"   c #181008",
".  c #181808",
"X  c #181210",
"o  c #180808",
"O  c #211008",
"+  c #211808",
"@  c #291808",
"#  c #291008",
"$  c #311808",
"%  c #291810",
"&  c #211810",
"*  c #311810",
"=  c #292108",
"-  c #212108",
";  c #312108",
":  c #292110",
">  c #312110",
",  c #312918",
"<  c #353118",
"1  c #312921",
"2  c #392921",
"3  c #313121",
"4  c #393121",
"5  c #524A31",
"6  c #544A37",
"7  c #525239",
"8  c #525431",
"9  c #514B28",
"0  c #656639",
"q  c #7B6B39",
"w  c #5F5F35",
"e  c #665A45",
"r  c #6B5656",
"t  c #5A6345",
"y  c #686647",
"u  c #746A48",
"i  c #6B7348",
"p  c #777649",
"a  c #696754",
"s  c #756952",
"d  c #787855",
"f  c #6B735A",
"g  c #7B7763",
"h  c #5A5A42",
"j  c #867855",
"k  c #87764C",
"l  c #8A7964",
"z  c #967B6B",
"x  c #798456",
"c  c #738446",
"v  c #7B8C63",
"b  c #888757",
"n  c #978956",
"m  c #8A9857",
"M  c #9A9657",
"N  c #9C844A",
"B  c #A89755",
"V  c #AAA857",
"C  c #AFAF58",
"Z  c #878666",
"A  c #988867",
"S  c #8C9869",
"D  c #989A67",
"F  c #968A73",
"G  c #989976",
"H  c #8C8C73",
"J  c #A78A65",
"K  c #A79868",
"L  c #A69974",
"P  c #B89872",
"I  c #9BA568",
"U  c #97AA70",
"Y  c #ABA766",
"T  c #B9A668",
"R  c #AAB566",
"E  c #B7B565",
"W  c #A9A977",
"Q  c #B8A878",
"!  c #BAB878",
"~  c #ADB876",
"^  c #9CAD5A",
"/  c #C8AB77",
"(  c #C8B879",
")  c #DBBA78",
"_  c #D2B36C",
"`  c #EFBD6B",
"'  c #ECBB66",
"]  c #F7B56B",
"[  c #F7BD6B",
"{  c #F9BD65",
"}  c #EDAC76",
"|  c #F8AB79",
" . c #EFB573",
".. c #E7BD73",
"X. c #EFBD73",
"o. c #EFB57B",
"O. c #E7BD7B",
"+. c #EFBD7B",
"@. c #E7B579",
"#. c #F7BD73",
"$. c #F7B57B",
"%. c #F7BD7B",
"&. c #FEBA74",
"*. c #FAAA6B",
"=. c #C6A563",
"-. c #CACA77",
";. c #DDCA77",
":. c #DCDB79",
">. c #D0D873",
",. c #EFC66B",
"<. c #EACC6A",
"1. c #F8C76A",
"2. c #ECD968",
"3. c #E7C673",
"4. c #EFC673",
"5. c #E7C67B",
"6. c #EFC67B",
"7. c #EFCE7B",
"8. c #E9CE77",
"9. c #F7C673",
"0. c #F7CE73",
"q. c #FFCE73",
"w. c #F7C67B",
"e. c #FFC67B",
"r. c #F7CE7B",
"t. c #FFCB78",
"y. c #ECDA7A",
"u. c #FADB79",
"i. c #DAEB78",
"p. c #EEEB77",
"a. c #FCE77B",
"s. c #B59C8A",
"d. c #A59C84",
"f. c #BAAB87",
"g. c #B9B685",
"h. c #B0AC8F",
"j. c #94A184",
"k. c #C9AC85",
"l. c #C9BB87",
"z. c #DBBD87",
"x. c #CABB96",
"c. c #D3B597",
"v. c #EBAD86",
"b. c #EFBD84",
"n. c #EABA87",
"m. c #F7B584",
"M. c #F7BD84",
"N. c #FCBB89",
"B. c #EEBD95",
"V. c #F9BA96",
"C. c #F7AD87",
"Z. c #E7BDA5",
"A. c #BBCC92",
"S. c #CBCB8A",
"D. c #DACA8A",
"F. c #DAD989",
"G. c #CCCA96",
"H. c #DACB98",
"J. c #DADA98",
"K. c #CBD98F",
"L. c #EFC684",
"P. c #E7CE84",
"I. c #EFCE84",
"U. c #EFC68C",
"Y. c #E7CE8C",
"T. c #EFCE8C",
"R. c #E7C688",
"E. c #F7C684",
"W. c #F7CE84",
"Q. c #F7C68C",
"!. c #FFC68C",
"~. c #F7CE8C",
"^. c #FFCE8C",
"/. c #FFCC84",
"(. c #EFD684",
"). c #EFD68C",
"_. c #E7DE8C",
"`. c #EFDE8C",
"'. c #E9DA86",
"]. c #F7D684",
"[. c #FFD684",
"{. c #F7D68C",
"}. c #FFD68C",
"|. c #F7DE8C",
" X c #FCDE86",
".X c #EFC694",
"XX c #E7CE9C",
"oX c #ECCB98",
"OX c #F7CE94",
"+X c #FFCE9C",
"@X c #F9C898",
"#X c #E7D694",
"$X c #E7DE94",
"%X c #EFDE94",
"&X c #EFDE9C",
"*X c #ECD899",
"=X c #F7D694",
"-X c #FFD694",
";X c #F7DE94",
":X c #F7DE9C",
">X c #FCDB99",
",X c #DCE99A",
"<X c #DCFD97",
"1X c #D7EB8F",
"2X c #EFE784",
"3X c #EFEF8C",
"4X c #EAE988",
"5X c #F7E784",
"6X c #F7EF84",
"7X c #FBEB8C",
"8X c #EDFC87",
"9X c #FAFB89",
"0X c #E7EF94",
"qX c #EFEF94",
"wX c #EFE79C",
"eX c #EFEF9C",
"rX c #E9E998",
"tX c #F7E794",
"yX c #F7EF94",
"uX c #F7EF9C",
"iX c #FFEF9C",
"pX c #FEEA98",
"aX c #E7F794",
"sX c #EDFA98",
"dX c #F9F79B",
"fX c #D5D5A7",
"gX c #EFCEA5",
"hX c #EDC8A9",
"jX c #FACCA8",
"kX c #EFD6A5",
"lX c #E7DEA5",
"zX c #EFDEAD",
"xX c #EDD9A9",
"cX c #F7DEA5",
"vX c #FFDEA5",
"bX c #F9D8AA",
"nX c #EDDCB6",
"mX c #FBDBB9",
"MX c #EFCEB8",
"NX c #DCEBAC",
"BX c #DCF7B0",
"VX c #EFEFA5",
"CX c #EFE7AD",
"ZX c #EAEBA9",
"AX c #FFE7A5",
"SX c #F7EFA5",
"DX c #FFEFA5",
"FX c #FFE7AD",
"GX c #F9EBAB",
"HX c #EAF9A7",
"JX c #FCF9A9",
"KX c #EAECB9",
"LX c #FAE8B9",
"PX c #ECF7B8",
"IX c #EFD6C6",
"UX c #F4EFC7",
/* pixels */
", 3 4 < 3 2 1 2 < 4 4 1 1 3 1 2 1 4 1 1 3 3 1 1 4 3 4 , , 1 3 2 , 3 4 < 3 2 1 2 < 4 4 1 1 3 1 2 1 4 1 1 3 3 1 1 4 3 4 , , 1 3 2 ",
"> > > : % * ; > > : : % % > : % % > > : > > : : : : > > > : > > > > > : % * ; > > : : % % : : % % > > : > > : : : : > > > : > > ",
"; @ = @ @ ; ; @ @ @ @ $ = ; $ @ ; $ = ; = ; = = ; @ @ $ @ = = @ ; @ = @ @ ; ; @ @ @ @ $ = ; $ @ ; $ = ; = ; = = ; @ @ $ @ = = @ ",
"= @ = = = $ @ @ @ = ; ; = $ = $ = @ @ + @ # @ @ ; ; $ @ @ $ @ @ = @ = = = $ @ @ @ = ; $ = $ = $ = @ @ + @ # @ @ ; ; $ @ @ $ @ @ ",
"+ - @ #   . + - + -   . O X @ O   % O X O X O X   X . +   O + + + + @ #   . + - + -   . O + # #   & o X O X o . o X + .   O O O ",
"9 9 5 6 6 5 7 7 7 7 5 8 6 5 5 9 9 9 5 5 9 5 8 9 9 7 7 7 5 6 7 8 9 9 5 6 6 5 7 7 7 7 8 8 6 5 5 9 8 9 5 5 9 5 5 5 9 7 7 7 6 6 7 8 ",
"w 0 w e y 0 e a y y 0 0 y e e y w e e t h t 0 0 0 t a a t t t y w w 0 y y 0 e a y e 0 0 a e e y 0 e y y h t t 0 0 y a y t t y y ",
"0 y y s s 0 y y e y y u r r a a t y a a e a y s i i u e y e 0 y 0 y e s s 0 y y 0 y y y r r a a e 0 a y e a y u i i y e y 0 t i ",
"s a a s a q u u y a a y r s s u i p u u u y 0 u u p u s 0 u i s s f a s u u u u u a a y y s s s i p u u u u y u u i u s e u i a ",
"s d u i i p k s f p s s s d i p d d i s u u i k d p u s u y s s s s u i i p p p f s s s s s p i p d p i u u p d d d i s u 0 u d ",
"d p p q k p s s d c p p j f d j d x p d s p p x j p s i i f d d j p p q k p s s j c p p j f d j d d d f u p p x j p s i i f d g ",
"d k q k k j j d j x c j d b x p b b x x d d c x d d d d p d p x p u k k k j j d d x p j d b x p b b x x d d c x x d d s p j p x ",
"j b b g j l z l j l Z j j v b d b b l Z v x b m v l b d d d p b j l b g j l l l j Z Z j b x b d b b l Z v x x b g l b d d x j x ",
"n b m l d b Z b b b b j j Z Z k j N k b b Z A z z Z m b b j Z b n b m Z g j b b b b b j j Z Z j j n k b n Z A z z b m b b d l b ",
"m M M b A Z S S Z A A A J l F l Z m N n n A n n l m m m b l Z n m ^ M b A A S S Z H n A z l A Z Z n N n M A n J b m m m b l A n ",
"S D m D A A Y D A J D A A F H S F J M F F F J J A M m B M A z A S M m M F A K I A J D F J F F S H J B F H A J A A M m B B A z A ",
"K L S m U L G K S m I L K K D n K Y M M K L J z J K I V D G D H L L U m G G G D S D D K K B D M Y Y M M K K z J J K I V D G S H ",
"A K K B L K W I I D W K V I K B I D M M U G D J Y V ^ V I W S j.A K D B P K W I I G U K V L L B I D M D U G G J T V ^ V Y L S j.",
"B T Y Y L P Q W I W R C V Y K ^ C L P Y Y W L P T E ~ W j.G I U B C Y W L K f.W I Y R C C V Y ^ Y Y J Y Q W d.P T E T W j.G I U ",
"E ! g.W T k.T W W V E E V T E R g.h.f.~ f.g.s.P =.T E d.h.s.Q Y E ( W Q T / T Q W Y E E Y T R R g.h.k.~ W ! s.P T C E h.h.s.Q R ",
"~ / f.W T W ( ! Q _ R ! P B R E Q h.g.~ Q h.s.f.f.=._ f.s.s.L P ! / d.W Q Q ( ! Q ( R ! P B E R W f.h.! ~ f.s.f.! =.=.f.h.s.L P ",
"~ A.k.g.A.( ! k.( ( ! ! / =.Q E l.x.g./ / k.g.Q ( _ -.! x./ Q k.~ S.k.! A.( ! k./ ! ( ! _ P / T k.x.g.( / k.g.Q ( _ ( g.x./ P k.",
"T c.G.h.A.g.( x.l._ ( -.O.l.l.( / ( / Q k.k.k._ ( ( -.k.l.( _ _ Q x.G.h.A.g.! x.S._ _ -.-.l.l._ / / / Q / k.k./ -.( ) l.l.( _ _ ",
"k.D.G.x.G.( l.A.G.G.S.>.F.-.F.S.3./ / l.G.K.-.x.G.A.S.;.H.D.;.>.k.H.G.G.G./ l.S.S.G.S.-.F.>.F.S.;.) / z.A.K.S.x.G.A.K.;.G.D.;.;.",
"H.J.H.c.D.;.O.S.S.H.fXA.F.:.F.J.R.Z.fXfXK.>.1XG.fXG.S.i.>.S.>.>.R.fXH.c.D.5...S.S.H.G.A.J.i.F.J.D.Z.H.fX1X>.i.G.fXA.D.>.>.S.K.>.",
"F.>.F.H.$Xz.;.z.G.fXfXK.D.P.J.fXfXhXkXlX,X,X1XS.Y.n.3.2.F.K.K.K.F.:.F.S.ZXz.;.z.K.fXfXK.D.D.F.fXfXhXkXlXNX,XJ.D.XXn.4.2.i.K.K.K.",
"4X4X).rXqX{.R.wXK.J.1X:.B.kXY.XXlXrXyX4XaXZXNXH.$X%XH.;.1XNX,XK.4X4XR.rXqX).R.*XK.J.1Xp.B.gXXXXXlXZX3X4X1XVXNXG.#X%XH.;.1XNX1XK.",
"4XaXrX&X'.7XsX4XeXKXZX8XtXLXmXhXY.H.i.P.P.4XZX*X$X|.lX'.i.aX:.p.8XaXrX*X'.7XsX3XrXKXKX8XtXLXmXhXR.J.i.P.'.4XZX*X$X_.xX_.i.0X8.p.",
"JXKXzXbXKX1XqX8X4XUXUXJXpXFXKXgXcXkXSXkXcX4XDXnXkXkXJ.0Xi.i.:.<.JXKXzXbXBX<X0X8X0XUXUXGXAXFXZXjXcXxXSXkXcX3XDXxXkXxXJ.0Xi.i.i.<.",
"BXBXCXIXKXKXNXZXKXKXPXDXFXSXHXrX4XuXqXKXMXAXFXVXCXZXaX<XsXPXtXZXBXPXnXIXKXLXNXZXnXLXBXSXFXSXHXrX4XuX4XKXMXFXDXZXCXCXaX<X<XPXtXVX",
"BXHXZXGXFXzXwXrXKXPX0XyX;XyXuX&XuX9XdXzXOXpXzXNXHX9X8X8X<XdXAXGXBXHXZXFXFXxX4XrXPXKX0XyXtXyXuX&XuX9XdXxX@XpXCXNXHX9X8X8X<XdXAXCX",
"<X8X9XtX7XpXp.8XsXsXaXJX6X6XyXwXiX-X>XLXFXFXVXrXCXqXaX3XsXsXeXJX<X8X9XtX7XtXp.3XsXsX8XJX6X6XyXwXiX-X-XUXFXFXZXrXVXqXaXuX8XqXuXJX",
"aX8X9XpX7X:Xp.8XsXHX8XJX6X6XyXwXiX-X>XLXFXGXVXeXCXrXaXtX8XsXeXJX<X8X9XtX7X:Xp.8XsXsX8XJX6X6XyXwXiX-X;XLXFXFXZXrXCXqX0XyX8XyXeXJX",
"a.9XSXUXCXtXaX4X5X<XJXJX:X(.CXtXSXOXjXFXpXLXeX3XwXKXIXmXyXqXpXbXa.9XJXLXSX:XaX6X5XBXHXJXwX{.xXrXSXOXjXAXpXLXeX8XrXUXIXIXyXsXiXbX",
"7X9XJXUXnXLX5X|.3XaXeXPXGX&XHXaXqX6XFXZXZXLXdX5X5XeXIXmXJX3XtXAX7XyXJXUXMXUX2X|.6XaXdXPXGX&XHXaXqX7XFXZXZXLXdX5X6XrXMXmXJX3XtXSX",
"gXyXHXJXGXSXyX_.5XPXSXUXmX_.VXH.J. X:XvXoXXX,X].2X$XvXmXLXCXDX7XgXyXHXJXZXJXyX_.2XPXSXUXmX|.SXH.J. X;XvXoXgX,X].2X$XmXFXmXCXiX7X",
"#XrXZXGX9XJX7XSXyXFX!.$X*X=XAXB.XX=X_.r.oX&X%X-X].4XDXUXUXIXLXnX#XrXKXGX9XJX5XuXyXGX^.$X&X|.AXB.XX=X'.u.*X*X%X}.].4XGXUXUXIXLXnX",
"gXSXNXVXJXDX|.bXFXxX|.NX_.*X;X X5XyX4X4XcXCX`.vXMXvX%XJ.uXiXLXmXgXuXNXSXJXDX|.bXmXbX|.NX_.*X;X X5XqX1X2XxXGX`.vXmXbX).$XuXiXLXmX",
"5X7XNXKXzXnX7XwXjXmX%XZXVXkX0X5XXXlX&XP.XXnXxXvXjXvX=XwXdXdXDXmX5XyXNXKXzXnX7XuXjXmX%XZXZXkX0X5XoXlX&XP.oXnXxXvXjXvX=XwXdXdXFXLX",
"a.tXrXZXMXnX7X=X+X>XpXFXwXSXxXtXlX:XlX#XfX&X{.*X|.!.=XbXSXDXdXVXa.tXrXlXMXnX7XOX+X>XpXFXwXSXxXtXlX:XlX#XfXkX{.*X).!.=XcXSXDXdXuX",
"wXSX3XpXxXmX!.jX-X|.pXDX>XiXtX].OXXXxX#XXX@X$X:X'.p.$XxXnXGX0X4XtXJX5XpXxXmX!.+X-X}.pXDX>XiXtX].OXoXCXXXXXOX$XwX'.p.$XMXCXGX0X4X",
"1XNXtXAXMXLX).hX@XOX{.-X[.;XlX=XoXY.cXgXoXoX#XoX4X(.*X[.-X-X).%X1XNXrXFXMXLX#XhX@XOX{.-X[.tXxX=XOXY.cXgX.XoX#XXX_.2X=X[.-X-X).oX",
"eX5Xa.(.$X4Xy.#X+XvXvX*XOXCXzX;Xa.'.=XbXnXlXD.y. XtXE./.u.).XXH.0X5Xa.].$X`.y.XX+XvXvX*XoXCXzX;X X'.=XbXmXlXD.y. XtXQ./.u.*X#XH.",
";X X2.0.5Xu.D._.cXU.T.Q.E.wXnXcXOX{.:XMXcXrXP.F.tX=XB.'.u.5XF.#X=X X2.0.5Xa.S.4XcXU.T.Q.E.rXnXcXOX{.cXhXkXrX8.F.|.=XB.(.u.4XF.#X",
"W.oXy.r.].<.5.y.=Xw.r.E.r.u.|.=XkX.X)._.].2X4XY.rXzXjX@Xq.u.F.*XI.oXy.r.u.<.5.8.=Xw.r.E.r.u. X=XkX.X)._.(.2X4XY.tXzXjX@Xq.u.F.cX",
"0..X'.).'.:.T._.$X).5.0.p.2.u.*XXXC.!.{.I...$.W.].(.=X}.!.@X_.oX0.hX(.).4Xy.Y._.%X{.8.0.p.2.u.#XXXm.!.).W...$.~.'.2X=X}.!.OX'.oX",
"7.N. X[._._.oX,Xy.p.9.0.p.2.:.D.Y.n.@XoXH.b.#..X5X5X;X/.!.OXL.X.<.N.5X[._.'.oX,Xy.y.3.0.p.2.y.D.Y.n.@XXXH.O.&..X5X5X|./.!.~.L.X.",
"].w.].{.).Y.R.P.3.L.Q..X+X+Xp.(.8.b.V.oXR.<.q.Y.4Xy.bXhXV.+X=X].].w.{.{.).Y.R.P.3.L.E.oX+X+Xp.'.8.m.V.oXR.7.0.Y.4X7.bXhXV.+X=X].",
"5X}.oX@X@X@XW.y.w.R.U.b.!.W.0.D.z.{.6.@XbX}.;Xy.8.y.;X;X:X$X].L. X}..X@X@X!.E.y.w.Y.U.b.!.].0.D.z.).6.+XgX}.tX7.8.y.;X;X;X$X].b.",
"XXgXgXjXgX}.7.#.e.6.Q.U.9.7.w.b.o.~.W.Y.I.e.OX[.=Xt.tXu.;X#XP.P.XXgXgXMXgX}.7.&.e.6.Q.E.9.7.w.n.o.~.W.Y.I.e.OX[.{.t.7Xu.;X#XP.P.",
"jX=X{.).P.7.Q..X^.6.^..Xy.:.].r.0.L.b.5.Y.w..XOX@Xe.}.|.).F.{.Q.jX=X}.{.Y.8.Q..X!.6.OX.Xy.:.].r.0.L.b.5.#Xw.@X=X@Xe.}.|.%XD.{.Q.",
"@X=Xu.{.].E.!.N.Q.U.oXn.4.P.R.5.0.P..XT.P.E.@XV.~.7.Q.@XoXJ.[.t.@X{.u.{.].W.!.M.Q.U..Xn.9.P.R.5.0.P..XT.P.E.@XV.~.r..X@X#XJ.[.t.",
"}.].^.~.L.+.| O.b.4.~.z.5.R.L.U.W.T.{.W.~.^.[.M.M.t..XB.Y.Y.W.q.|.].!.T.L.+.| +.b.3.I.z.5.R.L.U.W.T.{.W.~.!./.M.M.t..XB.Y.Y.W.q.",
"W.P.{.oXU.5.8.3.7.5.#.n.R..Xb.E.9.r.].~.).W.e.N.N.e.V.B.w.0.].P.W.P.{.oXU.5.8.3.7.8.&.n.R..Xb.E.9.r.].~.).W.e.N.N.E.B.B.w.0.].I.",
"O.R.Q.Q.#.L.5.4.+.3.O.$.T.E.O.b.6.L.E.w.M.E.%.C.n.O..XV.W.I.Y.5.%.R.~.Q.#.L.5.4.O.3.O.o.U.~.O.b.6.L.E.w.M.E.%.C.n.O..XV.W.I.Y.8.",
") n.M.9.#.$.r.0...) n.Q.Q.E.4.9.E.~.T.+.5.~.V.m.O.<.7.L...w.9.y.) n.M.1.#.%.r.9...n.n.Q.E.E.4.9.E.~.T.+.5.~.N.V.O.<.7.L.X.w.0.8.",
"n.R.,.q.` $.m.%.;.,.4.b.n.+. .%.~.U.6.] } $.$.Q.3.) q.q.] ' 0.w.v.R.4.q.` $.m.%.;.,.6.b.v.+...%.~.U.w.] } o.$.Q.3.) q.t.] ' 0.w.",
" .;.` { +.Q.B.I.;.3.3.@...#. .L.E.[ { [ *.] ] %.`  .' 0.#.#.M.` O.;.` { +.E.B.I.;.3.3.O...X. .L.E.` { &.*.] ] &...] ` 0.#.#.M.[ ",
"o.X.m.%.q.w.4.1.4.} } ..6.| | v.9.,.' 1.] #.%.7.3.4.) 3.9.#.C.{ o.X.m.%.q.w.4.1.9. .} ..+.| | n.4.,.' 1.] #.%.7.3.4.) 3.4.#.m.1.",
"[ #.N.%.e.q.0.1.m.*.} ) b.$.o..._ ' ,.9.{ ' ,.8.:.X.3.5.9.%.| ' [ #.N.%.e.q.0.1.$.*.} _ b.$.o. ._ ' ,.0.[ ' ,.8.;.4.3.5.9.$.| ' ",
"6.$.m.$.b.E.,.<.5.{ ,.@.o.| ] ' ' ..M.$.+.$.#.' 6.} O.#.] $.| ..6.$.m.$.b.E.,.<.5.{ ,.@.o.| ] ' ' X.M.o.o.$.#.` 6.o.O.#.] $.| 3.",
"b.o. .#.n.v...,.6.4.'  .] } { 9.` [ +.n.v.C.| m.@.} } [ #. ...*.b.$. ...b.v...4.6.4.'  .] } 1.9.[ [ +.n.v.m.| m.@.} } { #. .@.*.",
"9.{ | %.L.| &.%.M.X.] @.,.,.<.O.} [ ` R.O.} C.3.3.v.C.&.N.!.O.} 9.[ | #.L.| &.%.M.X.] @.,.,.<.O.} ,.X.n.O.} C.5.;.v.m.&.N.N.@.} ",
"9.1.| %.L.| &.%.M.X.] @.,.,.<.O.} ` ..n.n.} C.3.;.v.m.e.N.N.b.} 9.[ | %.L.| &.%.M. .] @.,.,.<.O.} ' ` n.O.} C.5.3.v.m.&.E.M.n.} "
};
