/* XPM */
static char *_de6d351003e4795d228c4a2130a1289R7VAY5CQuPTzuQH5[] = {
/* columns rows colors chars-per-pixel */
"64 64 211 2 ",
"   c black",
".  c #000008",
"X  c #000010",
"o  c #000810",
"O  c #000818",
"+  c #001018",
"@  c #081818",
"#  c #213118",
"$  c #000821",
"%  c #001021",
"&  c #081821",
"*  c #001029",
"=  c #001829",
"-  c #081829",
";  c #001031",
":  c #001831",
">  c #001839",
",  c #082121",
"<  c #082131",
"1  c #082139",
"2  c #082939",
"3  c #102131",
"4  c #213121",
"5  c #213129",
"6  c #213929",
"7  c #213131",
"8  c #213939",
"9  c #214239",
"0  c #4A5218",
"q  c #4A5A29",
"w  c #525A21",
"e  c #4A6339",
"r  c #526331",
"t  c #001842",
"y  c #00184A",
"u  c #002142",
"i  c #082142",
"p  c #00214A",
"a  c #00294A",
"s  c #08294A",
"d  c #102942",
"f  c #002152",
"g  c #002952",
"h  c #082952",
"j  c #00215A",
"k  c #00295A",
"l  c #08295A",
"z  c #003152",
"x  c #083152",
"c  c #00315A",
"v  c #08395A",
"b  c #10315A",
"n  c #213942",
"m  c #002963",
"M  c #00296B",
"N  c #003163",
"B  c #00316B",
"V  c #08316B",
"C  c #00396B",
"Z  c #08396B",
"A  c #103963",
"S  c #10396B",
"D  c #002973",
"F  c #003173",
"G  c #003973",
"H  c #083973",
"J  c #00317B",
"K  c #08317B",
"L  c #00397B",
"P  c #08397B",
"I  c #21424A",
"U  c #214A5A",
"Y  c #29525A",
"T  c #00427B",
"R  c #08427B",
"E  c #004A7B",
"W  c #084A7B",
"Q  c #104273",
"!  c #10427B",
"~  c #214A6B",
"^  c #215263",
"/  c #295A63",
"(  c #215A6B",
")  c #295A6B",
"_  c #214A73",
"`  c #215273",
"'  c #215A73",
"]  c #21527B",
"[  c #215A7B",
"{  c #4A6B4A",
"}  c #4A6B52",
"|  c #4A735A",
" . c #527B5A",
".. c #4A7363",
"X. c #527B63",
"o. c #848C10",
"O. c #848C18",
"+. c #849429",
"@. c #849C31",
"#. c #849C39",
"$. c #CED608",
"%. c #D6D610",
"&. c #D6DE10",
"*. c #84A542",
"=. c #003184",
"-. c #083184",
";. c #003984",
":. c #083984",
">. c #00318C",
",. c #00398C",
"<. c #08398C",
"1. c #003994",
"2. c #004284",
"3. c #084284",
"4. c #004A84",
"5. c #084A84",
"6. c #00428C",
"7. c #08428C",
"8. c #004A8C",
"9. c #084A8C",
"0. c #104A84",
"q. c #00528C",
"w. c #004294",
"e. c #084294",
"r. c #004A94",
"t. c #084A94",
"y. c #004A9C",
"u. c #005294",
"i. c #085294",
"p. c #005A94",
"a. c #00529C",
"s. c #08529C",
"d. c #005A9C",
"f. c #085A9C",
"g. c #00639C",
"h. c #08639C",
"j. c #006B9C",
"k. c #086B9C",
"l. c #0052A5",
"z. c #005AA5",
"x. c #085AA5",
"c. c #005AAD",
"v. c #085AAD",
"b. c #0063A5",
"n. c #0863A5",
"m. c #006BA5",
"M. c #086BA5",
"N. c #0063AD",
"B. c #0863AD",
"V. c #006BAD",
"C. c #086BAD",
"Z. c #0073AD",
"A. c #007BAD",
"S. c #0063B5",
"D. c #006BB5",
"F. c #086BB5",
"G. c #0863BD",
"H. c #006BBD",
"J. c #086BBD",
"K. c #0073B5",
"L. c #0873B5",
"P. c #007BB5",
"I. c #0073BD",
"U. c #007BBD",
"Y. c #087BBD",
"T. c #0073C6",
"R. c #087BC6",
"E. c #0084B5",
"W. c #0084BD",
"Q. c #0884C6",
"!. c #008CC6",
"~. c #088CC6",
"^. c #0084CE",
"/. c #008CCE",
"(. c #088CCE",
"). c #0094C6",
"_. c #0094CE",
"`. c #0894CE",
"'. c #009CCE",
"]. c #0084D6",
"[. c #0884D6",
"{. c #008CD6",
"}. c #088CD6",
"|. c #008CDE",
" X c #0094D6",
".X c #0894D6",
"XX c #009CD6",
"oX c #089CD6",
"OX c #0094DE",
"+X c #0894DE",
"@X c #009CDE",
"#X c #089CDE",
"$X c #00A5D6",
"%X c #08A5D6",
"&X c #00ADD6",
"*X c #08ADD6",
"=X c #00A5DE",
"-X c #08A5DE",
";X c #00ADDE",
":X c #08ADDE",
">X c #0094E7",
",X c #0894E7",
"<X c #009CE7",
"1X c #089CE7",
"2X c #009CEF",
"3X c #00A5E7",
"4X c #08A5E7",
"5X c #00ADE7",
"6X c #08ADE7",
"7X c #00A5EF",
"8X c #00ADEF",
/* pixels */
"                                                                                                                                ",
". . . . . . . . . . . . . . . . . . . . . . . . . . . . . . . . . . . . . . . . . . . . . . . . . . . . . . . . . . . . . . . . ",
"o X o o o X X . o o X o o o o o o X o o o o o o o o o o o X o o o X o o o X X . o o X o o o o o o X o o o o o o o o o o o X o o ",
"O O O O O O O O o O O O O O O O o O O O O O O O O O O O o O O O O O O O O O O O o O O O O O O O o O O O O O O O O O O O o O O O ",
"% % % % % $ $ $ $ $ $ + % % $ + O $ $ $ % % $ $ % % & # @ O $ $ % % % % % $ $ $ $ $ $ + % % $ + O $ $ $ % % $ $ % % & # @ O $ $ ",
"* * * * * * * * * * * * * * - 4 - * * * * * * * * , 0 o.0 & * * * * * * * * * * * * * * * * - 4 - * * * * * * * * , 0 o.0 & * * ",
": = : : ; ; ; ; ; * ; * : : 5 w 5 : ; ; : : ; ; : 6 o.$.O.5 : ; : = : : ; ; ; ; ; * ; * : : 5 w 5 : ; ; : : ; ; : 6 o.$.O.5 : ; ",
"> > > > > > > > > > : > > > 1 7 1 > : > > ; : > : < q O.q 3 : > > > > > > > > > > > : > > > 1 7 1 > : > > ; : > : < q O.q 3 : > ",
"t > u u 1 8 i t t t u u u u t u t u u t t > > t t u 2 9 2 u t t t > u u 1 8 i t t t u u u u t u t u u t t > > t t u 2 9 2 u t t ",
"u p p p n r n i u p p u u p p p p u p p p s n d u p p p u t u u u p p p n r n i u p p u u p p p p u p p p s n d u p p p u t u u ",
"g a a g h I s p f f g f f f f f p g g a s e +.e x g k j f p y f g a a g h I s p f f g f f f f f p g g a s e +.e x g k j f p y f ",
"k g j k k k k k g g k k k m c x l k k k I +.%.+.I z k k k k j k k g j k k k k k g g k k k m c x l k k k I +.%.+.I z k k k k j k ",
"B m m m N N m m m k m N m N c N m m m m b { @.{ v N N c m m M M B m m m N N m m m k m N m N c N m m m m b { @.{ v N N c m m M M ",
"N B B B N B B B S U S B M N B B N M B M M Z Y A V C B B M M m m N B B B N B B B S U S B M N B B N M B M M Z Y A V C B B M M m m ",
"F F V B G G G Z } #.} Q Z H G F F F F M F F H H F B L L F B M B F F V B G G G Z } #.} Q Z H G F F F F M F F H H F B L L F B M B ",
";.W / ! T J P ^ #.&.#.^ G ;.R ~ H ;.L L ;.T L L J G ;.2.;.L F D ;.W / ! T J P ^ #.&.#.^ G ;.R ~ H ;.L L ;.T L L J G ;.2.;.L F D ",
"4.`  ._ :.2.2.3.| *...R L 6.[ X.` ;.<.2.6.2.2.7.;.2.W ' 3.,.,.=.4.`  ._ :.2.2.3.| *...R L 6.[ X.` ;.<.2.6.2.2.7.;.2.W ' 3.,.,.=.",
"2.3.[ R T ;.;.;.! ) 0.;.2.T 0.] 3.;.2.2.2.6.;.;.;.R '  .( L ,.>.2.3.[ R T ;.;.;.! ) 0.;.2.T 0.] 3.;.2.2.2.6.;.;.;.R '  .( L ,.>.",
"T ;.<.<.2.6.6.;.;.T 6.6.;.L F L L L 2.2.2.2.,.2.3.:.5.` R ;.=.K T ;.<.<.2.6.6.;.;.T 6.6.;.L F L L L 2.2.2.2.,.2.3.:.5.` R ;.=.K ",
"=.,.2.2.6.7.;.;.;.L 6.6.,.;.J J -.;.2.2.;.L L ;.;.:.;.P K L ;.2.=.,.2.2.6.7.;.;.;.L 6.6.,.;.J J -.;.2.2.;.L L ;.;.:.;.P K L ;.2.",
"L T L 2.T R T 7.;.2.T 3.,.,.,.=.:.T ;.;.-.;.2.;.:.6.2.6.R L ;.,.L T L 2.T R T 7.;.2.T 3.,.,.,.=.:.T ;.;.-.;.2.;.:.6.2.6.R L ;.,.",
"3.2.;.,.>.<.,.;.:.L 2.2.T ;.,.>.<.,.;.:.L 2.6.,.6.2.,.,.L L T 2.3.2.;.,.>.<.,.;.:.L 2.2.T ;.,.>.<.,.;.:.L 2.6.,.6.2.,.,.L L T 2.",
"2.2.;.6.6.6.,.6.R 3.6.;.;.;.=.K P ;.=.;.;.,.,.2.6.7.7.6.T L T E 2.2.;.6.6.6.,.6.R 3.6.;.;.;.=.K P ;.=.;.;.,.,.2.6.7.7.6.T L T E ",
"2.T ;.,.<.2.6.6.P ;.L 6.6.;.L L T T ;.2.;.8.6.6.2.4.6.,.R L P 2.2.T ;.,.<.2.6.6.P ;.L 6.6.;.L L T T ;.2.;.8.6.6.2.4.6.,.R L P 2.",
"=.=.,.2.2.6.7.6.;.;.L 6.6.,.;.T 6.,.6.8.4.u.a.u.u.d.d.a.t.7.<.1.=.=.,.2.2.6.7.6.;.;.L 6.6.,.;.T 6.,.6.8.4.u.a.u.u.d.d.a.t.7.<.1.",
"L L T L 2.T R T 7.;.2.T 3.,.,.;.=.,.t.f.f.z.v.f.g.b.b.b.z.q.2.>.L L T L 2.T R T 7.;.2.T 3.,.,.;.=.,.t.f.f.z.v.f.g.b.b.b.z.q.2.>.",
"2.;.2.,.2.P R 4.6.;.7.P ;.;.,.;.=.w.d.v.N.x.B.v.b.M.m.V.N.f.6.;.2.;.2.,.2.P R 4.6.;.7.P ;.;.,.;.=.w.d.v.N.x.B.v.b.M.m.V.N.f.6.;.",
"6.6.2.;.;.6.r.t.e.,.w.,.=.=.J J 2.d.b.x.n.h.M.c.N.n.b.B.z.z.y.6.6.6.2.;.;.6.r.t.e.,.w.,.=.=.J J 2.d.b.x.n.h.M.c.N.n.b.B.z.z.y.6.",
"J -.,.1.w.u.z.b.x.f.d.u.r.6.L <.i.g.N.x.b.g.m.V.b.d.z.x.c.z.s.9.J -.,.1.w.u.z.b.x.f.d.u.r.6.L <.i.g.N.x.b.g.m.V.b.d.z.x.c.z.s.9.",
"J =.8.u.l.z.V.V.j.k.h.n.d.8.2.7.d.b.c.b.N.b.N.b.b.b.M.n.c.c.x.f.J =.8.u.l.z.V.V.j.k.h.n.d.8.2.7.d.b.c.b.N.b.N.b.b.b.M.n.c.c.x.f.",
"2.8.f.x.b.b.z.b.b.j.d.n.g.p.4.t.z.N.n.z.b.B.N.N.c.b.M.b.g.b.j.m.2.8.f.x.b.b.z.b.b.j.d.n.g.p.4.t.z.N.n.z.b.B.N.N.c.b.M.b.g.b.j.m.",
"r.d.z.z.b.b.c.z.N.m.N.c.d.d.p.r.b.c.g.b.b.N.B.x.c.z.v.c.z.V.m.m.r.d.z.z.b.b.c.z.N.m.N.c.d.d.p.r.b.c.g.b.b.N.B.x.c.z.v.c.z.V.m.m.",
"r.g.V.b.n.b.V.b.N.m.z.b.g.z.g.d.d.N.m.N.b.N.n.B.b.g.n.V.m.m.j.j.r.g.V.b.n.b.V.b.N.m.z.b.g.z.g.d.d.N.m.N.b.N.n.B.b.g.n.V.m.m.j.j.",
"f.b.V.b.z.z.z.z.N.V.z.z.z.c.b.z.g.N.n.n.M.m.m.b.c.b.b.M.j.b.g.j.f.b.V.b.z.z.z.z.N.V.z.z.z.c.b.z.g.N.n.n.M.m.m.b.c.b.b.M.j.b.g.j.",
"m.V.V.z.z.z.c.d.d.V.b.g.n.V.V.N.C.N.c.h.m.g.b.v.v.N.v.v.h.b.b.b.m.V.V.z.z.z.c.d.d.V.b.g.n.V.V.N.C.N.c.h.m.g.b.v.v.N.v.v.h.b.b.b.",
"c.b.V.V.b.b.N.d.z.b.m.m.d.z.N.b.m.n.b.j.b.N.B.C.m.V.b.z.N.N.b.d.c.b.V.V.b.b.N.d.z.b.m.m.d.z.N.b.m.n.b.j.b.N.B.C.m.V.b.z.N.N.b.d.",
"z.g.j.m.j.g.b.z.N.c.N.N.N.b.C.m.N.g.g.g.b.b.N.S.V.V.b.d.b.B.g.g.z.g.j.m.j.g.b.z.N.c.N.N.N.b.C.m.N.g.g.g.b.b.N.S.V.V.b.d.b.B.g.g.",
"z.b.M.C.V.V.d.d.x.v.b.z.g.g.M.k.M.j.j.g.N.j.m.b.b.x.z.z.n.M.j.j.z.b.M.C.V.V.d.d.x.v.b.z.g.g.M.k.M.j.j.g.N.j.m.b.b.x.z.z.n.M.j.j.",
"z.j.n.c.m.m.j.m.g.m.j.d.z.c.N.g.M.j.j.j.N.z.m.b.b.z.c.z.n.z.d.z.z.j.n.c.m.m.j.m.g.m.j.d.z.c.N.g.M.j.j.j.N.z.m.b.b.z.c.z.n.z.d.z.",
"N.g.z.b.j.m.m.M.z.z.b.z.z.z.N.b.m.m.M.m.V.b.m.V.V.g.N.z.c.v.n.m.N.g.z.b.j.m.m.M.z.z.b.z.z.z.N.b.m.m.M.m.V.b.m.V.V.g.N.z.c.v.n.m.",
"N.x.g.j.g.b.k.k.g.g.m.N.z.N.D.F.V.V.V.N.N.b.m.j.g.g.b.n.b.m.g.d.N.x.g.j.g.b.k.k.g.g.m.N.z.N.D.F.V.V.V.N.N.b.m.j.g.g.b.n.b.m.g.d.",
"b.n.x.b.d.N.M.M.b.b.m.F.T.].|.}./.!.(.H.G.V.V.m.g.g.j.B.c.V.g.j.b.n.x.b.d.N.M.M.b.b.m.F.T.].|.}./.!.(.H.G.V.V.m.g.g.j.B.c.V.g.j.",
"g.g.z.N.b.N.B.b.N.N.P.~. X>X<X@X=X=X#X{.[.I.N.b.g.f.d.b.c.m.g.b.g.g.z.N.b.N.B.b.N.N.P.~. X>X<X@X=X=X#X{.[.I.N.b.g.f.d.b.c.m.g.b.",
"h.b.z.c.N.z.z.z.N.I.).oXoX<X2X#X%X-X6X:X1X/.Z.j.V.m.n.N.c.N.g.g.h.b.z.c.N.z.z.z.N.I.).oXoX<X2X#X%X-X6X:X1X/.Z.j.V.m.n.N.c.N.g.g.",
"m.m.b.z.c.c.c.z.V.{.=X@X=X=X3X1X#X3X3X=X<X<X/.K.N.z.f.g.g.N.b.z.m.m.b.z.c.c.c.z.V.{.=X@X=X=X3X1X#X3X3X=X<X<X/.K.N.z.f.g.g.N.b.z.",
"Z.Z.Z.b.B.B.c.N.P.OXXXXX@X@X5X1XOX<X1X@X=X<X#XW.m.z.g.j.j.Z.K.K.Z.Z.Z.b.B.B.c.N.P.OXXXXX@X@X5X1XOX<X1X@X=X<X#XW.m.z.g.j.j.Z.K.K.",
" X X XU.F.C.N.K.!.=X&X$XXX=X;X$XXXOX@X@X#X<X=X_.Z.V.Z.K.K._..X|. X X XU.F.C.N.K.!.=X&X$XXX=X;X$XXXOX@X@X#X<X=X_.Z.V.Z.K.K._..X|.",
"3X3X3XoXQ.D.S.K._.=X=X@X=X=X=X=X=X@X=X=X1X=X=XOXK.Z.U./. X<X4X>X3X3X3XoXQ.D.S.K._.=X=X@X=X=X=X=X=X@X=X=X1X=X=XOXK.Z.U./. X<X4X>X",
"7X<X3X;XOX^.K.A._.@X=X@X=X@X=X@X<X#X1X3X@X&X$XOXJ.Y./. X=X3X<X=X7X<X3X;XOX^.K.A._.@X=X@X=X@X=X@X<X#X1X3X@X&X$XOXJ.Y./. X=X3X<X=X",
"2X>X3X3X=X@X!.E.'.=X@X5X;X=X;X<X@XXX,X<X>X=XXX.XL.(.@X=X6X-X-X-X2X>X3X3X=X@X!.E.'.=X@X5X;X=X;X<X@XXX,X<X>X=XXX.XL.(.@X=X6X-X-X-X",
"<X<X3X1X#XXX_.W.`.XX<X5X<X$X=XXX@XXX>X<X1X4X@X#XR.OX@X@X@X=X4X3X<X<X3X1X#XXX_.W.`.XX<X5X<X$X=XXX@XXX>X<X1X4X@X#XR.OX@X@X@X=X4X3X",
"$X=X$X#X@X=X$XXXXX@X<X=X<X@XXX@X3X@X@X#X@X=X3X@X_.@XXXXX%X@X=X;X$X=X$X#X@X=X$XXXXX@X<X=X<X@XXX@X3X@X@X#X@X=X3X@X_.@XXXXX%X@X=X;X",
"@X@X$X;X;X3X3X=X@X$X=X$X@X<X<X3X5X3X@X3X<X3X3X=X$X3X3X@X-X4X@X#X@X@X$X;X;X3X3X=X@X$X=X$X@X<X<X3X5X3X@X3X<X3X3X=X$X3X3X@X-X4X@X#X",
"3X=X$X&X&X1X,X<X>X<X@X=X@X;X&X=X;X%X$X;X-X6X4X<X<X<X<X=X%X=X=X@X3X=X$X&X&X1X,X<X>X<X@X=X@X;X&X=X;X%X$X;X-X6X4X<X<X<X<X=X%X=X=X@X",
">X@X<X$X$X1X>X=X@X1X#X3X=X;X*X-X@XXX$X&X%X:X-X<X<X=X=X=XXXXX=X-X>X@X<X$X$X1X>X=X@X1X#X3X=X;X*X-X@XXX$X&X%X:X-X<X<X=X=X=XXXXX=X-X",
"<X$X@X$X=X=X<X8X5X3X#X3X;X;XXXOXXXXXXXoX=X=X=X3X5X=X=X=XXX.X3X;X<X$X@X$X=X=X<X8X5X3X#X3X;X;XXXOXXXXXXXoX=X=X=X3X5X=X=X=XXX.X3X;X",
"4X-X3X=X@X=X@X<X4X-X@X3X;X3X@X<X@X=X@X-X1X<XoX3X@X@X<X@X$XoX=XXX4X-X3X=X@X=X@X<X4X-X@X3X;X3X@X<X@X=X@X-X1X<XoX3X@X@X<X@X$XoX=XXX",
"$X%X5X&X$X$X@X3X<X<X<X4X=X=X3X4X=X@XXX=X-X4X@X<X<X+X<X<X$X%X$X<X$X%X5X&X$X$X@X3X<X<X<X4X=X=X3X4X=X@XXX=X-X4X@X<X<X+X<X<X$X%X$X<X",
"oX@X5X&X:X=X<X=X<X@X1X#XXX X@X@X@X@X@X$X$X#X#X@X@X@X=X@X@X<X@X<XoX@X5X&X:X=X<X=X<X@X1X#XXX X@X@X@X@X@X$X$X#X#X@X@X@X=X@X@X<X@X<X",
"<X<X-X$X%X@X@X3X@X$XXX%X#X=X=X=XXX@X@X$X$X@X=X$X=X<X<X;X3X<X<X3X<X<X-X$X%X@X@X3X@X$XXX%X#X=X=X=XXX@X@X$X$X@X=X$X=X<X<X;X3X<X<X3X",
";X3X=X=X3X@X@X3X=X$X@X:X-X$X@X$X;X;X@X@X#X<X<XXX$X$X-X*X;X3X=X;X;X3X=X=X3X@X@X3X=X$X@X:X-X$X@X$X;X;X@X@X#X<X<XXX$X$X-X*X;X3X=X;X",
"=X3X=X-X3X3X@X@X=X3X3X=X@XXX=X&X$X;X@X3X-X=X=X#X3X;X-X-X@X=X=X=X=X3X=X-X3X3X@X@X=X3X3X=X@XXX=X&X$X;X@X3X-X=X=X#X3X;X-X-X@X=X=X=X",
"@X<X<X=X3X;X=X=X3X@X7X5X<X<X3X4X=X=X@X3X-X$X$X@X<X@X=X;X$X#X=X=X@X<X<X=X3X;X=X=X3X@X7X5X<X<X3X4X=X=X@X3X-X$X$X@X<X@X=X;X$X#X=X=X",
">X@X#X<X@X=X=X<X7X=X5X=X<X@X@X#X=X*X*X;X=X<X<X3X<X@X=X%X$XoX@X=X>X@X#X<X@X=X=X<X7X=X5X=X<X@X@X#X=X*X*X;X=X<X<X3X<X@X=X%X$XoX@X=X"
};
