/* XPM */
static char *dde9a477829d4c04e450d3d6324d721bt75tYk0nAgLbd9W0[] = {
/* columns rows colors chars-per-pixel */
"64 64 255 2 ",
"   c #72163A",
".  c #795723",
"X  c #751944",
"o  c #61195A",
"O  c #5E2E59",
"+  c #7C2B54",
"@  c #792D55",
"#  c #511F61",
"$  c #5B2967",
"%  c #5D3162",
"&  c #612E68",
"*  c #633268",
"=  c #265169",
"-  c #665D6A",
";  c #870000",
":  c #880000",
">  c #980300",
",  c #A91006",
"<  c #B41200",
"1  c #B91901",
"2  c #B91813",
"3  c #BB2400",
"4  c #AB3700",
"5  c #AC3107",
"6  c #B43400",
"7  c #B73900",
"8  c #922D24",
"9  c #C41601",
"0  c #CB1500",
"q  c #D31A00",
"w  c #D71A00",
"e  c #C21E15",
"r  c #DA2704",
"t  c #C83600",
"y  c #C32414",
"u  c #E12A04",
"i  c #E73606",
"p  c #C32529",
"a  c #995A0E",
"s  c #A94D05",
"d  c #BA4700",
"f  c #B54B00",
"g  c #B95700",
"h  c #BA6500",
"j  c #AE7011",
"k  c #975D2D",
"l  c #B5762E",
"z  c #C14500",
"x  c #CE4502",
"c  c #C04B00",
"v  c #D34608",
"b  c #C15700",
"n  c #EC4702",
"m  c #F34900",
"M  c #ED5400",
"N  c #E55B00",
"B  c #ED5B00",
"V  c #F75800",
"C  c #EE5C15",
"Z  c #C16807",
"A  c #E86800",
"S  c #F76506",
"D  c #E67600",
"F  c #EA7C00",
"G  c #F27800",
"H  c #DB5D2E",
"J  c #EE7829",
"K  c #803451",
"L  c #D1374E",
"P  c #DE2F5D",
"I  c #8A595F",
"U  c #94694F",
"Y  c #AD774D",
"T  c #927072",
"R  c #AE786F",
"E  c #ED574F",
"W  c #F26A53",
"Q  c #D55C62",
"!  c #EF7465",
"~  c #B48A07",
"^  c #B6A924",
"/  c #CB8A08",
"(  c #E88600",
")  c #F48A03",
"_  c #E79600",
"`  c #C6B31D",
"'  c #E9A700",
"]  c #EFB600",
"[  c #C98728",
"{  c #D58C2B",
"}  c #DA912D",
"|  c #CA8834",
" . c #D28F34",
".. c #D99636",
"X. c #E3962E",
"o. c #E79C37",
"O. c #EA9C33",
"+. c #E39D3B",
"@. c #F19734",
"#. c #D3B231",
"$. c #ECA136",
"%. c #E6A13C",
"&. c #ECA43C",
"*. c #F1A63C",
"=. c #F2B53A",
"-. c #D1CA1C",
";. c #E7CA0F",
":. c #DACF2B",
">. c #EFD72F",
",. c #F5EC2D",
"<. c #B98A51",
"1. c #9B8C76",
"2. c #B48C71",
"3. c #B1AF60",
"4. c #CA904F",
"5. c #D89846",
"6. c #C58A57",
"7. c #D89A58",
"8. c #E49D46",
"9. c #E69753",
"0. c #D8A84F",
"q. c #EEA542",
"w. c #EFAA45",
"e. c #E7A348",
"r. c #EFAC4B",
"t. c #F0AB44",
"y. c #F0AA47",
"u. c #E7BA4D",
"i. c #EDAC52",
"p. c #E7A558",
"a. c #F1AD54",
"s. c #EDB257",
"d. c #F2B255",
"f. c #F4B45B",
"g. c #C79765",
"h. c #D99B67",
"j. c #D08F73",
"k. c #EA9371",
"l. c #E69979",
"z. c #DBA368",
"x. c #D9A675",
"c. c #D0AE79",
"v. c #E9A867",
"b. c #EEAC6C",
"n. c #F6B967",
"m. c #E5A876",
"M. c #EBB479",
"N. c #F5B879",
"B. c #F5BB7C",
"V. c #D5CF4C",
"C. c #F0D34C",
"Z. c #F1E550",
"A. c #D4D270",
"S. c #FACB7A",
"D. c #193296",
"F. c #2C339A",
"G. c #2C31B4",
"H. c #6639A7",
"J. c #2578A4",
"K. c #5F638E",
"L. c #584CB2",
"P. c #7254AE",
"I. c #736DB1",
"U. c #1135D9",
"Y. c #2733C4",
"T. c #2F39CF",
"R. c #1D3AE2",
"E. c #313EE4",
"W. c #6031C8",
"Q. c #3946D6",
"!. c #384BF0",
"~. c #4D4ED2",
"^. c #444CDB",
"/. c #5356D9",
"(. c #7254D0",
"). c #5C64D7",
"_. c #6569DD",
"`. c #7171D0",
"'. c #4455EF",
"]. c #4A56EA",
"[. c #535CEA",
"{. c #7E59E5",
"}. c #4D61EF",
"|. c #5562EE",
" X c #5A65EE",
".X c #5D69EC",
"XX c #5C67F1",
"oX c #646AE5",
"OX c #636BED",
"+X c #6A73E7",
"@X c #7677EC",
"#X c #636CF2",
"$X c #6671F4",
"%X c #6B73F6",
"&X c #6C79F7",
"*X c #B21787",
"=X c #A92694",
"-X c #C53684",
";X c #925690",
":X c #906C91",
">X c #A57688",
",X c #8F71A9",
"<X c #CC4A8B",
"1X c #D1548F",
"2X c #D66891",
"3X c #825ECD",
"4X c #856FCF",
"5X c #805DE5",
"6X c #6E8595",
"7X c #4D89AF",
"8X c #7998AC",
"9X c #2A94CE",
"0X c #619AD7",
"qX c #4EA1CE",
"wX c #90908F",
"eX c #B1938F",
"rX c #97AD8B",
"tX c #AFAC91",
"yX c #9391AC",
"uX c #B18FAC",
"iX c #95A9AE",
"pX c #B0AFAD",
"aX c #CF9890",
"sX c #E78789",
"dX c #ED9288",
"fX c #E98D93",
"gX c #EB9599",
"hX c #F79797",
"jX c #D4AD8F",
"kX c #F6B986",
"lX c #FDBD83",
"zX c #EFAF93",
"xX c #E9A69B",
"cX c #C19BAA",
"vX c #EF9AA3",
"bX c #F49CA4",
"nX c #CCB6A8",
"mX c #E9A7A7",
"MX c #F6A7A8",
"NX c #FBA4AA",
"BX c #F1B2AA",
"VX c #F6ADB2",
"CX c #EDB6B9",
"ZX c #F2B2B5",
"AX c #F1B7BA",
"SX c #B3C696",
"DX c #FEC483",
"FX c #FDC38A",
"GX c #F4CD91",
"HX c #DDCBA6",
"JX c #9488CC",
"KX c #9CC0C3",
"LX c #B0C7D3",
"PX c #D4D1CF",
"IX c #EADCD3",
/* pixels */
", 1 d Z g c b b Z b Z b b c c c c c c d c c z z z z z z z z c z z z z z z z z z z t d t d d z z z c b b g h b c c z d 7 6 3 , , ",
"1 z D ] _ _ _ _ ' ] ' ' ) _ ) ( ( ( ) ( ( ) ( ( ( F F ( F ( F ( F G D D G D D D D A A D F ( D F F ( _ _ ' ' _ ( ( ( D D N v , : ",
"6 A M g 7 7 d d f g f f d d 7 7 7 7 7 t 7 7 7 7 7 7 7 6 6 6 4 7 6 7 6 6 6 6 6 6 6 6 5 4 6 4 4 5 4 6 4 s s s 4 5 4 5 5 5 7 x d ; ",
"t N t 9 , 2 e y y y y y y y y 2 y 2 e e 2 y 2 y y 2 2 e y e 3 3 1 2 2 2 2 2 2 2 2 2 2 2 2 2 2 2 2 2 2 2 2 2 2 2 , , , , v B z ; ",
"1 n 9 t 8 o * * * * * * * * * * * & & & & & & & & $ & & & O @ . . . O & $ $ $ O % $ $ $ $ $ % $ # o # $ $ o o # # # o p M G Z : ",
"3 i y v + ).oX%X+X+X+XoX+X+X+X+XoXoXoXoXoXoXoXoXoXoX_.oXoX`.tXV.:.c.4X_.oXoX`.I.I._..XoXoXoXoX[./.]./.[.].^.^.^.Q.E.(.-XV ) Z : ",
"1 i r n + _.0X&X@X&X&X&X&X&X$X&X%X%X%X%X%X%X%XOXJX8XoX+X`.pXV.,.,.V.tX0XXX@XiXwX`.+X%X$X%X$X#X|.[.[.|.[.].'.].'.!.!.(.<XV ) h : ",
"1 i q n + _.%X%X&X&X&X&X&X%X%X%X%X%X%X%X%X%X$X_.tXA.tXyXtXZ.,.,.,.,.:.1.I.tXV.1.).XX#XOX#X#XXX[.XX.X|.[.[.].].[.].].(.<XV ( Z : ",
"1 i r n K oX%X%X&X&X&X%X%X&X%X%X%X&X&X&X%X%X#X).rXZ.,.Z.Z.,.>.X.J ~ ` #.V.V.3.8X7X}.XXXX.X.X X#XOXXXXX|.}.|.}.[.[.].(.<XV G b : ",
"1 i w i K oX%X%X&X&X%X%X%X%X%X%X&X&X%X%X$X$X#X%XKXGX,.,.,.;.9.! L H ^ ^ -.:.SXKX0XXXXXXXXX#X#X#X#X#X X[.XXXX|.[./.].3X<Xm G b : ",
"1 u w i K oX%X&X&X%X%X%X%X%X%X%X%X%X%X%X%X$X#X0XqXSXV.-.-.` Q Q L p a ^ ^ ^ SX0X0XXXXXXXOX$X$X$X#X#X#XXXXX X|.[.[.}.`.1XV A b : ",
"< w w i K oX%X%X&X%X%X%X%X%X%X%X%X%X%X%X%X%X#X0XqXrX>.:.;.` J H p 8 ~ ` -.^ 1.qX0X$XXX$X$X$X$X%X%X#X#X#XXXXX|.|.|..X3X<Xm A Z : ",
"< r w i K oX%X%X%X%X%X%X%X%X%X%X%X%X%X%X&X&X@X0X6X3.Z.,.,.>.#.Z j [ ` >.:.` 3.6X#X#X&X$X$X%X%X$X#X$X$X#XXX X|.|..X|.5X<Xm A b : ",
"9 r r i K oX%X%X%X%X%X%X%X%X%X%X%X%X%X%X5X4XuXeX2.0.V.V.V.>.>.;.-.-.>.:.:.` <.eXJX4X5X@X$X%X%X%X$X$X#X#XOX XXX.X X}.{.<Xm B c : ",
"1 r w i K oX%X%X%X%X%X%X%X%X%X%X&X@XJXJXnXjXM.M.b.n.n.n.b.s.V.>.>.:.:.#.5.%.0.7.m.x.eX,X4X`.+X$X$X#X#X#X.X#X#X.X X].(.1Xm S c : ",
"< w q i K oX%X%X%X%X%X%X%X#X#X$X@XJXcXM.M.N.n.f.S.n.n.n.n.n.f.0.#.#.0.q.%.&.O.o.&.8.8.9.<.>X,X4X#XXX#X#X.X#X#X X}.'.{.<Xm B c : ",
"< q q i K OX%X%X%X%X%X%X$X#X@XJXcXzXn.f.f.f.n.n.n.S.f.S.n.n.n.s.8.e.&.q.q.*.&.&.$.$.O.X...| 6.R ,X). X.X}.XX|.].'.'.5X1Xm B d : ",
"< 0 q i K #X%X%X%X&X%X%X@XJXuXjXb.s.d.s.d.n.n.f.f.n.f.n.S.n.f.d.w.q.q.q.w.w.w.q.$.O.O.O.X.X.X.} Q R ,X,XP.(./.'.].|.3XQ m C c : ",
"< w w i K _.%X%X&X&X4XJXcXjXb.f.d.r.d.s.f.f.f.f.f.f.n.n.d.n.f.a.w.w.r.r.r.i.r.q.$.O.O.X.@.O.O.} [ J Y 6.2.R P.~.].(.T L m A b : ",
"< w q i K _.%XOX4XuXnXm.b.a.r.r.r.r.i.s.d.d.d.d.f.d.a.s.d.d.a.t.t.r.r.i.r.r.w.*.$.O.@.O.O.@.X.} { X.{ X. .l I L.P.I k v m B z : ",
"< w q i K `.@X`.eXm.b.d.t.t.t.t.r.i.a.i.d.d.r.d.s.r.r.i.d.r.r.r.u.i.r.r.r.*.w.r.t.q.&.$.$.O.O.O.O.X.X.{ { l Y I I k a x i B z : ",
"1 w q i 8 j.uX4XaXi.r.t.t.t.r.r.r.r.r.r.t.r.r.w.q.q.q.w.w.w.r.d.r.r.w.w.w.*.r.r.f.d.r.q.w.w.q.q.q.@.@.X.{ J j k a a a z m B c : ",
"< q 0 i 8 5.k.eXeX9.r.r.u.t.r.r.r.r.y.y.w.w.w.w.q.q.q.w.w.w.i.r.w.w.w.r.r.0.5.e.f.a.a.d.d.r.r.r.r.q.o.o.{ [ j a a k I L m B c : ",
"< 0 0 r s } q.v.h.0.w.t.r.r.r.t.t.t.q.q.q.q.q.q.e.p.r.r.w.w.r.y.t.r.i.d.p.p.7.p.i.a.d.r.r.r.r.i.r.q.o.+.} [ j j a I ;XP m A c : ",
"< w q i 4  .%.q.e.q.&.w.r.y.y.q.q.q.q.q.q.q.q.e.v.N.n.n.s.w.q.w.w.r.r.i.p.M.N.b.v.i.i.r.r.t.w.r.w.q.%.%. .[ j j k - 3XQ i B c : ",
"< w 0 i 8 R e.w.q.&.&.q.q.q.q.q.t.&.q.q.q.q.8.5.v.N.lXlXn.p.e.e.e.7.p.b.N.B.B.S.n.p.i.r.r.w.w.w.q.%.%.0...[ l a I L.3X<Xn M c : ",
"< 0 0 i K ,Xh.q.q.*.q.q.q.q.q.q.q.q.q.q.8...4.<.g.m.lXDXDXB.b.v.v.v.N.kXM.m.x.M.B.z.7.e.w.w.q.q.+.%.%.+.| [ j U P.].{.<Xm B c : ",
"< 0 0 u K `.>Xh.w.w.w.q.q.&.*.*.*.q.q.&...7.v.m.M.S.DXDXDXDXDXS.N.S.lXDXkXkXM.N.B.M.g.7.e.&.q.&.%.%.+...| j k :X).'.5X1Xm A c : ",
"< 0 9 i @ [.`.uXp.w.t.t.t.*.q.q.q.q.+.5.4.h.M.M.M.M.S.DXDXDXDXDXDXDXDXDXlXM.x.h.x.x.z.p.q.&.%.%.%.+.....[ l T ).|.'.5X1XV A b : ",
"< 0 9 u + _.#X`.uXx.r.t.t.t.q.q.q.q...Y <.<.1.2.2.c.c.M.DXDXDXDXDXDXDXS.M.jXjXeXY 2.z.7.%.&.&.%.%.+.+.} [ T :XP.oX}.5X1XV S b : ",
"< 0 0 i + ).#X$X@XJXaXv.a.i.q.q.q.q.+.4.Y . tXPXIXPXnXjXlXDXDXDXDXDXS.N.nXPXPXPXtX2.g.7.e.%.$.$.%.%... .l I ,X>X,X[.5X2XV B b : ",
"< 0 0 u + /.OXXX XoX@X4XaXv.w.q.q.q.+.4.U T PXIXPXPXpXjXM.DXDXDXDXDXB.jXPXLXLXLXpX1.<.5.%.&.&.$.&.e. .[ k U R Q >X/.5X2XV A b : ",
"< 0 9 i @ )..X XXX.X#X$X,Xz.y.t.q.q.%.4.<.2.IXPXiX6X8X1.x.DXDXDXDXDXm.HXLX0XK.iXtXaXg.5.&.*.*.$.*.+. .[ l l [ Y ,X].5X2XC A b : ",
"< 0 9 u X /..X X X#X$XXX`.aXi.*.&.q.q.5.g.tXPXpX- = - wXc.DXDXDXDXB.jXIXLX6X= - tXc.p.q.&.*.*.&.%..... .} { Z T (.'.5X2XV V c : ",
"< 0 9 r @ ~.[.[. X.XOX#XoXyXh.t.q.q.w...e.x.IXpX6X= K.tXzXDXDXDXDXlXHXIXPXiX6XiXnXc.r.*.$.$.&.o.o.%.&.+.X.Z Y P.^.'.5X2XV B z : ",
"< 0 9 i X ~.]./.[.[.OXoX+X,Xh.q.%.&.&.&.e.z.AXPXiX8XpXPXGXFXDXDXDXDXFXIXIXnXpXnXzXp.&.*.$.&.+.+.%.&.w...l l T (.'.!.5X2XV B z : ",
"< q 9 i @ T.^.]./.`.,XyXuXj.q.%...5.8.&.%.e.zXHXHXnXHXHXFXFXDXDXFXlXFXFXHXzXHXzXM.q.&.*.$.5.7.p.w.q.+. .l R P.'.!.!.3X2XS B z : ",
"< q 0 u X L.^.^./.I.eXh.p.q.&.%.5.6.5.%.&.%.e.n.N.kXFXFXFXlXlXkXkXkXlXlXS.kXM.n.w.&.$.$.%.g.z.p.q.%.+. .R ;X^.!.!.!.{.2XS B z : ",
"2 0 0 i X T.Q.Q.~.).>Xk.w.q.q.&.5.z.7.%.&.w.$.5.v.B.DXDXDXlXlXB.kXkXlXlXlXlXB.b.d.&.&.O.5.g.z.0.&.&.%.g.,X~.E.E.E.U.(.2XS M z : ",
"< 0 0 r X G.T.T.Q.].(.,X6.+.q.q.%.p.e.0.q.*.%. .z.B.DXDXDXDXlXB.B.kXlXlXlXlXlXn.r.*.O.4.R 1.4.e.&.&.%.6.:X/.E.E.T.U.(.Q S B c : ",
"< 0 0 r X G.T.T.Q.Q.Q.L.T #.&.q.*.q.e.e...$.$.+.v.S.DXDXDXDXDXDXDXlXlXlXlXlXN.f.q.$.7.wX7X1.5.&.%.q... .2.,X~.T.T.U.3XQ V M z : ",
"< 0 0 r X Y.Y.Y.G.Q.Q.L.2.8.w.w.w.w.w.+.<.<...%.u.v.B.DXDXDXB.l.h.m.kXlXDXDXn.9.4.eXiX8XJ.1.5.*.q.q... .| Y P.T.R.U.3X1XV m z : ",
"< 0 0 u K G.Y.G.Q.G.G.:X5.w.r.r.t.w.*.5.rX8XwX2.U <.M.DXDXDXN.k.Q j.N.lXDXS.n.5.2.8XqX9XJ.2.e.*.*.q.+.| [ | >XL.T.R.(.1XV B z : ",
"< 0 0 r   G.Y.Y.G.G.L.j.q.r.r.w.t.q.*.7.iXqX7X7X- Y x.DXDXDXkXk.! k.kXDXDXN.p...<.yXqX7X6X6.%.*.&.q.+.| [ | <.,XT.U.W.1Xm B c : ",
"< 0 0 u   F.G.Y.Y.G.:X7.t.t.r.r.w.q.q.7.yX9X9XJ.- <.z.B.DXlXlXkXm.kXlXFXB.s.+.} 5.2.eX1.g.+.$.*.q.q.+. .[ [ 4.R ~.U.W.-Xm B c : ",
"< 0 0 u K G.Y.Y.Y.G.>Xe.t.t.r.w.q.q.q.q.2.wX6X- <...0.p.M.kXDXFXFXlXDXN.v.8.X.} } X.....+.&.$.&.q.&.+... .[ [ R P.U.W.*Xi B z : ",
"< 0 9 w X G.Y.Y.Y.L.g.%.=.w.w.w.q.t.q.*.0.7.3.5.e.$.*.5.7.x.M.kXkXkXx.g.5.o.X.{ } X.O.O.$.&.%.%.%.o.o.+.{ [ l <.:XY.W.=Xi B z : ",
"< w 9 w X G.Y.Y.G.H.g.w.w.r.w.t.q.q.t.q.*.&.%.%.y.e.*...4.6.h.x.M.x.6.Y l ..} } X.o.$.%.+.$.%.$.&.$.&.o.} { { 5.R ~.W.P i B b : ",
"< w 0 u   G.G.Y.Y.H.7.t.y.r.w.q.q.q.*.*.*.q.*.&.9.l.m.7.4.h.z.h.h.h.6.l l Y 4.7.8.%.&.&.%.&.%.+.o.$.&...}  .}  .2.I.W.P i A g ; ",
"< w 0 r   G.Y.Y.G.K.7.q.y.y.q.q.&.*.&.q.*.q.t.8.h.aXjXdXdXm.x.m.m.x.l.j.R 2.dXl.8.$.$.%.+.5.p.p.a.q.o.....X...{ 6.,XW.*Xn A g ; ",
"9 w 9 w   G.Y.Y.G.I 7.q.y.q.q.q.8.p.v.b.b.a.q.q.5.aXmXCXBXxXxXBXMXxXMXxXgXmXgXh.8.$.q.e.9.j.l.dXl.v.8.X.%.%.} [ 6.,XH.*Xn A b : ",
"< w e w X D.Y.Y.G.;X9.q.q.q.e.v.zXzXMXMXhXzXk.a.v.aXCXAXZXVXVXAXBXMXVXVXVXNXxXj.5.p.k.j.sXsXfX2XdXdXk.e.&.%. .[ 6.:XW.*Xn G b : ",
"1 u 9 r X G.Y.Y.G.:Xe.t.q.q.m.mXCXAXZXBXVXMXhXxXxXmXCXCXVXVXHXGXFXDXlXMXNXNXNXdXl.dXdXfXfXfXfXfXfXfXdXv.q.X.| [ 6.>XW.*Xn A b : ",
"1 u 9 r   G.Y.Y.F.R e.t.q.k.xXCXAXAXCXZXVXVXBXMXVXVXCXVXBXzXGXZ.Z.C.C.S.zXNXNXNXmXbXMXvXvXvXvXvXfXsXfXk.9.o.{ [ | >XH.*Xn G Z : ",
"9 u 9 r X G.G.G.K.g.w.q.5.xXCXAXZXZXVXVXVXVXVXVXVXAXAXVXzXGXGXGXGXC.>.Z.S.NXNXNXNXNXNXNXNXVXNXvXfXsXfXdXp.+. .{  .R P.P m G Z : ",
"1 u 9 r   F.D.F.- 7.t.&.z.mXCXZXMXMXMXMXMXMXmXmXAXAXAXVXFXGXA.HXKXiXA.>.C.zXbXMXhXhXNXNXNXNXNXbXgXfXhXdXb.@...} ..>XP.*Xn G h : ",
"9 i 2 r   F.F.F.- p.*.q.m.mXCXVXMXMXMXNXNXgXmXCXAXAXAXBXGXZ.SXLX0XqXrXV.C.kXbXbXhXgXgXMXMXMXNXbXbXgXhXhXb.8.+...5.>XW.*Xn G h : ",
"3 i 1 r   F.D.F.:X9.*.y.zXBXZXVXNXMXMXNXgXsXmXCXAXAXAXBXS.,.HXKXqX9X8XV.>.kXbXbXgXdXgXgXbXMXbXNXbXhXfXhXk.e.o.X.5.:XW.=XM G g : ",
"3 n < w 8 H.H.I R q.@.q.b.NXbXhXhXhXhXhXk.k.gXMXVXVXNXzXn.>.c.iXLX8XeX#.t.k.hXhXsX2XsX! dXhXhXhX2XhXsXk.k.@.@.X.! ;X=X-XV G Z : ",
"1 i < w 0 p L L H S J C W W ! ! W W W W W E W ! ! ! ! W W ) 9.Q aX2XQ J J W E E E E E E E E W E E E E E W C C C H P P P S _ / : ",
"1 u t A ) ) ) ) G A A A S A B B M M M M M M n M V M M M M n M M M M M M V n M M M n M M M B B N V V B B N N A A G G ) ) ' ] / : ",
"< 9 v _ ;.;.;.' _ _ ( ( ( D D D D D A A A A N D A A N A N N N A D A A D G D A D A D D D D D D F D F ( F D ( ( _ _ ' ' ] ;._ g : ",
", > 6 h ~ ~ ~ ~ j h h h h g f g f f f d f f f f f f f f f d d f f f f g f f f g f f g g f g g g g h g g h g h h h ~ ~ ~ ~ g > : ",
", > ; ; ; ; ; ; ; ; : :   ; ; ; ; ; ; : :   ; ; ; ; ; ; ; ; ; : :   ; ; : : :   : :   ; ; ; ; ;   ; ; ; ; ; ; ; ; ; ; ; ; : : : "
};
