/* XPM */
static char *_3a284b271cc4cb8f7a5ed16e51500dcQv2rXlb72XtOAq63[] = {
/* columns rows colors chars-per-pixel */
"64 64 235 2 ",
"   c #101808",
".  c #181808",
"X  c #101810",
"o  c #181810",
"O  c #101818",
"+  c #181818",
"@  c #102108",
"#  c #182108",
"$  c #182908",
"%  c #102908",
"&  c #083108",
"*  c #143508",
"=  c #082118",
"-  c #082514",
";  c #102110",
":  c #182110",
">  c #182910",
",  c #102118",
"<  c #182118",
"1  c #102918",
"2  c #182918",
"3  c #102910",
"4  c #083110",
"5  c #083910",
"6  c #183110",
"7  c #183118",
"8  c #183918",
"9  c #123512",
"0  c #212108",
"q  c #212908",
"w  c #292108",
"e  c #213108",
"r  c #212110",
"t  c #292110",
"y  c #212910",
"u  c #292910",
"i  c #212118",
"p  c #212918",
"a  c #292918",
"s  c #292118",
"d  c #312918",
"f  c #312910",
"g  c #213110",
"h  c #213910",
"j  c #293910",
"k  c #213118",
"l  c #293118",
"z  c #213918",
"x  c #293918",
"c  c #293110",
"v  c #313110",
"b  c #313118",
"n  c #393118",
"m  c #313918",
"M  c #393918",
"N  c #393510",
"B  c #101821",
"V  c #181821",
"C  c #181829",
"Z  c #082121",
"A  c #002129",
"S  c #102121",
"D  c #182121",
"F  c #102921",
"G  c #182921",
"H  c #182129",
"J  c #102929",
"K  c #182929",
"L  c #102129",
"P  c #183121",
"I  c #183921",
"U  c #183129",
"Y  c #183929",
"T  c #103129",
"R  c #042535",
"E  c #182931",
"W  c #083139",
"Q  c #083131",
"!  c #183131",
"~  c #183931",
"^  c #183939",
"/  c #183139",
"(  c gray13",
")  c #212921",
"_  c #292921",
"`  c #212129",
"'  c #212929",
"]  c gray16",
"[  c #213121",
"{  c #293121",
"}  c #213921",
"|  c #293921",
" . c #213129",
".. c #293129",
"X. c #213929",
"o. c #293929",
"O. c #313121",
"+. c #313921",
"@. c #393921",
"#. c #313129",
"$. c #313929",
"%. c #393929",
"&. c #393121",
"*. c #212931",
"=. c #213131",
"-. c #293131",
";. c #213931",
":. c #293931",
">. c #213939",
",. c #293939",
"<. c #213139",
"1. c #313131",
"2. c #313931",
"3. c #393931",
"4. c #313939",
"5. c #393939",
"6. c #423929",
"7. c #214210",
"8. c #214218",
"9. c #314210",
"0. c #314218",
"q. c #184235",
"w. c #214221",
"e. c #214229",
"r. c #294229",
"t. c #294A29",
"y. c #214A29",
"u. c #314221",
"i. c #394221",
"p. c #314229",
"a. c #394229",
"s. c #394A29",
"d. c #344A24",
"f. c #214231",
"g. c #294231",
"h. c #294A31",
"j. c #214239",
"k. c #294239",
"l. c #214A39",
"z. c #294A39",
"x. c #314231",
"c. c #394231",
"v. c #314A31",
"b. c #394A31",
"n. c #314239",
"m. c #394239",
"M. c #314A39",
"N. c #394A39",
"B. c #295239",
"V. c #395231",
"C. c #315239",
"Z. c #395239",
"A. c #395A39",
"S. c #355631",
"D. c #396339",
"F. c #424221",
"G. c #424229",
"H. c #424A29",
"J. c #424A21",
"K. c #475526",
"L. c #424231",
"P. c #424A31",
"I. c #424239",
"U. c #424A39",
"Y. c #4A4A39",
"T. c #425231",
"R. c #4A5A31",
"E. c #425239",
"W. c #4A5239",
"Q. c #425A39",
"!. c #4A5A39",
"~. c #465631",
"^. c #545835",
"/. c #4A6339",
"(. c #526336",
"). c #103942",
"_. c #184A5A",
"`. c #184652",
"'. c #184A4A",
"]. c #214242",
"[. c #294242",
"{. c #214A42",
"}. c #294A42",
"|. c #21424A",
" X c #294A4A",
".X c #214A4A",
"XX c #314242",
"oX c #314A42",
"OX c #394A42",
"+X c #394A4A",
"@X c #354646",
"#X c #295242",
"$X c #29524A",
"%X c #215242",
"&X c #315242",
"*X c #395242",
"=X c #315A42",
"-X c #395A42",
";X c #31524A",
":X c #39524A",
">X c #315A4A",
",X c #395A4A",
"<X c #214A5A",
"1X c #255252",
"2X c #395252",
"3X c #395A52",
"4X c #395A5A",
"5X c #315555",
"6X c #35635A",
"7X c #295A6B",
"8X c #345A63",
"9X c #396B7B",
"0X c #4A4A42",
"qX c #425242",
"wX c #42524A",
"eX c #455844",
"rX c #425252",
"tX c #425A52",
"yX c #525A5A",
"uX c #426342",
"iX c #4A6342",
"pX c #4A634A",
"aX c #4A6B4A",
"sX c #5A6342",
"dX c #546648",
"fX c #4A6352",
"gX c #446555",
"hX c #566B56",
"jX c #567354",
"kX c #5A734A",
"lX c #63674A",
"zX c #677346",
"xX c #42676B",
"cX c #426B73",
"vX c #687B68",
/* pixels */
"D ' H H H H H H S ` H H ' ' ` H B H ' H H H H H H H H ` ' ' ' H D ' H H H H H H S ` H H ' ' ` H B H ' H H H H H H H H ` ' ' ' H ",
"D ] H H H H H H S ' H H ' ' ` H S K ' H H H H H H H H ` ' ' ` H D ] H H H H H H S ' H H ' ' ` H S K ' H H H H H H H H ` ' ' ` H ",
"< ] H D H H H D D ' H H ` ' ` D B ' ' ` H H C H H H H ` ' ] ` V < ] H D H H H D D ' H H ` ' ` D B ' ' ` H H C H H H H ` ' ] ` V ",
"< ..D D D D D D D ' D D ( ) ( D B *.*.H H H V H D D ) ) ' ] D V < ..D D D D D D D ' D D ( ) ( D B *.*.H H H V H D D ) ) ' ] D V ",
"p ..( H D D D D < ' D D D ) ( D V *.=.` D D D D D G ) ) ) ) D V p ..( H D D D D < ' D D D ) ( D V *.=.` D D D D D G ) ) ) ) D V ",
"7 ..' H D D D D D ' D D G ) ( D S =. .' D D D D D ) ) ) ' ) ( V 7 ..' H D D D D D ' D D G ) ( D S =. .' D D D D D ) ) ) ' ) ( V ",
"7 #.) ( D V D D 2 ] D D G ) ( D S *. .) D D D D D ( ) ) ' ) D V 7 #.) ( D V D D 2 ] D D G ) ( D S *. .) D D D D D ( ) ) ' ) D V ",
"7 #.) D D V V D 2 ] D D D ( ( D B ' ' D D B B D D D ( ( ( ) D V 7 #.) D D V V D 2 ] D D D ( ( D B ' ' D D B B D D D ( ( ( ) D V ",
"k { 2 < V B V V 2 ) D < < i i V B K ( < D B B O + < < < i < V V k { 2 < V B V V 2 ) D < < i i V B K ( < D B B O + < < < i < V V ",
"6 k 2 < , B B < 2 7 2 < 2 2 < < O D < < O O O , , = < 2 < < D B 6 k 2 < , B B < 2 7 2 < 2 2 < < O D < < O O O , , , < 2 < < D B ",
"a.p.o...' H D D 1 o.....$.$...' '  .....' H G D , ) ..#.#...' H a.p.o...' H D D 1 o.....$.$...' '  .....' H G D , ) ..#.#...' H ",
"P.L.3.-. .' ` ( 1 m.4.2.5.m.4.-.-.2.n.2.-.' ' K , -.3.3.3.2...' P.L.3.-. .' ` ( 1 m.4.2.5.m.4.-.-.2.n.2.-.' ' K , -.3.3.3.2...' ",
"a.%.#. .' H D D 2 m.3.#.#.:.-.*. .:.$.o...' ' K D #.1.#.$...] ( a.%.#. .' H D D 2 m.3.#.#.:.-.*. .:.$.o...' ' K D #.1.#.$...] ( ",
"$.O...) G D D < 2 U.3..... .! E ' ..$.{ _ ' ' K G 2.$.{ { _ ) D $.O...) G D D < 2 U.3..... .! E ' ..$.{ _ ' ' K G 2.$.{ { _ ) D ",
"O.#.[ ) D D D < 2 U.%... .! E E ' { +.| { [ P K F 2.$.{ { { ) D O.#.[ ) D D D < 2 U.%... .! E E ' { +.| { [ P K F 2.$.{ { { ) D ",
"| { ) ) D D D < 2 I.$... .E E *.' O.+.x | [ K J K 2.$.| O.{ ) D | { ) ) D D D < 2 I.$... .E E *.' O.+.x | [ K J K 2.$.| O.{ ) D ",
"k ) ) D D D D < 2 c.$._ ' K E ' ) { x x | [ K J K x.$.{ { [ ) G k ) ) D D D D < 2 c.$._ ' K E ' ) { x x | [ K J K x.$.{ { [ ) G ",
"y 2 < < < D < < 6 p.{ ) ) K K G ) k c l l ) K K K 2.#.{ _ ) G D y 2 < < < D < < 6 p.{ ) ) K K G ) k c l l ) K K K 2.#.{ _ ) G D ",
": : < O O S S D > $.) < < S J G < y y y p p K K K $._ ) < < < + : : < O O S S D 6 $.) < < S J G < y y y p p K K K $._ ) < < < + ",
"; ; X O O B S S 9 g : : , S J F 2 y g g y 2 P T P [ k p 2 2 2 2 ; ;   O O B S S 9 g : : , S J F 2 y g g y 2 P T P [ k p 2 2 2 2 ",
"- p ) ) D K K U } x k p ) K E K 7 +.u.d.| ..;.~ I | +.+.| | | | - p ) ) D K K U } x k p ) K E K 7 +.u.d.| ..;.~ I | +.+.| | | | ",
"- x.2.1.-.>.>.,.c.a.a.$.o.,.,. .[ Y.W.W.U.m.XX[.X.0XU.N.N.L.I.3.- x.2.1.-.>.>.,.c.a.a.$.o.,.,. .[ Y.W.W.U.m.XX[.X.0XU.N.N.L.I.3.",
"4 p.o... .=.<.=.$.@.+.{ ..-.=. .) U.P.P.P.3.n.k. .0XL.a.c.a.3.$.4 p.o... .=.<.=.$.@.+.{ ..-.=. .) U.P.P.P.3.n.k. .0XL.a.c.a.3.$.",
"4 p.o.{  . .!  .{ b l { .. . .K ) U.H.H.a.$.:.;.[ U.a.a.$.%.#.{ 4 p.o.{  . .!  .{ b l { .. . .K ) U.H.H.a.$.:.;.[ U.a.a.$.%.#.{ ",
"4 a.$._ )  .! K k l l l [  . .G ) m.a.a.+...:.;.[ U.a.$.+.+.O.{ 4 a.$._ )  .! K k l l l [  . .G ) m.a.a.+...:.;.[ U.a.$.+.+.O.{ ",
"5 c.$.[ )  .! K [ x l l {  . .G P c.a.a.$...o.:.} U.$.#.$.+.@.O.5 c.$.[ )  .! K [ x l l {  . .G P c.a.a.$...o.:.} U.$.#.$.+.@.O.",
"9 c.o.[ )  .! ' k l l l _ [  .G P c.p.$.o...o.:.Y P.$.#.o.$.@.b 9 c.o.[ )  .! ' k l l l _ [  .G P c.p.$.o...o.:.Y P.$.#.o.$.@.b ",
"* c...[ ) K ! G k a f a a [ U G U 2.o.| { { .. .I L.o.{ { O.&.b * b. .[ ) K ! G k a f a a [ U G U 2.o.| { { .. .I L.o.{ { O.&.b ",
"& o.) 2 D G K G p t w t r p G G U :. .p p ) ) ) z %.) p p a d a & $.) 2 D G K G p t w t r p G G U :. .p p ) ) ) z %.) p p a d a ",
"& | i < < S L S 2 q q # r y 7 P J ! P 2 < < i p 8 x 2 2 < y u u & { i < < S L S 2 y q # r y 7 P J ! P 2 < < i p 8 x 2 2 < y u u ",
"6 k p 2 D G J G 7 z z k k z w.I U Y } [ k p a k 6 8.z P k k l l 6 k p 2 D G J G 7 z z k k z w.I U Y } [ k p a k 6 7.z P k k l l ",
"b.c.%.$.1.-.=.' 2 F.G.%.a.s.V.x.k.k.M.b.b.x.c.p.z Z.N.v.b.b.P.P.b.c.%.$.1.-.=.' 2 F.G.%.a.s.V.x.k.k.M.b.b.x.c.p.} Z.N.v.b.b.P.P.",
"b.c.%.$.1.-.=.' 2 F.G.%.a.s.V.x.k.k.M.b.b.x.c.p.} Z.N.v.b.b.P.P.b.c.%.$.1.-.=.' 2 F.G.%.a.s.V.c.k.k.M.b.b.x.c.p.} Z.N.v.b.b.P.P.",
"L.G.%.$.#.-.=.) $ G.G.a.a.H.P.c.k.k.M.E.b.c.c.$.} qXZ.N.b.P.P.P.L.G.%.$.#.-.=.) > G.G.a.a.H.P.c.k.k.M.E.b.c.c.$.} qXZ.N.b.P.P.P.",
"@.@.O.{ _ ..' i y G.i.+.u.s.a.p.:.>.x.v.p.p.+.l } E.M.x.a.i.i.6.@.@.O.{ _ ..' i y G.i.+.u.d.a.p.:.>.x.v.p.p.+.l } E.M.x.a.i.i.6.",
"v n b { _ _ p r y G.i.m m u.u.$.;.>.g.p.u.+.x p } Z.c.r.+.@.M n v n b { _ _ p r y G.i.m m u.u.$.;.>.g.p.u.+.x p } Z.x.r.+.@.M n ",
"M n O.) _ a s r q G.a.m x u.u.$.=.;.g.p.+.m x p z Z.v.r.+.+.M N M n O.) _ a s r q G.a.m x u.u.$.=.;.g.p.+.m x p z Z.v.r.+.+.M N ",
"N n { ' ' a u r g G.p.m m 0.u.| X.>.;.u.| | x p z V.v.+.d b n n N n { ' ' a u r g G.p.m m 0.u.| X.>.;.u.| | x p z V.v.+.O.b n n ",
"v b { ' ' p t r q a.+.l l x x |  .X.X.| { l l y g b.x.{ b b d b v b { ' ' p t r q a.+.l l x x |  .X.X.| { l l y g b.x.{ b b d b ",
"u u ) G D : 0 r q @.l a u y u k G P [ l p p y y g x.o.p u t t u u u ) G D : 0 r q @.l a u y u k G P [ l p p q y g x.o.p u t t u ",
"0 r < G < : 0 r $ l p r r r : < 2 G G 2 p > : y > ..[ p : 0 r r 0 r < G < : 0 r $ l p r r r o < 2 G G p p : : y > ..[ p : 0 r r ",
"$ > 7 P G 2 > $ $ q y q $ > > , = F 1 6 > 3 : # ; < 2 > $ * q 0 $ > 7 P G 2 > $ $ q y q $ 2 > , = F 9 6 > 3 : # ; < 2 > $ * q 0 ",
"> +.$.;.=...+.{ > M.z.}.z.N.Z.k.M.Z.-X-XE.V.V.M.l.oX X X$X{. Xj.> +.$.;.=...+.{ > N.z.}.z.M.Z.k.M.Z.-X-XE.V.V.v.z. X X X X{.}.j.",
"y L.c.n.,.2.c.$.y 8XxX1X5X3XaX3XtXaXhXfXfXsXpX3X5XgX8X7X7X9X<X`.y L.c.n.,.2.c.$.y 8XxX1X5X3XaX3XtXaXfXfXfXdXpX3X5XgX8X7X7X9X<X`.",
"y c.$.$.o.#.#.{ y 8XxX/ }.&XD.&X;X,X:X*X*XR.V.&X}.-X1X_._.cXW R y c.$.$.o.#.#.{ y 8XxX/ }.&XD.&X;X,X:X*X*XR.V.&X}.-X1X_._.cXW W ",
"> c.| o. .{ { a : 6X].^ {.#XD.#X X;X:X;XB.~.S.M.}.&X#X'.`.).W R > c.| o. .{ { a > 6X].^ {.#XD.#X X;X:X;XC.Q.S.z.}.&X#X'.`.).W R ",
"y $.{ ..[ [ l a r 6X.X].l.B.D.}. X,X>X>X&XQ.z.k.[.}.*X|..X).W A y $.{ ..[ [ l a r 6X.X].l.B.D.}. X,X>X>X&XQ.z.x.[.}.*X|.|.).W A ",
"> $... .[ ) l a > 3X$Xl.z.C.A.}. XuX=X>X&XQ.j.k.k.}.Q.}.].4XQ Z > $... .[ ) l a > 3X$Xl.z.C.A.}. XuX=X>X&XQ.j.k.k.}.Q.[.].4XQ Z ",
"6 $. .) k a a y > tXoXz.C.Z.Q.oX#X-X=X=X*XE.k.k.g.z.S.l.j.tXS = 6 $. .) k a a y > tXoXz.C.Z.Q.oX#X-X=X=X*XE.k.k.g.z.S.l.j.tXS - ",
"> ..G 2 p i i r > fXZ.M.C.U.E.oX$XiX*X-X:XoX>.;.f.q.h.g.;.K S = > ..G 2 p i i r > fXZ.M.C.U.E.oX$XiX*X-X:XoX>.;.f.q.h.k.;.K S = ",
"> ) < < : : i r > pXN.V.N.P.E.M.;XiX:X=X>XB.;.U U ! e.X. .K F Z > ) < < : : i r > pXZ.V.N.P.E.M.;XiX:X=X>XB.;.U U ! e.X. .K F Z ",
"@ ; @ X     X . % dXT.P.P.P.Z.XX;XiX*X&X=Xz.;.U 7 G 2 > : > e g @ ; @ X     X . % dXT.P.P.P.Z.XX+XiX*X&X=Xz.;.U 7 G 2 $ : > e g ",
"X.t.r.r.r.o.o.{ @ sXW.P.W.E.OXXXoXeXV.&XC.v.;.[ 6 g.X.p.i.H.K.s.X.t.r.r.g.o.o.{ @ sX~.P.W.E.OXXXoXeXZ.&XC.v.;.[ 6 g.o.r.i.J.J.H.",
"4XjX6XjXjXjXpXW.. sX!.~.!.E.OXXXoX*XC.C.v.v.;. .z tXhXdXdXzXzXyX4XjX6XjXjXjXpXW.o sX!.T.!.E.OXXX}.*XC.C.v.v.;. .z tXhXdXkXzXzXyX",
";XuX5XpXdXvXv.b.# sX(.R.!.E.OXoXoX&XM.v.v.t.X. .z 3XvXb.W.(.eXE.;XuX2XpXdXvXv.b.. sX(.R.!.E.OXoXoX&XM.v.v.t.X. .z 3XvXb.E.(.eXeX",
"n.Q. XuXeX*Xo.%.  lX^.!.Q.V.*X}.#X=Xz.h.t.t.X.U z tX:Xr.v.K.~.v.n.Q. XuXeX*Xo.%.@ lX^.!.Q.V.*X}.#X=Xz.h.t.t.X.U z tX:Xr.v.K.T.b.",
"x.E.j./.*Xg.g.$.6 lX!.!.E.Z.*X}.%XA.z.h.t.y.X.U z rXn.p.x.K.b.v.x.E.j./.*Xg.g.$.6 lX^.!.E.Z.*X}.%XA.z.h.t.y.o.U z rXn.p.v.K.c.v.",
"x.V.z./.qXoXM.o.8.kXkXW.E.N.*X}.{.A.z.g.s.V.o. .} rX+XN.m.^.N.m.x.V.z./.qXoXM.o.8.kXkXE.E.N.*X}.{.A.z.g.d.V.X. .} rX+XN.N.^.N.m.",
"XXZ.M.Q.*XoXx.o.z dXvXp.Z.M.M.}.|.A.h.h.y.hXP  .w.2X+XOXN.^.N.XXXXZ.M.Q.*XoXx.o.z dXvXp.Z.M.M.}.].A.h.h.t.hXP  .w.2X+XOXN.^.N.XX",
"oXZ.C.Q.*XM.x.o.z aXN.x v.g.f.j.q.B.f.e.r.o.2 U w.2X:X*XZ.(.OXOXoXZ.C.Q.*XM.x.o.z iXb.| v.g.f.j.q.B.f.e.r.o.2 U w.2X:X*XZ.(.OX@X",
"&X-X&XA.*XoXg.o.z qXo.X.X.X.~ ~ ^ ~ U U X.G [  .e.rXwXqXOX!.*X:X&X-X&XA.*XoXg.o.z qXo.X.X.X.~ ~ ^ ~ U U o.G P  .e.rXwXqXOX!.*X:X",
"=X:XoX-X&X&Xz.X.x g.o.} z } I Y Y Y [ } } } } z I tXwX0XU.qX:X:X=X:XoX-X&X&Xz.X.x k.o.} z } I Y Y Y [ } } } } } I tXwX0XU.qX:X:X",
"-X*X}.-XoXM.l.X.x g g 7.7.7.z z 8 x x 9.j j h h 8 gXeXW.Y.eXwX:X-X*X}.-XoXM.l.X.x g g 7.7.7.z z 8 x x 9.j j h z 8 gXeXW.Y.eXwX:X",
"-X*X}.-XoXM.l.X.x g g 7.7.7.z z 8 x x 9.j j h 8 8 gXtXW.Y.0XwX:X-X*X}.-XoXM.l.X.x g g 7.7.7.z z 8 x x 9.j j h 8 8 gXeXW.Y.0XwX:X"
};
