/* XPM */
static char *da17e910a204407cc6bee0349a8df036cjTC8fO19D00sHDh[] = {
/* columns rows colors chars-per-pixel */
"64 64 253 2 ",
"   c #002316",
".  c #002918",
"X  c #013418",
"o  c #273712",
"O  c #071022",
"+  c #081821",
"@  c #081029",
"#  c #081829",
"$  c #000839",
"%  c #071734",
"&  c #0B292E",
"*  c #003121",
"=  c #003921",
"-  c #023829",
";  c #102131",
":  c #102139",
">  c #102939",
",  c #523918",
"<  c #014427",
"1  c #044531",
"2  c #144337",
"3  c #015536",
"4  c #0C5231",
"5  c #364722",
"6  c #294539",
"7  c #006339",
"8  c #42502B",
"9  c #5C6B2F",
"0  c #082647",
"q  c #112242",
"w  c #102942",
"e  c #10294A",
"r  c #1B2E4D",
"t  c #062956",
"y  c #102952",
"u  c #10295A",
"i  c #113159",
"p  c #08316B",
"a  c #183963",
"s  c #083876",
"d  c #103977",
"f  c #105343",
"g  c #2A5351",
"h  c #026945",
"j  c #06764F",
"k  c #216852",
"l  c #184273",
"z  c #10427B",
"x  c #294A68",
"c  c #214273",
"v  c #294A7B",
"b  c #377266",
"n  c #4E524A",
"m  c #435459",
"M  c #635F5F",
"N  c #485A64",
"B  c #425A73",
"V  c #49636A",
"C  c #4C6771",
"Z  c #526B73",
"A  c #596A75",
"S  c #53767B",
"D  c #5A737B",
"F  c #67777B",
"G  c #A96F73",
"H  c #7B8C39",
"J  c #018C55",
"K  c #138C63",
"L  c #33876D",
"P  c #0AA975",
"I  c #688664",
"U  c #9CAB5E",
"Y  c #B3CA6F",
"T  c #CADA6F",
"R  c #104285",
"E  c #104B91",
"W  c #104A99",
"Q  c #294A84",
"!  c #264A89",
"~  c #29528C",
"^  c #245394",
"/  c #104EA9",
"(  c #1052A5",
")  c #1456AD",
"_  c #295AA7",
"`  c #1863B5",
"'  c #1863BD",
"]  c #186BBD",
"[  c #316BA7",
"{  c #5A7785",
"}  c #547696",
"|  c #637B84",
" . c #667A8A",
".. c #6B7B94",
"X. c #4873AF",
"o. c #527BB9",
"O. c #637BA5",
"+. c #186BC6",
"@. c #1865CA",
"#. c #1873CE",
"$. c #186BD6",
"%. c #186BDE",
"&. c #1873D6",
"*. c #1873DE",
"=. c #216DCE",
"-. c #2173DE",
";. c #247BDB",
":. c #1873E7",
">. c #1873EF",
",. c #187BEA",
"<. c #187BF7",
"1. c #1879FD",
"2. c #2173E7",
"3. c #2173EF",
"4. c #C67B84",
"5. c #2EB289",
"6. c #538B8B",
"7. c #69848C",
"8. c #738F8F",
"9. c #698795",
"0. c #748B96",
"q. c #79949B",
"w. c #4CB394",
"e. c #73A79A",
"r. c #5A87BA",
"t. c #7999A8",
"y. c #648BB9",
"u. c #6E95B2",
"i. c #76B5B0",
"p. c #21C68C",
"a. c #52CEAD",
"s. c #70D3BA",
"d. c #298CD6",
"f. c #1884EF",
"g. c #1885FB",
"h. c #2184EA",
"j. c #2184FA",
"k. c #218CFF",
"l. c #2194FF",
"z. c #2994FF",
"x. c #219CFF",
"c. c #299CFF",
"v. c #21A5FF",
"b. c #28AAFF",
"n. c #2EB8FF",
"m. c #5690CE",
"M. c #6895C9",
"N. c #769BC9",
"B. c #6F99D4",
"V. c #78AACB",
"C. c #7AA7D9",
"Z. c #78BDFF",
"A. c #42D6FF",
"S. c #7BC6FF",
"D. c #888F97",
"F. c #BA8791",
"G. c #9FAD87",
"H. c #859CA8",
"J. c #849CB7",
"K. c #89A5AD",
"L. c #89AAB7",
"P. c #94ABB0",
"I. c #96ADB9",
"U. c #97B5BD",
"Y. c #A9B6BC",
"T. c #E0A19E",
"R. c #FEAEB8",
"E. c #BAD191",
"W. c #89D0BB",
"Q. c #CEDB89",
"!. c #E9E49B",
"~. c #FAF4AD",
"^. c #86A8CA",
"/. c #8CB5CA",
"(. c #99B9C7",
"). c #87ACDC",
"_. c #8AB6DC",
"`. c #94B9DC",
"'. c #A6BDC9",
"]. c #ADBDCE",
"[. c #84ADE7",
"{. c #8BB9EA",
"}. c #97BBE9",
"|. c #A5BDEB",
" X c #96D0D1",
".X c #A9C6CE",
"XX c #ACC9D6",
"oX c #B6CED7",
"OX c #B1D0D1",
"+X c #BAD6DD",
"@X c #A9EBDA",
"#X c #9AC8EC",
"$X c #8CC6F7",
"%X c #84C6FF",
"&X c #8CC6FF",
"*X c #84CEFF",
"=X c #8CCEFF",
"-X c #98CAF7",
";X c #94CEFF",
":X c #9CCEFF",
">X c #8CD6FF",
",X c #94D6FF",
"<X c #9CD6FF",
"1X c #9CDCFD",
"2X c #A7C9ED",
"3X c #BCDAE8",
"4X c #A9CDF7",
"5X c #A5D6FF",
"6X c #ACD7FD",
"7X c #A5DEFF",
"8X c #ADDEFF",
"9X c #B2D1F1",
"0X c #B5DEFF",
"qX c #BADBFA",
"wX c #BBE9EB",
"eX c #ABE8FF",
"rX c #B5E7FF",
"tX c #BDE7FF",
"yX c #BBEFFF",
"uX c #CCD2D7",
"iX c #CCD7DB",
"pX c #F3F1D0",
"aX c #C6DEE7",
"sX c #C6DEEF",
"dX c #CEDEEF",
"fX c #D8DEE7",
"gX c #CEE7EF",
"hX c #C8E9ED",
"jX c #D8EAEE",
"kX c #D6F7EF",
"lX c #CEEBF7",
"zX c #C6E7FF",
"xX c #C6EFFF",
"cX c #CEEFFF",
"vX c #D6EFF7",
"bX c #DEEFF7",
"nX c #D9ECFC",
"mX c #CCF7FF",
"MX c #DDF8F7",
"NX c #D6F7FF",
"BX c #DEF7FF",
"VX c #DEFFFF",
"CX c #E7EEEE",
"ZX c #E7F7EF",
"AX c #EAEFF7",
"SX c #EFF7F7",
"DX c #E7F7FF",
"FX c #E7FFFF",
"GX c #EBF8FA",
"HX c #EFFFFF",
"JX c #F7F7F9",
"KX c #F7FFFF",
"LX c white",
/* pixels */
"~ ~ ~ ~ _ _ _ ^ ^ ~ ~ ~ ~ ~ ~ ~ ! Q Q Q Q Q Q Q Q Q Q Q Q Q Q Q Q Q Q Q Q Q v v v v v v v v v v v v v v v v v v Q ^ ^ ^ R v v v ",
"~ _ x.b.l.l.x.x.v.v.v.v.v.v.x.x.x.x.x.x.x.x.x.x.x.x.x.x.x.v.x.x.x.x.x.c.x.x.l.l.l.l.l.l.l.x.l.x.x.x.x.x.v.v.x.l.l.l.l.g.l.@.l v ",
"~ j.d.s s s s s d s s R s z z z z R z z z z z z z z z z z d d d d d d d z R d d d z R d d s d l z p s p p p p p p s p p s g.0 c ",
"~ g.s ` W ` +.+.+.+.+.+.+.+.] ] ] ] ] ' ' ' ] ' ' ` ' ` ' ` ` ) ` ` ) ' ` ) ` ` ` ` ` ) ` ` ) ) ) ` ` ` ` ` ` ) W ^ E ( $.g.q e ",
"~ g.R @.t t e e e e e e e e e e e e e e e e e e e e e e e e e e e e e e w w w w w w w w > 0 w w > > w q q w q q q q q R 1.l.0 w ",
"~ g.R :.i tXrX0XrXrXtXtXtXrX0XrXrX0XtXNXxX0X<X,XtX&X%X%XS.Z.%X%XS.=XtXmX,X%X5X<X:X;X&XZ.Z.Z.Z.&X;X>X:X5X0XtX5X7X<X&XZ.=.<.l.q : ",
"~ g.E <.i 8X8X0X0XrXrXtXtXrXrXnXDX8X8XrXrX8X<X;X7X%X%X7X<X=XrX,XZ.=X8XtX5X:XxX:X=X&X%X%XS.Z.S.<X<X:X;X<X5X5X5X5X5X=X%X-.>.x.# : ",
"~ 1.W <.i 7X8X8X0X0XrXtXtXxXcXLXLX9X<X7X7X7X;X=X%X%X%XBXxXrX<XZ.%X5XNX8X0X:X%XS.%X=X%X%X%XZ.<X0X8X5X:X<X5X:X<X5X<X;X<X-.:.x.@ : ",
"~ 1.W 1.i 7XxXxX8X0XxXtXtXmXKXLXLXXX$X,X7XyX=X=X=X%X%X<X<X%X%X5X7X<X5XNXyX<X;X%X<XFX;XZ.Z.=X5X0XtX5X<X5X;X&X;X;X;X<X5X3.*.x.@ : ",
"~ 1.( j.i 5XFXFX8X7XrXrXtXxXLXLXLX.X{.tX<X=X=X=X=X%X%X=X;X%X=X<X5X5X<X<X<X5X5X:X<XrX%XZ.%X=X7XxXmX8X5X<X%X%X%X&X;X<X8X3.$.x.# : ",
"Q <.( <.i <X7XrX<X,X5X8XxXHXLXLXLXI.^.yX<X=X;X,X;X<X<X8X5X<XyXrX5X<X5X5X5X8X5X5X8X;X%X,X;X=X7XrXyXxX5X;X%X%X,XNXmX5X5X3.$.l.O : ",
"Q >.( >.i ;X=X;X=X=X<X7XcXLXLXLXLXK.u.mX<X0XxX<X<XmXtXtX8X8XFXxX<X;X<XNX5X5X5X5XmX5X=XtX<X=X=X;XrXtX5X;X<X5XrXFXNX5X8X2.$.l.# : ",
"Q >.( <.u %X%X=X*X=X<X<XnXLXLXLXMXH.u.7XGXKXOX`.8X0XNXxX8X5XrX8X,X=X=X7X7XtX7X=X<X;X=X;X=X&X&X%X;X;X8X0X8X8X8X8X5X5X0X2.$.k.# : ",
"Q >.) >.u rX=X*X*X=X,X<XKXLXLXLXKXoXI.JXLXhXt./.eX7XrXrX8X,X<X<X=X=X=X=XNXFX,X%X=X&X%X=X&X%X%X%X%X&X8X0X7X6X8X8X8X8X0X2.$.k.@ : ",
"Q >./ >.u vX9X;X%X*X*XzXLXLXLXKXHXKXKXKXlX(.8.^.7X,X<X7X<X7X,X=X*X*X=X=X<X<X=X&X&X%X%X%X=XrX*X%X{.#X8X5X5X8X0X0X0X8X0X:.$.l.@ : ",
"Q >.) >.u hXvXjX5X=X>XDXLXLXKXHXKXLXFX+XK.t.D _.7X<X<X7X,XrX,X*X;X,X;X,X<X<X;X=X%X%X&X%X=X<X=X=X#X4X5X5X5X6X8X8X8X8X0X2.$.k.@ : ",
"Q :./ >.u NXLXLXLXDXFXLXLXLXDXDXLXLXHXXX7.| V #X7X8X8XyX7X,X=X;X0X7X7X0X8X5X<X=X*X=X;X=X=X=X;X:X1X5X5X5X:X5X5X5X5X8X0X2.$.k.# : ",
"Q :.( >.u  XkXVXgXjXBXLXLXLXKXLXFXVXVXhX/.9.S 5X7X7X7X7X7X<X<X7XtXtX0X7X7X5X;X%X=X;X;X=X=X=X;X<X:X5X5X5XzX6X5X5X5X8X0X2.$.k.@ : ",
"Q *./ >.y h K 5.P a.wXFXLXKXZXs.5.w. XFXKX.Xu.7X<X<X<X,X,X,X5XrXtXrX0X0X8XNXeX<X;X;X;X=X=X=X;XxX<X:X5X5XxX5X<X5X5X8X0X2.$.k.@ : ",
"Q *./ >.u J j j P w.@XDXFX@Xp.J J h W.KXKXZX2X<X,X,X,X,X,X>X5XzXtXrX0X5XeXVXFXKX7X*X=X=X=X=X=X5X0X:X:X:X:X<XtXNXtX8XrX2.$.k.# : ",
"! *.( :.y j J L ZXLXKXKXkXp.P j 3 h s.HXLXZXmX>X,X,X,X,X,X>X<X7X0X0X0X7X,X=XrXBXzXzXcXcX8X;X=X5X8X;X:X<X;XrXKXLXFXrX0X2.$.k.# : ",
"Q *.) >.y 3 K +XaXW.0.H.P.P.6.J h 3 L W.OX+XLXKXvX1X>X,X,X,X<X<X5X7X0X<X=X5XDXLXLXLXbXbXLXKXcX7X7X5X7X7X;XrXLXLXFXtXtX2.$.k.# : ",
"Q *.( >.e < k K.8.f 2 Z | 9.D.6.j h f b b U.+X.XH.t.<X<X7X<X,X<X<X<X<X,XzXLXLXLXLXXX[ [ fXLX}.m.{.,X<X5X<X5XtXNXxXrXtX2.$.k.# : ",
"Q *.( :.i 6.3 C 7.g X - g A  .q.L K i.@XOX.X9.Z N `.8X8X8X<X,X,X,X<X,XzXLXLXLXLXLXO.$ $ I.LXr.t } 1X>X=X;X;XxXKXKXcX0X2.$.k.# : ",
"Q *.( >.y gXb < k 4 < X < g b Z t.hXKXLXLXbXt.Z u.eX8X8XeX<X<X<X1XxXrXKXLXLXLXLXLXjXN r Y.LXvXx 9.2X=X=X=X,XNXLXLXxX5X2.$.k.# : ",
"Q %.( >.y LXuXX X X < < < X . 0.KXLXLXLXLXHXU.I.L.u.<X7X1X1X7X7X7XtXlXKXKXHXFXLXLXKXSXiXsX#XV.qXoX'.=X=X;X=X7XmXyX<X,X2.$.k.# : ",
"Q %.( >.y fXuXL < X < < < 4 { SXLXLXLXLXSX Xi.H.K.7.t.<X8XrX8X8X0X0XMXFXFXHXKXbXaXvXDX3X_ p t a H.(._.>X=X,XrX1X>X,X,X2.$.k.# : ",
"Q %.( :.e .X'.3Xb X . . 2 q.jXSXjXLXLXLXKXe.3 h b D { 1XrXrX8X8XzX0X.XvXlXaXaXgXKXKXFX.X> @ % > 7.0.V.,X>X1XVXrX>X,X,X2.$.k.# : ",
"v %.( :.y hXHXLXgXS f g { t.AXLXLXLXKX Xs.s.L = X k _.eX0X0X8X0XxX9XI.sXhX'.aXaX'.K.U..Xq. .|  .D V V.1X:X9X6XwXOX<X6X2.$.k.# : ",
"v %.( :.y  XKXKXHXI.t.t.Z 7.OXFXSXLXDXw.J P P < k V.eX7X7X6X7XrXeX4XD.'.XX'./.H.q.H.H.9.7.7.7.7.D C V.1XuXR.!.~.Y E.qX2.$.k.# : ",
"v %.( :.y 6.wXkXbXSXiXL.C 1 3 j w.@Xi.h 7 J 3 6.eXeXeX1X7X7X7X-X{.{.8.7.U.I.I.+X3X.XH.t.7.{ D Z N N {.,XF.4.T.~.!.T E.:.$.k.# : ",
"v %.( :.y - k e.LXLXLXAXL.k - - - f 1 * < - * u.yXeXeXeX7X7X$XC._.tXJ.A q.0.t.0.{ { { 0.{ D N N m { -X-XD.F.R.R.~.Q.Y 2.$.k.# : ",
"v %.( :.y = k e.LXLXKXAXU.g X - < f - . - * * u.yXeXeXeX7XeX}.C._.qXJ.A D.0.t.0.S D  .0.{ S V N m { -X-XD.4.R.R.R.Q.Y >.%.j.@ : ",
"v %.( %.y b 8.fXLXLXLXLXMXL.2 . < * .       g ..2XeXeXNX7X{.[.).sXzX2XV m D 7.P.uXuXiXuXuXuXY.D N M.C.`.pXpXR.R.T.G.U 2.%.1.# ; ",
"v %.( %.y hXKXLXLXLXDXNXlX.X0.g * . * 6 g > - f S rX0XcX4X[.{.}.zXcXzX/.D.iXLXLXLXLXLXLXKXLXLXJXfX2XC._.U Q.~.T.4.G D.2.$.k.# ; ",
"v %.( %.y LXLXLXLXKXhXoXI.q.| D 7.{ t.t.9.N . . X 8.}.4X{.).2X4XcXKXKXKXLXLXLXLXLXLXLXLXLXLXLXLXLXLXBXqXF , U E.M O.C.3.$.k.# ; ",
"v %.( :.y iXDXLXLXHXaXI.0.| V A /.L.(./.t.F *   . 1 {.4X2X).}.2XcXKXLXLXLXLXLXLXLXLXLXLXLXLXLXLXLXLXHXGXU n I I r.M.B.2.$.k.# ; ",
"v %.( :.y  .oXLXLXHXwX6.g 6 6 .. XL.J.L./.L.6   * g C.).9X}.}.{.zXHXLXLXLXLXLXLXLXLXLXLXLXLXLXLXLXLXLXLXCX|.}.^.M.m.o.2.$.k.# ; ",
"v $./ :.y S W.W.W.w.j 4 < . & g 9.U.9.6.9.9.{ u.`.|.B.C.2XM.B.}.DXLXLXLXLXLXLXLXLXLXLXLXLXLXLXLXLXLXjXgXAXoX_.}.o.o.o.-.$.k.# ; ",
"v $.W :.y 4 J J j 3 < X . o m 2 1 k h h h 1 f }.9X9X4X}.[.).{.|.KXLXLXLXLXLXLXLXLXLXLXLXLXLXLXLXLXKX+XXXDXjX^.B.r.r.r.-.$.k.# ; ",
"v $./ %.y 3 < 7 3 . . & 5 5 g - = * < 3 = 4 H.SXJXbX9X4XzX9X9XlXLXLXLXLXLXLXLXLXLXLXLXLXLXLXLXHXFXBX3X(.aXHXoXM.o.X.X.-.$.k.# ; ",
"v $./ :.y X f g > g { 5 5 5 X X - 9.b < f fXLXLXLXLXKX3X9X9X|.dXLXLXLXLXLXLXLXLXLXLXLXLXLXLXHXHXKXKXBXaXgXKXDXL.[ o.X.-.$.j.# ; ",
"v $.W $.u } M.B.).|.^.5 8 o *   g }.C.y.uXLXKXLXLXLXhX.XJ.}.}.aXKXLXLXKXHXFXFXFXVXVXFXKXLXLXHXLXLXLXLXHXHXHXvXK.X.X.X.-.$.j.# ; ",
"v $.W :.y |.}.}.4X6Xu.9 5 8 } C N._.N.|.LXjX~ oXaX[ I.3X0.}.2XaXsXvXHXLXLXLXLXLXKXKXLXLXLXKXVXBXBXBXvXhX3XXX.XI.X.X.X.-.$.k.# ; ",
"v $.W %.y |.|.}.C.B.7.5 o M 2X).).N.N.XXHXCX{ uXfX{ (.I.V }.|.aXsXsXvXLXLXLXLXLXLXLXLXLXKXHXNXlXcXcXlXhX+XoX].K.} M.M.-.$.k.# ; ",
"v %.( :.y ).^.B.C.C.7.5 o F 2X).).).).^.+XMX3XM.u.'.(.A N ^.^.(.vXKXFXBXKXLXLXLXLXLXKXKXKXHXBXNXVXVXBXNXNXgXXX| } M.r.-.$.j.# ; ",
"v :.W %.y y.B.).`.#XD.8 o U 6X|.).`.N.r.H.K.q.x x | A m { o.N.I.H.].'.I.(.aXHXLXLXLXLXLXLXHXFXFXVXlX3X3XsX'.| N } M.y.2.$.k.# ; ",
"v :.W %.y C.C.N._.#XG.9 o 7.4X|.}.N.L.N.7.8.7.{ D V m B y.N.N.H.0.U.XXoXoX+XgXMXMXGXDXHXFXVXNXlX3X.X.X+XaXq.N D O.^.y.-.$.k.% ; ",
"v :.W *.y #X/.).sX3XY U , D.OXiXiXXXoXjXfXCXAXuXY.Y.].K.u.y.O.{ 0.oXNXHXKXDXgX+X.X(.'.XX3X3XoX(.U.U.XX3XOX| A 8.u.C.u.-.$.l.% ; ",
"v :.E %.y KXLXLXLXpXT Y 9 9 D Z A Z q.SXLXJXLXLXLXLXLXKXoXA | ..7.q.H.K.'.3XlXlXlXhX+X'.K.0.q.K.I.U.I.L.8.A Z A J.M.X.-.$.l.% ; ",
"v :.E %.y HXKXCX'.G.U H 9 n D A Z Z uXLXLXLXLXLXLXLXFXKXoX8.P.AXD.A | Z Z | K.OXsXhXaX(.q.7.0.q.q.9.| D A V N A uXuXI.-.$.l.% ; ",
"v >.E $.e LXfXK.8.U U H H 8 D 6.Z P.LXLXLXLXLXLXLXKXHXFXiX..Y.LXuXD K.I.0.D A  .H./.(.(.U.U.H.{ A Z Z Z V N N N ..].JX-.$.l.# ; ",
"v >.E $.e LXJXJXpX~.E.Q.Q.G.H.P.Y.ZXLXLXLXLXLXLXLXKXFXFX+XS Y.LXZX8.| t.I.U.q.D C | 0.H.H.K.L.K.9.{ { | A A F 8.P.fXLX-.%.l.% ; ",
"v 1.E *.0 SXHXLXLXLXJXLXLXLXLXLXHXgXSXLXLXLXLXLXLXHXsXhXH.q. .q.K.CXuXP.D.H.8. .| F | 0.H.P.Y.OXuXuXuXiXfXCXSXLXLXLXLX-.%.l.0 ; ",
"v <.R $.y LXLXLXLXLXLXLXLXLXLXHXAXbXMXLXLXKXKXLXKXlXOXP.(.H.g q.uXLXJXLXLXLXJXSXSXSXJXKXLXLXLXLXKXLXLXLXLXLXLXLXLXLXLX-.:.l.: ; ",
"v 1.R $.0 KXKXKXKXKXKXKXKXLXLXLXLXSXFXLXLXKXLXKX3X.X'.t.H.m D.JXLXLXLXLXLXLXLXLXLXLXLXLXLXLXLXLXLXLXLXLXLXLXLXLXLXLXLX*.:.x.% ; ",
"v 1.s %.0 HXHXHXHXKXKXLXLXLXLXLXLXiXaXMXGXFXvX(..XoXK.U.Y.uXLXLXLXLXLXLXLXLXLXLXLXLXLXLXKXKXKXKXKXKXKXKXKXKXKXKXKXKXHX=.:.l.0 # ",
"v j.s $.0 FXFXGXHXHXFXKXKXKXKXLXLXbX'.oXvXBXaXaXBXbXGXKXKXKXHXFXGXHXHXKXHXHXHXHXKXFXGXFXFXFXFXFXFXFXFXFXFXFXFXFXGXGXFX=.:.l.e ; ",
"v 1.p +.0 MXMXbXbXbXbXMXBXBXFXFXFXFXBXBXBXMXbXBXbXbXvXjXgXgXgXdXhXhXgXjXjXjXvXvXvXvXnXjXvXvXvXvXvXvXvXAXbXnXDXBXNXBXDX=.>.l.t ; ",
"v <.p &.' 2.h.j.k.j.k.k.k.k.k.k.k.k.k.k.k.k.k.k.k.k.k.k.k.k.k.j.k.k.k.k.g.j.j.j.j.g.<.g.g.g.f.g.g.g.f.f.f.f.f.f.,.,.,.v.j.v.t ; ",
"v <.E :.h.2.=.#.+.+.' +.' ' ' ' +.' ' +.+.' +.' ' ' ' ' ' ' +.' +.' ' ' ] ' ' ' ' ' ' ' ' @.@.' @.@.] +.' +.+.+.&.*.-.h.;.n.+ ; ",
"v +.v.v.n.n.n.b.b.b.c.c.c.c.l.c.l.z.z.k.z.k.l.z.k.l.k.l.k.k.k.z.z.z.k.z.x.z.z.z.z.l.c.c.k.c.c.c.c.c.c.x.c.c.c.b.b.b.b.n.A.d.O ; ",
"v c : O # @ O + O + + + # + + + # + # + + + # # # # # # # # # # # # # # # # # # # # # # + # # # # # @ @ @ @ # # # # % % + O ; ; ",
"v c : O # @ O + + # + + # + + + # + # + + + # # # # # # # # # # # # # # # # # # # # # # # # # # # + @ @ @ @ # # # # % % # O ; ; "
};
