/* XPM */
static char *result[] = {
/* columns rows colors chars-per-pixel */
"64 64 256 2 ",
"   c black",
".  c #0E1217",
"X  c #1B242A",
"o  c #1F2B32",
"O  c #262A2A",
"+  c #2A3539",
"@  c #343939",
"#  c #27302F",
"$  c #1F2818",
"%  c #6B3916",
"&  c #503831",
"*  c #683934",
"=  c #512B15",
"-  c #085A34",
";  c #155738",
":  c #0C4C2E",
">  c #2E4B39",
",  c #0A663A",
"<  c #1E6236",
"1  c #30633B",
"2  c #51453B",
"3  c #744935",
"4  c #61451B",
"5  c #003447",
"6  c #003B47",
"7  c #003B58",
"8  c #2C3B44",
"9  c #2A3A48",
"0  c #353D44",
"q  c #2F3F53",
"w  c #193069",
"e  c #23396D",
"r  c #2B3D73",
"t  c #00065C",
"y  c #004447",
"u  c #1C4E41",
"i  c #2C444C",
"p  c #344245",
"a  c #33434C",
"s  c #3A454C",
"d  c #3A4749",
"f  c #2D4455",
"g  c #334554",
"h  c #354955",
"j  c #3B4C54",
"k  c #354B5C",
"l  c #3B4E5C",
"z  c #374655",
"x  c #3D525C",
"c  c #3D5555",
"v  c #33554B",
"b  c #157748",
"n  c #0F7246",
"m  c #374F63",
"M  c #3C5363",
"N  c #3C556A",
"B  c #3C5968",
"V  c #2B4677",
"C  c #3B5A75",
"Z  c #334A78",
"A  c #37674A",
"S  c #44484A",
"D  c #434D55",
"F  c #42545C",
"G  c #445A5D",
"H  c #485759",
"J  c #565A5B",
"K  c #534E4A",
"L  c #6D5755",
"P  c #53615A",
"I  c #457D5E",
"U  c #726658",
"Y  c #425563",
"T  c #445A64",
"R  c #4A5C64",
"E  c #445C6B",
"W  c #4A5D6A",
"Q  c #445669",
"!  c #455D72",
"~  c #575967",
"^  c #4B636C",
"/  c #4A6468",
"(  c #556669",
")  c #4C6473",
"_  c #4C657B",
"`  c #4D6A7C",
"'  c #486575",
"]  c #536A73",
"[  c #536D7B",
"{  c #566975",
"}  c #5B737D",
"|  c #567379",
" . c #55736F",
".. c #656A68",
"X. c #657779",
"o. c #7A7A7B",
"O. c #6E6F6C",
"+. c #705861",
"@. c #792364",
"#. c #9A291E",
"$. c #EF312E",
"%. c #D3272A",
"&. c #8D4712",
"*. c #B3540F",
"=. c #90502F",
"-. c #A65527",
";. c #BC6330",
":. c #D86815",
">. c #D3670D",
",. c #F77807",
"<. c #EA710B",
"1. c #E5782F",
"2. c #C8631C",
"3. c #9F2B5B",
"4. c #93564C",
"5. c #B06F52",
"6. c #90746D",
"7. c #AD746D",
"8. c #975B56",
"9. c #DE6C50",
"0. c #2C8D5F",
"q. c #5D987B",
"w. c #FD8607",
"e. c #FD9214",
"r. c #F79230",
"t. c #FFA82E",
"y. c #DB8F3F",
"u. c #8B847B",
"i. c #AB8E79",
"p. c #FDB649",
"a. c #DB9B71",
"s. c #FFC74D",
"d. c #FFDB6D",
"f. c #FAC03F",
"g. c #0D3A89",
"h. c #0037BB",
"j. c #002FAD",
"k. c #001E94",
"l. c #18448A",
"z. c #0A4589",
"x. c #264B89",
"c. c #305488",
"v. c #386794",
"b. c #0048BD",
"n. c #0050B3",
"m. c #0073A4",
"M. c #007DA4",
"N. c #046CA7",
"B. c #3074A7",
"V. c #2163AB",
"C. c #526E82",
"Z. c #547283",
"A. c #5B7583",
"S. c #5D7B8C",
"D. c #597688",
"F. c #587B93",
"G. c #4B6C89",
"H. c #647B85",
"J. c #687E90",
"K. c #5179A7",
"L. c #566893",
"P. c #0058CA",
"I. c #005CD3",
"U. c #005CDA",
"Y. c #054ED3",
"T. c #0067D7",
"R. c #196BD8",
"E. c #086ED3",
"W. c #2A71DC",
"Q. c #004DE7",
"!. c #0055EA",
"~. c #0058F4",
"^. c #0165ED",
"/. c #016BED",
"(. c #0266E4",
"). c #0078EA",
"_. c #006BF1",
"`. c #007EFF",
"'. c #0075F1",
"]. c #3878E1",
"[. c #4D75DA",
"{. c #8D7BAD",
"}. c #0087A5",
"|. c #0096A5",
" X c #3D85B4",
".X c #5E8197",
"XX c #5A828E",
"oX c #66838A",
"OX c #78868A",
"+X c #648394",
"@X c #66869A",
"#X c #758C96",
"$X c #7A9494",
"%X c #5088B4",
"&X c #668BA5",
"*X c #7794A7",
"=X c #6D96B5",
"-X c #739DB8",
";X c #708FAC",
":X c #78A2BC",
">X c #5FB48B",
",X c #009BCD",
"<X c #0096C9",
"1X c #009CD4",
"2X c #009ADB",
"3X c #0088CD",
"4X c #00A2DB",
"5X c #00AADD",
"6X c #01A5D3",
"7X c #00B6DD",
"8X c #00A3CC",
"9X c #008EEF",
"0X c #0184E7",
"qX c #0092EF",
"wX c #009AEC",
"eX c #0084FE",
"rX c #018BFD",
"tX c #0085F2",
"yX c #0193FC",
"uX c #0798FA",
"iX c #1594FB",
"pX c #398FFA",
"aX c #00A7EE",
"sX c #03A4FA",
"dX c #14A2FC",
"fX c #00B4F6",
"gX c #31A7FE",
"hX c #5899C8",
"jX c #7BA7C8",
"kX c #76A8D1",
"lX c #5F94DF",
"zX c #02CEDE",
"xX c #03C5F6",
"cX c #76C3A0",
"vX c #859698",
"bX c #898B8B",
"nX c #AD8E92",
"mX c #AFA499",
"MX c #8A9BA6",
"NX c #90A6B0",
"BX c #ADB1B2",
"VX c #D69097",
"CX c #C9AFA9",
"ZX c #99D2B7",
"AX c #9D8ED8",
"SX c #88B1CE",
"DX c #8ABCE3",
"FX c #929DF0",
"GX c #AEC6D3",
"HX c #B1D4EB",
"JX c #ABE1D2",
"KX c #CED6D5",
"LX c #D8EBEA",
"PX c #EBEFEF",
"IX c #ECC683",
"UX c None",
/* pixels */
"UXUXUXUXUXUXUXUXUXUXUXUXUXUXUXUXUXUXUXUXUXUXUXUXUXUXUXUXUXUXUXUXUXUXUXUXUXUXUXUXUXUXUXUXUXUXUXUXUXUXUXUXUXUXUXUXUXUXUXUXUXUXUXUX",
"P.2X5XaXuXsXaXaX7X7X7X5X5X5X5X5X5X5X5X5X6X5X4X2X4X4X4X4X2X6X4X6X6X1X1X2X1X2X2X1X2X2X1X1X1X1X1X1X1X6X6X6X8X8X6X6X1XwXwX1X).P.j.k.",
").fX7X,X2X<X8X8X8X8X8X6X1X6X1X,X6X6X,X,X1X1X<X,X<X,X<X,X,X,X,X,X<X<X<X<X1X3X<X<X<X<X3XR.<X<X<X<X<X,X,X8X8X8X,X|.<X<X3XE.3XE.n.t ",
"wX2XT.P.I.T.T.E.T.E.E.E.T.T.T.T.T.T.T.T.T.T.T.T.T.U.T.T.I.T.U.T.T.U.U.U.U.I.U.I.U.U.Y.Q.I.I.P.I.P.P.T.P.P.I.T.P.n.n.n.b.T.0Xm.t ",
"wXn.Q.h.h.h.b.b.n.b.P.b.P.b.b.b.Y.b.b.h.h.b.b.h.h.h.h.b.h.h.h.h.h.h.h.h.h.h.h.h.h.h.h.h.h.h.j.j.h.h.h.h.h.h.h.j.j.k.k.j.).wXm.  ",
"wXP.!.g.w w e V V e e e w e Z c.Z e Z Z c.Z V V r V V V V V e V V Z V e w w w w w 3.3.3.3.3.~ V Z Z r r r e w w r r r Y.9XaXM.  ",
"qXP.).g.q D D H d i p j p p s A.[ l F R ( R T R E ^ R Y c z j j G Y Y F z 8 X 9 S #.$.$.$.%.4.C R F j j D z q 8 @ d V R.yXaX}.  ",
"0XP.).l.W { } ( G F R ^ ] ^ F E ) B Q Q W ) ) [ [ A.C.W j F Y Y Y F Y W ! k o 9 @.%.$.9.$.%.+.C Q B l k m F z q a a c.R.yXfX|.  ",
"9XU.tXl._ X.A.} { ( ] { H.oX} [ ) T E M m _ ` E W Z.D.) l z l Y Y Y D M Q l q 8 & #.%.%.%.#.@.N M z g h M z h h k z c.W.uXfX|.  ",
"0X!.9Xl._ A.} H.X.} ] ] H.A.A.} ) T ^ / G [ | G Y _ C.) R l J ..~ W W Y Y F q z 0 * 3.#.#.* l m k k x M l g k k k z c.W.yXfX}.  ",
"'.!.tXl.m Q W { | ] ] | } |  .) ^ / | H.H.@XA.F D Q ' _ ) T ~ bXJ.{ ! W W W l z 0 J +.* @ @ i z m k M M m k M M k 9 c.R.rXaX}.  ",
"tX~.'.g.g D D F W W ] D.F.S.Z.| }  .} oXJ.oXoX/ F F T Y T Y D bXbX{ ) _ W Q m k H ..~ s 9 9 f x T M x l k l m k f a V R.rXwX}.  ",
"'.!.'.l.Y W W ) ) ^ ^ C..X.X.X+XS.} X.} | } } ] ( ( / T M h + OXbX+.R W Y z h i ~ O.J m N N M M T T B F x h z h k a C R.eXwX}.  ",
"'.~.'.l.Q ) C.C.[ ` ) ) ` ` Z..XF.D.S.} X.} ] ~ ] { ) ^ / h o o.OXJ H H g 0 h 9 O.J.{ ! G.C.E Q M x x x x D z j h i c.R.eXqXm.  ",
"`.^.'.l.! _ ^ Y z Y ] [ [ ) B ` C.Z.| A.H.} / H H H F G G + a o.o.H j a i i u v ..+XD.! _ _ ^ E Y x j j c l D x c h c.R.eXqXm.  ",
"_.~.'.l._ C.] Y + a M ) D.D.) ) ` ] W R ] ] W j p d d d p O D O.J v ; ; - ; ; u H ) _ _ ) ! W Q Y Y Y M x z c Y F j c.R.eXwXm.  ",
"_.~.'.l.! C..X[ j j x x [ D.[ | +X+XC.) W T j 0 S ~ K =.* $ > > < : - , , , , , , v B C ! B T B E E E W z D ~ ~ D D c.R.yXqXm.  ",
"_.~.'.z.k _ @XZ.` Z.] T [ C.[ A.@X@XF.@X[ D + p D K =.2.*.% $ $ : - - , , , , , , ; u B M M M M B T Q x s K ~ D a 0 V R.rXqXm.  ",
"'.~.'.z.f ' ` ` Z..XA.[ J.S.A.S.oXS.A.J.H.R s s @ * *.<.>.% $ : : - , b b b 0., , , ; v m M B T M z z s S S S 0 q + V R.eX9Xm.  ",
"_.~.'.g.f M Q ) ` D.S.+X@X@X+XD.[ ) ] [ H.H.{ W 0 &.>.,.>.&.> : - , b b >X0.0.0.n , - u h B B E B s 0 S S q 9 + i 8 c.R.eXqXm.  ",
"_.~.).g.f j F B Q C..X+X+X@X@XF.[ ) [ [ F.&XJ.H.( 3 *.>.*.% : : - , b q.ZXZXcX0.b , - ; v m M M F s s D Q N m + + > c.R.eXqXm.  ",
"_.~./.g.q D j z l ! D.F.S.@X.XD.[ [ [ [ S.@XJ.H.] K =.*.&.$ : - - , 0.>XJXLXJX>Xb n - ; i f h g s D l M Q G.N 9 o + x.R.eX9Xm.  ",
"_.~.'.g.q 0 8 d j z E ` Z.Z.[ ' Q ~ H T [ S.D._ H 2 = L q.O.G : , , b >XJXJXZXq.n n - : > 9 0 S D Y m m m ! N 9 o + Z R.rXqXm.  ",
"'.~.'.g.g l E ` ` Y F M Y T T B z K S s R _ [ ) d O J mXKXKXvX1 - , b 0.>XcXq.0.n , - : # s S 0 g h m f z m m q # p v.W.eXqXm.  ",
"_.~._.l.` S.&X=X=X&XG.m d x / x @ @ @ @ p j Q W 0 O OXKXPXPXBXL : - - n n 0.n , , - ; : @ S D m 9 9 8 + 9 z M m 0 s v.].'.qXm.  ",
"_.!._.x.@X;X:XkXkXkXS.Y h x / s O X + + @ + 0 0 + O vXKXKXCXnXL < - I q.$Xq.0.n , ; < > @ 8 m M g X . . X 9 D Y 0 @ L.[.`.9Xm.  ",
"^.~._.x.@X*X-XkXkX-XS.W j x F @ # + 9 a h a + O O $ O.bXbX7.7.U < 1 u.CXKXKXNXI < 1 1 j p 9 9 g 9 X . . $ & * =.* = D [.eX9Xm.  ",
"^.!._.x.@X@X@X;X;X@X| ^ G D 0 # q z l Y F D a + @ & K * #.4.6.P > I i.VXKXPXKXq.1 1 c M Y l l g o . .   = #.>.>.*.&.+.[.eX9Xm.  ",
"^.Q./.x.D.D.F.+XD.| ^ ] / D + + g T W W T H D a 2 L L 2 3 L K @ O X.i.3.VXPXKXvXA A T N Q E ! B 9 . . . % *.,.,.,.<.7.AX`.qXm.  ",
"~.~./.g.! ' .XJ.Z.] / ] | c @ 8 l ) ] R F F c F J O.O.H + O # O X ..7.8.5.BXCXq.x N E m m B ! N f 9 X O 4 2.,.,.e.r.a.AX`.qXm.  ",
"^.~.^.g.k N C.D.D.] / ] ^ p x Y ) [ ] F j s j H H R ~ H 0 0 p + + c +.8.8.6.MXH.' ! ! Q l m B N k 9 + 8 3 -.>.w.t.s.IXAX`.qXm.  ",
"^.!._.g.9 z h ) [ R d c p # M ) [ { R F j z D F D D D z s F R F 8 i D ~ +.+.( [ ' ! Q Y l Y ! C k 8 9 j P 8.;.1.t.t.d.AX`.qXM.  ",
"~.~._.g.g a s T { OXO.S O o 8 l T W R T x D Y D j a h x Y ^ [ ' h + 8 8 + + 8 a 9 9 a z D Q ) ! m 9 q Y { O.6.5.;.y.VXFX`.uXm.  ",
"^.Q._.g.' Y S { vXBXBXO.+ & # o @ j H G Y T x j j j c x T ) ) ' l + 8 p 8 # X X O X + S D ~ { W z 0 g Q ! } ..O.4.i.CXFX`.9Xm.  ",
"^.!.^.x.S.C.{ bXmXCXmXJ & =.3 & @ D / R T G j j F T M x D ! ^ ^ x 0 p x B x h p q + 8 & S Q W m a g N ' G.F.A...( OXNXlX`.9Xm.  ",
"^.Q.^.x.F.H.{ 6.i.;.% = &.:.;.=.K ) Z.` M j l Y Y Y Y Y Q ) ` ] E z + M ' ` E T l j z 0 0 l l h x W G.F.F.&XJ.[ ( / K.].`.9Xm.  ",
"^.Q._.x.L.{ K -.>.>.&.-.>.,.,.2.L ( H.C.Y a j l h l F Q ^ ) ) ] / c d x ' ' ' E l F F D D l h x ' F.@X&X&X&XJ.G.! E K.].`.9XN.  ",
"^.Q._.l.{ H =.:.,.,.<.>.w.w.w.<.4.~ ) ) E x s 0 a j Y Y R Y x M T ) G A T E ! / l F D D F T M l ! C.S.@XK.F.D.G.D.[ K.].`.9Xm.  ",
"^.Q._.g.Q K -.:.,.w.e.t.t.e.e.,.5.J Y B ' ' Y x j F x l x j c M ' A./ G G ) [ ) G R R S D W E l q l Q _ D.L.C.S.H.C.L.W.`.9Xm.  ",
"^.Q.^.x.Q S -.<.w.w.t.s.s.e.w.1.7.{ T T B / ' [ / W F j g c x T ' |  .c c  .|  .^ | ] D S Q E Y D s i q z Q _ C.{ { G.W.`.9Xm.  ",
"^.Q./.g.Y 0 =.:.,.w.t.d.s.r.1.5.o.] )  .B c x | / R / x g j c M / / / v d R / R ^ [ ) s S D M x x x g a 0 j W H.J.J.K.].`.9XN.  ",
"^.Q./.g.D 0 & -.:.r.r.p.r.y.y.6.( ) ` | / S c H H v c x Y x c c G G G v p c c x l E Y s s l x x T W Y M Y T { #XMXvX;XpX`.tXN.  ",
"^.Q._.g.m R 0 * 8.a.a.9.9.a.i.q.( Z.A.] P J J P P H d Y ) ] / / / G c d 8 d F D l Y l s S D ^ ) ) ' E B E _ J.#XJ.H.&X].`.9XN.  ",
"^.Q.^.g.W @XH.^ ( mXmXbXi.mXi.U } +X} ( P ( / P P K d H ] ] / | q./ c v 8 S H Y Q ! N s 0 Y [ C.G.' _ ! N E [ ` Q ~ L.W.`.9Xm.  ",
"^.Q./.g.[ *X$X#XX.OXOXvXmXmX6.{ OXvXq.P O.O...P P H S P  .P G | ` ` / c > D W _ _ _ Q s s j E ! m ! ! C m l Y T l Y v.W.`.qXm.  ",
"^.Q./.x.C.@XJ.#XOXbXvXOXbX#XZ.] H.MXJ.6.u.O./ P ( P P  .X.X.X... .' ] G > 0 F W Q M g 0 p s l l k m N m g 9 h M M z v.W.`.9Xm.  ",
"/.Q./.l.C.C.` H.BXBXGXvX} [ ] ] { vXOXu.u...H  .X.H.O.q.OX$XX. .(  . .v @ # 2 H D @ + @ @ 9 h m k h f g i i M B M h c.W.`.9XN.  ",
"/.Q.^.g.C.A.A.@XGXKXKXMXS.[ ] ] ^ { X.O.U P G ( oX#XH.OXNXvXX. . . .P d O # S K S 0 S S S & H T M k k q i k E B k i x.R.eXqXm.  ",
"/.Q./.c.-XNX-X*XNXMXOXH.` ` ] ^ / R R H / / ( { X.X.[ #XNX$XoXX.X.X.J @ > 2 K 2 2 & L J S 0 J W B M B k f C C B f i Z R.eXqXm.  ",
"/.Y.^.v.HXHXHXGXGXNXu.( ' _ / x F G G P ( ( [ H.H.{ ] H.$XOX ./ (  .H # > H 2 & % % 4 2 2 2 3 K l k f f f C B m m k c.R.eXwXM.  ",
"/.Q.^.c.SXSXHXGXGXNXH.D M G.' B a d H ( O.( ( OX#XX.| | H.{ H j d d @ # @ 2 = 4 &.&.&.= @ =.-.=.2 0 9 q k B m f m k c.R.eXwXM.  ",
"/.Y.~.g.! J.NXKXGX$X{ j f M ' ' ) W { X.OXX.X.q.H.| ( ^ / H F d d p @ @ @ & 4 &.*.>.*.* @ =.:.:.-.K 8 h C m f f f i x.E.eXwXM.  ",
"(.Y.!.g.Q { MXPXLXNXH./ c i h ^ G.D.*XMX*X.XS.] R G G G j d c H F j h d 2 2 3 *.>.<.>.&.& =.1.,.:.=.z C ' C f q 9 + c.R.rXaXM.  ",
").Y.^.x.@X;XSXHXHXNX&XXX^ j 8 i M ` MXSX&XF.F.' c H G c c c x T G Y R J P L =.2.<.,.,.:.=.;.<.w.,.;.+.C C B m f q a c.R.eXwXM.  ",
"'.Y.T.x.=XjXSXDXDXSX-X&XZ.) F p 8 Y +X:X@XD..XXX) T c c j c j a z J ....O.U 4.2.,.,.,.w.<.e.w.w.,.<.=.f m m k k k f c.R.eXaX}.  ",
").Y.!.x.=XjXjXSXDXDX:X;X&X@XS.W p f Z.&XF.Z.%X&X` c c x H R G c j J U L U ..8.2.,.,.w.r.t.t.e.w.,.1.8.B f i 9 9 i i x.R.rXaX}.  ",
").P.~.x.=X:XjXjXDXDXjX-X-XjX=X} s a C.NX*X_ G.G.` B v B T R / G x Y P U U X.U ;.,.,.w.p.d.s.p.w.,.y.bXG.B v c i + o V T.rXaX}.  ",
"0Xn.(.x.=X-XjXjXjX-X-X=X=X=X-X.XW j MXLXBXW k m ' ' E B j G G G c M P ....X.H.5.:.,.w.p.d.d.p.e.w.9.u.F.Z.| | C k 9 V U.eXaX}.  ",
"0Xn.(.c.=X-X-X=X=X=X=X&X&X&X&X&XF.} KXPXNXR i i k C ' C B M Y M B B / ....H.+Xo.5.9.r.r.d.p.r.r.1.7.J.F.XXXXS.! C k x.R.rXaX}.  ",
").z.!.V.lXhXhXhXhXhXhXhX%XhX%XhXhX:XHXHXjXK.B.B.m.B. X X%XB.B.B.B.B.B.%X%XK.hX%X{.nXVXVXVXVXVXVXnXJ. X%X%X%XB.B.B.V.V.0XuXfX}.  ",
").n._.`.dXdXdXdXdXdXdXdXfXdXdXdXdXdXgXgXdXdXsXuXsXsXuXsXuXsXuXuXuXuXuXuXiXiXiXiXiXpXpXpXpXpXpXpXpXiXiXiXiXuXyXuXuXrXuXfXxXxX|.  ",
").0XuXfXxXfXsXsXsXuXuXuXyXrXrXrXrXrXrXrXrXrXrXrXrXrXrXrXeXeXrXrXyXrXrXrXrXrXeXrXrXrXrXrXiXrXyXrXrXyXyXrXyXyXyXyXsXsXfXxXxXxX|.  ",
"T.7XzXzXzXzXzXzXzX7X7X7X7X5XaX5XaX5X2X4X1X2X4XwX4X2X4X2X2X2X2X5X5X5X4X5X5XaX5X5X5X5X7X5XaX5X7X7X7X7X7X7X7X7X7XzXzXzXzXzXzX6Xz.  ",
"k.7 y y y y y y 6 6 6 6 5 5 6 6 5 5 5 5 5 5 5 5 5 5 5 5 5 5 5 5 5 5 5 5 6 5 5 5 5 5 6 5 5 6 6 6 5 6 6 6 6 6 5 6 y 6 y y y 5 X   "
};
