/* XPM */
static char *_a9397ed01d64ebcf413c0a521d4f64b15cfPDzs6By1ewAe[] = {
/* columns rows colors chars-per-pixel */
"64 64 256 2 ",
"   c #302C19",
".  c #333132",
"X  c #460000",
"o  c #490000",
"O  c #570900",
"+  c #582414",
"@  c #6D2600",
"#  c #6E2B00",
"$  c #782906",
"%  c #6D3400",
"&  c #50342E",
"*  c #463834",
"=  c #6A3830",
"-  c #2C621E",
";  c #335137",
":  c #116F2C",
">  c #575F1D",
",  c #59452A",
"<  c #534735",
"1  c #654A2A",
"2  c #694639",
"3  c #78483B",
"4  c #725532",
"5  c #776935",
"6  c #392F4E",
"7  c #313461",
"8  c #4A2B4A",
"9  c #482B53",
"0  c #512D52",
"q  c #2C5953",
"w  c #464646",
"e  c #584946",
"r  c #535252",
"t  c #70534C",
"y  c #53735A",
"u  c #736456",
"i  c #54586C",
"p  c #6F556B",
"a  c #756D70",
"s  c #8D2C00",
"d  c #882C0A",
"f  c #982E00",
"g  c #8C3506",
"h  c #983605",
"j  c #892E18",
"k  c #A43300",
"l  c #A93600",
"z  c #A93900",
"x  c #AC3A00",
"c  c #993B27",
"v  c #DD2E23",
"b  c #8D4700",
"n  c #944501",
"m  c #944B00",
"M  c #915600",
"N  c #AA4300",
"B  c #B54500",
"V  c #A35B00",
"C  c #B75502",
"Z  c #BE5C00",
"A  c #B85C1A",
"S  c #9C6F00",
"D  c #AB6700",
"F  c #BF6300",
"G  c #BA6802",
"H  c #AE7707",
"J  c #854B3D",
"K  c #934A37",
"L  c #B14F38",
"P  c #917038",
"I  c #B37226",
"U  c #BA7837",
"Y  c #C65D00",
"T  c #CB6500",
"R  c #C76900",
"E  c #C87600",
"W  c #D47900",
"Q  c #DB6410",
"!  c #E36D00",
"~  c #E37300",
"^  c #E37A00",
"/  c #C65538",
"(  c #C67332",
")  c #A33754",
"_  c #E73945",
"`  c #884D43",
"'  c #974A49",
"]  c #8A5447",
"[  c #935344",
"{  c #975749",
"}  c #8A5955",
"|  c #A84A44",
" . c #B04C44",
".. c #A55649",
"X. c #B85646",
"o. c #916B52",
"O. c #A96953",
"+. c #9A556A",
"@. c #89746A",
"#. c #90726A",
"$. c #947C74",
"%. c #A67770",
"&. c #CE5847",
"*. c #CA6D4A",
"=. c #D37C4A",
"-. c #ED6B50",
";. c #E95D64",
":. c #0D9137",
">. c #1C9235",
",. c #679B35",
"<. c #72A53B",
"1. c #20A24C",
"2. c #4FAB4A",
"3. c #72AC4C",
"4. c #5F9F60",
"5. c #6DB56E",
"6. c #09CC4A",
"7. c #2FD85C",
"8. c #0CE755",
"9. c #5CCC69",
"0. c #9E940B",
"q. c #AE8F03",
"w. c #8D9037",
"e. c #AD8E2C",
"r. c #8FA63E",
"t. c #B5A730",
"y. c #D68600",
"u. c #CD9209",
"i. c #E28400",
"p. c #EB8700",
"a. c #E28D00",
"s. c #E19500",
"d. c #F29E00",
"f. c #D8AD0A",
"g. c #E1A800",
"h. c #E5B500",
"j. c #C78339",
"k. c #C7AE2D",
"l. c #DBC316",
"z. c #92954A",
"x. c #B28C4D",
"c. c #8AAC53",
"v. c #AAAB5B",
"b. c #9A857A",
"n. c #899570",
"m. c #A78D78",
"M. c #93AD72",
"N. c #CA8643",
"B. c #D58946",
"V. c #D7934B",
"C. c #E2944C",
"Z. c #F18B5D",
"A. c #D59E66",
"S. c #D1B370",
"D. c #A6C25C",
"F. c #32539C",
"G. c #1C4DA7",
"H. c #4D528A",
"J. c #6A5C98",
"K. c #576A8D",
"L. c #6F708A",
"P. c #5372B0",
"I. c #6B73AF",
"U. c #3668D0",
"Y. c #3B68D5",
"T. c #316CE7",
"R. c #3672E7",
"E. c #3171EC",
"W. c #3373ED",
"Q. c #3973EE",
"!. c #3B7AEF",
"~. c #4C71D1",
"^. c #6C74D2",
"/. c #4578E7",
"(. c #4273EE",
"). c #427BEF",
"_. c #5279E9",
"`. c #427BF5",
"'. c #4A7CF1",
"]. c #6275E4",
"[. c #946591",
"{. c #A77792",
"}. c #946BA9",
"|. c #906DB0",
" X c #D7768F",
".X c #8E67C2",
"XX c #328FAE",
"oX c #648FA5",
"OX c #6A85B7",
"+X c #7590B7",
"@X c #50ADA6",
"#X c #4D84D5",
"$X c #748DCF",
"%X c #79A4D1",
"&X c #4D85EB",
"*X c #4482F7",
"=X c #4A84F6",
"-X c #4A86F8",
";X c #4E89FB",
":X c #538CFD",
">X c #5B92FE",
",X c #6E97EB",
"<X c #6598FE",
"1X c #72A3FA",
"2X c #79A7FE",
"3X c #918C8D",
"4X c #AA8F8E",
"5X c #8FB594",
"6X c #ACA596",
"7X c #8E92B0",
"8X c #AE98AC",
"9X c #92A8B5",
"0X c #ACAEAF",
"qX c #B5B9B6",
"wX c #D8A893",
"eX c #CAB3B3",
"rX c #99CBA1",
"tX c #B2CBB6",
"yX c #EED98D",
"uX c #F1D18C",
"iX c #D2C7B3",
"pX c #E6CCB7",
"aX c #8597CC",
"sX c #94ACD5",
"dX c #AAB9D0",
"fX c #8DB1F2",
"gX c #8AB4FC",
"hX c #96BCFD",
"jX c #A0B6E8",
"kX c #BAC8C8",
"lX c #B3C7D4",
"zX c #9CC3FF",
"xX c #B3DBE3",
"cX c #A4C8FE",
"vX c #B2CDF0",
"bX c #B8D7FD",
"nX c #C8CDCD",
"mX c #D7DAD8",
"MX c #F1D0C7",
"NX c #DBE4DB",
"BX c #E3E4DC",
"VX c #C6D9EE",
"CX c #D8E7E9",
"ZX c #CBE8F0",
"AX c #C6E4FE",
"SX c #CDEBFE",
"DX c #D3ECFB",
"FX c #D7F1F6",
"GX c #D5F2FF",
"HX c #DBF5FE",
"JX c #DDFAFF",
"KX c #E7EAE6",
"LX c #EBF1EC",
"PX c #E9F6F8",
"IX c #E4FEFF",
"UX c #F0F4F2",
/* pixels */
"g G g.g.a.s.g.g.h.g.g.g.s.s.s.a.a.a.a.a.a.a.s.a.a.a.a.p.i.a.i.a.i.i.i.i.y.i.i.^ i.^ i.^ y.a.i.^ y.a.s.s.g.g.g.s.s.y.i.^ ^ Y g O ",
"G W D M n n M M M M M M m M m m m m m m m m m m m m m n n m n n n m n n m m n n n n n n n m b g n n b M b M M b M b h h g T C @ ",
"Z Y g s $ s h d N h N n n h c h h j h f h h h j h j j h h j d d h f d d d d d d d d d d d d d j d d d d d d f d $ $ $ O f ! C @ ",
"C C s d 8 9 9 6 0 0 0 0 0 0 0 0 0 0 0 0 0 0 0 0 0 0 0 0 0 9 9 9 8 8 9 9 0 9 9 0 9 9 9 9 9 9 6 9 6 9 9 9 9 9 9 8 6 6 9 8 A p.R # ",
"B B N K F.U.G.T.U.U.U.U.Y.Y.Y.U.Y.U.Y.Y.Y.Y.~.Y.~.Y.Y.Y.~.Y.Y.~.J.~.~.Y.Y.Y.~.R.Y.Y.~.Y.~.Y.Y.Y.Y.Y.Y.Y.Y.U.U.U.U.U.U.[.L a.E % ",
"N B N L G.T.T.T.T.T.T.R.Q.R.R.R.Q.Q.(.(.(.(.Q.(.(.(.).).`.!.(./.[.J.~.(.`.).).).).).!.`.Q.(.(.(.(.(.(.Q.R.R.R.R.T.T.T.}./ a.u.% ",
"N B C X.G.T.T.T.T.T.R.R.R.Q.(.Q.Q.Q.(.(.(.(.(.(.`.(.`.).`.)./.J.) ) .X(.).).).).).).).).(.`.(.(.(.(.(.Q.(.Q.Q.Q.R.R.R.}.&.p.G % ",
"z B B | G.T.T.T.T.T.R.R.R.Q.Q.Q.Q.(.(.(.(.(.(.).(.`.).).).)._.[._ _ [.].).).).).).).).`.(.(.(.(.(.(.(.`.Q.Q.Q.Q.!.R.W.}.L a.G % ",
"x B B | G.T.T.T.T.T.R.Q.Q.Q.Q.Q.Q.Q.(.(.`.(.).).).).'.(.(.(.^.) v v _ .X_.(.'.).).).).).).).).).).).(.(.Q.Q.Q.Q.W.Q.R.}.X.^ R % ",
"h x B | G.T.T.T.T.T.E.Q.Q.Q.Q.Q.Q.(.(.'.).).).).).).(.(.(.].) v v v _  X^.(.`.).).).).).).).).).).).).(.Q.Q.Q.Q.Q.Q.Q.|.X.^ R % ",
"h x N | G.T.T.T.T.E.E.Q.Q.Q.Q.Q.!.).).).).).).).).).(.(.Y.H.= $ j j j ) J.~.).).).).).).).*X).).).).).).(.Q.Q.Q.Q.Q.Q.}.X.^ G % ",
"k x x K G.T.E.E.E.E.Q.Q.Q.Q.Q.Q.!.).).).).).).).).).(.(.F.8 & , 2 2 = + 9 F.R.).).).).).).).).).).).`.'.`.!.!.Q.Q.W.Q.}.X.~ R # ",
"h x B  .G.W.W.E.W.W.Q.Q.Q.Q.!.!.!.).).).).).).).).).)./.U.7 8 < 4 o.o.e H.U.'.'.).).).).).).).).).).`.).).!.!.!.Q.Q.Q.}.X.~ R # ",
"h x x | G.W.W.W.W.Q.Q.Q.Q.W.!.!.!.).).).).).).).).).).).~.U.H.t x.A.A.}.~.R.`.`.).`.).).).).).).).).).).).!.!.!.Q.Q.Q.}.X.^ R # ",
"f l B | G.W.W.W.W.Q.Q.Q.!.!.!.!.).).).).).).).).).).).)./.~.J.` O.Z.A.}.^.-X`.`.).).).).).).).`.`.).).).).).`.!.).Q.Q.}.X.W F # ",
"f l x | G.W.W.W.Q.Q.Q.Q.!.`.!.`.).).).).`.`.`.).)./.R.~.H.J.' L ( -.Z.wX X X^.'.`.`.).).).).).`.`.).).).).).`.!.!.!.Q.}.X.! Z @ ",
"s k x | G.W.W.Q.Q.Q.!.!.!.`.).).`.`.`.`.`.`.`.`.`.`.Y.i 6 = K L / &.-.-.;.;.}.,X`.`.`.).`.`.`.!.`.`.`.`.`.`.`.).!.!.!.}.X.~ Y # ",
"f l x | G.Q.Q.Q.W.!.!.!.!.`.`.`.`.`.`.`.`.`.`.`.`.`./.7 X + = j L L &.-.-.-.{.].'.`.`.`.`.`.`.*X`.`.`.`.`.`.`.`.).!.!.}.X.W T # ",
"s l B | G.W.Q.!.!.!.!.!.`.).`.`.`.`.`.`.`.`.`.`.!.`.Y.6 . + & = 1 K K L / *.{.|.I.$X&X'.`.`.*X!.`.!.`.`.`.`.`.`.).).!.|.X.! Z @ ",
"f k x | G.!.!.!.!.!.!.`.).`.`.`.`.`.`.`.*X*X`.*X*X*X!.F..   = P P P P 4 4 x.A.S.m.$.I.&X*X*X*X*X*X*X`.`.`.`.`.`.`.).!.}. .~ Z # ",
"f l x ' U.=X*X!.!.!.!.`.`.!.*X!.!.!.*X*X*X*X*X*X*X-X*X~.i < 5 w.A.A.P 1 , 5 z.m.4XL.~.&X*X-X*X*X-X*X`.*X!.`.`.`.`.`.`.|.X.! Y # ",
"s l B | P.1X<X;X-X!.!.`.`.!.!.*X*X*X*X*X*X-X-X-X-X-X=X/.H.2 4 o.x.x.5 , 4 i P.^.$X~.).*X-X*X-X-X-X*X*X*X*X*X!.!.`.`.`.|.X.W F # ",
"s k N ..+XcXhX2X>X`.`.!.`.*X!.*X*X-X=X=X=X=X-X*X~.P.aX$Xi * , 4 5 4 1 1 t P._.=X=X=X=X=X-X-X-X*X-X-X*X-X*X*X*X*X`.`.`.|.X.W F # ",
"s l N O.9XGXbXcXgX>X`.*X*X*X*X*X*X-X=X=X=X=X=X/.H.a m.a r < , , 1 1 1 1 @.^.&X=X=X=X=X=X-X-X-X-X*X-X-X-X-X-X*X*X`.`.`.|.X.! F # ",
"f k x ..9XIXGXxX%XXXXXXXXXXX#XW.*X*X-X-X-X;X;X~.K.a a u r < , 1 4 4 4 1 @.$X*X*X*X-X;X;X;X;X;X;X;X;X-X*X=X=X=X=X;X:X>X|.X.! Z # ",
"s k x ..0XIXZX9X4.q q 1.1.:.1.XX#X-X;X;X>X>X<X$XL.p r r < < , o.5 P o.e.m.,X-X-X;X;X:X>X:X>X<X<X<X>X;X;X;X;X;X;X<X2X2X8X*.! Z @ ",
"s k x ..9XIXVX9X- - - - > > >.q XX>X>X<X1XgXgX%XL.K.H.r w < t x.x.S.S.S.wX,X:X:X:X:X>X1X1X<X2X2X2X1X>X>X>X>X:X>XgXcXbXeX*.~ G # ",
"s l x ..9XSXZXlXa       - , 4 K.$X2X2XgXhXcXzXjXjXaXP.r 8 * 4 x.S.uXyXyXiX,X:X:X:X>X1XgXzXzXzXcXcXgXgX2X2X2X<X2XhXbXSXiX*.~ G # ",
"s k x ..9XSXDXZXkX9Xa y i L.OX%XzXcXcXcXvXlXbXbXbXbXsXOXP.r 5 x.S.uXyXyXiX,X>X>X>X<XgXcXbXAXAXbXbXbXcXcXcXhX2XgXbXDXIXpX=.^ G # ",
"s f x ..9XSXGXHXFXCXlXkXlXdXjXcXbXSXSXbXvXdXDXHXGXVXsX%XI.a o.m.S.uXyXuXwXaX$X,X>X2XzXAXGXGXGXGXSXAXAXAXAXbXzXbXSXJXIXpX=.~ R % ",
"s f l ..9XSXDXHXHXIXPXPXHXGXAXAXHXJXJXDXxXqXFXDXlXaXoXL.$.$.$.b.m.wX4XwX4X3X+X7XaXfXbXSXJXJXJXJXGXGXGXJXJXSXAXSXJXIXIXpX=.~ G # ",
"s f l | 9XAXGXHXPXIXIXIXIXJXGXGXIXIXIXHXVXdXHXxXa r e u @.#.$.@.@.%.$.n.b.a b.{.7XfXbXGXJXJXIXJXJXGXJXJXIXHXDXHXIXIXIXpX=.^ G # ",
"s k z ..9XSXGXHXIXIXIXIXIXIXJXIXIXIXIXJXCXdXFXvXi   . r @.@.@.u u @.@.@.@.$.b.b.3XjXbXDXHXIXIXIXJXJXJXIXIXIXIXIXIXIXIXpX=.^ T # ",
"s f k ' 9XSXSXGXHXIXIXIXIXIXIXIXIXIXIXIXCXdXFXxXu e < e u p u @.#.$.$.$.@.$.4Xm.4XsXvXAXDXIXIXIXJXIXIXIXIXIXIXIXIXIXIXpX=.~ Y # ",
"s f k { +XAXSXDXGXJXIXIXIXIXIXIXIXIXIXIXCX9XlX0X@.a t e u t u #.m.4X4Xb.#.$.b.m.3X8XdXlXSXJXJXJXIXIXIXIXIXIXIXIXIXIXIXpX=.! Y @ ",
"s k z { 9XAXDXGXGXJXHXIXIXIXIXIXIXIXIXIXCX9X3X3Xb.b.r t a r e u $.$.m.b.$.$.b.4X4X$.3X9XVXHXIXJXIXIXIXIXIXIXIXIXIXIXIXpX=.! Z # ",
"f f l ..9XAXSXGXGXHXHXJXJXJXJXJXIXIXIXIXZX7Xu $.m.b.t t } t * e u @.@.m.#.@.$.b.$.#.$.{.VXGXIXIXIXIXIXIXIXIXJXJXJXHXHXpXB.! Y # ",
"f k k ..9XSXSXDXGXDXGXGXHXJXHXIXIXIXPXCXlXa r $.$.o.} ] o.] t t } u @.%.%.O.O.O.O.O.O.%.8XnXDXPXIXIXIXIXIXIXIXJXHXHXGXpX=.! Y @ ",
"f f l ..+XAXAXSXSXSXDXGXHXJXJXJXJXIXFX0Xa e 2 #.o.] J ] { { ` ] } } } o.o.O.O.{ O.{ O...#.4XdXDXIXIXIXIXJXJXJXJXJXHXDXpXB.! Z @ ",
"d k l ' 7XbXAXAXAXAXSXGXGXHXPXHXHXCXkXL.& = 3 { { J J J ` J 3 t 3 t J ` ` ] ] { { { { ' ....4XnXFXHXJXJXHXHXJXJXJXGXSXpX=.! Z # ",
"s f l ' +XbXbXbXAXAXSXDXGXJXFXVXlX0X3Xt J ` ` [ ` ] K J J 3 2 2 2 = J J ` J 3 { { { 3 J [ { O.4XVXDXPXHXHXGXGXIXHXGXDXpX=.! Y @ ",
"s k k | +XcXbXbXbXAXAXSXSXVXdX8X[.} ] ] ' [ { [ 3 { ] ` J 2 2 < & & [ { ] ` 3 ] { { 2 = = J ' 4XmXKXCXDXPXPXFXGXGXDXAXpX*.! Y @ ",
"s f l ' OXcXcXbXbXAXAXAXvXsXa } J K ] [ [ [ [ 3 3 [ [ J ] t t 4 & & ] { { J 3 ` ] [ = + & 2 4XeXmXBXBXUXUXKXmXAXSXDXAXeX=.! Z @ ",
"s f k ' OXcXbXcXbXbXbXbXlXL.& K [ { { [ [ K J = J K [ } o.$.#.t . < J ..L t 3 ` { K = & u 3XiXmXBXBXBXUXUXUXkXkXvXvXAXeX*.~ Z @ ",
"s f z ' OXzXzXcXcXbXbXbXjXK.= } } { ] ' [ K = , 4 ` { o.#.m.b.r * * 3 K { J t ` ] ` = t 6XnXBXKXKXKXKXUXUXLXnX9X7XaXvX8XX.! Y @ ",
"f h k ' +XhXhXhXzXzXzXhXfXK.& } } ] ] ` J 2 < >.2.,.o.o.%.4X$.< * * 2 3 J 3 = 3 ] ] @.6XnXmXBXKXUXUXUXKXLXLXiX0X8X4XdX8X .! Z @ ",
"s k k ' +XcXcXhXgXhXhXfX+Xi & } ] } ] ] 3 . >.6.8.7.3.#.m.4Xu * . * = 3 4 3 t t } $.0XmXBXBXBXBXLXUXUXKXNXMXuXuXS.v.dX3X| ! Z # ",
"f f h ' OXzXcXhXhXhXcXdX7Xr < } p } } ` < - :.6.8.7.7.z.4X$.e * * & , = 3 t p p 4XtXmXBXKXUXLXKXLXKXKXpXiXS.S.D.r.v.0X3X .! Z # ",
"s k h ' OXzXzXcXvXbXVXnXdXL.r @.a L.L.p . : :.6.8.8.7.9.v.@.& . * * = 3 t L.J.7XqXBXBXKXLXUXUXUXKXtXtXD.c.z.r.e.w.e.0X{. .Q T % ",
"f k k ' P.gXzXbXVXKXNXmXdX#XF.P.P.P.~.H.q : :.6.6.8.8.9.oXi 6 . . 6 & 2 p I.sXnXmXBXBXBXLXUXUXBXtX5XM.3.<.t.N.x.U U 0X{. .^ G % ",
"f k f ' OXgXjXkXmXKXKXmXjX,X1X,X,X&X!.G.: : :.6.6.8.8.7.@XOXP.K.K.p p #.[.dXmXCXBXBXNXKXUXUXKX0X5.M.z.w.N.V.C.C.=.U 8X8X| ^ E # ",
"f k f ' +XfX$X3XqXmXKXNXVXVXvXvXvX9XXXK.q : :.6.6.6.7.9.dXlXdXdX8X4XwXeXtXmXKXKXBXBXBXLXUXLXtX5.4Xv.x.N.B.C.C.C.N.N.0X{. .^ G % ",
"h k h ' OXgXOXw a 0XmXnXeXtXdXnXkX3Xi r ; ; - : : 4.5.0XkXlXkXqX;. XMXMXnXmXmXBXBXLXKXKXZXrX5.4.M.A.N.B.B.C.C.j.B.C.wX{. .^ E # ",
"z x f ' OX1XP.  < oXiXtX0X6X6XqX0Xy w w w w ; ; 4 oX9XtXtX5X5.z.*.;.wXwXiXnXkXtXnXNXNXtXrX4.5.M.v.x.B.B.C.C.C.C.C.B.eX4X .^ G % ",
"h N s ` P.1XP.. < L.0X0X8X3X3X4.4.r ; q ; ; ; 5 v.oXrXrX5Xa :.- | &.;.;.5XrX0XrXrXtXrX9.5.3.c.M.z.=.N.V.C.V.B.V.B.B.8X{. .p.E % ",
"N N s ' P.,XP.. 0 4.0X0X6X@.y y y - y ; - > P z.D.5.9.2.2.>.5 0.I ( j.v.5.4.9.9.5.5.9.c.v.c.3.z.e.=.N.C.B.( B.B.V.N.8X{.L p.H % ",
"B B s ' P.,XP.. w [.qX0X3Xr : : >.u w.5 w.0.k.r.D.2.2.1.1.<.k.l.l.f.t.3.,.2.<.2.c.c.c.c.3.c.z.e.U j.V.V.( x.N.=.B.N.4X{.L p.E % ",
"B x s ' XX,XP.. < oX0X0X3Xw   : > S k.0.e.k.t.w.2.2.2.,.2.<.t.k.l.l.t.t.r.3.c.3.3.3.3.3.<.D.e.=.N.U N.j.N.j.U U U N.8X[.L ^ E % ",
"B B s ' I.$XL., 4 b.6X4X@.3 1 1 4 q.u.e.f.l.t.w.,.<.w.w.<.r.e.t.k.k.k.t.r.<.c.<.,.<.3.e.k.j.j.( j.j.( ( ( U U I U ( 4X{./ p.E % ",
"N N f c +.{.+.A I O.x.*.U I C V C H E u.u.f.q.e.e.q.( e.q.e.j.I k.u.j.t.e.I e.e.I I I I ( ( Q ( A ( A / A A A A A ( *.&.Q d.q.% ",
"h N C W u.u.y.E E R R E R R R W T T T T T Y T T R T T T T T T T T T T Y R R Y Y Y Y Y Y Y Y T R Y Y T T R R R R R R E s.s.h.u.% ",
"g N E h.l.h.f.f.s.s.y.y.y.W W W E E W E W R W E E W R E R R R W y.W R W W W W W W W y.y.W y.W y.y.y.y.y.y.y.y.u.s.g.f.h.l.h.0.% ",
"@ $ S q.0.0.q.q.q.H H H D D D D D D D V V V V D V D V D V V V D G D V D D D D D D D D D D D D D D H H D H D H S q.q.q.q.q.S % o ",
"@ o X X X X X X X X X X o o o o X X X X o o X X X o X X X o X X X X o X X X X X X X X X X X X X X X o o X X X X X X X X o o o O "
};
